<?xml version="1.0" encoding="utf-8"?>
<!-- Generator: Adobe Illustrator 16.0.0, SVG Export Plug-In . SVG Version: 6.00 Build 0)  -->
<!DOCTYPE svg PUBLIC "-//W3C//DTD SVG 1.1//EN" "http://www.w3.org/Graphics/SVG/1.1/DTD/svg11.dtd">
<svg version="1.1" id="Layer_3" xmlns="http://www.w3.org/2000/svg" xmlns:xlink="http://www.w3.org/1999/xlink" x="0px" y="0px"
	 width="64.068px" height="33.417px" viewBox="35.051 0.393 64.068 33.417" enable-background="new 35.051 0.393 64.068 33.417"
	 xml:space="preserve">
<g>
	<path fill="none" stroke="#FFFFFF" stroke-miterlimit="10" d="M38.063,2.394c0.611,1.104-0.031,3.181-0.119,4.54
		c-0.2,3.116-0.565,6.152-0.985,9.238c-0.343,2.522-1.025,5.003-1.106,7.542c-0.053,1.656-0.339,3.787,0.632,5.178
		c1.18,1.689,3.925,1.948,5.805,2.22c5.107,0.735,10.919,0.4,16.023,0.148c5.926-0.292,11.937,0.553,17.869,0.821
		c4.206,0.189,8.391,0.581,12.584,0.956c0.864,0.077,6.52,1.022,4.889-1.11"/>
	<path fill="none" stroke="#FFFFFF" stroke-miterlimit="10" d="M37.906,1.446c1.978,0.681,4.822,0.749,6.949,0.79
		c4.96,0.096,9.924,0.474,14.888,0.667C67.54,3.206,75.508,3.563,83.27,2.859c3.28-0.298,8.433-2.38,11.336-0.035
		c2.816,2.275,1.475,8.09,1.417,11.162c-0.064,3.485-0.278,7.004-0.473,10.483c-0.132,2.353-1.807,6.265-0.948,8.405"/>
	<path fill="none" stroke="#FFFFFF" stroke-miterlimit="10" d="M37.59,2.394c3.232,3.64,8.623,5.78,12.593,8.503
		c5.13,3.519,9.691,7.65,14.852,11.084c1.333,0.886,2.131,1.387,3.664,0.666c2.837-1.332,5.663-4.203,8.221-6.163
		c4.66-3.571,9.546-6.54,14.411-9.827c1.522-1.029,2.77-2.437,4.221-3.474"/>
	<path fill="none" stroke="#FFFFFF" stroke-miterlimit="10" d="M36.959,2.708c1.054,0.299-0.639,13.769-0.632,16.425
		c0.006,2.625-1.004,6.454-0.159,8.845"/>
	<path fill="none" stroke="#FFFFFF" stroke-miterlimit="10" d="M37.59,2.867c0.707,1.927-0.152,5.066-0.28,7.006
		c-0.171,2.569-0.303,5.136-0.553,7.695c-0.171,1.74-0.42,3.45-0.58,5.174c-0.195,2.098-1.061,6.417,0.782,7.92"/>
	<path fill="none" stroke="#FFFFFF" stroke-miterlimit="10" d="M37.748,2.551c7.558-0.625,15.767-0.158,23.409,0.438
		c5.194,0.405,10.504,0.199,15.723,0.193c5.023-0.006,10.164,0.562,15.196,0.315c1.012-0.05,2.614,0.028,3.568-0.315
		c-0.361-0.233-0.747-0.326-1.199-0.315"/>
	<path fill="none" stroke="#FFFFFF" stroke-miterlimit="10" d="M83.389,2.394c1.72,0.549,13.366-1.01,13.266,0.474"/>
	<path fill="none" stroke="#FFFFFF" stroke-miterlimit="10" d="M88.602,2.551c1.561,0.773,4.056-0.623,5.776,0
		c1.253,0.454,1.248,1.191,1.338,2.684c0.247,4.102-0.131,8.272-0.316,12.353c-0.146,3.229-0.335,6.564-0.641,9.758
		c-0.076,0.799-0.434,7.378-1.736,5.686"/>
	<path fill="none" stroke="#FFFFFF" stroke-miterlimit="10" d="M94.602,3.341c1.342-0.721,1.834,1.787,1.895,2.675
		c0.339,4.982-2.014,10.121-1.895,15.171"/>
	<path fill="none" stroke="#FFFFFF" stroke-miterlimit="10" d="M96.341,3.656c1.083,2.682-0.623,7.429-0.755,10.27
		c-0.153,3.268-0.364,6.401-0.826,9.636c-0.358,2.524-1.067,6.813-0.631,9.154"/>
	<path fill="none" stroke="#FFFFFF" stroke-miterlimit="10" d="M37.59,1.919c8.177,6.105,16.223,13.036,24.949,18.277
		c1.129,0.679,2.489,2.179,3.794,2.455c1.7,0.36,4.19-1.389,5.689-2.296c3.61-2.185,6.32-5.404,9.9-7.579
		c2.432-1.476,4.852-2.929,7.203-4.479c2.052-1.352,4.26-2.31,6.35-3.578c0.958-0.582,2.342-1.675,3.392-1.062"/>
	<path fill="none" stroke="#FFFFFF" stroke-miterlimit="10" d="M40.749,1.604c2.91-1.122,7.652-0.491,10.74-0.473
		c5.168,0.029,10.35,0.318,15.523,0.473c4.495,0.135,9.209,0.227,13.735,0.008c2.178-0.104,4.414-0.075,6.587-0.281
		c2.069-0.196,4.679-0.938,6.636,0.115"/>
	<path fill="none" stroke="#FFFFFF" stroke-miterlimit="10" d="M38.538,1.13c4.499,1.539,10.389,1.291,15.112,1.421
		c6.141,0.167,12.244,1.134,18.368,1.105c4.205-0.02,8.423,0.444,12.649,0.477c3.036,0.024,5.843-0.265,8.829,0.312"/>
	<path fill="none" stroke="#FFFFFF" stroke-miterlimit="10" d="M41.381,1.287c0.74,0.415,1.313,1.006,2.052,1.421"/>
	<path fill="none" stroke="#FFFFFF" stroke-miterlimit="10" d="M43.275,1.604c0.422,0.48,0.897,0.902,1.421,1.264"/>
	<path fill="none" stroke="#FFFFFF" stroke-miterlimit="10" d="M44.223,1.604c0.416,0.537,0.995,0.899,1.579,1.264"/>
	<path fill="none" stroke="#FFFFFF" stroke-miterlimit="10" d="M45.644,1.919c0.383,0.431,0.882,0.714,1.422,0.791"/>
	<path fill="none" stroke="#FFFFFF" stroke-miterlimit="10" d="M46.908,1.919c0.353,0.344,0.884,0.647,1.105,0.632"/>
	<path fill="none" stroke="#FFFFFF" stroke-miterlimit="10" d="M47.383,1.446c0.65,0.354,1.204,1.09,1.735,0.948"/>
	<path fill="none" stroke="#FFFFFF" stroke-miterlimit="10" d="M48.487,1.287c0.559,0.473,1.15,0.945,1.895,0.948"/>
	<path fill="none" stroke="#FFFFFF" stroke-miterlimit="10" d="M50.224,1.604c0.355,0.177,0.708,0.281,1.105,0.315"/>
	<path fill="none" stroke="#FFFFFF" stroke-miterlimit="10" d="M51.013,0.813c0.464,0.44,0.845,0.897,1.422,1.105"/>
	<path fill="none" stroke="#FFFFFF" stroke-miterlimit="10" d="M52.752,1.13c0.368,0.341,0.829,0.634,1.263,0.789"/>
	<path fill="none" stroke="#FFFFFF" stroke-miterlimit="10" d="M53.856,0.972c0.743,0.2,1.19,0.742,1.896,0.947"/>
	<path fill="none" stroke="#FFFFFF" stroke-miterlimit="10" d="M55.752,1.287c0.447,0.39,0.979,0.761,1.421,1.105"/>
	<path fill="none" stroke="#FFFFFF" stroke-miterlimit="10" d="M57.173,1.604c0.46,0.33,0.866,0.687,1.264,1.105"/>
	<path fill="none" stroke="#FFFFFF" stroke-miterlimit="10" d="M58.12,1.604c0.688,0.318,1.04,0.925,1.58,1.421"/>
	<path fill="none" stroke="#FFFFFF" stroke-miterlimit="10" d="M59.7,2.077c0.506,0.27,0.978,0.585,1.422,0.948"/>
	<path fill="none" stroke="#FFFFFF" stroke-miterlimit="10" d="M60.647,1.604c0.817,0.297,1.263,1.081,2.054,1.421"/>
	<path fill="none" stroke="#FFFFFF" stroke-miterlimit="10" d="M62.701,1.919c0.52,0.32,1.271,0.884,1.579,0.948"/>
	<path fill="none" stroke="#FFFFFF" stroke-miterlimit="10" d="M64.122,1.604c0.619,0.415,1.097,0.947,1.737,1.264"/>
	<path fill="none" stroke="#FFFFFF" stroke-miterlimit="10" d="M66.333,2.077c0.49,0.375,0.876,0.787,1.264,1.264"/>
	<path fill="none" stroke="#FFFFFF" stroke-miterlimit="10" d="M67.596,1.919c0.48,0.368,0.875,0.791,1.264,1.264"/>
	<path fill="none" stroke="#FFFFFF" stroke-miterlimit="10" d="M69.334,2.394c0.493,0.293,0.928,0.636,1.421,0.947"/>
	<path fill="none" stroke="#FFFFFF" stroke-miterlimit="10" d="M70.755,2.235c0.621,0.291,1.211,0.697,1.738,1.105"/>
	<path fill="none" stroke="#FFFFFF" stroke-miterlimit="10" d="M72.651,2.551c0.417,0.196,0.784,0.458,1.104,0.79"/>
	<path fill="none" stroke="#FFFFFF" stroke-miterlimit="10" d="M73.756,2.235c0.837,0.21,1.446,0.861,2.054,1.421"/>
	<path fill="none" stroke="#FFFFFF" stroke-miterlimit="10" d="M75.968,2.708c0.477,0.244,0.916,0.575,1.263,0.948"/>
	<path fill="none" stroke="#FFFFFF" stroke-miterlimit="10" d="M76.915,2.235c0.586,0.045,1.108,0.486,1.421,0.948"/>
	<path fill="none" stroke="#FFFFFF" stroke-miterlimit="10" d="M78.652,2.235c0.517,0.33,0.941,0.755,1.262,1.264"/>
	<path fill="none" stroke="#FFFFFF" stroke-miterlimit="10" d="M79.282,1.604c0.712,0.387,1.102,1.108,1.58,1.737"/>
	<path fill="none" stroke="#FFFFFF" stroke-miterlimit="10" d="M81.021,2.551c0.526,0.343,1.003,0.786,1.42,1.263"/>
	<path fill="none" stroke="#FFFFFF" stroke-miterlimit="10" d="M82.127,2.551c0.644,0.282,1.441,1.152,1.577,1.42"/>
	<path fill="none" stroke="#FFFFFF" stroke-miterlimit="10" d="M83.549,2.867c0.5,0.431,1.434,1.372,1.42,1.421"/>
	<path fill="none" stroke="#FFFFFF" stroke-miterlimit="10" d="M84.654,3.025c0.675,0.225,1.208,0.75,1.421,1.421"/>
	<path fill="none" stroke="#FFFFFF" stroke-miterlimit="10" d="M80.704,2.077c0.337,0.183,0.619,0.462,0.79,0.79"/>
	<path fill="none" stroke="#FFFFFF" stroke-miterlimit="10" d="M82.127,2.708c0.244,0.186,0.521,0.353,0.79,0.474"/>
	<path fill="none" stroke="#FFFFFF" stroke-miterlimit="10" d="M82.441,1.919c0.51,0.419,0.985,1.023,1.422,1.422"/>
	<path fill="none" stroke="#FFFFFF" stroke-miterlimit="10" d="M83.549,1.761c0.705,0.621,1.411,1.455,2.209,1.895"/>
	<path fill="none" stroke="#FFFFFF" stroke-miterlimit="10" d="M84.811,1.604c0.983,0.386,1.372,1.56,2.211,2.211"/>
	<path fill="none" stroke="#FFFFFF" stroke-miterlimit="10" d="M85.758,1.604c0.738,0.533,1.591,1.943,2.212,1.896"/>
	<path fill="none" stroke="#FFFFFF" stroke-miterlimit="10" d="M86.864,1.761c0.764,0.382,1.405,1.247,2.025,1.959
		c0.325,0.292,0.041-0.087,0.028-0.222"/>
	<path fill="none" stroke="#FFFFFF" stroke-miterlimit="10" d="M87.495,1.604c0.924,0.606,1.812,1.994,2.528,2.368"/>
	<path fill="none" stroke="#FFFFFF" stroke-miterlimit="10" d="M88.918,1.919c0.792,0.701,1.309,1.708,2.054,2.369"/>
	<path fill="none" stroke="#FFFFFF" stroke-miterlimit="10" d="M89.707,1.761c1.034,0.984,1.887,2.372,3,3.159"/>
	<path fill="none" stroke="#FFFFFF" stroke-miterlimit="10" d="M91.445,2.394c1.087,0.582,1.518,1.834,2.356,2.66
		c0.012-0.213-0.038-0.415-0.147-0.607"/>
	<path fill="none" stroke="#FFFFFF" stroke-miterlimit="10" d="M92.865,2.551c0.543,0.62,1.117,1.44,1.737,1.895"/>
	<path fill="none" stroke="#FFFFFF" stroke-miterlimit="10" d="M93.181,1.604c0.834,0.298,1.734,1.51,1.896,2.053"/>
	<path fill="none" stroke="#FFFFFF" stroke-miterlimit="10" d="M94.602,1.919c1.003,0.523,2.306,1.957,2.685,3.001"/>
	<path fill="none" stroke="#FFFFFF" stroke-miterlimit="10" d="M41.538,1.604c0.609,0.205,1.079,0.086,1.71,0.143
		c2.711,0.246,5.396,0.652,8.115,0.808c4.353,0.249,8.714,0.729,13.074,0.786"/>
	<path fill="none" stroke="#FFFFFF" stroke-miterlimit="10" d="M45.012,1.761c5.813,1.02,11.494,1.356,17.372,1.738"/>
	<path fill="none" stroke="#FFFFFF" stroke-miterlimit="10" d="M35.695,28.609c-0.323,3.889,19.845,2.893,22.728,3.036
		c7.676,0.382,15.064,1.028,22.682,1.395c4.104,0.197,8.303,0.173,12.37-0.032c0.172-0.633,0.261-1.353,0.18-2.029"/>
	<path fill="none" stroke="#FFFFFF" stroke-miterlimit="10" d="M39.169,2.867c-0.271-0.221-0.522-0.32-0.733-0.62
		c5.901,6.059,13.329,10.62,20.321,15.307c1.679,1.126,3.325,2.398,4.892,3.668c0.796,0.645,1.681,2.019,2.526,2.334"/>
	<path fill="none" stroke="#FFFFFF" stroke-miterlimit="10" d="M65.07,22.766c1.24-0.071,2.21-0.333,3.315-1.264"/>
	<path fill="none" stroke="#FFFFFF" stroke-miterlimit="10" d="M36.642,2.708c0.549,2.297,0.079,4.996-0.071,7.313
		c-0.232,3.585-0.197,7.505-1.034,11.007"/>
	<path fill="none" stroke="#FFFFFF" stroke-miterlimit="10" d="M37.59,3.656c0.25,3.324-0.66,6.976-0.796,10.364
		c-0.128,3.188-0.109,6.395-0.305,9.577c-0.058,0.934-0.302,2.544-0.478,3.141c-0.001-0.271-0.008-0.542-0.001-0.813"/>
	<path fill="none" stroke="#FFFFFF" stroke-miterlimit="10" d="M38.695,1.761c2.293,2.221,5.325,3.999,7.918,5.859
		c6.519,4.679,12.762,9.865,18.931,14.988"/>
	<path fill="none" stroke="#FFFFFF" stroke-miterlimit="10" d="M95.391,4.446c-0.522,0.77-1.342,1.062-2.141,1.556
		c-2.03,1.255-4.097,2.709-6.003,4.143c-1.637,1.23-3.425,2.145-5.122,3.295c-4.072,2.759-8.249,5.037-12.002,8.379"/>
</g>
</svg>
