<?xml version="1.0" encoding="utf-8"?>
<!-- Generator: Adobe Illustrator 16.0.0, SVG Export Plug-In . SVG Version: 6.00 Build 0)  -->
<!DOCTYPE svg PUBLIC "-//W3C//DTD SVG 1.1//EN" "http://www.w3.org/Graphics/SVG/1.1/DTD/svg11.dtd">
<svg version="1.1" id="Layer_2" xmlns="http://www.w3.org/2000/svg" xmlns:xlink="http://www.w3.org/1999/xlink" x="0px" y="0px"
	 width="30px" height="30px" viewBox="0 0 30 30" enable-background="new 0 0 30 30" xml:space="preserve">
<g>
	<path fill="#FFFFFF" d="M17.143,12.818c-0.926,0.005-3.194,0.372-3.539-0.828c-0.263-0.907,0.729-2.04,1.454-2.394
		C16,9.138,17.223,9.354,18.201,9.562c0.131,0.028,0.396-0.166,0.199-0.209c-2.115-0.451-4.427-0.303-5.111,2.117
		c-0.544,1.926,2.71,1.575,3.732,1.57C17.168,13.041,17.371,12.817,17.143,12.818"/>
	<path fill="#FFFFFF" d="M18.668,6.397c-1.203,0.107-2.43-0.081-3.632-0.131c-0.828-0.034-2.029-0.131-2.762,0.35
		c-1.795,1.178-1.802,3.883-2.062,5.777c-0.226,1.635-0.337,3.286-0.487,4.933c-0.106,1.183-0.282,2.413-0.217,3.604
		c0.104,1.867,1.627,1.972,3.205,1.828c0.075-0.006,0.167-0.047,0.188-0.127c0.61-2.389-0.306-4.713-0.175-7.115
		c-0.077,0.043-0.153,0.086-0.23,0.129c1.319,0.22,2.866,0.57,4.137-0.022c0.209-0.101,0.021-0.253-0.145-0.177
		c-1.167,0.549-2.653,0.181-3.872-0.023c-0.071-0.013-0.226,0.037-0.23,0.127c-0.084,1.554,0.276,3.074,0.396,4.617
		c0.041,0.529,0.222,2.359-0.526,2.41c-0.568,0.037-1.188,0.029-1.711-0.225c-0.763-0.371-0.718-1.427-0.696-2.132
		c0.046-1.539,0.23-3.078,0.369-4.612c0.131-1.431,0.287-2.852,0.47-4.275c0.15-1.203,0.316-2.438,0.866-3.534
		c0.713-1.423,2.213-1.355,3.599-1.299c1.155,0.048,2.323,0.225,3.479,0.119C18.811,6.604,18.898,6.376,18.668,6.397"/>
	<path fill="#FFFFFF" d="M19.109,6.621c0.146,0,0.35-0.225,0.123-0.225C19.086,6.396,18.883,6.621,19.109,6.621"/>
	<path fill="#FFFFFF" d="M21.625,2.402c-1.619,0.178-3.27-0.027-4.885-0.189c-1.878-0.189-3.755-0.394-5.647-0.41
		C8.256,1.776,5.064,2.254,3.477,4.881c-1.678,2.778-1.639,6.578-1.651,9.705C1.814,17.877,2.1,21.168,1.93,24.457
		c-0.024,0.516-0.309,1.948,0.518,2.047c0.402,0.049,0.819-0.017,1.224-0.028c1.153-0.039,2.295,0.213,3.435,0.356
		c2.849,0.354,5.724,0.457,8.588,0.616c2.352,0.134,4.654,0.523,6.998,0.705c1.643,0.125,3.262-0.078,4.492-1.26
		c1.016-0.975,0.658-2.57,0.551-3.807c-0.484-5.443-0.988-11.013-0.639-16.477c0.062-0.979,0.295-2.093,0.018-3.06
		c-0.182-0.62-0.83-0.824-1.396-0.95c-2.568-0.579-5.486-0.812-8.096-0.376c-0.176,0.03-0.264,0.269-0.033,0.229
		c2.326-0.392,4.668-0.107,6.982,0.204c0.648,0.089,1.537,0.13,2.018,0.642c0.471,0.502,0.297,1.506,0.262,2.115
		c-0.152,2.688-0.236,5.337-0.111,8.029c0.121,2.635,0.355,5.262,0.535,7.893c0.07,1.039,0.154,2.076,0.236,3.117
		c0.068,0.864,0.01,1.682-0.604,2.35c-1.633,1.785-4.629,1.104-6.717,0.802c-2.584-0.377-5.208-0.427-7.812-0.574
		c-1.377-0.078-2.752-0.178-4.123-0.314c-1.275-0.127-2.545-0.395-3.824-0.467c-0.527-0.029-1.055,0.016-1.582,0.037
		c-0.61,0.027-0.608-0.43-0.611-0.934c-0.01-1.447,0.104-2.89,0.073-4.341c-0.082-3.629-0.313-7.269,0.06-10.889
		c0.168-1.631,0.473-3.29,1.191-4.778C4.31,3.792,5.658,2.872,7.294,2.419c3.594-0.991,7.587-0.09,11.222,0.194
		c1.021,0.08,2.055,0.128,3.072,0.017C21.771,2.61,21.855,2.378,21.625,2.402"/>
	<path fill="#FFFFFF" d="M8.2,3.687c-0.149-1.369-1.604-0.56-2.265-0.077c-1.129,0.826-2.579,2.21-2.946,3.612
		C2.95,7.372,3.268,7.27,3.315,7.209c0.647-0.86,1.117-1.854,1.68-2.771c0.582-0.947,1.584-2.643,2.916-2.37
		c-0.002,0,0.611,0.25,0.521,0.282C8.048,2.49,7.672,2.649,7.3,2.816C6.614,3.125,5.965,3.504,5.356,3.94
		C4.153,4.804,3.284,5.998,2.815,7.396C2.778,7.507,3.01,7.468,3.05,7.451c2.015-0.89,3.033-3.12,4.594-4.556
		C7.547,2.882,7.45,2.871,7.35,2.857c-1.418,2.237-3.443,3.98-5.048,6.074C2.206,9.06,2.513,9.029,2.567,8.993
		c2.906-2.038,4.947-5.043,7.834-7.114l-0.266-0.063c-2.177,2.84-5.265,4.9-7.136,7.983c-0.076,0.126,0.17,0.11,0.225,0.082
		c3.291-1.692,5.601-4.671,8.249-7.158c-0.09-0.021-0.181-0.043-0.271-0.062c-2.57,2.703-5.769,4.871-7.854,8.009
		c-0.084,0.124,0.171,0.105,0.225,0.08c3.422-1.673,5.633-4.871,8.25-7.506c-0.09-0.021-0.183-0.042-0.272-0.063
		C8.629,6.429,4.961,9.282,3,13.27c-0.079,0.16,0.232,0.093,0.293,0.039c2.929-2.621,4.861-6.039,6.811-9.396
		C9.995,3.924,9.885,3.938,9.778,3.949c1.27,3.155-1.33,6.646-1.916,9.692c-0.027,0.149,0.299,0.062,0.338-0.039
		c1.347-3.408,2.076-7.023,3.48-10.411c-0.111,0.021-0.226,0.043-0.337,0.064c0.299,3.854-1.174,7.496-1.741,11.255
		c0.112-0.013,0.227-0.026,0.338-0.039c0.354-3.172,0.685-6.35,0.695-9.545c-0.111,0.022-0.222,0.043-0.335,0.065
		c0.533,3.899-0.818,7.965-2.09,11.603c-0.044,0.125,0.293,0.07,0.338-0.039c1.562-3.896,1.92-8.11,2.959-12.148
		c-0.111,0.021-0.226,0.042-0.337,0.063c0.234,1.726-0.715,3.296-1.74,4.604c-1.097,1.398-2.486,2.61-3.941,3.626l0.263,0.062
		c1.643-3.503,5.174-5.564,7.137-8.851c0.024-0.039,0.01-0.066-0.023-0.092c-1.173-0.851-2.946-0.384-4.21-0.025
		c-1.584,0.448-3.144,1.129-4.56,1.965C3.967,5.835,4.069,5.927,4.179,5.914c4.088-0.551,7.792-2.727,11.97-2.775
		c0.084-0.001,0.363-0.158,0.166-0.196C13.545,2.421,10.72,2.586,7.92,2.59C7.878,2.656,7.835,2.724,7.793,2.792
		c3.426-0.012,6.849-0.32,10.271,0c0.135,0.013,0.354-0.173,0.129-0.201c-3.99-0.5-8.005-0.352-12.015-0.348
		C6.136,2.31,6.094,2.377,6.051,2.443c4.296-0.026,8.585-0.974,12.842-0.006c0.059-0.063,0.111-0.13,0.166-0.195
		c-4.57,0.172-9.185,0.181-13.662,1.226C5.28,3.497,5.174,3.646,5.356,3.659c4.986,0.316,9.953-1.017,14.931-0.354
		c0.057-0.065,0.111-0.131,0.166-0.195C15.609,3.127,10.774,3.79,6.092,5.029c-0.16,0.042-0.195,0.204,0.002,0.189
		c5.022-0.378,9.857-2.211,14.928-2.081c0.014-0.062,0.025-0.127,0.041-0.189C16.129,4.315,10.85,4.013,6.048,5.914
		C5.939,5.958,5.907,6.081,6.052,6.087c5.721,0.305,11.175-2.034,16.888-1.909c0.025-0.065,0.057-0.132,0.084-0.199
		c-5.094,0.696-10.229,1.22-15.19,2.612C7.676,6.635,7.635,6.796,7.835,6.78c4.622-0.373,9.052-2.042,13.708-2.081
		c0.014-0.062,0.027-0.127,0.041-0.189c-4.738,1.033-9.618,1.374-14.275,2.775C7.11,7.347,7.155,7.516,7.36,7.466
		c4.268-1.058,8.606-1.881,13.007-2.074c0.016-0.064,0.029-0.131,0.043-0.196c-3.871,0.359-7.72,1.02-11.62,1.039
		c0.002,0.06,0.003,0.116,0.004,0.176c2.511-1.12,5.283-1.535,7.963-2.067c0.209-0.041,0.154-0.219-0.048-0.179
		C12.74,4.937,8.564,6.426,5.458,9.082c-0.122,0.102,0.087,0.142,0.16,0.12c3.254-0.971,5.156-3.994,7.916-5.763l-0.265-0.061
		c-1.862,3.21-5.671,4.502-8.008,7.289c-0.094,0.114,0.179,0.106,0.228,0.082c2.938-1.512,5.119-4.05,7.051-6.662
		c0.099-0.134-0.231-0.1-0.293-0.039C9.098,7.166,5.56,9.865,2.499,13.07c0.098,0.014,0.194,0.025,0.293,0.038
		c1.489-2.033,4.02-4.969,2.97-7.688C5.724,5.327,5.548,5.367,5.489,5.413c-3.271,2.472-2.342,7.288-2.326,10.834
		c0.113-0.021,0.225-0.043,0.337-0.064c-0.722-2.815-0.696-5.765-0.696-8.651c-0.112,0.02-0.225,0.041-0.337,0.063
		c0.794,3.213,0.035,6.465,0.174,9.719c0.007,0.125,0.29,0.024,0.325-0.039c1.809-3.229,0.565-7.208,0.186-10.638
		c-0.014-0.121-0.349-0.043-0.336,0.09c0.342,3.872,0.357,7.771,0.869,11.628c0.02,0.135,0.309,0.022,0.338-0.062
		C5.394,14.198,4.738,9.85,4.892,5.623C4.784,5.649,4.676,5.678,4.569,5.708c1.508,1.683,1.56,4.215,1.553,6.348
		c-0.008,2.146-0.297,4.335,0,6.474c0.018,0.125,0.289,0.027,0.326-0.038c1.133-2.062,1.188-4.508,1.052-6.797
		C7.344,9.111,6.813,6.561,6.284,4.035C6.258,3.91,5.93,3.996,5.948,4.125c0.699,5.343,1.711,10.701,1.218,16.112
		c-0.014,0.151,0.304,0.067,0.337-0.039c1.47-4.664,1.922-9.735,1.565-14.604c-0.111,0.03-0.225,0.061-0.336,0.09
		c1.012,4.397,0.193,8.891,0.174,13.338c0,0.146,0.281,0.073,0.326-0.015c2.157-4.095,1.087-9.057,0.533-13.414
		c-0.11,0.03-0.225,0.061-0.337,0.09c1.656,4.954,0.438,10.741-1.044,15.594c0.111-0.015,0.226-0.025,0.337-0.039
		c1.258-4.76,1.43-9.998,0.173-14.775c-0.03-0.123-0.317-0.039-0.336,0.063c-0.892,5.03-1.422,10.123-2.61,15.099
		c0.111-0.014,0.225-0.025,0.338-0.039c0.552-4.58,2.32-9.507,0.869-14.082C7.114,7.375,6.882,7.48,6.829,7.543
		c-1.303,1.543-2.094,3.473-2.756,5.356c-0.735,2.097-1.27,4.276-1.606,6.471c-0.021,0.146,0.28,0.062,0.326-0.014
		c2.018-3.354,3.114-7.399,3.145-11.307c0.001-0.128-0.212-0.077-0.274-0.035c-1.506,0.99-2.207,2.75-2.688,4.412
		c-0.587,2.031-0.798,4.154-1.029,6.248c-0.017,0.146,0.287,0.074,0.326-0.012c1.355-2.97,2.096-6.509,1.926-9.771
		C4.193,8.771,3.88,8.854,3.863,8.956c-0.82,4.766,1.176,9.311,2.088,13.909c0.024,0.123,0.317,0.035,0.338-0.065
		c0.705-3.867-1.1-8.123-3.149-11.325c-0.061-0.094-0.347-0.006-0.325,0.113c0.729,4,2.562,7.733,2.959,11.801
		c0.012,0.115,0.338,0.043,0.338-0.062C6.11,18.854,6.083,14.312,4.37,10.107c-0.11,0.038-0.215,0.075-0.324,0.112
		c3.463,3.022,3.811,7.809,3.815,12.102c0.002,0.146,0.338,0.078,0.338-0.039c0-4.861,0.021-9.936-2.09-14.431
		c-0.05-0.104-0.338-0.053-0.336,0.064c0.062,4.434,2.721,8.374,2.61,12.842c0.111-0.021,0.226-0.043,0.336-0.063
		c-0.686-3.705,0.618-7.612-1.218-11.106C7.446,9.479,7.19,9.536,7.166,9.652c-0.832,4.172,1.523,8.366,0.174,12.495
		c0.111-0.021,0.226-0.043,0.337-0.062c-0.597-2.311-0.876-4.682-1.584-6.966c-0.633-2.044-1.687-4.342-3.879-5.061
		c-0.084-0.028-0.245,0.022-0.27,0.114c-0.482,1.752-0.315,3.634-0.062,5.409c0.26,1.821,0.704,3.629,1.28,5.377
		C3.201,21.073,3.486,21,3.5,20.894c0.353-2.888,0.513-5.824-0.001-8.703c-0.021-0.117-0.339-0.043-0.337,0.064
		c0.031,2.334,0.664,4.607,0.697,6.942c0.002,0.146,0.336,0.078,0.336-0.039c0.013-1.805,0.226-3.6,0.217-5.401
		c-0.008-1.593-0.131-3.381-1.1-4.713C3.243,8.946,3.022,9.041,2.989,9.13c-0.949,2.617-0.877,5.578-0.705,8.316
		c0.181,2.867,0.604,5.773,1.4,8.543c0.036,0.125,0.28,0.031,0.326-0.038c1.692-2.585,0.951-6.582-0.164-9.249
		c-0.05-0.12-0.359-0.04-0.336,0.091c0.68,3.504,2.863,6.185,4.563,9.229c0.059,0.104,0.332,0,0.324-0.11
		c-0.162-2.729-0.082-5.705-2.302-7.671c-0.069-0.062-0.372-0.018-0.323,0.111c0.938,2.492,2.752,4.519,3.828,6.941
		c0.055,0.121,0.383,0.025,0.338-0.09c-0.941-2.402-2.197-4.758-4.017-6.617c-0.098,0.051-0.192,0.102-0.289,0.15
		c2.255,1.354,4.082,3.379,5.547,5.537c0.062,0.088,0.364,0.002,0.324-0.111c-0.752-2.203-1.872-4.439-3.864-5.768
		c-0.068-0.048-0.341,0.012-0.301,0.129c0.582,1.703,1.36,3.396,2.623,4.709c0.069,0.071,0.36,0.014,0.323-0.111
		c-0.565-1.963-1.618-3.846-3.145-5.229c-0.07-0.062-0.359-0.019-0.322,0.112c0.795,2.899,3.364,4.767,5.233,6.963
		c0.079,0.095,0.4-0.021,0.312-0.133c-1.758-2.187-5.052-1.781-7.539-2.11c-0.056,0.063-0.109,0.131-0.164,0.194
		c3.604,0.178,7.199,0.526,10.791,0.869c0.043-0.068,0.085-0.136,0.128-0.201c-2.982-0.162-5.958,0.008-8.919,0.349
		c-0.017,0.065-0.029,0.133-0.043,0.196c2.502-0.362,4.981-0.853,7.483-1.215c0.115-0.017,0.302-0.188,0.086-0.199
		c-3.088-0.153-6.143,0.357-9.14,1.054c-0.115,0.024-0.224,0.184-0.04,0.188c3.428,0.131,6.828-0.965,10.232-0.179
		c0.024-0.062,0.052-0.123,0.078-0.188c-3.719,1.074-7.645,0.834-11.443,1.381c-0.016,0.066-0.029,0.133-0.043,0.197
		c1.97-0.365,3.921-0.842,5.918-1.041c-0.001-0.062-0.002-0.127-0.004-0.188c-1.139,0.261-2.279,0.507-3.435,0.685
		c-0.529,0.083-1.062,0.135-1.599,0.176c-0.039,0.002-1.714,0.062-1.581-0.116c0.983-1.297,2.028-2.623,1.76-4.345
		c-0.019-0.118-0.258-0.028-0.304,0.015c-1.569,1.475-1.764,3.959-2.122,5.951c-0.025,0.151,0.296,0.059,0.337-0.039
		c1-2.345,2.763-5.019,1.915-7.66c-0.032-0.101-0.217-0.051-0.273-0.01c-1.125,0.776-1.459,2.227-1.592,3.506
		c-0.148,1.444-0.019,3.097,0.658,4.401c0.063,0.121,0.296,0.039,0.337-0.063c0.894-2.273,0.508-4.994-0.883-6.988
		c-0.07-0.102-0.326-0.003-0.324,0.111c0.042,2.34,0.997,4.569,0.87,6.916c0.112-0.021,0.225-0.043,0.336-0.062
		c-0.675-1.961-0.721-4.043-1.044-6.074c-0.02-0.121-0.292-0.035-0.326,0.037c-0.735,1.625-0.376,3.514-0.358,5.233
		c0.002,0.149,0.311,0.073,0.338-0.039c0.521-2.231,0.359-4.581-0.174-6.794c-0.029-0.117-0.332-0.043-0.338,0.063
		c-0.07,1.23-0.123,2.462,0.039,3.688c0.176,1.314,0.726,2.523,1.393,3.658c0.06,0.102,0.265-0.002,0.312-0.062
		c1.351-1.604,1.177-3.498,0.856-5.44c-0.113,0.028-0.226,0.061-0.337,0.09c0.578,1.85,1.425,3.223,2.65,4.719
		c0.062,0.077,0.315,0.021,0.322-0.086c0.139-2.193-0.159-4.166-0.723-6.285c-0.112,0.03-0.224,0.061-0.337,0.09
		c0.714,2.463,1.574,4.877,2.438,7.289c0.04,0.113,0.338,0.047,0.338-0.062c-0.038-2.528-1.026-5.157-2.799-6.989
		c-0.067-0.07-0.382,0.002-0.324,0.112c1.908,3.652,6.3,5.539,10.163,6.298c0.059,0.012,0.366-0.062,0.26-0.162
		c-1.432-1.354-3.649-1.576-5.527-1.636c-2.045-0.063-4.182,0.148-6.143,0.744c-0.07,0.021-0.24,0.152-0.078,0.187
		c3.487,0.678,6.983-0.312,10.481-0.343c0.028-0.065,0.058-0.133,0.085-0.198c-3.982,0.342-8.226-0.021-11.926,1.76
		c-0.067,0.031-0.166,0.146-0.034,0.17c4.482,0.865,8.948-0.825,13.442-0.688c0.029-0.067,0.057-0.134,0.086-0.198
		c-2.358,0.385-4.771-0.234-7.102-0.562c-1.875-0.264-3.92-0.44-5.672,0.424c-0.071,0.035-0.162,0.138-0.032,0.171
		c3.974,1.016,8.034-0.316,12.049,0.18c0.025-0.067,0.057-0.134,0.084-0.198c-3.658,0.157-7.327-0.146-10.965,0.346
		c-0.117,0.018-0.303,0.19-0.086,0.199c3.883,0.151,7.809-0.474,11.625,0.517c0.055-0.065,0.108-0.132,0.166-0.194
		c-4.02,0.146-7.996-0.666-12.014-0.521c-0.126,0.007-0.358,0.201-0.128,0.201h3.134c0.015-0.062,0.026-0.127,0.039-0.188
		c-0.719,0.155-1.44,0.162-2.174,0.163c-0.043,0.064-0.086,0.134-0.128,0.199c3.221-0.094,6.45,1.033,9.627,1.443
		c2.526,0.326,5.952,0.646,7.806-1.512c0.049-0.057,0.041-0.107-0.033-0.127c-2.393-0.646-4.865-0.389-7.292-0.113
		c-1.434,0.162-2.862,0.324-4.306,0.352c-0.669,0.01-1.34-0.028-2.01-0.102C8.7,26.13,8.239,26.037,7.782,25.933
		c-0.213-0.047-0.851-0.113-0.428-0.375c1.842-1.137,4.61-0.646,6.607-0.31c2.014,0.339,3.98,0.892,5.977,1.315
		c0.041-0.062,0.082-0.129,0.123-0.192c-4.682,0.343-9.375,0.009-14.058-0.177c-0.014,0.063-0.026,0.129-0.04,0.19
		c4.776-1.39,9.748-1.875,14.707-1.551c0.027-0.065,0.059-0.134,0.086-0.199c-4.711,0.869-9.528,0.347-14.272,0.867
		c-0.17,0.019-0.276,0.221-0.043,0.196c5.262-0.534,10.458-1.53,15.667-2.432c0.162-0.025,0.279-0.209,0.043-0.195
		c-3.631,0.193-7.145,1.08-10.665,1.918c0.029,0.056,0.062,0.107,0.092,0.164c2.275-1.055,4.502-2.225,6.918-2.936
		c-0.016-0.061-0.031-0.121-0.047-0.18c-1.188,0.389-2.373,0.75-3.526,1.229c0.078,0.012,0.157,0.021,0.236,0.031
		c-0.43-1.572-0.188-3.076,0-4.66c0.018-0.152-0.301-0.062-0.338,0.039c-0.533,1.5-0.642,3.006-0.174,4.537
		c0.039,0.125,0.361,0.037,0.338-0.09c-0.521-2.589-0.162-5.395-1.395-7.812c-0.058-0.112-0.363-0.041-0.336,0.091
		c0.158,0.737,0.173,1.479,0.174,2.229c0.112-0.021,0.225-0.043,0.336-0.063c-0.345-0.705-0.64-1.438-1.057-2.104
		c-0.085,0.054-0.171,0.107-0.257,0.162c1.619,0.336,3.271,0.354,4.914,0.525c0.025-0.064,0.057-0.134,0.084-0.198
		c-1.271,0.166-2.559,0.181-3.83,0.347c0,0.062,0.001,0.127,0.002,0.188c1.131-0.312,2.277-0.519,3.435-0.687
		c0.115-0.017,0.303-0.203,0.088-0.198c-1.354,0.03-2.795,0.497-4.11,0.018c-0.065,0.062-0.131,0.123-0.196,0.186h1.218
		c-0.001-0.059-0.002-0.117-0.004-0.176c-0.526,0.221-0.94,0.601-1.43,0.887c-0.196,0.115,0.097,0.179,0.212,0.111
		c0.362-0.213,0.681-0.482,1.044-0.695c-0.071-0.036-0.141-0.071-0.212-0.107c-0.498,0.368-0.894,0.847-1.392,1.216
		c-0.11,0.08-0.041,0.176,0.084,0.15c1.051-0.191,1.979-0.546,2.769-1.279c-0.091-0.021-0.183-0.043-0.271-0.064
		c-0.483,0.504-0.908,1.061-1.394,1.562c-0.135,0.141,0.163,0.146,0.242,0.088l2.089-1.562c-0.081-0.027-0.162-0.059-0.242-0.088
		c-1.147,0.957-2.261,1.945-3.155,3.15c-0.076,0.104,0.131,0.111,0.182,0.096c1.83-0.601,3.195-1.965,4.783-2.985
		c0.189-0.123-0.1-0.183-0.211-0.107c-1.505,0.959-2.863,2.153-4.035,3.493c-0.133,0.148,0.162,0.138,0.242,0.087
		c1.473-0.938,2.837-2.111,3.88-3.521c0.104-0.141-0.238-0.084-0.295-0.038c-1.667,1.333-2.938,3.145-3.337,5.259
		c-0.027,0.142,0.303,0.07,0.336-0.039c0.489-1.646,0.17-3.287-0.35-4.886c-0.111,0.03-0.224,0.061-0.336,0.09
		c0.831,2.36,0.034,4.846,0,7.266c0.112-0.015,0.225-0.026,0.337-0.039c-0.008-2.315-0.167-4.627-0.175-6.942
		c0-0.146-0.323-0.08-0.337,0.038c-0.307,2.714,0.148,5.462-0.348,8.158c0.111-0.014,0.225-0.026,0.336-0.039
		c0.027-3.438,0.84-6.817,1.916-10.065c-0.112,0.021-0.226,0.043-0.338,0.064c0.151,3.076-0.498,6.113-0.695,9.172
		c-0.01,0.145,0.285,0.075,0.326-0.013c1.055-2.341,1.58-4.856,2.273-7.315c-0.109,0.022-0.225,0.043-0.337,0.065
		c0.123,2.804-1.329,5.394-2.263,7.957c-0.051,0.135,0.279,0.051,0.326-0.015c1.909-2.639,3.217-5.643,5.047-8.329
		c-0.109,0.004-0.217,0.01-0.326,0.014c-0.902,3.974-4.965,5.651-7.1,8.836c-0.095,0.14,0.211,0.093,0.264,0.062
		c2.205-1.377,4.862-2.012,6.62-4.023c0.117-0.135-0.121-0.15-0.205-0.107c-2.871,1.475-6.171,1.871-8.889,3.676
		c0.069,0.037,0.142,0.072,0.211,0.109c1.659-1.232,3.879-1.027,5.545-2.268c0.191-0.143-0.104-0.168-0.211-0.109
		c-2.815,1.506-6.203,1.104-9.026,2.613c-0.164,0.085,0.034,0.164,0.135,0.141c2.132-0.466,4.492-0.399,6.179-1.979
		c0.096-0.089-0.033-0.14-0.113-0.13c-2.309,0.248-4.354,1.525-6.222,2.818c0.081,0.029,0.162,0.06,0.242,0.088
		c1.023-1.182,2.124-2.276,3.308-3.299c0.151-0.131-0.166-0.131-0.24-0.086c-1.881,1.123-4.203,1.014-5.924,2.465
		c-0.15,0.127,0.166,0.135,0.242,0.086c1.758-1.088,3.711-1.729,5.073-3.356c0.104-0.123-0.213-0.095-0.264-0.062
		c-1.887,1.219-3.576,2.695-5.078,4.361c-0.137,0.15,0.191,0.146,0.271,0.062c1.561-1.57,3.059-3.349,3.861-5.433
		c0.05-0.129-0.236-0.055-0.273-0.034C5.348,22,3.131,23.788,2.464,26.133c-0.021,0.08,0.104,0.082,0.147,0.08
		c2.344-0.103,3.793-2.896,3.846-4.978c0.003-0.114-0.172-0.08-0.237-0.057c-1.572,0.6-6.146,2.721-3.453,4.693
		c1.096,0.801,2.702,0.438,3.85-0.021c1.088-0.438,2.494-1.313,2.801-2.533c0.011-0.043-0.033-0.065-0.067-0.075
		c-1.611-0.484-3.758,0.026-5.285,0.584c-1.201,0.438-2.65,1.725-0.992,2.709c1.609,0.954,4.217,0.25,5.873-0.188
		c1.062-0.279,2.104-0.648,3.098-1.115c0.609-0.287,1.312-0.635,1.716-1.192c0.05-0.07-0.044-0.101-0.095-0.107
		c-2.466-0.319-6.731,0.08-7.866,2.736c-0.01,0.024,0.017,0.055,0.036,0.063c1.849,0.754,4.094,0.301,5.936-0.248
		c1.747-0.522,4.031-1.438,4.948-3.139c0.062-0.111-0.119-0.111-0.183-0.098c-2.836,0.697-6.689,1.1-8.291,3.914
		c-0.051,0.09,0.074,0.109,0.137,0.104c3.771-0.391,7.667-1.926,10.403-4.59c0.143-0.141-0.166-0.135-0.242-0.088
		c-2.45,1.502-6.098,1.143-7.86,3.705c-0.061,0.088,0.083,0.107,0.138,0.104c1.967-0.129,3.901-0.699,5.71-1.461
		c1.701-0.716,3.525-1.73,4.537-3.328c0.082-0.127-0.17-0.105-0.227-0.08c-1.863,0.854-3.871,1.365-5.767,2.151
		c-1.571,0.654-3.248,1.556-4.043,3.134c-0.047,0.092,0.068,0.108,0.136,0.104c3.881-0.25,7.68-2.47,10.576-4.938
		c0.152-0.131-0.188-0.137-0.273-0.063c-2.502,2.053-6.926,1.737-8.523,4.896c-0.035,0.068,0.028,0.104,0.094,0.107
		c2.242,0.072,4.481-0.854,6.429-1.877c1.891-0.99,3.896-2.311,5.08-4.129c0.084-0.129-0.174-0.104-0.227-0.082
		c-1.939,0.781-3.979,1.295-5.906,2.109c-1.465,0.616-3.106,1.481-3.741,3.026c-0.021,0.06,0.069,0.08,0.104,0.082
		c2.092,0.076,4.17-0.51,6.094-1.284c1.932-0.777,3.898-1.886,5.242-3.507c0.105-0.131-0.219-0.086-0.264-0.062
		c-2.896,1.576-7.398,1.648-9.252,4.744c-0.039,0.068,0.033,0.104,0.094,0.105c1.875,0.07,3.717-0.547,5.396-1.318
		c1.686-0.774,3.379-1.838,4.545-3.299c0.102-0.122-0.184-0.096-0.225-0.08c-3.219,1.113-7.613,1.689-9.637,4.766
		c-0.043,0.064,0.035,0.105,0.092,0.105c1.791-0.025,3.535-0.584,5.16-1.301c1.645-0.727,3.301-1.727,4.436-3.143
		c0.104-0.127-0.229-0.101-0.293-0.039c-2.512,2.41-7.141,2.312-8.699,5.764c-0.043,0.094,0.066,0.109,0.139,0.105
		c3.486-0.23,6.959-1.923,9.527-4.244c0.146-0.131-0.162-0.142-0.238-0.086c-2.428,1.66-6.16,1.557-7.688,4.396
		c-0.049,0.094,0.072,0.11,0.137,0.106c3.041-0.211,6.646-1.358,8.51-3.922c0.09-0.121-0.178-0.104-0.227-0.082
		c-2.562,1.23-5.879,1.275-7.549,3.896c-0.043,0.064,0.035,0.107,0.094,0.105c2.668-0.039,6.037-1.211,7.506-3.574
		c0.088-0.139-0.207-0.104-0.264-0.062c-1.576,1.188-3.818,1.194-4.896,3.01c-0.076,0.127,0.168,0.11,0.225,0.082
		c1.451-0.754,3.154-0.818,4.393-1.963c0.15-0.14-0.186-0.136-0.27-0.064c-1.271,1.062-2.883,1.535-4.15,2.615
		c-0.141,0.119,0.131,0.141,0.203,0.104c1.592-0.737,2.922-1.86,4.246-2.992c-0.09-0.021-0.182-0.042-0.271-0.063
		c-1.059,1.207-2.264,2.256-3.48,3.299c-0.139,0.119,0.131,0.141,0.205,0.105c1.594-0.744,2.838-1.939,4.072-3.166
		c-0.094-0.021-0.186-0.043-0.273-0.064c-0.893,0.904-1.717,1.873-2.611,2.777c-0.107,0.111,0.078,0.145,0.16,0.121
		c0.607-0.174,0.842-0.433,1.18-0.951c0.047-0.07-0.037-0.102-0.096-0.107c-3.66-0.352-7.348-0.334-11.008,0.002
		c-0.121,0.014-0.297,0.201-0.086,0.199c2.787-0.014,5.568-0.326,8.355-0.172c0.027-0.068,0.057-0.135,0.086-0.199
		c-3.709,0.697-7.494,1.199-11.272,0.865c0.002,0.059,0.003,0.115,0.004,0.176c3.496-1.502,7.323-0.859,11.009-0.842
		c0.09,0,0.359-0.17,0.166-0.197c-2.387-0.314-4.775-0.186-7.175-0.178c-0.013,0.062-0.026,0.127-0.04,0.189
		c3.281-1.06,6.762-1.189,10.184-1.031c0.025-0.066,0.057-0.133,0.086-0.197c-3.516,0.177-7.033,0.217-10.494,0.884
		c-0.161,0.033-0.191,0.219,0.002,0.188c3.52-0.537,7-1.36,10.576-1.389c0.027-0.064,0.059-0.133,0.086-0.197
		c-4.498,0.67-9.062,0.539-13.579,1.041c-0.168,0.021-0.275,0.217-0.043,0.197c3.997-0.334,7.989,0.32,11.987,0.162
		c0.129-0.006,0.289-0.207,0.086-0.199c-3.867,0.139-7.637-1.35-11.508-0.854c-0.167,0.02-0.273,0.225-0.043,0.197
		c4.031-0.492,8.076,0.143,12.117-0.013c0.029-0.063,0.061-0.133,0.086-0.196c-3.979,0.307-7.885-1.332-11.855-0.502
		c-0.119,0.024-0.222,0.182-0.041,0.19c3.578,0.203,7.316,1.072,10.855,0.149c0.111-0.028,0.227-0.184,0.039-0.188
		c-3.695-0.151-7.355,0.351-11.008,0.869c-0.165,0.022-0.278,0.222-0.043,0.196c3.732-0.387,7.756-1.227,10.918-3.34
		c0.096-0.063,0.068-0.146-0.041-0.155c-3.135-0.312-6.164,0.836-9.268,1.043c0.026,0.051,0.055,0.103,0.084,0.153
		c0.479-0.295,0.956-0.481,1.485-0.66c0.195-0.065,0.15-0.245-0.049-0.18c-0.578,0.193-1.127,0.408-1.647,0.729
		c-0.133,0.082-0.025,0.162,0.084,0.153c1.741-0.114,3.44-0.498,5.155-0.801c0.926-0.162,1.855-0.277,2.793-0.301
		c0.18-0.004,0.865,0.125,0.996,0.037c-0.398,0.27-0.826,0.496-1.252,0.713c-2.82,1.436-6.09,2.086-9.216,2.41
		c-0.016,0.064-0.029,0.131-0.043,0.195c3.622-0.516,7.255-1.021,10.923-0.865c0.014-0.062,0.025-0.127,0.039-0.188
		c-3.471,0.902-7.17,0.025-10.677-0.176c-0.014,0.062-0.027,0.127-0.041,0.191c3.923-0.82,7.826,0.82,11.765,0.518
		c0.125-0.01,0.293-0.207,0.086-0.197c-4.068,0.152-8.143-0.481-12.202,0.013c-0.014,0.065-0.027,0.133-0.043,0.198
		c3.843-0.492,7.583,0.994,11.423,0.855c0.025-0.064,0.057-0.133,0.086-0.197c-3.998,0.156-7.99-0.496-11.988-0.162
		c-0.014,0.064-0.027,0.131-0.043,0.195c4.515-0.502,9.082-0.373,13.58-1.041c0.111-0.016,0.301-0.199,0.086-0.197
		c-3.607,0.023-7.113,0.851-10.662,1.392c0.002,0.061,0.002,0.125,0.004,0.188c3.428-0.661,6.922-0.689,10.398-0.858
		c0.125-0.006,0.295-0.188,0.086-0.197c-3.48-0.162-7.023-0.023-10.359,1.051c-0.1,0.033-0.231,0.191-0.039,0.19
		c2.369-0.009,4.74-0.146,7.098,0.169c0.059-0.066,0.111-0.131,0.166-0.195c-3.781-0.02-7.684-0.648-11.271,0.895
		c-0.11,0.047-0.141,0.162,0.004,0.175c3.806,0.336,7.622-0.166,11.356-0.869c0.109-0.021,0.307-0.187,0.088-0.199
		c-2.789-0.151-5.568,0.16-8.356,0.175c-0.029,0.065-0.057,0.133-0.086,0.198c2.048-0.188,4.103-0.271,6.159-0.256
		c0.965,0.008,1.93,0.049,2.893,0.106c0.418,0.023,0.836,0.058,1.254,0.092c0.857,0.072-0.012,0.63-0.387,0.736
		c0.055,0.039,0.107,0.08,0.16,0.119c0.895-0.902,1.719-1.871,2.613-2.773c0.141-0.145-0.189-0.147-0.273-0.063
		c-1.189,1.187-2.393,2.361-3.936,3.08c0.066,0.035,0.137,0.072,0.203,0.106c1.219-1.041,2.424-2.092,3.48-3.297
		c0.139-0.158-0.189-0.135-0.271-0.063c-1.279,1.096-2.566,2.19-4.107,2.907c0.066,0.035,0.135,0.07,0.203,0.104
		c1.266-1.076,2.879-1.551,4.148-2.611c-0.09-0.021-0.18-0.043-0.27-0.063c-1.182,1.092-2.867,1.155-4.256,1.877l0.225,0.082
		c1.033-1.735,3.277-1.769,4.795-2.914c-0.086-0.021-0.174-0.041-0.262-0.062c-0.738,1.188-1.955,1.941-3.207,2.502
		c-0.645,0.289-1.322,0.494-2.006,0.658c-0.354,0.084-0.709,0.138-1.066,0.183c-0.27,0.032-0.697,0.144-0.428-0.238
		c1.574-2.211,4.83-2.274,7.105-3.368c-0.074-0.027-0.15-0.056-0.227-0.082c-0.965,1.325-2.41,2.161-3.906,2.772
		c-0.77,0.315-1.574,0.537-2.389,0.715c-0.383,0.082-0.771,0.138-1.16,0.188c-0.541,0.065-0.516,0.037-0.217-0.398
		c0.873-1.27,2.516-1.779,3.904-2.25c1.158-0.393,2.314-0.791,3.334-1.486c-0.08-0.027-0.16-0.059-0.242-0.088
		c-1.471,1.33-3.188,2.348-5.016,3.104c-1.01,0.419-2.064,0.717-3.145,0.896c-0.27,0.045-0.979,0.307-0.742-0.156
		c0.207-0.403,0.506-0.756,0.826-1.071c2.109-2.091,5.492-2.195,7.65-4.271c-0.1-0.012-0.195-0.023-0.293-0.037
		c-1.146,1.433-2.838,2.381-4.494,3.109c-0.828,0.365-1.691,0.648-2.57,0.867c-0.43,0.105-0.865,0.178-1.305,0.23
		c-0.021,0.004-0.611,0.034-0.58-0.015c0.143-0.217,0.316-0.41,0.494-0.601c2.184-2.354,5.951-2.854,8.854-3.86
		c-0.076-0.027-0.148-0.054-0.227-0.08c-1.127,1.408-2.756,2.39-4.365,3.158c-0.896,0.43-1.84,0.764-2.803,1.01
		c-0.438,0.11-0.877,0.183-1.322,0.231c-0.527,0.062-1.012,0.216-0.594-0.35c1.062-1.428,3.053-2.035,4.666-2.57
		c1.408-0.471,2.85-0.879,4.16-1.594l-0.266-0.062c-1.303,1.571-3.205,2.594-5.062,3.37c-0.988,0.414-2.02,0.728-3.064,0.962
		c-0.512,0.114-1.031,0.188-1.553,0.241c-0.271,0.025-0.539,0.035-0.808,0.039c-0.326,0.004-0.214-0.137-0.097-0.352
		c0.839-1.52,2.86-2.26,4.39-2.838c1.604-0.605,3.266-1.05,4.854-1.689c-0.074-0.026-0.15-0.055-0.225-0.08
		c-1.031,1.582-2.691,2.719-4.297,3.654c-1.789,1.049-3.818,1.906-5.895,2.139c-0.558,0.062-0.841,0.156-0.486-0.389
		c0.271-0.416,0.659-0.748,1.059-1.033c0.781-0.555,1.723-0.887,2.623-1.205c1.562-0.553,3.201-1.01,4.506-2.078
		c-0.09-0.021-0.184-0.043-0.273-0.063c-1.646,1.406-3.494,2.569-5.46,3.481c-0.993,0.459-2.026,0.818-3.089,1.076
		c-0.481,0.115-0.973,0.185-1.467,0.229c-0.062,0.006,0.574-0.875,0.615-0.92c1.14-1.244,2.89-1.891,4.436-2.457
		c1.49-0.551,3.027-0.988,4.477-1.65c-0.076-0.027-0.15-0.055-0.229-0.082c-0.852,1.348-2.295,2.211-3.699,2.895
		c-1.579,0.769-3.296,1.298-5.027,1.584c-0.324,0.054-0.652,0.089-0.981,0.115c0.104-0.01,0.8-0.799,0.94-0.901
		c0.748-0.554,1.687-0.83,2.567-1.082c1.438-0.412,2.911-0.716,4.2-1.506c-0.08-0.029-0.16-0.06-0.242-0.087
		c-2.598,2.529-6.252,3.998-9.824,4.431c-0.09,0.011,0.481-0.721,0.453-0.688c0.268-0.308,0.596-0.56,0.928-0.791
		c0.709-0.492,1.539-0.812,2.354-1.086c1.357-0.451,2.773-0.707,4.163-1.049c-0.061-0.031-0.121-0.062-0.182-0.097
		c-0.787,1.463-2.611,2.239-4.098,2.776c-1.741,0.634-3.803,1.056-5.643,0.642c-1.112-0.252,0.607-1.457,0.998-1.683
		c0.938-0.541,2.059-0.78,3.121-0.924c0.854-0.115,1.724-0.125,2.58-0.033c-0.025-0.004-1.097,0.793-1.316,0.902
		c-1.438,0.729-3.036,1.189-4.615,1.488c-1.291,0.246-2.995,0.516-4.188-0.191C2.8,26.05,2.498,25.489,2.723,24.996
		c0.28-0.613,1.158-0.908,1.744-1.109c1.314-0.448,2.837-0.68,4.226-0.543c0.09,0.011,0.395,0.009,0.36,0.136
		c-0.063,0.26-0.237,0.489-0.397,0.698c-0.389,0.505-0.944,0.88-1.488,1.197c-1.211,0.705-2.865,1.118-4.129,0.334
		c-2.69-1.666,2.024-3.881,3.322-4.375c-0.078-0.019-0.156-0.037-0.236-0.056c-0.046,1.839-1.224,4.466-3.273,4.733
		c-0.007,0,0.548-1.26,0.655-1.432c0.329-0.523,0.75-0.984,1.181-1.425c0.854-0.871,1.864-1.598,2.929-2.188
		c-0.09-0.012-0.184-0.022-0.273-0.035c-0.788,2.044-2.27,3.789-3.797,5.328c0.091,0.021,0.181,0.043,0.271,0.063
		c1.485-1.647,3.15-3.11,5.019-4.315c-0.089-0.021-0.177-0.041-0.263-0.062c-1.324,1.576-3.269,2.205-4.973,3.261
		c0.081,0.028,0.161,0.057,0.242,0.086c1.68-1.414,4.016-1.312,5.862-2.418c-0.08-0.027-0.161-0.058-0.241-0.086
		c-1.185,1.021-2.284,2.116-3.308,3.297c-0.129,0.149,0.162,0.144,0.242,0.088c0.883-0.612,1.785-1.19,2.74-1.69
		c0.445-0.232,0.908-0.431,1.377-0.607c0.249-0.098,1.477-0.326,1.532-0.377c-1.475,1.379-3.893,1.268-5.755,1.676
		c0.043,0.047,0.086,0.096,0.13,0.145c2.814-1.506,6.203-1.104,9.025-2.612c-0.07-0.037-0.142-0.074-0.211-0.111
		c-1.66,1.234-3.879,1.029-5.545,2.269c-0.186,0.139,0.101,0.186,0.211,0.108c2.689-1.784,5.969-2.176,8.813-3.635
		c-0.066-0.035-0.137-0.071-0.203-0.106c-1.734,1.989-4.379,2.621-6.558,3.979c0.087,0.021,0.175,0.041,0.263,0.062
		c2.149-3.209,6.211-4.877,7.123-8.888c0.033-0.148-0.281-0.055-0.326,0.013c-1.83,2.688-3.138,5.692-5.048,8.33
		c0.108-0.005,0.217-0.009,0.326-0.013c0.944-2.586,2.387-5.18,2.262-8.008c-0.005-0.128-0.31-0.029-0.336,0.062
		c-0.688,2.439-1.206,4.941-2.252,7.264c0.108-0.004,0.217-0.01,0.326-0.014c0.198-3.076,0.848-6.129,0.696-9.223
		c-0.008-0.131-0.31-0.023-0.338,0.062c-1.074,3.249-1.889,6.63-1.914,10.066c-0.002,0.147,0.314,0.076,0.336-0.039
		c0.498-2.696,0.041-5.444,0.349-8.157c-0.112,0.015-0.224,0.026-0.337,0.038c0.008,2.316,0.167,4.628,0.175,6.943
		c0,0.146,0.335,0.078,0.337-0.039c0.034-2.438,0.837-4.937-0.001-7.314c-0.044-0.124-0.375-0.029-0.336,0.09
		c0.514,1.579,0.833,3.208,0.35,4.835c0.11-0.014,0.223-0.025,0.336-0.039c0.395-2.078,1.635-3.846,3.274-5.154
		c-0.098-0.015-0.193-0.025-0.293-0.039c-1.014,1.367-2.347,2.51-3.778,3.422c0.081,0.029,0.16,0.061,0.241,0.088
		c1.157-1.32,2.492-2.502,3.975-3.448c-0.07-0.035-0.143-0.07-0.211-0.107c-1.531,0.98-2.856,2.336-4.619,2.916
		c0.06,0.03,0.121,0.062,0.181,0.096c0.881-1.188,1.981-2.156,3.113-3.098c0.145-0.121-0.16-0.148-0.242-0.088
		c-0.697,0.521-1.393,1.041-2.09,1.562c0.082,0.029,0.162,0.059,0.242,0.086c0.483-0.504,0.91-1.057,1.394-1.561
		c0.143-0.148-0.189-0.144-0.271-0.064c-0.705,0.656-1.517,0.977-2.453,1.148c0.026,0.051,0.056,0.102,0.084,0.151
		c0.498-0.368,0.894-0.848,1.393-1.215c0.189-0.141-0.102-0.176-0.212-0.108c-0.362,0.213-0.683,0.479-1.044,0.692
		c0.07,0.037,0.141,0.072,0.212,0.109c0.464-0.272,0.852-0.637,1.354-0.849c0.103-0.043,0.146-0.176-0.004-0.176h-1.222
		c-0.055,0-0.354,0.127-0.196,0.187c1.385,0.506,2.824,0.049,4.245,0.016c0.029-0.064,0.059-0.133,0.088-0.198
		c-1.191,0.173-2.366,0.385-3.528,0.703c-0.153,0.042-0.196,0.214,0.004,0.188c1.271-0.166,2.557-0.184,3.829-0.349
		c0.121-0.018,0.301-0.178,0.086-0.198c-1.612-0.166-3.242-0.188-4.835-0.517c-0.076-0.016-0.334,0.039-0.258,0.162
		c0.407,0.652,0.694,1.371,1.031,2.062c0.051,0.104,0.337,0.055,0.337-0.064c-0.001-0.766-0.013-1.527-0.175-2.281
		c-0.111,0.03-0.224,0.062-0.336,0.091c1.231,2.416,0.872,5.223,1.393,7.811c0.112-0.029,0.226-0.061,0.338-0.09
		c-0.463-1.516-0.354-3.008,0.174-4.486c-0.112,0.014-0.225,0.025-0.338,0.039c-0.189,1.609-0.437,3.117,0.002,4.711
		c0.022,0.09,0.18,0.053,0.236,0.029c1.122-0.467,2.281-0.82,3.437-1.199c0.195-0.062,0.154-0.24-0.049-0.18
		c-2.445,0.721-4.702,1.896-7.007,2.965c-0.184,0.084-0.063,0.203,0.092,0.164c3.492-0.83,6.976-1.707,10.576-1.898
		c0.014-0.063,0.025-0.133,0.043-0.197c-5.209,0.896-10.405,1.896-15.667,2.431c-0.017,0.063-0.029,0.131-0.043,0.197
		c4.744-0.521,9.562,0.002,14.273-0.867c0.109-0.021,0.307-0.187,0.084-0.199c-5.018-0.325-10.052,0.166-14.883,1.572
		c-0.108,0.03-0.227,0.182-0.04,0.188c4.71,0.187,9.432,0.519,14.142,0.172c0.084-0.006,0.305-0.153,0.125-0.192
		c-2.396-0.513-4.753-1.195-7.188-1.5c-2.039-0.258-4.522-0.449-6.256,0.881c-0.062,0.047-0.026,0.106,0.035,0.127
		c3.129,0.99,6.381,0.49,9.571,0.146c1.732-0.188,3.48-0.306,5.211-0.034c0.076,0.011,0.928,0.222,0.92,0.231
		c-0.201,0.233-0.447,0.428-0.699,0.603c-0.486,0.334-1.061,0.521-1.627,0.657c-2.52,0.604-5.344-0.017-7.833-0.479
		c-2.213-0.412-4.502-1.037-6.771-0.972c-0.128,0.003-0.358,0.2-0.128,0.198c0.794,0,1.571-0.013,2.352-0.185
		c0.112-0.022,0.223-0.188,0.041-0.188H4.638c-0.042,0.065-0.085,0.135-0.128,0.201c4.018-0.146,7.994,0.666,12.012,0.521
		c0.082-0.005,0.365-0.146,0.166-0.197c-3.842-0.996-7.792-0.373-11.702-0.524c-0.027,0.065-0.057,0.134-0.084,0.199
		c3.639-0.492,7.31-0.188,10.965-0.349c0.129-0.004,0.291-0.172,0.086-0.199c-2.117-0.26-4.24-0.021-6.355,0.134
		c-1.199,0.086-2.4,0.127-3.603,0.041c-0.584-0.041-1.157-0.142-1.729-0.269c-0.318-0.072,0.33-0.183,0.422-0.211
		c0.26-0.088,0.534-0.14,0.805-0.187c3.68-0.633,7.346,1.283,11.044,0.68c0.111-0.02,0.303-0.192,0.086-0.198
		c-4.119-0.125-8.153,1.242-12.274,0.866c-0.271-0.028-0.543-0.065-0.812-0.114c-0.219-0.035,0.438-0.22,0.449-0.226
		c0.504-0.211,1.03-0.36,1.56-0.5c1.104-0.289,2.243-0.422,3.377-0.522c2.014-0.18,4.036-0.174,6.049-0.347
		c0.122-0.012,0.295-0.2,0.086-0.198c-3.468,0.028-6.949,1.021-10.406,0.353c-0.025,0.062-0.052,0.123-0.076,0.186
		c1.844-0.559,3.815-0.744,5.738-0.729c1.863,0.015,4.147,0.229,5.569,1.573c0.086-0.055,0.172-0.108,0.258-0.161
		c-3.799-0.746-8.151-2.601-10.03-6.199c-0.107,0.039-0.216,0.076-0.324,0.112c1.742,1.802,2.736,4.4,2.772,6.894
		c0.112-0.021,0.226-0.041,0.337-0.062c-0.862-2.415-1.724-4.829-2.437-7.292c-0.036-0.123-0.369-0.034-0.337,0.091
		c0.56,2.104,0.859,4.051,0.723,6.233c0.107-0.029,0.217-0.06,0.324-0.086c-1.206-1.474-2.055-2.854-2.624-4.677
		c-0.039-0.123-0.357-0.037-0.337,0.091c0.314,1.911,0.496,3.76-0.834,5.34c0.104-0.021,0.209-0.041,0.314-0.062
		c-1.373-2.334-1.56-4.6-1.406-7.252c-0.112,0.021-0.226,0.043-0.338,0.062c0.529,2.201,0.692,4.525,0.174,6.744
		c0.113-0.016,0.226-0.027,0.338-0.039c-0.016-1.697-0.389-3.58,0.337-5.182c-0.108,0.014-0.218,0.024-0.325,0.037
		c0.322,2.032,0.368,4.112,1.044,6.073c0.039,0.115,0.331,0.047,0.337-0.063c0.128-2.363-0.827-4.609-0.87-6.967
		c-0.107,0.037-0.217,0.073-0.324,0.112c1.373,1.968,1.736,4.652,0.857,6.894c0.112-0.021,0.225-0.043,0.336-0.062
		c-0.613-1.189-0.734-2.609-0.687-3.926c0.049-1.305,0.343-2.988,1.494-3.785c-0.09-0.002-0.183-0.006-0.273-0.01
		c0.84,2.623-0.923,5.285-1.915,7.609c0.112-0.013,0.227-0.023,0.337-0.039c0.351-1.939,0.531-4.416,2.058-5.849
		c-0.103,0.004-0.203,0.008-0.306,0.013c0.275,1.772-0.899,3.139-1.903,4.461c-0.051,0.065,0.043,0.104,0.094,0.106
		c2.39,0.149,4.736-0.349,7.052-0.879c0.159-0.037,0.192-0.207-0.003-0.188c-1.997,0.197-3.948,0.678-5.918,1.041
		c-0.161,0.029-0.279,0.23-0.043,0.197c3.832-0.551,7.785-0.314,11.533-1.396c0.074-0.021,0.238-0.147,0.078-0.186
		c-3.438-0.795-6.851,0.299-10.309,0.168c-0.015,0.064-0.025,0.127-0.04,0.191c2.939-0.684,5.937-1.186,8.963-1.031
		c0.029-0.066,0.058-0.133,0.087-0.199c-2.503,0.363-4.982,0.854-7.484,1.215c-0.166,0.023-0.277,0.226-0.043,0.197
		c2.935-0.338,5.882-0.506,8.834-0.346c0.134,0.008,0.359-0.18,0.129-0.201c-3.594-0.342-7.187-0.689-10.793-0.867
		c-0.096-0.006-0.355,0.172-0.166,0.195c2.449,0.326,5.707-0.088,7.432,2.055c0.104-0.045,0.207-0.09,0.312-0.135
		c-1.855-2.184-4.418-4.037-5.209-6.92c-0.107,0.039-0.215,0.074-0.324,0.113c1.517,1.373,2.558,3.229,3.121,5.184
		c0.108-0.037,0.216-0.074,0.324-0.111c-1.254-1.303-2.021-2.973-2.6-4.664c-0.101,0.043-0.2,0.086-0.301,0.129
		c1.96,1.31,3.055,3.523,3.794,5.688c0.107-0.037,0.216-0.074,0.324-0.11c-1.479-2.177-3.319-4.207-5.594-5.57
		c-0.076-0.047-0.39,0.049-0.289,0.149c1.811,1.851,3.056,4.185,3.991,6.572c0.112-0.028,0.226-0.06,0.337-0.09
		c-1.078-2.425-2.894-4.449-3.83-6.941c-0.107,0.037-0.216,0.074-0.324,0.113C7.997,20.332,7.905,23.295,8.065,26
		c0.107-0.037,0.217-0.074,0.322-0.111c-1.689-3.026-3.863-5.702-4.539-9.186c-0.111,0.027-0.224,0.059-0.336,0.09
		c1.104,2.642,1.858,6.59,0.186,9.146c0.107-0.013,0.217-0.023,0.326-0.039c-0.775-2.688-1.178-5.498-1.385-8.287
		c-0.208-2.787-0.279-5.85,0.688-8.519C3.217,9.122,3.11,9.149,3.001,9.178c1.041,1.429,1.082,3.398,1.073,5.094
		c-0.006,1.645-0.205,3.28-0.215,4.926c0.11-0.014,0.224-0.025,0.336-0.039C4.164,16.824,3.531,14.55,3.5,12.217
		c-0.113,0.021-0.225,0.043-0.338,0.063c0.512,2.862,0.352,5.781,0,8.651c0.113-0.021,0.225-0.043,0.337-0.062
		c-0.552-1.671-0.962-3.388-1.242-5.122c-0.297-1.832-0.476-3.803,0.024-5.613C2.192,10.172,2.1,10.211,2.01,10.25
		c2.27,0.744,3.241,3.269,3.866,5.354C6.522,17.759,6.778,20,7.34,22.173c0.034,0.133,0.307,0.028,0.336-0.062
		c1.352-4.131-1.005-8.324-0.174-12.495C7.39,9.635,7.279,9.656,7.166,9.677C9,13.167,7.699,17.081,8.385,20.784
		c0.021,0.117,0.334,0.043,0.337-0.064c0.11-4.471-2.548-8.409-2.609-12.842C5.999,7.898,5.885,7.919,5.774,7.941
		c2.104,4.479,2.088,9.534,2.088,14.38c0.112-0.015,0.226-0.025,0.338-0.039c-0.008-4.326-0.354-9.151-3.842-12.196
		c-0.07-0.062-0.375-0.015-0.324,0.111c1.705,4.188,1.74,8.713,1.74,13.165c0.111-0.021,0.225-0.043,0.336-0.064
		c-0.396-4.068-2.229-7.801-2.959-11.801c-0.108,0.037-0.217,0.074-0.324,0.112c2.024,3.163,3.82,7.41,3.121,11.231
		c0.111-0.021,0.225-0.043,0.336-0.062C5.376,18.198,3.381,13.67,4.196,8.92C4.084,8.939,3.97,8.961,3.86,8.982
		c0.168,3.219-0.566,6.74-1.904,9.667c0.109-0.004,0.217-0.008,0.326-0.013c0.199-1.803,0.401-3.604,0.807-5.375
		c0.42-1.857,1.107-4.034,2.785-5.137C5.782,8.113,5.692,8.102,5.598,8.089c-0.029,3.886-1.113,7.918-3.122,11.254
		c0.109-0.004,0.22-0.008,0.326-0.014c0.312-2.029,0.808-4.029,1.441-5.981c0.663-2.034,1.503-4.141,2.899-5.793
		C7.036,7.568,6.926,7.583,6.819,7.594c1.443,4.555-0.32,9.468-0.871,14.031c-0.019,0.146,0.31,0.075,0.338-0.039
		c1.187-4.975,1.718-10.067,2.611-15.098C8.784,6.51,8.671,6.531,8.558,6.553C9.81,11.32,9.638,16.53,8.384,21.28
		c-0.036,0.133,0.301,0.076,0.337-0.039c1.487-4.865,2.705-10.675,1.044-15.646C9.723,5.47,9.412,5.556,9.428,5.686
		c0.549,4.318,1.627,9.25-0.511,13.312c0.109-0.005,0.217-0.009,0.326-0.015c0.021-4.465,0.84-8.975-0.176-13.389
		C9.039,5.467,8.722,5.558,8.732,5.686c0.354,4.848-0.104,9.904-1.566,14.554c0.111-0.014,0.225-0.025,0.337-0.039
		c0.493-5.429-0.519-10.805-1.22-16.166c-0.112,0.029-0.225,0.06-0.336,0.091c0.494,2.361,0.965,4.728,1.177,7.134
		c0.211,2.395,0.198,5.056-0.991,7.218c0.107-0.012,0.217-0.023,0.325-0.037c-0.315-2.271,0.008-4.607,0-6.892
		C6.452,9.513,6.306,7.167,4.879,5.573C4.815,5.502,4.558,5.548,4.554,5.66c-0.153,4.229,0.502,8.576-0.87,12.669
		c0.112-0.021,0.225-0.043,0.338-0.064c-0.513-3.858-0.527-7.755-0.871-11.628c-0.111,0.03-0.225,0.061-0.336,0.09
		c0.377,3.392,1.62,7.346-0.164,10.535c0.108-0.014,0.217-0.024,0.325-0.039c-0.138-3.255,0.621-6.502-0.174-9.718
		C2.774,7.387,2.466,7.461,2.466,7.568c0,2.903-0.027,5.87,0.696,8.702C3.193,16.387,3.5,16.314,3.5,16.208
		c-0.018-3.42-0.971-8.29,2.199-10.688C5.607,5.518,5.515,5.514,5.426,5.51c1.035,2.683-1.473,5.568-2.949,7.585
		c-0.096,0.131,0.232,0.103,0.296,0.038c3.061-3.206,6.6-5.907,9.746-9.023c-0.098-0.014-0.195-0.025-0.294-0.039
		c-1.882,2.545-4.01,5.055-6.873,6.526c0.075,0.027,0.15,0.055,0.226,0.081c2.338-2.788,6.139-4.068,8.008-7.289
		c0.084-0.144-0.207-0.097-0.264-0.061c-2.693,1.726-4.585,4.749-7.751,5.693c0.053,0.04,0.105,0.081,0.16,0.122
		c3.043-2.6,7.141-4.044,11.027-4.802c-0.016-0.06-0.032-0.119-0.048-0.179c-2.711,0.537-5.508,0.964-8.051,2.097
		c-0.101,0.045-0.15,0.176,0.004,0.175c3.928-0.019,7.806-0.68,11.707-1.043c0.17-0.015,0.273-0.207,0.043-0.196
		c-4.434,0.193-8.804,1.026-13.104,2.09c0.018,0.061,0.033,0.12,0.051,0.181c4.653-1.401,9.535-1.744,14.271-2.777
		c0.113-0.022,0.227-0.189,0.041-0.188c-4.688,0.039-9.143,1.71-13.794,2.084c0,0.06,0.001,0.125,0.002,0.186
		c4.933-1.384,10.038-1.901,15.099-2.594c0.115-0.016,0.301-0.195,0.086-0.199C17.352,3.853,11.894,6.191,6.179,5.887
		C6.18,5.946,6.182,6.003,6.183,6.062c4.769-1.886,10.026-1.576,14.927-2.934c0.107-0.03,0.229-0.188,0.041-0.191
		c-5.102-0.132-9.96,1.703-15.014,2.084c0,0.063,0.001,0.125,0.002,0.188c4.623-1.227,9.402-1.883,14.188-1.898
		c0.086-0.001,0.361-0.17,0.166-0.195c-5.007-0.668-9.994,0.66-15.007,0.342C5.47,3.521,5.458,3.585,5.444,3.647
		c4.42-1.029,8.979-1.034,13.488-1.203c0.082-0.004,0.369-0.149,0.166-0.195C14.81,1.273,10.505,2.215,6.179,2.243
		C6.048,2.244,5.825,2.443,6.051,2.443c4.008-0.006,8.025-0.151,12.012,0.348c0.043-0.067,0.086-0.135,0.129-0.201
		c-3.423-0.319-6.846-0.01-10.271,0c-0.132,0-0.355,0.201-0.127,0.201c2.773-0.007,5.576-0.175,8.316,0.342
		c0.058-0.065,0.11-0.13,0.166-0.196C12.06,2.987,8.343,5.161,4.222,5.715C4.25,5.767,4.28,5.817,4.306,5.868
		c1.246-0.733,2.599-1.312,3.972-1.764c0.725-0.237,1.471-0.416,2.228-0.505c0.255-0.029,2.277-0.052,1.935,0.523
		C10.521,7.335,7.05,9.31,5.437,12.75c-0.068,0.146,0.2,0.104,0.264,0.061c1.44-1.007,2.758-2.188,3.891-3.531
		c1.134-1.347,2.165-3.074,1.916-4.897c-0.018-0.129-0.312-0.03-0.336,0.064c-1.038,4.037-1.396,8.252-2.96,12.147
		c0.112-0.014,0.226-0.026,0.338-0.039c1.277-3.659,2.623-7.73,2.086-11.652C10.62,4.785,10.3,4.857,10.299,4.965
		c-0.012,3.194-0.344,6.373-0.695,9.545c-0.017,0.144,0.318,0.08,0.337-0.039c0.569-3.776,2.041-7.432,1.739-11.306
		c-0.01-0.139-0.304-0.015-0.336,0.063c-1.406,3.389-2.135,7.005-3.482,10.414c0.112-0.013,0.226-0.025,0.338-0.039
		c0.59-3.07,3.193-6.56,1.914-9.742c-0.047-0.116-0.278-0.045-0.326,0.037c-1.938,3.34-3.854,6.74-6.766,9.348
		c0.098,0.013,0.194,0.023,0.293,0.037c1.95-3.97,5.6-6.805,8.508-10.04c0.137-0.151-0.191-0.146-0.272-0.063
		c-2.572,2.586-4.752,5.776-8.113,7.418c0.073,0.027,0.148,0.055,0.225,0.081c2.072-3.117,5.257-5.271,7.812-7.957
		c0.143-0.148-0.189-0.141-0.271-0.062C8.598,5.102,6.323,8.068,3.089,9.73l0.227,0.081c1.869-3.081,4.959-5.144,7.137-7.98
		c0.097-0.129-0.211-0.102-0.264-0.063C7.302,3.839,5.26,6.844,2.356,8.882l0.262,0.062C4.221,6.85,6.247,5.107,7.666,2.872
		c0.093-0.148-0.235-0.093-0.292-0.039C5.856,4.225,4.86,6.443,2.915,7.301c0.08,0.019,0.158,0.036,0.236,0.055
		c0.881-2.618,3.156-4.035,5.644-4.937c0.069-0.026,0.144-0.104,0.065-0.16C6.106,0.253,4.161,5.657,3,7.195
		C3.108,7.19,3.217,7.187,3.325,7.181c0.274-1.048,1.211-1.983,1.961-2.717c0.5-0.49,2.408-2.244,2.578-0.688
		C7.876,3.896,8.214,3.82,8.2,3.687"/>
	<path fill="#FFFFFF" d="M10.531,5.36c-0.406-0.001-0.754,0.004-1.15-0.153c-0.035,0.061-0.069,0.12-0.104,0.183
		c4.481-1.097,9.17,0.66,13.663,0.877c0.098,0.005,0.359-0.162,0.162-0.205c-3.561-0.77-7.432-1.095-11.046-0.524
		c-0.08,0.013-0.309,0.16-0.121,0.203c3.782,0.865,7.679,0.701,11.526,0.873c0.139,0.008,0.357-0.182,0.125-0.211
		c-4.041-0.499-8.166-0.042-12.147-1.036c-0.024,0.065-0.05,0.131-0.073,0.196c4.004-0.85,8.083,0.33,12.095,0.53
		c0.066,0.003,0.355-0.123,0.195-0.193C18.961,3.82,13.431,4.484,8.442,4.493c-0.14,0-0.354,0.212-0.125,0.212
		c4.468,0.001,8.937,0.007,13.402,0.174c0.098,0.004,0.361-0.157,0.164-0.205c-3.602-0.87-7.325-0.87-11.004-1.047
		c-0.027,0.068-0.056,0.14-0.082,0.21c4.284-0.162,8.566,0.011,12.838,0.348c0.104,0.008,0.354-0.174,0.162-0.205
		c-4.09-0.681-8.27-0.362-12.359-1.042c-0.024,0.066-0.05,0.131-0.073,0.196c4.13-0.821,8.309-0.332,12.444,0.183
		c0.041-0.069,0.084-0.141,0.125-0.211c-5.391-0.498-10.792-0.011-16.188,0c-0.028,0.07-0.056,0.141-0.082,0.21
		c2.132-0.172,4.254-0.502,6.396-0.519c0.14-0.002,0.354-0.213,0.125-0.212C11.55,2.6,8.935,2.924,6.31,3.105
		c0.017,0.062,0.033,0.124,0.05,0.187c0.76-0.304,1.521-0.627,2.348-0.671C8.839,2.613,8.997,2.411,8.79,2.411
		c-1.585,0-3.163,0.024-4.742,0.176C3.92,2.597,3.754,2.797,3.965,2.796c2.387-0.016,4.756-0.293,7.137,0
		c0.04-0.071,0.083-0.143,0.124-0.212c-1.81-0.02-3.597-0.331-5.395-0.52c-0.028,0.07-0.055,0.14-0.082,0.21
		c2.066-0.334,4.127-0.48,6.186-0.005c0.041-0.068,0.08-0.136,0.121-0.204C8.752,2.376,5.44,2.088,2.133,2.237
		c-0.076,0.004-0.199,0.06-0.187,0.15c0.276,2.366-0.82,4.587-0.697,6.941c0.006,0.129,0.292,0.039,0.326-0.034
		c1.088-2.371,2.052-4.871,2.272-7.49C3.862,1.652,3.525,1.713,3.509,1.84c-0.494,4.336-0.68,8.681-0.52,13.043
		c0.005,0.13,0.315,0.041,0.337-0.063c0.825-4.012-0.127-8.136,0.696-12.148C3.91,2.685,3.797,2.695,3.683,2.709
		C3.321,6.061,2.669,9.426,3.163,12.8c0.021,0.142,0.309,0.031,0.338-0.062c0.928-2.893,0.924-6.603-0.71-9.249
		C2.705,3.545,2.62,3.602,2.535,3.656c2.984,0.472,5.848-0.472,8.784-0.862c0.121-0.018,0.298-0.197,0.082-0.21
		c-2.515-0.153-5.017,0.5-7.399,1.225C3.894,3.841,3.774,4.014,3.965,4.01c2.756-0.047,5.344-1.173,8.049-1.563
		c-0.016-0.061-0.032-0.123-0.049-0.185C8.903,3.872,5.618,5.319,3.194,7.86C3.123,7.935,3.185,7.992,3.267,8.003
		c1.787,0.22,3.479-0.534,5.009-1.373c1.967-1.079,3.719-2.534,5.741-3.513c0.212-0.101,0.021-0.234-0.139-0.16
		c-2.604,1.212-5.218,2.41-7.963,3.28c0.044,0.054,0.088,0.104,0.133,0.157c1.188-0.835,2.436-1.54,3.793-2.062
		c0.217-0.083,0.021-0.225-0.14-0.161C8.318,4.706,7.047,5.423,5.834,6.274C5.688,6.378,5.847,6.469,5.967,6.43
		c2.775-0.879,5.418-2.087,8.051-3.312c-0.045-0.054-0.092-0.106-0.139-0.16c-2.953,1.425-5.396,3.9-8.638,4.727
		c-0.467,0.119-0.947,0.16-1.427,0.148C3.321,7.819,4.078,7.324,4.243,7.174c0.744-0.685,1.583-1.26,2.434-1.804
		c1.735-1.106,3.607-1.989,5.429-2.947c0.132-0.069,0.116-0.209-0.05-0.187C9.381,2.625,6.808,3.753,4.09,3.799
		C4.078,3.865,4.065,3.935,4.052,4.002c2.328-0.708,4.769-1.355,7.224-1.205c0.026-0.07,0.055-0.143,0.083-0.211
		c-2.872,0.382-5.7,1.333-8.623,0.873c-0.08-0.015-0.339,0.034-0.257,0.168c1.616,2.619,1.601,6.289,0.684,9.146
		c0.112-0.021,0.224-0.043,0.336-0.062C3.008,9.354,3.661,6.006,4.022,2.672C4.039,2.52,3.709,2.586,3.683,2.709
		c-0.822,4.011,0.13,8.134-0.694,12.147c0.11-0.021,0.225-0.042,0.337-0.062c-0.16-4.347,0.03-8.673,0.521-12.99
		C3.736,1.816,3.623,1.828,3.509,1.84C3.29,4.439,2.338,6.921,1.258,9.275C1.366,9.263,1.475,9.253,1.584,9.24
		C1.461,6.885,2.558,4.667,2.281,2.298c-0.062,0.05-0.125,0.1-0.188,0.147c3.309-0.148,6.621,0.139,9.921-0.172
		c0.086-0.008,0.305-0.162,0.121-0.204c-2.11-0.488-4.225-0.347-6.348-0.004c-0.12,0.021-0.299,0.188-0.082,0.21
		c1.799,0.188,3.584,0.5,5.396,0.521c0.136,0.001,0.359-0.185,0.125-0.212c-2.383-0.293-4.748-0.015-7.137,0
		c-0.025,0.068-0.053,0.141-0.08,0.21c1.55-0.147,3.1-0.172,4.656-0.172c0.028-0.07,0.054-0.141,0.083-0.21
		C7.861,2.459,7.037,2.806,6.22,3.13C6.068,3.191,6.119,3.326,6.269,3.315c2.599-0.18,5.186-0.505,7.791-0.519
		c0.041-0.071,0.084-0.143,0.125-0.212c-2.172,0.018-4.32,0.348-6.482,0.521c-0.128,0.01-0.292,0.211-0.082,0.21
		c5.396-0.011,10.799-0.498,16.188,0c0.143,0.014,0.354-0.183,0.125-0.211c-4.199-0.521-8.428-0.998-12.621-0.164
		c-0.08,0.018-0.233,0.169-0.075,0.196c4.09,0.68,8.268,0.361,12.358,1.041c0.057-0.069,0.109-0.137,0.164-0.205
		c-4.303-0.339-8.61-0.51-12.925-0.346c-0.131,0.005-0.29,0.198-0.081,0.21c3.653,0.177,7.354,0.172,10.928,1.034
		c0.057-0.067,0.107-0.138,0.164-0.204C17.379,4.5,12.91,4.492,8.442,4.492C8.4,4.564,8.359,4.634,8.317,4.705
		c4.933-0.01,10.435-0.684,15.074,1.37c0.064-0.063,0.129-0.129,0.193-0.191c-4.08-0.203-8.198-1.376-12.271-0.512
		c-0.087,0.018-0.229,0.156-0.075,0.195c4.007,1.001,8.155,0.546,12.223,1.047c0.041-0.068,0.082-0.14,0.125-0.211
		C19.764,6.231,15.89,6.4,12.135,5.543c-0.039,0.066-0.08,0.136-0.121,0.203c3.559-0.562,7.383-0.241,10.889,0.516
		c0.053-0.068,0.107-0.136,0.162-0.205c-4.566-0.222-9.284-1.975-13.843-0.86C9.171,5.211,8.993,5.331,9.118,5.38
		c0.427,0.172,0.826,0.188,1.288,0.19C10.545,5.572,10.758,5.361,10.531,5.36"/>
	<path fill="#FFFFFF" d="M21.777,5.102V4.646c0-0.149-0.338-0.081-0.338,0.038c0,2.295-0.695,4.455,0,6.729
		c0.037,0.122,0.318,0.044,0.338-0.063c0.318-2.07,0.201-4.177,0.521-6.247c-0.109,0.013-0.225,0.024-0.338,0.037
		c-0.156,2.237,0.031,4.434,0.523,6.62c0.023,0.12,0.338,0.046,0.336-0.062c-0.006-2.808-0.164-5.628-0.871-8.355
		c-0.029-0.119-0.336-0.047-0.336,0.062c0.025,2.767,0.688,5.453,1.045,8.184c0.016,0.124,0.352,0.045,0.336-0.09
		c-0.34-2.813-0.301-5.903-1.926-8.354c-0.086,0.055-0.172,0.109-0.26,0.165c1.201,0.326,2.426,0.518,3.654,0.693
		c0.059-0.065,0.111-0.133,0.166-0.199c-1.865-0.02-3.709-0.328-5.533-0.688c-0.023,0.062-0.051,0.126-0.074,0.188
		c1.994-0.513,4.111-0.515,6.141-0.169c0.055-0.065,0.109-0.132,0.164-0.197H21.15c0,0.06,0.002,0.117,0.004,0.178
		c1.012-0.47,2.053-0.639,3.137-0.326c0.012-0.059,0.023-0.115,0.033-0.174c-1.244,0.475-2.57,0.332-3.871,0.322
		c-0.043,0.067-0.084,0.135-0.127,0.202c1.746-0.01,3.479-0.126,5.184,0.343c0.025-0.062,0.055-0.125,0.076-0.188
		c-1.369,0.318-2.783,0.393-4.047,1.057c-0.174,0.092-0.068,0.209,0.094,0.168c1.395-0.348,2.785-0.694,4.178-1.041
		c0.207-0.052,0.152-0.224-0.051-0.184c-2.068,0.402-4.186,1.382-5.354,3.208c-0.082,0.129,0.172,0.105,0.227,0.084
		c1.738-0.733,3.113-2.04,4.736-2.972c-0.088-0.021-0.176-0.042-0.264-0.062c-1.049,1.382-2.201,2.715-2.797,4.365
		c-0.051,0.141,0.279,0.052,0.326-0.013c0.719-0.978,0.867-2.139,0.881-3.323c0.002-0.148-0.332-0.083-0.338,0.038
		c-0.148,2.98,0.324,5.929,0.697,8.877c0.016,0.125,0.348,0.044,0.336-0.091c-0.123-1.499-0.486-2.974-0.711-4.46
		c-0.232-1.539-0.514-3.459,0.355-4.858c-0.109,0.014-0.221,0.024-0.326,0.038c1.285,2.517,0.896,5.503,1.738,8.155
		c0.037,0.117,0.332,0.049,0.34-0.063c0.143-3.229-0.678-6.382-1.047-9.57c-0.111,0.029-0.227,0.061-0.338,0.09
		c0.771,3.017,2.066,6.191,1.395,9.347c0.113-0.021,0.225-0.043,0.336-0.063c-0.732-2.938-1.629-6.396-0.521-9.347
		c-0.105,0.028-0.217,0.059-0.322,0.087c2.02,2.711,0.904,6.82,0.336,9.844c0.109-0.013,0.225-0.024,0.338-0.038
		c0.506-3.042,0.191-6.132,0.348-9.196c-0.113,0.021-0.225,0.042-0.338,0.062c1.008,2.865,0.195,5.914,0.697,8.852
		c0.02,0.135,0.309,0.029,0.336-0.063c0.834-2.808,0.547-5.771-0.352-8.528c-0.021-0.074-0.135-0.06-0.189-0.047
		c-1.371,0.303-2.701,0.146-4.051-0.18c-0.041,0.065-0.082,0.132-0.123,0.197c1.447-0.18,2.898-0.342,4.352-0.521
		c-0.016-0.059-0.031-0.117-0.047-0.177c-1.326,0.462-2.75,0.557-4.004,1.215c-0.105,0.055-0.146,0.163,0.004,0.179
		c0.752,0.073,1.49,0.038,2.24-0.022c0.439-0.036,0.883-0.079,1.322-0.113c0.236-0.016,0.475-0.027,0.711-0.036
		c-0.152,0.115-0.307,0.235-0.455,0.355c-1.223,0.967-2.367,2.106-3.041,3.525c-0.08,0.169,0.254,0.09,0.312,0.016
		c0.496-0.604,1.152-1.009,1.719-1.537c-0.102-0.004-0.199-0.01-0.305-0.015c-0.17,2.313-0.184,4.643-0.52,6.941
		c0.109-0.021,0.225-0.043,0.338-0.063c-0.67-1.347-1.623-2.585-3.209-2.802c-1.639-0.225-3.312,0.229-4.947,0.316
		c-0.014,0.066-0.027,0.134-0.041,0.201c1.84-0.168,3.678-0.336,5.527-0.347c0.135-0.001,0.354-0.204,0.127-0.204h-6.267
		c-0.015,0.063-0.024,0.129-0.039,0.194c1.989-0.683,4.099-0.684,6.179-0.685c0.135,0,0.354-0.204,0.127-0.204h-6.617
		c-0.026,0.067-0.055,0.135-0.083,0.202c1.896-0.216,3.791-0.502,5.705-0.52c0.025-0.066,0.055-0.135,0.084-0.202
		c-2.246,0.172-4.492,0.337-6.748,0.347c-0.028,0.066-0.057,0.134-0.084,0.201c1.023-0.153,2.054-0.172,3.089-0.172
		c0.043-0.067,0.086-0.136,0.127-0.204c-1.396,0.001-3.618-0.001-3.712,1.855c0.111-0.012,0.225-0.024,0.337-0.037
		c0.024-0.582,0.149-1.152,0.174-1.735c-0.111,0.014-0.226,0.024-0.337,0.038c0.001,0.658,0.029,1.29,0.174,1.936
		c0.027,0.124,0.322,0.041,0.337-0.063c0.231-1.618,1.65-1.923,3.076-1.788c0.027-0.067,0.059-0.135,0.084-0.202
		c-1.301,0.185-2.603,0.358-3.874,0.703c-0.117,0.031-0.222,0.178-0.039,0.192c1.687,0.152,3.364-0.153,5.048-0.173
		c0.027-0.067,0.059-0.135,0.084-0.203c-1.586,0.164-3.179,0.207-4.744,0.53c-0.117,0.022-0.224,0.194-0.039,0.192
		c1.587-0.013,3.166-0.174,4.74-0.349c0-0.064-0.002-0.128-0.002-0.191c-1.844,0.365-3.684,0.726-5.439,1.402
		c-0.151,0.059-0.106,0.194,0.047,0.178c1.783-0.195,3.548-0.66,5.354-0.52c0.014-0.064,0.025-0.129,0.037-0.193
		c-1.379,0.318-2.798,0.376-4.177,0.693c-0.119,0.027-0.219,0.18-0.039,0.193c1.748,0.144,3.478-0.152,5.224-0.174
		c0.025-0.066,0.055-0.134,0.084-0.202c-1.803,0.169-3.615,0.188-5.396,0.521c-0.108,0.021-0.305,0.202-0.084,0.202
		c1.742,0,3.484,0.012,5.221,0.174c0.043-0.067,0.086-0.136,0.127-0.203h-5.395c-0.028,0.066-0.057,0.135-0.084,0.201
		c1.897-0.162,3.782-0.15,5.663,0.17c0.057-0.065,0.109-0.133,0.166-0.198h-5.745c-0.028,0.067-0.057,0.135-0.084,0.203
		c0.717-0.07,1.34-0.471,2.004-0.719c0.037-0.015,0.121-0.068,0.099-0.122c-0.296-0.696-0.877-1.23-1.405-1.758
		c-0.072-0.073-0.228-0.026-0.291,0.035c-0.52,0.499-1.021,0.914-1.252,1.613c-0.019,0.058,0.066,0.082,0.105,0.082
		c2.047,0.019,4.078,0.339,6.053,0.862c0.084,0.021,0.391-0.104,0.234-0.182c-0.115-0.059-0.23-0.116-0.348-0.174
		c-0.1-0.049-0.262,0.001-0.303,0.104c-0.467,1.183-0.521,2.389-0.521,3.645c0.113-0.014,0.225-0.024,0.338-0.038
		c-0.016-1.344-0.174-2.718-0.521-4.017c-0.033-0.129-0.354-0.041-0.338,0.09c0.168,1.275,0.195,2.566,0.521,3.816
		c0.031,0.119,0.338,0.047,0.338-0.062c-0.002-0.938-0.01-1.876-0.176-2.803c-0.111,0.029-0.225,0.06-0.336,0.09
		c0.174,0.863,0.328,1.72,0.35,2.604c0.047-0.047,0.096-0.092,0.145-0.139c-1.58,0.315-3.188,0.176-4.786,0.164
		c-0.043,0.067-0.086,0.137-0.127,0.203c2.146-0.009,4.295-0.16,6.438,0c0.027-0.066,0.059-0.136,0.086-0.202
		c-1.977,0.351-4,0.543-5.834,1.412c-0.213,0.103-0.019,0.216,0.139,0.152c1.773-0.713,3.521-1.504,5.351-2.066
		c-0.043-0.049-0.088-0.1-0.131-0.147c-2.359,1.362-4.806,2.574-7.136,3.992c-0.187,0.111,0.066,0.174,0.174,0.133
		c2.692-1.037,5-2.729,7.349-4.357c-0.08-0.03-0.162-0.061-0.242-0.091c-1.996,2.14-4.379,3.855-6.614,5.728
		c0.092,0.021,0.182,0.045,0.272,0.066c1.959-1.789,3.771-3.747,5.887-5.356c-0.078-0.029-0.158-0.06-0.24-0.09
		c-1.664,1.813-3.64,3.313-5.224,5.208c-0.129,0.152,0.161,0.142,0.243,0.088c2.244-1.413,3.992-3.434,6.092-5.032
		c-0.082-0.029-0.162-0.06-0.24-0.09c-2.117,2.13-3.982,4.479-5.92,6.769c-0.129,0.152,0.161,0.144,0.243,0.091
		c3.1-2.002,4.658-5.625,6.994-8.354c-0.1-0.014-0.197-0.027-0.295-0.04c-1.77,3.493-3.977,6.745-5.743,10.238
		c-0.082,0.16,0.253,0.101,0.313,0.017c2.477-3.438,2.965-7.771,3.666-11.829c0.023-0.145-0.309-0.078-0.336,0.038
		c-0.645,2.464-0.006,4.893,0.521,7.315c0.027,0.134,0.311,0.031,0.336-0.063c0.828-2.871-0.162-5.746-0.871-8.529
		c-0.111,0.029-0.225,0.061-0.336,0.09c1.422,3.461,1.744,7.441,0.869,11.081c0.111-0.015,0.227-0.023,0.338-0.037
		c0.5-3.34,0.186-6.709,0.174-10.065c-0.107,0.028-0.217,0.058-0.322,0.086c2.959,2.896,1.752,8.12,1.379,11.752
		c-0.018,0.149,0.311,0.078,0.338-0.037c1.062-4.525,1.234-9.365,0.174-13.909c-0.031-0.133-0.342-0.038-0.338,0.09
		c0.195,4.547,0.82,9.083,1.742,13.536c0.025,0.136,0.309,0.027,0.336-0.063c1.354-4.353,1.078-9.008,0-13.389
		c-0.031-0.127-0.359-0.041-0.336,0.09c0.848,4.644,1.059,9.356,1.393,14.058c0.01,0.134,0.311,0.023,0.336-0.063
		c1.607-4.984,0.578-10.53-0.693-15.473c-0.035-0.129-0.352-0.039-0.338,0.091c0.523,5.615,0.852,11.26,1.74,16.835
		c0.021,0.131,0.283,0.024,0.326-0.039c1.363-2.115,1.484-5.012,1.432-7.443c-0.057-2.547-0.404-5.708-2.131-7.729
		c-0.07-0.086-0.301-0.02-0.322,0.087c-0.664,2.972-0.383,6.054-1.045,9.022c0.111-0.021,0.225-0.043,0.338-0.062
		c-0.447-4.784-5.842-1.4-7.791,0.356c-0.151,0.14,0.17,0.132,0.242,0.091c1.986-1.093,3.893-2.349,5.602-3.843
		c0.098-0.084-0.035-0.146-0.115-0.133c-2.576,0.467-4.561,2.392-6.741,3.688c0.07,0.035,0.142,0.072,0.212,0.111
		c1.709-1.037,3.297-2.248,4.873-3.471c0.172-0.134-0.061-0.178-0.174-0.135c-2.232,0.842-4.557,1.416-6.789,2.257
		c-0.186,0.069-0.062,0.216,0.094,0.168c2.263-0.69,4.55-1.349,6.917-1.554c0.123-0.013,0.295-0.187,0.084-0.202
		c-1.928-0.149-3.826,0.337-5.66,0.879c-0.203,0.06-0.154,0.226,0.049,0.183c2.457-0.502,4.875-1.34,7.396-1.377
		c0.016-0.064,0.027-0.129,0.039-0.192c-3.02,0.938-6.156,1.854-8.784,3.68c-0.089,0.062-0.073,0.155,0.043,0.157
		c3.631,0.113,6.667-2.283,10.01-3.309c-0.031-0.055-0.062-0.11-0.094-0.168c-3.031,1.42-6.09,2.783-9.053,4.338
		c-0.21,0.111-0.019,0.211,0.139,0.154c2.472-0.918,4.556-2.586,6.962-3.645c-0.068-0.037-0.139-0.074-0.205-0.109
		c-1.814,1.584-4.088,2.566-5.743,4.338c-0.128,0.137,0.125,0.141,0.204,0.109c2.309-0.933,4.133-2.715,6.438-3.646
		c-0.066-0.037-0.135-0.073-0.203-0.108c-2,1.936-4.652,2.942-6.933,4.487c-0.18,0.121,0.063,0.177,0.174,0.134
		c2.794-1.086,5.038-3.093,7.522-4.705c0.189-0.125-0.1-0.188-0.213-0.112c-2.451,1.581-4.764,3.354-6.992,5.229
		c-0.147,0.123,0.139,0.134,0.205,0.109c3.172-1.109,5.342-3.738,7.898-5.771c-0.09-0.021-0.182-0.047-0.271-0.065
		c-2.398,2.012-5.016,3.832-6.811,6.446c-0.086,0.123,0.174,0.109,0.227,0.084c2.59-1.354,4.16-3.918,6.16-5.944
		c-0.1-0.013-0.195-0.027-0.293-0.039c-1.877,2.521-4.166,4.726-5.744,7.461c-0.092,0.16,0.236,0.086,0.293,0.041
		c2.379-1.879,3.812-4.636,5.418-7.142c-0.107,0.004-0.217,0.009-0.326,0.013c-0.781,2.424-2.195,4.58-3.133,6.94
		c0.111-0.014,0.225-0.024,0.336-0.037c0.541-2.381,0.832-4.867,1.904-7.09c-0.109,0.014-0.219,0.023-0.326,0.039
		c0.408,2.541,0.324,5.127,0.896,7.646c0.027,0.121,0.33,0.045,0.336-0.063c0.186-3.031,0.875-5.896-0.023-8.888
		c-0.037-0.127-0.369-0.039-0.336,0.09c0.699,2.691,1.023,5.447,1.592,8.166c0.029,0.136,0.311,0.033,0.338-0.062
		c1.078-3.836,0.328-7.604,0.148-11.491c-0.113,0.029-0.229,0.059-0.338,0.089c1.031,3.644,1.723,7.364,2.264,11.107
		c0.02,0.138,0.305,0.021,0.336-0.063c0.732-2.088,0.162-4.254-0.475-6.289c-0.648-2.065-1.662-4.357-1.094-6.553
		c-0.105,0.028-0.217,0.058-0.322,0.087c1.545,1.616,1.607,4.044,1.645,6.149c0.033,2.023-0.162,4.228,0.605,6.148
		c0.049,0.119,0.312,0.045,0.338-0.062c0.895-4.448,0.564-9.369-1.223-13.563c-0.053-0.127-0.34-0.04-0.336,0.09
		c0.178,4.576,0.316,9.188-0.695,13.686c-0.029,0.137,0.311,0.085,0.34-0.038c1.014-4.515,0.871-9.145,0.691-13.736
		c-0.109,0.03-0.223,0.061-0.336,0.09c1.783,4.186,2.113,9.074,1.221,13.512c0.109-0.021,0.225-0.043,0.338-0.063
		c-0.797-1.987-0.566-4.263-0.611-6.354c-0.043-2.066-0.154-4.406-1.666-5.989c-0.078-0.08-0.295-0.021-0.324,0.088
		c-0.514,1.977,0.262,4.031,0.867,5.899c0.721,2.227,1.512,4.631,0.701,6.94c0.109-0.021,0.223-0.041,0.336-0.062
		c-0.541-3.743-1.23-7.467-2.262-11.106c-0.039-0.132-0.346-0.038-0.338,0.089c0.18,3.869,0.924,7.626-0.148,11.439
		c0.113-0.021,0.225-0.043,0.336-0.062c-0.566-2.721-0.891-5.477-1.592-8.168c-0.111,0.029-0.227,0.061-0.336,0.09
		c0.895,2.971,0.205,5.826,0.023,8.836c0.111-0.021,0.227-0.043,0.336-0.062c-0.57-2.521-0.484-5.104-0.895-7.647
		c-0.021-0.123-0.289-0.037-0.324,0.036c-1.082,2.242-1.381,4.74-1.926,7.144c-0.035,0.146,0.295,0.063,0.336-0.037
		c0.938-2.361,2.352-4.518,3.135-6.941c0.043-0.14-0.279-0.062-0.328,0.012c-1.594,2.486-3.014,5.225-5.375,7.09
		c0.102,0.015,0.197,0.025,0.295,0.041c1.578-2.735,3.867-4.94,5.744-7.463c0.102-0.133-0.229-0.104-0.293-0.041
		c-1.953,1.979-3.498,4.535-6.023,5.857c0.072,0.027,0.148,0.055,0.227,0.084c1.781-2.596,4.385-4.398,6.77-6.396
		c0.152-0.129-0.188-0.137-0.273-0.065c-2.516,1.998-4.646,4.595-7.766,5.685c0.067,0.037,0.137,0.073,0.203,0.108
		c2.213-1.858,4.504-3.614,6.936-5.183c-0.072-0.037-0.143-0.075-0.213-0.112c-2.461,1.599-4.682,3.59-7.447,4.666
		c0.059,0.045,0.117,0.088,0.175,0.133c2.302-1.562,4.974-2.582,6.993-4.534c0.135-0.132-0.131-0.142-0.205-0.109
		c-2.309,0.93-4.133,2.715-6.439,3.645c0.067,0.037,0.137,0.074,0.205,0.109c1.654-1.771,3.932-2.756,5.742-4.34
		c0.143-0.121-0.131-0.142-0.203-0.107c-2.404,1.059-4.49,2.727-6.964,3.645c0.046,0.052,0.092,0.103,0.139,0.152
		c2.963-1.557,6.02-2.92,9.051-4.338c0.178-0.084,0.064-0.218-0.092-0.168c-3.012,0.92-5.676,2.875-8.852,3.258
		c-0.254,0.031-1.065,0.262-0.502-0.111c0.304-0.2,0.619-0.381,0.939-0.559c0.812-0.455,1.674-0.822,2.537-1.166
		c1.537-0.615,3.127-1.095,4.705-1.586c0.104-0.033,0.23-0.197,0.039-0.195c-2.59,0.039-5.059,0.885-7.574,1.4
		c0.018,0.061,0.033,0.121,0.049,0.182c1.776-0.522,3.616-1.004,5.483-0.854c0.027-0.068,0.057-0.137,0.084-0.203
		c-2.396,0.209-4.717,0.871-7.009,1.571c0.03,0.056,0.062,0.109,0.094,0.168c2.233-0.842,4.555-1.415,6.79-2.258
		c-0.061-0.044-0.117-0.09-0.176-0.133c-1.578,1.226-3.164,2.436-4.874,3.473c-0.194,0.117,0.099,0.183,0.212,0.111
		c2.086-1.24,4.029-3.153,6.488-3.602c-0.039-0.044-0.078-0.088-0.117-0.133c-1.688,1.477-3.572,2.714-5.539,3.795
		c0.08,0.027,0.162,0.059,0.242,0.09c1.127-1.02,2.428-1.908,3.854-2.449c0.744-0.283,1.613-0.438,2.342-0.037
		c0.738,0.408,0.916,1.395,0.986,2.15c0.012,0.129,0.312,0.034,0.338-0.064c0.662-2.971,0.381-6.052,1.045-9.022
		c-0.109,0.028-0.217,0.059-0.326,0.087c1.631,1.91,1.969,4.834,2.09,7.241c0.125,2.502,0.01,5.604-1.395,7.78
		c0.107-0.012,0.217-0.022,0.324-0.037c-0.891-5.573-1.217-11.218-1.738-16.834c-0.113,0.03-0.227,0.062-0.338,0.091
		c1.271,4.931,2.301,10.446,0.695,15.42c0.111-0.021,0.227-0.043,0.336-0.062c-0.334-4.699-0.545-9.414-1.393-14.059
		c-0.111,0.029-0.225,0.061-0.336,0.091c1.074,4.364,1.35,8.999-0.002,13.336c0.113-0.021,0.227-0.043,0.338-0.063
		c-0.922-4.453-1.547-8.989-1.74-13.536c-0.111,0.029-0.225,0.061-0.338,0.09c1.061,4.529,0.889,9.344-0.174,13.858
		c0.113-0.015,0.227-0.025,0.338-0.039c0.375-3.655,1.578-8.931-1.406-11.85c-0.064-0.065-0.322-0.031-0.322,0.087
		c0.012,3.356,0.324,6.729-0.176,10.064c-0.02,0.146,0.311,0.079,0.338-0.038c0.879-3.65,0.559-7.661-0.869-11.133
		c-0.051-0.121-0.369-0.038-0.338,0.09c0.703,2.769,1.693,5.625,0.869,8.479c0.111-0.021,0.227-0.043,0.338-0.062
		c-0.521-2.402-1.158-4.814-0.521-7.265c-0.111,0.014-0.225,0.025-0.336,0.038c-0.699,4.038-1.18,8.354-3.646,11.774
		c0.104,0.004,0.21,0.011,0.313,0.017c1.77-3.494,3.977-6.746,5.744-10.24c0.078-0.151-0.234-0.109-0.293-0.041
		c-2.312,2.703-3.869,6.326-6.935,8.309c0.081,0.03,0.162,0.059,0.242,0.09c1.938-2.287,3.802-4.64,5.919-6.769
		c0.139-0.139-0.162-0.15-0.242-0.09c-2.102,1.6-3.85,3.619-6.093,5.033c0.08,0.028,0.162,0.061,0.242,0.09
		c1.583-1.892,3.558-3.394,5.222-5.208c0.133-0.144-0.162-0.149-0.242-0.089c-2.141,1.624-3.969,3.598-5.948,5.403
		c-0.15,0.138,0.187,0.14,0.272,0.065c2.234-1.874,4.617-3.59,6.613-5.729c0.137-0.146-0.162-0.146-0.24-0.089
		c-2.33,1.612-4.607,3.292-7.274,4.318c0.059,0.045,0.116,0.089,0.176,0.133c2.331-1.417,4.774-2.628,7.137-3.991
		c0.158-0.093-0.02-0.184-0.131-0.148c-1.861,0.572-3.637,1.373-5.441,2.099c0.046,0.051,0.092,0.103,0.139,0.151
		c1.777-0.844,3.74-1.024,5.654-1.362c0.113-0.021,0.305-0.188,0.084-0.201c-2.145-0.16-4.292-0.01-6.439,0
		c-0.134,0-0.356,0.201-0.127,0.202c1.664,0.011,3.32,0.146,4.96-0.186c0.066-0.014,0.146-0.061,0.145-0.137
		c-0.021-0.882-0.176-1.738-0.35-2.604c-0.023-0.126-0.357-0.042-0.336,0.09c0.162,0.911,0.174,1.828,0.174,2.751
		c0.113-0.021,0.227-0.043,0.336-0.064c-0.326-1.25-0.354-2.541-0.52-3.816c-0.111,0.029-0.227,0.061-0.336,0.09
		c0.346,1.279,0.508,2.64,0.52,3.965c0.002,0.148,0.338,0.082,0.338-0.037c0.002-1.256,0.057-2.462,0.521-3.646
		c-0.102,0.033-0.201,0.068-0.301,0.104c0.115,0.058,0.23,0.116,0.348,0.173c0.078-0.061,0.156-0.121,0.232-0.181
		c-1.16-0.311-2.338-0.537-3.529-0.696c-0.679-0.09-1.359-0.142-2.042-0.168c-0.886-0.036,0.471-1.183,0.734-1.437
		c-0.097,0.012-0.194,0.022-0.292,0.033c0.433,0.434,0.858,0.864,1.208,1.367c0.258,0.372-0.092,0.369-0.34,0.482
		c-0.391,0.177-0.779,0.37-1.213,0.412c-0.123,0.013-0.295,0.202-0.084,0.202h5.744c0.088,0,0.361-0.164,0.164-0.197
		c-1.936-0.33-3.873-0.345-5.824-0.179c-0.123,0.012-0.295,0.202-0.084,0.202h5.396c0.129,0,0.359-0.182,0.127-0.203
		c-1.736-0.163-3.479-0.174-5.223-0.175c-0.027,0.068-0.057,0.136-0.084,0.202c1.782-0.333,3.596-0.352,5.396-0.521
		c0.123-0.013,0.293-0.205,0.084-0.201c-1.744,0.02-3.479,0.314-5.224,0.173c-0.014,0.064-0.024,0.129-0.039,0.193
		c1.38-0.318,2.8-0.376,4.179-0.693c0.119-0.028,0.219-0.181,0.039-0.194c-1.836-0.143-3.625,0.324-5.439,0.522
		c0.017,0.059,0.033,0.117,0.049,0.177c1.728-0.667,3.541-1.015,5.354-1.373c0.162-0.032,0.189-0.214-0.004-0.191
		c-1.551,0.171-3.099,0.333-4.658,0.346c-0.014,0.063-0.026,0.129-0.039,0.193c1.536-0.316,3.099-0.352,4.653-0.513
		c0.123-0.013,0.297-0.205,0.086-0.202c-1.686,0.021-3.365,0.325-5.049,0.174c-0.013,0.064-0.025,0.129-0.038,0.193
		c1.24-0.337,2.513-0.506,3.783-0.687c0.119-0.017,0.301-0.182,0.084-0.201c-1.582-0.15-3.278,0.222-3.539,2.029
		c0.111-0.021,0.226-0.043,0.338-0.063c-0.142-0.629-0.174-1.239-0.175-1.883c0-0.149-0.332-0.083-0.337,0.037
		c-0.026,0.578-0.153,1.148-0.178,1.73c-0.008,0.149,0.33,0.084,0.337-0.037c0.085-1.66,1.994-1.613,3.249-1.614
		c0.135,0,0.355-0.203,0.127-0.203c-1.062,0.001-2.119,0.017-3.175,0.175c-0.114,0.017-0.301,0.203-0.084,0.202
		c2.283-0.009,4.556-0.175,6.832-0.349c0.125-0.011,0.295-0.204,0.086-0.202c-1.943,0.018-3.861,0.304-5.787,0.521
		c-0.121,0.014-0.297,0.202-0.086,0.202h6.615c0.043-0.068,0.086-0.136,0.127-0.204c-2.139,0.001-4.311,0.004-6.354,0.705
		c-0.1,0.034-0.232,0.192-0.039,0.192h6.268c0.043-0.067,0.086-0.137,0.127-0.203c-1.877,0.01-3.744,0.179-5.612,0.349
		c-0.17,0.017-0.272,0.213-0.041,0.201c1.452-0.08,2.903-0.416,4.36-0.365c1.732,0.062,2.777,1.287,3.498,2.739
		c0.055,0.109,0.318,0.055,0.338-0.063c0.338-2.301,0.352-4.628,0.521-6.941c0.012-0.146-0.25-0.066-0.305-0.015
		c-0.586,0.546-1.25,0.965-1.762,1.588c0.104,0.005,0.211,0.011,0.312,0.016c0.779-1.64,2.18-2.865,3.605-3.943
		c0.08-0.061,0.08-0.159-0.043-0.157c-1.512,0.021-3.02,0.321-4.527,0.173c0.002,0.061,0.004,0.119,0.006,0.18
		c1.248-0.657,2.686-0.754,4.004-1.215c0.152-0.054,0.104-0.196-0.049-0.178c-1.449,0.18-2.9,0.343-4.352,0.521
		c-0.08,0.01-0.307,0.153-0.121,0.197c1.436,0.343,2.848,0.489,4.303,0.168c-0.062-0.016-0.129-0.031-0.191-0.046
		c0.893,2.74,1.178,5.685,0.35,8.477c0.111-0.021,0.223-0.042,0.336-0.062c-0.502-2.938,0.312-5.983-0.697-8.851
		c-0.039-0.115-0.33-0.05-0.336,0.063c-0.152,3.064,0.158,6.155-0.348,9.197c-0.023,0.143,0.312,0.084,0.338-0.038
		c0.576-3.055,1.682-7.195-0.363-9.939c-0.072-0.1-0.289-0.006-0.322,0.086c-1.111,2.963-0.213,6.452,0.521,9.397
		c0.033,0.127,0.314,0.037,0.338-0.063c0.678-3.173-0.619-6.364-1.393-9.397c-0.033-0.128-0.355-0.04-0.338,0.091
		c0.367,3.171,1.188,6.307,1.043,9.519c0.111-0.021,0.227-0.042,0.338-0.063c-0.842-2.652-0.455-5.64-1.74-8.155
		c-0.059-0.112-0.271-0.051-0.326,0.037c-0.771,1.248-0.627,2.859-0.469,4.253c0.195,1.733,0.664,3.432,0.807,5.171
		c0.111-0.03,0.225-0.061,0.336-0.09c-0.373-2.931-0.846-5.861-0.693-8.825c-0.113,0.013-0.227,0.025-0.34,0.038
		c-0.014,1.162-0.148,2.308-0.857,3.271c0.107-0.004,0.219-0.007,0.326-0.011c0.588-1.631,1.738-2.949,2.771-4.312
		c0.105-0.139-0.215-0.093-0.262-0.064c-1.6,0.915-2.951,2.207-4.664,2.931c0.076,0.027,0.152,0.057,0.227,0.084
		c1.113-1.74,3.115-2.655,5.092-3.04c-0.02-0.062-0.033-0.122-0.051-0.184c-1.393,0.348-2.785,0.694-4.178,1.041
		c0.031,0.057,0.062,0.112,0.092,0.168c1.234-0.646,2.625-0.715,3.961-1.025c0.084-0.021,0.229-0.146,0.076-0.188
		c-1.729-0.476-3.484-0.362-5.26-0.353c-0.133,0-0.355,0.2-0.127,0.202c1.406,0.014,2.797,0.14,4.135-0.371
		c0.084-0.031,0.154-0.14,0.033-0.174c-1.191-0.343-2.367-0.147-3.477,0.367c-0.102,0.046-0.148,0.178,0.004,0.178h4.178
		c0.088,0,0.363-0.163,0.166-0.196c-2.111-0.361-4.312-0.356-6.395,0.178c-0.072,0.019-0.234,0.157-0.074,0.188
		c1.848,0.363,3.719,0.681,5.605,0.698c0.09,0.001,0.359-0.17,0.164-0.197c-1.229-0.177-2.453-0.367-3.654-0.694
		c-0.074-0.021-0.338,0.044-0.258,0.165c1.613,2.429,1.564,5.517,1.902,8.307c0.113-0.029,0.225-0.06,0.336-0.09
		c-0.354-2.712-1.018-5.384-1.043-8.13c-0.113,0.021-0.225,0.042-0.338,0.062c0.703,2.713,0.863,5.517,0.871,8.307
		c0.109-0.022,0.225-0.043,0.336-0.064c-0.488-2.17-0.678-4.349-0.521-6.568c0.012-0.147-0.316-0.082-0.338,0.037
		c-0.318,2.071-0.203,4.178-0.52,6.247c0.109-0.021,0.225-0.042,0.336-0.062c-0.691-2.261,0.002-4.403,0.002-6.679
		c0-0.149-0.338-0.08-0.338,0.038v0.452C21.439,5.29,21.777,5.22,21.777,5.102"/>
	<path fill="#FFFFFF" d="M19.303,11.109c-0.193-0.088-0.184-0.388-0.459-0.399c-0.35-0.018-0.609,0.233-0.854,0.452
		c-0.146,0.131,0.162,0.145,0.242,0.09c0.688-0.478,1.455-0.724,2.227-1.021c-0.059-0.045-0.117-0.089-0.176-0.134
		c-0.615,0.417-1.217,0.848-1.877,1.195c-0.205,0.107-0.02,0.23,0.137,0.152c0.996-0.503,1.965-1.059,2.961-1.562
		c0.207-0.104,0.02-0.223-0.139-0.152c-0.92,0.41-1.623,1.075-2.33,1.778c-0.143,0.141,0.162,0.144,0.242,0.09
		c1-0.675,1.959-1.407,2.959-2.083c-0.08-0.029-0.162-0.06-0.242-0.089c-0.801,0.784-1.67,1.507-2.283,2.455
		c-0.092,0.141,0.209,0.102,0.264,0.063c1.072-0.735,1.977-1.638,2.814-2.627c0.135-0.158-0.191-0.147-0.273-0.065
		c-1.104,1.104-2.215,2.229-2.814,3.695c-0.051,0.125,0.234,0.064,0.273,0.038c1.533-1.057,2.717-2.479,3.707-4.041
		c0.09-0.141-0.209-0.103-0.264-0.063c-1.713,1.198-2.92,3.143-3.545,5.108c-0.043,0.137,0.26,0.062,0.305,0.015
		c1.857-2.022,4.031-3.938,5.244-6.447c0.07-0.146-0.201-0.108-0.264-0.062C21.836,9.9,19.711,14.06,18.305,17.81
		c-0.049,0.133,0.262,0.062,0.307,0.014c2.662-2.852,4.986-5.989,7.156-9.225c0.094-0.137-0.23-0.109-0.295-0.04
		c-2.906,3.296-5.117,7.115-7.506,10.785c-0.098,0.15,0.238,0.086,0.295,0.041c3.125-2.563,5.916-5.931,7.682-9.57
		c0.074-0.156-0.232-0.104-0.293-0.04c-3.066,3.254-5.859,6.854-7.684,10.959c-0.068,0.16,0.232,0.104,0.295,0.041
		c3.029-3.035,5.822-6.305,8.377-9.745c0.098-0.129-0.23-0.111-0.295-0.041c-2.803,3.142-5.707,6.22-8.027,9.745
		c-0.098,0.146,0.25,0.096,0.314,0.016c2.295-2.801,4.855-5.381,6.963-8.331c0.098-0.135-0.23-0.107-0.295-0.04
		c-2.838,3.021-5.408,6.277-7.68,9.744c-0.094,0.143,0.23,0.102,0.295,0.041c2.65-2.689,4.373-6.205,7.455-8.48
		c-0.09-0.021-0.178-0.042-0.266-0.063c-1.639,3.507-4.953,5.819-6.789,9.198c-0.086,0.16,0.234,0.088,0.295,0.041
		c2.832-2.321,5.188-5.172,6.982-8.355c0.086-0.152-0.232-0.102-0.295-0.041c-2.539,2.562-4.648,5.633-5.773,9.077
		c-0.043,0.127,0.283,0.081,0.324-0.013c1.377-3.072,2.947-6.053,4.525-9.023c-0.104-0.005-0.209-0.011-0.314-0.016
		c-1.359,2.605-1.736,5.652-2.1,8.529c-0.021,0.158,0.295,0.061,0.336-0.037c2.014-4.828,2.605-10.279,2.439-15.472
		c-0.008-0.126-0.291-0.029-0.326,0.037c-1.855,3.456-1.463,7.942-0.881,11.679c0.018,0.121,0.332,0.047,0.336-0.062
		c0.168-4.423-0.324-8.857-1.045-13.216c-0.021-0.125-0.322-0.041-0.336,0.063c-0.342,2.454-0.76,4.895-0.9,7.371
		c-0.131,2.298-0.096,4.859,1.086,6.908c0.049,0.084,0.246,0.018,0.293-0.035c1.555-1.729,1.711-4.402,1.822-6.604
		c0.137-2.673-0.104-5.359,0.125-8.025c0.014-0.16-0.299-0.063-0.338,0.038c-1.688,4.343-1.062,8.995-1.045,13.536
		c0.002,0.147,0.338,0.082,0.338-0.038c-0.006-2.454-0.131-4.904,0.002-7.359c0.125-2.272,0.285-5.608,2.229-7.167
		c-0.102,0.005-0.203,0.008-0.305,0.013c0.645,3.901-1.195,7.733-0.521,11.628c0.021,0.127,0.35,0.042,0.338-0.091
		c-0.365-3.839-1.201-7.614-1.566-11.453c-0.113,0.029-0.225,0.061-0.336,0.09c1.84,4.17,1.414,9.106,0.869,13.511
		c0.111-0.013,0.225-0.025,0.338-0.037c0.012-2.289,0.408-5.035-1.059-6.991c-0.062-0.088-0.23-0.018-0.293,0.032
		c-2.191,1.757-1.598,5.054-1.945,7.514c0.111-0.021,0.225-0.044,0.336-0.062c-0.357-2.322-0.697-4.649-1.217-6.942
		c-0.031-0.129-0.352-0.04-0.336,0.09c0.188,2.146,0.836,4.234,0.865,6.396c0.113-0.021,0.229-0.043,0.338-0.064
		c-0.195-2.163-0.68-4.282-1.043-6.421c-0.021-0.127-0.35-0.042-0.338,0.09c0.172,1.979,0.197,3.97,0.697,5.901
		c0.031,0.123,0.283,0.037,0.326-0.039c1.479-2.688,1.561-5.899,1.924-8.876c0.02-0.153-0.301-0.07-0.336,0.038
		c-1.24,3.873-0.541,8.028-0.348,12c0.006,0.125,0.291,0.03,0.324-0.037c1.24-2.436,0.879-5.256,0.531-7.862
		c-0.016-0.12-0.328-0.044-0.336,0.064c-0.156,2.056-0.414,4.105-0.486,6.166c-0.074,2.096,0.176,4.162,0.688,6.193
		c0.031,0.127,0.279,0.028,0.324-0.039c1.709-2.541,2.344-5.586,3.979-8.166c-0.107,0.002-0.217,0.007-0.326,0.012
		c-0.951,2.996-1.846,5.879-1.713,9.061c0.004,0.127,0.289,0.027,0.324-0.035c1.418-2.549,2.207-5.125,1.729-8.049
		c-0.021-0.121-0.33-0.045-0.34,0.064c-0.15,2.342-0.615,4.62-0.494,6.979c0.008,0.137,0.309,0.023,0.338-0.062
		c0.441-1.312,2.35-2.728,1.539-4.203c-0.064-0.117-0.262-0.041-0.326,0.039c-1.557,1.875-2.545,3.644-2.246,6.137
		c0.014,0.123,0.322,0.041,0.338-0.062c0.625-4.896-7.908-1.772-9.986-0.751c-0.105,0.053-0.143,0.162,0.005,0.178
		c3.399,0.361,7.565-0.35,10.413-2.312c0.09-0.062,0.074-0.151-0.041-0.156c-3.354-0.143-6.816,1.104-9.545,3.007
		c0.072,0.037,0.145,0.075,0.213,0.112c2.117-1.557,5.303-2.817,5.955-5.641c0.027-0.115-0.188-0.082-0.236-0.059
		c-2.432,1.17-4.217,3.279-6.479,4.706c-0.122,0.075-0.033,0.177,0.085,0.155c2.622-0.459,5.194-0.806,7.747,0.17
		c0.092,0.035,0.416-0.058,0.266-0.17c-1.469-1.107-3.033-2.09-4.855-2.478c-1.824-0.388-3.66,0.095-5.292,0.912
		c-0.055,0.026-0.127,0.075-0.086,0.146c0.383,0.646,0.929,0.733,1.623,0.896c0.113,0.026,0.396-0.147,0.203-0.192
		c-0.447-0.104-0.895-0.162-1.258-0.47c-0.468-0.396,0.577-0.651,0.827-0.748c1.124-0.438,2.347-0.56,3.536-0.394
		c1.883,0.265,3.555,1.377,5.039,2.496c0.088-0.059,0.176-0.112,0.266-0.17c-2.633-1.006-5.26-0.676-7.971-0.199
		c0.027,0.052,0.059,0.104,0.084,0.154c2.238-1.408,4.004-3.51,6.402-4.664c-0.078-0.02-0.156-0.037-0.236-0.059
		c-0.635,2.746-3.764,3.971-5.83,5.489c-0.186,0.136,0.102,0.19,0.213,0.112c1.451-1.015,3.061-1.763,4.746-2.289
		c0.869-0.271,1.764-0.455,2.664-0.566c0.424-0.053,0.854-0.07,1.281-0.074c0.602-0.006,0.029,0.146-0.234,0.297
		c-2.672,1.537-6.328,2.105-9.368,1.781c0,0.061,0.003,0.119,0.005,0.178c2.004-0.982,10.104-3.988,9.51,0.639
		c0.113-0.021,0.227-0.043,0.338-0.063c-0.293-2.457,0.701-4.194,2.227-6.032c-0.107,0.014-0.217,0.024-0.324,0.036
		c0.773,1.414-1.104,2.863-1.541,4.15c0.111-0.021,0.225-0.042,0.336-0.064c-0.121-2.34,0.348-4.601,0.498-6.926
		c-0.113,0.021-0.227,0.043-0.34,0.063c0.479,2.896-0.299,5.416-1.701,7.939c0.107-0.013,0.217-0.023,0.324-0.037
		c-0.131-3.162,0.77-6.029,1.717-9.01c0.043-0.14-0.281-0.062-0.326,0.012c-1.639,2.582-2.271,5.627-3.979,8.168
		c0.109-0.012,0.217-0.023,0.326-0.037c-0.512-2.021-0.742-4.055-0.688-6.141c0.053-2.062,0.328-4.112,0.486-6.167
		c-0.111,0.021-0.225,0.043-0.338,0.063c0.342,2.565,0.713,5.356-0.512,7.758c0.109-0.014,0.217-0.025,0.326-0.037
		c-0.193-3.959-0.887-8.091,0.348-11.949c-0.111,0.013-0.223,0.024-0.336,0.038c-0.363,2.951-0.436,6.156-1.904,8.824
		c0.109-0.013,0.221-0.024,0.326-0.036c-0.5-1.934-0.523-3.926-0.695-5.902c-0.111,0.03-0.225,0.062-0.338,0.09
		c0.365,2.139,0.85,4.259,1.045,6.423c0.014,0.115,0.342,0.047,0.34-0.063c-0.035-2.179-0.684-4.284-0.871-6.447
		c-0.113,0.03-0.227,0.061-0.336,0.09c0.52,2.293,0.857,4.619,1.217,6.941c0.02,0.125,0.32,0.041,0.338-0.062
		c0.34-2.402-0.26-5.695,1.881-7.411c-0.098,0.008-0.195,0.02-0.293,0.03c1.443,1.927,1.043,4.645,1.031,6.895
		c0,0.15,0.322,0.084,0.338-0.037c0.547-4.412,0.975-9.384-0.871-13.562c-0.055-0.123-0.35-0.044-0.336,0.09
		c0.365,3.839,1.201,7.614,1.566,11.454c0.111-0.029,0.225-0.062,0.336-0.091c-0.674-3.891,1.168-7.725,0.521-11.627
		c-0.021-0.125-0.256-0.027-0.305,0.012c-1.848,1.479-2.08,4.467-2.252,6.631c-0.211,2.666-0.051,5.332-0.045,8
		c0.111-0.016,0.227-0.024,0.338-0.038c-0.018-4.542-0.643-9.193,1.045-13.536c-0.111,0.012-0.227,0.024-0.338,0.037
		c-0.207,2.434-0.027,4.893-0.098,7.331c-0.064,2.325-0.135,5.356-1.785,7.192c0.1-0.01,0.193-0.021,0.293-0.031
		c-1.209-2.098-1.182-4.728-1.047-7.063c0.139-2.391,0.557-4.751,0.885-7.119c-0.111,0.015-0.225,0.036-0.336,0.058
		c0.719,4.341,1.211,8.759,1.043,13.163c0.111-0.021,0.225-0.043,0.338-0.062c-0.574-3.697-0.979-8.151,0.857-11.575
		c-0.107,0.012-0.215,0.024-0.324,0.037c0.168,5.173-0.434,10.609-2.438,15.419c0.111-0.014,0.227-0.023,0.336-0.039
		c0.361-2.854,0.73-5.891,2.078-8.476c0.078-0.151-0.26-0.12-0.312-0.016c-1.58,2.975-3.148,5.953-4.527,9.022
		c0.107-0.004,0.219-0.008,0.326-0.01c1.111-3.402,3.205-6.443,5.713-8.975c-0.1-0.014-0.195-0.026-0.295-0.04
		c-1.785,3.166-4.125,5.996-6.939,8.306c0.1,0.014,0.195,0.026,0.293,0.04c1.836-3.379,5.15-5.69,6.789-9.198
		c0.068-0.146-0.201-0.11-0.264-0.063c-3.109,2.295-4.842,5.814-7.518,8.525c0.1,0.017,0.195,0.027,0.293,0.041
		c2.262-3.444,4.814-6.688,7.641-9.691c-0.1-0.015-0.195-0.026-0.295-0.041c-2.107,2.948-4.668,5.529-6.963,8.331
		c0.104,0.004,0.211,0.01,0.314,0.016c2.311-3.508,5.197-6.569,7.984-9.693c-0.1-0.014-0.195-0.026-0.293-0.041
		c-2.541,3.425-5.318,6.675-8.334,9.693c0.098,0.014,0.193,0.027,0.293,0.041c1.812-4.084,4.588-7.67,7.639-10.908
		c-0.098-0.015-0.195-0.026-0.293-0.041c-1.758,3.629-4.521,6.964-7.639,9.521c0.098,0.015,0.193,0.025,0.293,0.041
		c2.375-3.649,4.572-7.457,7.465-10.734c-0.098-0.015-0.195-0.027-0.293-0.041c-2.158,3.216-4.469,6.338-7.115,9.172
		c0.102,0.004,0.203,0.011,0.305,0.017c1.373-3.673,3.475-7.811,6.729-10.165c-0.09-0.021-0.178-0.042-0.266-0.063
		c-1.205,2.489-3.354,4.386-5.201,6.396c0.104,0.004,0.205,0.009,0.307,0.015c0.604-1.894,1.771-3.805,3.418-4.957
		c-0.088-0.022-0.176-0.043-0.264-0.064c-0.965,1.519-2.109,2.913-3.604,3.942c0.094,0.012,0.186,0.024,0.273,0.038
		c0.586-1.426,1.68-2.521,2.754-3.594c-0.092-0.021-0.182-0.044-0.273-0.065c-0.82,0.97-1.699,1.856-2.754,2.58
		c0.088,0.021,0.178,0.042,0.266,0.063c0.602-0.929,1.459-1.637,2.24-2.404c0.143-0.139-0.162-0.144-0.242-0.09
		c-1,0.676-1.957,1.407-2.959,2.083c0.082,0.029,0.16,0.06,0.242,0.089c0.664-0.66,1.324-1.304,2.195-1.691
		c-0.047-0.051-0.094-0.103-0.139-0.152c-0.994,0.504-1.963,1.06-2.959,1.562c0.045,0.051,0.092,0.102,0.137,0.152
		c0.688-0.36,1.312-0.803,1.953-1.234c0.18-0.121-0.064-0.175-0.176-0.133c-0.797,0.309-1.592,0.569-2.299,1.061
		c0.078,0.03,0.158,0.061,0.24,0.091c0.762-0.688,0.396-0.117,0.775,0.052C19.146,11.327,19.451,11.174,19.303,11.109"/>
	<path fill="#FFFFFF" d="M21.787,18.659c0.16-0.221,0.209-0.451,0.27-0.715c-0.109,0.022-0.223,0.049-0.334,0.072
		c0.029,0.297-0.422,0.809-0.564,1.01c-0.27,0.375-0.547,0.742-0.818,1.115c-0.496,0.685-0.93,1.399-1.221,2.196
		c-0.033,0.094,0.24,0.017,0.266,0.002c1.701-0.897,2.924-2.396,3.984-3.961c0.033-0.052-0.271-0.035-0.32,0.035
		c-1.15,1.612-2.26,3.268-3.654,4.688c-0.078,0.079,0.246,0.041,0.307-0.021c1.307-1.302,2.609-2.603,3.918-3.904
		c-0.107,0.015-0.213,0.024-0.32,0.037c-1.049,1.765-2.586,3.115-3.902,4.666c-0.084,0.101,0.256,0.026,0.307-0.019
		c1.723-1.489,3.24-3.194,4.961-4.686c-0.104,0.006-0.203,0.012-0.305,0.018c-1.266,1.513-2.529,3.023-3.918,4.427
		c0.105-0.013,0.213-0.023,0.318-0.037c1.309-2.029,3.111-3.638,4.688-5.447c-0.105,0.015-0.213,0.025-0.318,0.037
		c-1.596,2.349-3.598,4.365-5.471,6.488c0.104-0.007,0.205-0.013,0.307-0.019c1.689-2.24,3.408-4.457,4.975-6.787
		c-0.109,0.021-0.223,0.037-0.33,0.056c-1.824,3.051-4.598,5.362-6.529,8.33c-0.049,0.077,0.246,0.01,0.266,0.001
		c2.271-1.034,4.18-2.594,6.062-4.202c0.086-0.074-0.232-0.037-0.283-0.002c-1.764,1.237-3.816,1.776-5.895,2.229
		c-0.861,0.187-1.726,0.361-2.582,0.564c-0.188,0.045-0.375,0.094-0.562,0.143c-0.172,0.045-0.885,0.398-0.279,0.06
		c0.621-0.351,1.362-0.429,2.06-0.457c0.877-0.035,1.764,0.104,2.627,0.229c0.293,0.041,0.791,0.215,1.072,0.131
		c-0.551,0.166-1.111,0.283-1.678,0.392c-2.15,0.403-4.372,0.416-6.554,0.383c-0.895-0.013-1.787-0.041-2.682-0.062
		c-0.48-0.014-0.959-0.021-1.439-0.026c-0.757-0.011,0.09-0.076,0.34-0.142c2.364-0.621,4.786-1.004,7.226-1.186
		c0.553-0.041,1.105-0.062,1.66-0.078c0.223-0.006,0.441-0.01,0.662-0.012c0.053-0.041,0.102-0.082,0.148-0.123
		c-0.217,0.02-0.436,0.037-0.652,0.059c-0.969,0.086-1.938,0.205-2.9,0.34c-1.977,0.275-3.933,0.676-5.867,1.15
		c-0.049,0.016-0.246,0.123-0.092,0.137c3.324,0.226,6.603-0.945,9.892-0.006c0.055-0.047,0.111-0.094,0.166-0.139
		c-3.535,0.449-7.109,0.312-10.663,0.268c-0.32-0.006-0.64-0.01-0.96-0.012c-0.201-0.076-0.344-0.027-0.43,0.146
		c0.213-0.004,0.426-0.012,0.638-0.021c0.752-0.029,1.501-0.109,2.247-0.199c1.66-0.197,3.306-0.506,4.965-0.717
		c0.917-0.117,1.836-0.186,2.758-0.207c0.518-0.012,1.027,0.014,1.539,0.049c0.213,0.016,0.424,0.035,0.639,0.062
		c0.25,0.139,0.354,0.119,0.312-0.061c-1.531-0.019-3.059-0.119-4.588-0.181c-2.797-0.11-5.665-0.127-8.357,0.731
		c-0.058,0.019-0.173,0.105-0.047,0.119c5.045,0.512,10.119,0.267,15.182,0.26c0.098,0,0.365-0.147,0.143-0.147
		c-5.4-0.01-10.788-0.51-16.188-0.521c-0.099,0-0.366,0.146-0.143,0.146c3.76,0.012,7.503,0.373,11.231,0.839
		c0.9,0.11,1.803,0.231,2.705,0.354c0.453,0.061,0.906,0.122,1.361,0.184c0.23,0.031,0.457,0.062,0.688,0.095
		c0.146,0.021,1.057-0.045,0.244-0.088c-1.896-0.101-3.785-0.265-5.676-0.445c-1.91-0.185-3.813-0.396-5.721-0.601
		c-0.891-0.098-1.78-0.192-2.671-0.284c-0.442-0.045-0.884-0.091-1.325-0.136c-0.204-0.069-0.395-0.049-0.567,0.068
		c0.354-0.021,0.707-0.009,1.061,0.008c3.09,0.137,6.061,1.418,9.175,1.213c0.022-0.002,0.312-0.092,0.229-0.133
		c-1.978-1.031-4.243-1.229-6.439-1.193c-1.146,0.019-2.292,0.136-3.428,0.294c-0.245,0.032-0.541,0.188-0.698-0.113
		c-0.171-0.32-0.308-0.66-0.438-1c-0.256-0.662-0.41-1.361-0.525-2.062c-0.835-5.08,1.689-10.09,0.827-15.171
		c-0.016-0.086-0.319,0-0.336,0.07c-1.299,5.154-2.844,10.276-2.874,15.637c0,0.074,0.313,0.002,0.335-0.072
		c1.273-4.506,0.283-9.254,1.305-13.796c-0.11,0.023-0.223,0.05-0.334,0.073c2.019,4.468,1.06,9.84,1.044,14.576
		c0,0.07,0.323,0.009,0.335-0.071c0.757-5.265-0.27-10.729,1.306-15.878C6.545,7.732,6.433,7.755,6.323,7.779
		c1.645,4.52,1.071,9.669,0.263,14.3c-0.017,0.096,0.305,0.027,0.333-0.055c1.713-5.251,1.574-10.961,1.828-16.416
		c-0.111,0.029-0.223,0.061-0.336,0.09c0.719,5.603-1.008,11.073-1.043,16.66c-0.002,0.067,0.32,0.008,0.334-0.072
		C8.54,17.28,9.567,11.918,8.224,6.91C8.202,6.82,7.913,6.914,7.89,6.982c-1.825,5.583-1.567,11.597-3.395,17.181
		c0.111-0.023,0.223-0.049,0.334-0.072c0.027-4.629,1.031-9.184,1.306-13.796c-0.111,0.029-0.223,0.06-0.336,0.089
		c0.225,5.539-0.708,10.784-2.67,15.958c0.11-0.019,0.222-0.037,0.333-0.055c0.525-4.173,2.99-9.232,0.324-13.131
		c-0.053-0.075-0.311-0.011-0.336,0.072c-1.272,4.02-0.037,8.186,0.26,12.253c0.007,0.084,0.312-0.01,0.335-0.074
		c1.364-3.633,1.562-7.627,1.567-11.47c0-0.09-0.305,0.02-0.334,0.071c-1.783,3.127-2.082,6.643-2.09,10.168
		c0,0.078,0.312,0,0.334-0.07c1.287-4.176,1.825-8.522,2.874-12.755C6.284,11.376,6.173,11.4,6.06,11.423
		c-0.313,3.25-1.799,6.222-2.608,9.355c-0.024,0.098,0.295,0.014,0.334-0.056c1.341-2.42,2.576-4.901,3.394-7.55
		c0.03-0.099-0.281-0.007-0.318,0.036c-1.558,1.822-3.047,3.758-3.931,6.006c-0.032,0.084,0.281,0.019,0.32-0.037
		c1.389-1.922,2.916-3.739,4.189-5.744l-0.332,0.055c-1.283,2.53-2.84,4.921-3.916,7.55c-0.035,0.084,0.289,0.012,0.332-0.055
		c1.644-2.47,3.172-5.011,4.698-7.55c-0.11,0.019-0.221,0.036-0.332,0.055c-1.298,2.827-2.805,5.585-3.655,8.591
		c-0.027,0.1,0.282,0.01,0.319-0.035c1.349-1.643,2.429-3.479,3.655-5.207c-0.105,0.014-0.214,0.023-0.319,0.037
		c-1.483,3.115-4.231,5.396-4.761,8.947c-0.017,0.113,0.28,0,0.319-0.036c1.436-1.375,3.324-2.106,4.761-3.481
		c-0.103,0.008-0.204,0.014-0.306,0.02c-0.965,1.314-2.748,1.375-3.717,2.701c-0.076,0.103,0.18,0.047,0.213,0.035
		c1.496-0.5,3.07,0.387,4.539-0.375c-0.084-0.008-0.168-0.014-0.252-0.021c-1.268,1.416-3.66,1.481-4.254,3.502
		c-0.027,0.103,0.283,0.004,0.32-0.037c2.741-3.041,3.496-7.576,4.184-11.465c0.379-2.159,0.824-4.283,0.631-6.485
		C9.34,7.586,8.513,5.104,8.487,2.484C8.485,2.388,8.182,2.509,8.153,2.558C7.167,4.017,6.089,5.414,5.28,6.982
		c0.11-0.024,0.224-0.048,0.334-0.074c-0.69-1.441-0.963-2.982-2.1-4.179c-0.06-0.064-0.261,0.019-0.31,0.068
		C2.229,3.811,0.962,5.589,1.884,7c0.055,0.081,0.303,0.006,0.334-0.073c0.584-1.435,1.247-2.857,1.046-4.442
		C3.255,2.404,2.94,2.481,2.929,2.558C2.653,4.604,1.885,6.754,2.407,8.82C2.428,8.906,2.722,8.819,2.741,8.75
		c0.515-2.063,0.994-4.143,1.306-6.247c-0.08,0.032-0.16,0.066-0.239,0.101c0.663-0.027,1.38-0.243,2.021-0.005
		C5.922,2.551,6.013,2.505,6.105,2.46c-1.208-0.229-2.243-0.227-3.368,0.3C2.567,2.84,2.765,2.868,2.85,2.85
		c0.576-0.138,1.156-0.229,1.739-0.333C4.834,2.474,5.375,2.198,5.01,2.507C4.121,3.263,3.375,4.146,2.444,4.861
		c0.096,0,0.188,0.001,0.282,0.001C3.481,4.133,4.323,3.506,5.077,2.78C4.974,2.788,4.874,2.792,4.772,2.797
		c-0.699,0.99-1.007,2.226-1.828,3.124C2.866,6.007,3.192,5.964,3.25,5.903c0.819-0.86,1.388-1.908,2.088-2.862
		c-0.105,0.012-0.213,0.024-0.32,0.035C4.301,4.97,3.522,6.843,2.409,8.544c-0.047,0.069,0.274,0,0.317-0.038
		c1.825-1.589,3.296-3.51,4.7-5.466C7.321,3.052,7.214,3.065,7.108,3.077C6.092,5.087,4.989,7.052,3.973,9.064
		C3.93,9.15,4.241,9.069,4.272,9.046c1.875-1.383,3.129-3.354,4.461-5.225c-0.106,0.013-0.215,0.024-0.32,0.037
		C7.61,5.46,6.79,7.046,5.803,8.545c-0.046,0.067,0.261,0.01,0.296-0.019c2.098-1.659,4.342-3.066,6.874-3.963
		c2.523-0.894,5.219-1.268,7.85-1.704c0.051-0.009,0.309-0.123,0.137-0.144c-2.033-0.245-4.045,0.291-5.912,1.068
		c-0.22,0.093-0.013,0.143,0.121,0.092c0.773-0.296,1.56-0.521,2.367-0.712c0.383-0.091,0.77-0.167,1.158-0.245
		c-0.062,0.014-0.492,0.496-0.584,0.576c-0.998,0.867-2.043,1.667-2.896,2.688c-0.061,0.072,0.088,0.067,0.125,0.06
		c1.763-0.344,3.112-1.45,4.36-2.681c-0.104,0.006-0.203,0.011-0.309,0.018c-0.729,0.752-1.355,1.591-2.088,2.343
		c-0.086,0.088,0.236,0.038,0.283,0.001c0.984-0.749,1.889-1.592,2.873-2.342c-0.096-0.001-0.189-0.001-0.285-0.002
		c-0.664,0.708-1.061,1.551-1.58,2.361c-0.049,0.076,0.244,0.012,0.266,0.001c1.195-0.605,2.344-1.323,3.188-2.38
		c-0.104,0.012-0.213,0.023-0.32,0.036c-0.605,0.951-1.029,2.01-1.811,2.845c-0.08,0.085,0.248,0.038,0.305-0.019
		c0.803-0.775,1.66-1.461,2.354-2.343c-0.105,0.006-0.205,0.012-0.309,0.019c-0.688,0.962-1.033,2.008-1.318,3.142
		c-0.027,0.105,0.281,0.002,0.316-0.035c1.168-1.197,2.1-2.6,3.137-3.905c-0.107,0.014-0.217,0.024-0.32,0.037
		c-0.529,2.267-1.523,4.428-1.568,6.785c-0.002,0.067,0.324,0.011,0.334-0.073c0.287-2.475,0.789-4.919,1.566-7.288
		c-0.111,0.023-0.223,0.049-0.334,0.072c0.008,3.207,0.246,6.43-0.26,9.613c-0.018,0.098,0.307,0.026,0.334-0.055
		c0.811-2.484,1.271-5.065,2.088-7.55c-0.111,0.02-0.225,0.037-0.332,0.056c-1.35,4.396-1.613,9.334-0.525,13.813
		c0.023,0.09,0.312-0.006,0.336-0.072c0.807-2.184,1.283-4.453,1.309-6.784c0.002-0.083-0.309,0.011-0.334,0.071
		c-1.492,3.253-3.33,6.545-3.658,10.17c-0.004,0.062,0.316,0.014,0.336-0.072c0.48-2.508,0.521-5.104,1.305-7.549
		c-0.109,0.019-0.223,0.036-0.334,0.055c-1.064,3.638-2.936,6.949-4.438,10.412c0.109-0.02,0.223-0.035,0.334-0.055
		c0.336-3.225,2.773-5.621,4.686-8.051c0.084-0.104-0.24-0.033-0.283-0.002c-2.965,2.125-6.537,3.664-8.898,6.525
		c-0.022,0.028-0.018,0.047,0.018,0.061c1.551,0.646,3.336,0.188,4.809-0.468c1.898-0.847,3.658-2.058,5.143-3.515
		c0.094-0.091-0.219-0.035-0.252-0.021c-2.402,1.203-4.939,2.614-6.334,5.002c-0.025,0.045,0.078,0.047,0.096,0.047
		c0.449-0.035,0.857-0.226,1.307-0.262c0.096-0.007,0.363-0.166,0.143-0.146c-0.328,0.024-1.297,0.424-0.947-0.123
		c0.498-0.783,1.197-1.438,1.91-2.021c1.217-0.994,2.627-1.74,4.025-2.44c-0.084-0.007-0.168-0.015-0.252-0.021
		c-1.166,1.146-2.504,2.112-3.938,2.901c-1.551,0.854-3.492,1.609-5.255,1c-0.236-0.084,1.722-1.854,1.833-1.942
		c0.715-0.57,1.48-1.08,2.242-1.578c1.535-1,3.125-1.914,4.615-2.981c-0.096,0-0.188-0.001-0.283-0.001
		c-1.916,2.437-4.373,4.853-4.713,8.087c-0.012,0.104,0.301,0.02,0.334-0.056c1.5-3.463,3.369-6.774,4.438-10.411
		c0.025-0.082-0.305-0.034-0.332,0.055c-0.779,2.446-0.82,5.041-1.307,7.551c0.113-0.025,0.225-0.049,0.336-0.072
		c0.326-3.607,2.168-6.896,3.652-10.134c-0.111,0.023-0.225,0.048-0.334,0.071c-0.023,2.321-0.504,4.577-1.305,6.751
		c0.109-0.023,0.225-0.049,0.334-0.072c-1.092-4.471-0.832-9.39,0.514-13.779c0.023-0.081-0.305-0.033-0.332,0.056
		c-0.812,2.483-1.275,5.064-2.09,7.549c0.109-0.019,0.223-0.036,0.334-0.055c0.506-3.195,0.271-6.431,0.262-9.647
		c0-0.078-0.312,0.001-0.334,0.071c-0.777,2.369-1.279,4.813-1.566,7.288c0.111-0.023,0.225-0.048,0.334-0.072
		c0.045-2.346,1.039-4.494,1.564-6.75c0.023-0.103-0.281-0.01-0.318,0.036c-1.037,1.306-1.965,2.707-3.133,3.905
		c0.105-0.014,0.213-0.025,0.318-0.037c0.281-1.118,0.613-2.154,1.293-3.104c0.07-0.102-0.256-0.046-0.309,0.019
		c-0.689,0.882-1.551,1.565-2.35,2.343c0.102-0.006,0.203-0.012,0.307-0.019c0.793-0.845,1.225-1.918,1.84-2.882
		c0.039-0.059-0.27-0.024-0.316,0.036c-0.818,1.024-1.922,1.718-3.08,2.305c0.09,0.001,0.178,0.001,0.266,0.002
		c0.508-0.796,0.9-1.628,1.557-2.323c0.084-0.093-0.238-0.037-0.285-0.002c-0.982,0.75-1.891,1.593-2.871,2.343
		c0.096,0,0.188,0.001,0.283,0.001c0.729-0.751,1.357-1.591,2.088-2.342c0.08-0.082-0.246-0.041-0.307,0.018
		c-0.551,0.542-1.115,1.058-1.74,1.516c-0.414,0.301-0.865,0.546-1.336,0.745c-0.767,0.326-0.597,0.071-0.233-0.311
		c0.948-1.003,2.104-1.792,3.093-2.753c0.07-0.068-0.096-0.066-0.123-0.062c-1.041,0.208-2.092,0.41-3.104,0.743
		c-0.101,0.033-0.199,0.065-0.301,0.101c-0.319,0.012-0.389,0.078-0.206,0.197c0.277-0.115,0.562-0.217,0.846-0.317
		c0.729-0.258,1.484-0.435,2.246-0.556c0.682-0.107,1.404-0.012,2.057-0.119c-0.547,0.091-1.096,0.182-1.643,0.275
		c-1,0.17-2,0.351-2.991,0.569c-3.8,0.846-7.073,2.481-10.121,4.894C5.939,8.5,6.036,8.494,6.135,8.488
		C7.122,6.99,7.943,5.403,8.747,3.801C8.782,3.73,8.47,3.779,8.427,3.838C7.108,5.69,5.868,7.655,4.01,9.026
		c0.1-0.005,0.198-0.011,0.296-0.018C5.323,6.998,6.425,5.032,7.44,3.022C7.475,2.952,7.163,3,7.122,3.06
		c-1.405,1.954-2.877,3.876-4.7,5.466c0.106-0.013,0.213-0.023,0.319-0.036c1.115-1.7,1.895-3.572,2.61-5.467
		c0.032-0.087-0.28-0.017-0.319,0.037C4.333,4.011,3.76,5.062,2.944,5.921c0.102-0.006,0.203-0.013,0.307-0.019
		C4.075,5.001,4.378,3.77,5.077,2.779c0.078-0.108-0.256-0.028-0.305,0.018C4.015,3.524,3.173,4.151,2.421,4.88
		C2.335,4.963,2.655,4.919,2.704,4.881c1.033-0.792,1.854-1.806,2.873-2.604c0.121-0.095-0.094-0.082-0.146-0.069
		c-0.75,0.178-1.513,0.279-2.268,0.439c0.777-0.164,1.731-0.228,2.668-0.05C5.897,2.611,6.227,2.505,6.106,2.46
		C5.413,2.205,4.665,2.425,3.952,2.456C3.901,2.458,3.723,2.486,3.713,2.558c-0.31,2.105-0.791,4.182-1.304,6.246
		C2.518,8.78,2.632,8.755,2.743,8.732c-0.518-2.056,0.244-4.191,0.52-6.229C3.151,2.526,3.039,2.55,2.927,2.573
		c0.2,1.576-0.463,2.985-1.042,4.408c0.11-0.023,0.225-0.048,0.334-0.073C1.315,5.524,2.554,3.772,3.51,2.78
		C3.407,2.802,3.302,2.826,3.2,2.85c1.131,1.19,1.392,2.717,2.078,4.149C5.323,7.09,5.579,6.994,5.614,6.926
		C6.422,5.358,7.5,3.961,8.485,2.502C8.374,2.526,8.261,2.549,8.151,2.573C8.176,5,8.84,7.317,9.169,9.706
		c0.316,2.303-0.133,4.517-0.522,6.777c-0.679,3.937-1.423,8.585-4.197,11.663c0.106-0.015,0.215-0.023,0.319-0.037
		c0.577-1.965,2.979-2.068,4.228-3.463c0.088-0.099-0.219-0.037-0.252-0.021c-1.377,0.713-3.015-0.144-4.463,0.342
		c0.071,0.013,0.144,0.022,0.215,0.035c0.963-1.315,2.746-1.375,3.716-2.701c0.077-0.104-0.257-0.028-0.306,0.021
		c-1.438,1.375-3.326,2.104-4.763,3.479c0.107-0.012,0.214-0.022,0.32-0.034c0.527-3.548,3.277-5.839,4.76-8.949
		c0.036-0.073-0.276-0.021-0.317,0.037c-1.229,1.729-2.309,3.563-3.655,5.205c0.106-0.013,0.213-0.023,0.319-0.035
		c0.85-3.006,2.356-5.765,3.653-8.591c0.034-0.073-0.286-0.021-0.332,0.055c-1.528,2.54-3.056,5.081-4.698,7.55
		c0.109-0.018,0.221-0.037,0.332-0.055c1.077-2.631,2.635-5.021,3.916-7.55c0.034-0.068-0.283-0.021-0.332,0.055
		c-1.267,1.992-2.785,3.8-4.164,5.708c0.105-0.012,0.213-0.023,0.318-0.035c0.876-2.234,2.354-4.156,3.903-5.969
		c-0.107,0.013-0.213,0.023-0.32,0.036c-0.815,2.646-2.052,5.132-3.395,7.55c0.111-0.021,0.223-0.037,0.334-0.056
		c0.812-3.146,2.297-6.127,2.613-9.39c0.006-0.061-0.316-0.008-0.336,0.074c-1.048,4.232-1.586,8.581-2.871,12.757
		c0.11-0.025,0.223-0.051,0.334-0.074c0.008-3.518,0.311-7.019,2.088-10.133c-0.112,0.023-0.225,0.048-0.336,0.071
		c-0.006,3.834-0.203,7.811-1.564,11.438c0.111-0.023,0.224-0.049,0.335-0.072c-0.297-4.057-1.533-8.209-0.263-12.217
		c-0.112,0.023-0.223,0.048-0.336,0.072c2.662,3.891,0.207,8.922-0.319,13.096c-0.013,0.102,0.303,0.021,0.333-0.055
		c1.966-5.19,2.898-10.446,2.672-15.995c-0.003-0.073-0.33-0.009-0.336,0.09c-0.273,4.613-1.279,9.167-1.306,13.795
		c0,0.078,0.312,0,0.334-0.07c1.826-5.584,1.57-11.598,3.395-17.181C8.112,6.951,8,6.976,7.888,7c1.339,5,0.314,10.343-0.521,15.339
		c0.113-0.021,0.225-0.047,0.336-0.07c0.036-5.587,1.763-11.056,1.044-16.66c-0.01-0.082-0.332-0.004-0.336,0.09
		c-0.254,5.446-0.113,11.139-1.825,16.381l0.333-0.055c0.812-4.646,1.389-9.805-0.26-14.334C6.627,7.604,6.345,7.691,6.325,7.762
		c-1.576,5.152-0.551,10.616-1.307,15.879c0.111-0.023,0.225-0.05,0.334-0.072C5.368,18.833,6.327,13.46,4.308,8.992
		C4.272,8.91,3.993,8.986,3.973,9.064c-1.021,4.543-0.031,9.292-1.305,13.796c0.11-0.023,0.223-0.047,0.334-0.07
		c0.03-5.35,1.575-10.458,2.871-15.603C5.761,7.211,5.651,7.235,5.54,7.259c1.043,6.149-2.852,12.584,0.261,18.48
		c0.022,0.043,0.102,0.031,0.141,0.023c3.332-0.541,7.221-0.844,10.314,0.771c0.076-0.045,0.152-0.09,0.229-0.133
		c-3.554,0.233-6.939-1.422-10.504-1.205c-0.059,0.005-0.356,0.133-0.179,0.147c5.567,0.533,11.119,1.285,16.709,1.562
		c0.07,0.004,0.396-0.123,0.215-0.146c-5.109-0.693-10.229-1.422-15.394-1.547c-0.219-0.006-0.438-0.008-0.657-0.012
		c-0.109-0.002-0.22-0.002-0.329-0.004c-0.082-0.008-0.137,0.041-0.165,0.147c0.787,0.002,1.574,0.019,2.36,0.037
		c1.365,0.035,2.729,0.097,4.095,0.158c2.571,0.118,5.141,0.256,7.713,0.309c0.449,0.011,0.898,0.015,1.352,0.017
		c0.047-0.049,0.098-0.098,0.145-0.146c-0.217,0-0.434,0-0.648,0.004c-0.326,0.002-0.652,0.006-0.979,0.008
		c-1.318,0.013-2.641,0.033-3.958,0.047c-2.635,0.023-5.268,0-7.895-0.199c-0.264-0.02-1.451,0.013-0.627-0.21
		c0.604-0.162,1.225-0.259,1.844-0.341c1.313-0.174,2.652-0.186,3.976-0.166c2.217,0.029,4.428,0.217,6.645,0.226
		c0.062,0,0.354-0.121,0.18-0.146c-4.65-0.72-9.177,0.903-13.811,0.94c-0.1,0.002-0.367,0.147-0.145,0.147
		c4.104,0.009,8.229,0.257,12.313-0.266c0.029-0.004,0.287-0.104,0.166-0.139c-2.922-0.834-5.841-0.066-8.802,0.027
		c-0.291,0.01-0.653-0.045-0.938,0.026c0.402-0.102,0.808-0.192,1.213-0.282c0.898-0.203,1.801-0.375,2.707-0.531
		c1.771-0.31,3.558-0.519,5.349-0.658c0.094-0.008,0.371-0.148,0.145-0.146c-3.749,0.016-7.448,0.562-11.053,1.574
		c-0.093,0.025-0.239,0.135-0.056,0.135c4.469,0.012,9.057,0.512,13.404-0.797c0.049-0.016,0.244-0.111,0.09-0.133
		c-2.26-0.295-4.777-0.93-6.826,0.422c-0.129,0.086,0.098,0.084,0.146,0.07c3.395-1.016,7.118-1.182,10.098-3.271
		c-0.096,0-0.188,0-0.283-0.002c-1.852,1.58-3.719,3.109-5.951,4.129c0.09,0,0.18,0,0.268,0c1.932-2.969,4.703-5.279,6.525-8.33
		c0.033-0.059-0.277-0.022-0.332,0.056c-1.561,2.315-3.27,4.521-4.947,6.75c-0.074,0.1,0.254,0.041,0.307-0.019
		c1.883-2.137,3.895-4.164,5.496-6.525c0.039-0.057-0.27-0.021-0.32,0.035c-1.586,1.822-3.395,3.441-4.713,5.484
		c-0.041,0.066,0.273,0.012,0.32-0.035c1.389-1.399,2.652-2.914,3.916-4.426c0.084-0.101-0.254-0.025-0.307,0.018
		c-1.723,1.492-3.238,3.195-4.961,4.687c0.104-0.006,0.203-0.012,0.307-0.019c1.328-1.562,2.875-2.928,3.93-4.703
		c0.043-0.071-0.273-0.008-0.318,0.035c-1.307,1.304-2.609,2.604-3.916,3.904c0.104-0.006,0.203-0.012,0.307-0.018
		c1.395-1.418,2.504-3.074,3.656-4.686c-0.107,0.012-0.213,0.022-0.32,0.034c-1.021,1.511-2.207,2.982-3.85,3.849
		c0.09,0.002,0.178,0.002,0.266,0.002c0.352-0.965,0.92-1.789,1.523-2.611c0.295-0.398,1.137-1.219,1.086-1.746
		c-0.01-0.08-0.318,0-0.336,0.074c-0.057,0.244-0.09,0.463-0.242,0.676C21.408,18.776,21.736,18.729,21.787,18.659"/>
</g>
</svg>
