<?xml version="1.0" encoding="utf-8"?>
<!-- Generator: Adobe Illustrator 16.0.0, SVG Export Plug-In . SVG Version: 6.00 Build 0)  -->
<!DOCTYPE svg PUBLIC "-//W3C//DTD SVG 1.1//EN" "http://www.w3.org/Graphics/SVG/1.1/DTD/svg11.dtd">
<svg version="1.1" id="Layer_1" xmlns="http://www.w3.org/2000/svg" xmlns:xlink="http://www.w3.org/1999/xlink" x="0px" y="0px"
	 width="200px" height="64.516px" viewBox="55 17.742 200 64.516" enable-background="new 55 17.742 200 64.516"
	 xml:space="preserve">
<g>
	<path fill="#342C57" d="M253.019,24.592c-0.281,0-0.516,0.035-0.703,0.116c-0.189,0.073-0.354,0.113-0.49,0.113
		c0.154-0.241,0.343-0.814,0.565-1.721c0.087,0.171,0.214,0.367,0.386,0.591c0.275,0,0.412-0.249,0.412-0.747
		c0.203-0.014,0.655-0.082,1.357-0.203c0.137-0.025,0.232-0.036,0.357-0.056v-4.781h-7.719v0.18h-0.133v0.181h-0.137v0.18h-0.134
		v0.18h-0.134v0.181h-0.135v0.181h-0.133v0.182h-0.134v0.18h-0.134v0.182h-0.137v0.18h-0.135v0.182h-0.133v0.18h-0.134v0.182h-0.137
		l0.028,8.527c0.003,0.336,0.054,0.625,0.117,0.892l-0.094,0.012v0.163l-0.135,0.018v0.162l-0.133,0.018v0.164l-0.133,0.019v0.161
		l-0.136,0.018v0.164l-0.134,0.018v0.162l-0.133,0.017v0.164l-0.137,0.018v0.162l-0.133,0.018v0.164l-0.135,0.02v0.161l-0.134,0.019
		v0.161l-0.134,0.02v6.487l2.018-0.279c2.383-0.262,3.947-1.637,5.049-3.049c0.025-0.036,0.044-0.074,0.068-0.107
		c0.021-0.026,0.041-0.05,0.064-0.075c0.028-0.034,0.045-0.073,0.072-0.106c0.019-0.024,0.038-0.049,0.061-0.073
		c0.028-0.034,0.045-0.073,0.072-0.106c0.021-0.025,0.041-0.049,0.062-0.074c0.027-0.034,0.047-0.074,0.076-0.107
		c0.016-0.023,0.039-0.048,0.057-0.072c0.029-0.035,0.049-0.074,0.076-0.107c0.017-0.025,0.039-0.049,0.059-0.074
		c0.027-0.034,0.047-0.075,0.075-0.107c0.016-0.024,0.038-0.049,0.058-0.073c0.028-0.036,0.048-0.074,0.076-0.107
		c0.02-0.025,0.039-0.05,0.061-0.073c0.028-0.035,0.047-0.075,0.072-0.108c0.02-0.024,0.039-0.049,0.062-0.073
		c0.027-0.034,0.045-0.073,0.072-0.106c0.02-0.025,0.039-0.05,0.061-0.072c0.029-0.035,0.045-0.076,0.072-0.109
		c0.02-0.024,0.039-0.047,0.061-0.072c0.029-0.035,0.049-0.074,0.076-0.108c0.017-0.025,0.039-0.048,0.059-0.071
		c0.028-0.036,0.048-0.075,0.076-0.11c0.016-0.023,0.038-0.046,0.058-0.071c0.028-0.035,0.048-0.074,0.075-0.108
		c0.016-0.023,0.039-0.048,0.058-0.071c1.395-1.672,2.094-3.786,2.083-6.056v-3.063c-0.162,0.137-0.336,0.281-0.533,0.453
		C253.749,24.332,253.3,24.592,253.019,24.592 M203.011,38.108h-0.516v-0.819h0.516V38.108z M202.395,44.72
		c-0.087,0.283-0.132,0.469-0.132,0.554h-1.076v-1.13c0.154,0.155,0.377,0.232,0.668,0.232s0.516-0.077,0.668-0.232
		C202.523,44.246,202.481,44.44,202.395,44.72 M201.059,47.789c-0.323,0.702-0.46,1.276-0.409,1.722
		c-0.035,0.428-0.051-0.566-0.051-2.981l0.666,0.592c0.121-0.104,0.143-0.301,0.076-0.592c-0.102-0.513-0.154-0.804-0.154-0.871
		c0.342,0.225,0.607,0.334,0.794,0.334C201.675,46.591,201.368,47.193,201.059,47.789 M201.597,43.271h0.516v0.822h-0.516V43.271z
		 M201.597,41.783h0.516v1.105h-0.516V41.783z M201.597,39.983h0.516v0.821h-0.516V39.983z M192.747,48.165h0.004
		c-0.246,1.102-0.59,2.073-1.023,2.947c-0.242,0.213-0.493,0.414-0.77,0.592c-0.805,0.508-1.767,0.791-3.04,0.797
		c-1.274-0.006-2.241-0.289-3.043-0.801c-0.887-0.57-1.591-1.31-2.172-2.291c-0.599-1.033-1.06-2.211-1.356-3.588
		c-0.315-1.403-0.473-2.844-0.473-4.312c0-1.467,0.157-2.907,0.467-4.309c0.24-1.101,0.586-2.075,1.023-2.947
		c0.24-0.211,0.49-0.408,0.766-0.585c0.805-0.514,1.773-0.796,3.045-0.803c1.273,0.007,2.232,0.285,3.047,0.803
		c0.88,0.573,1.587,1.308,2.166,2.288c0.6,1.025,1.061,2.215,1.363,3.59c0.308,1.405,0.463,2.843,0.463,4.311
		C193.214,45.324,193.058,46.765,192.747,48.165 M181.054,49.124c-0.355-0.099-0.621-0.238-0.795-0.41
		c0.034-0.033,0.174-0.23,0.41-0.591c0.174-0.221,0.318-0.334,0.438-0.334C181.071,47.825,181.054,48.271,181.054,49.124
		 M199.54,28.1c-1.332-1.789-2.998-3.244-4.942-4.296c-1.995-1.094-4.258-1.629-6.68-1.627c-2.421-0.002-4.688,0.534-6.687,1.627
		c-1.939,1.058-3.604,2.508-4.936,4.296c-0.025,0.033-0.049,0.069-0.07,0.104c-0.02,0.026-0.043,0.051-0.064,0.078
		c-0.023,0.034-0.047,0.068-0.068,0.104c-0.022,0.026-0.043,0.05-0.064,0.077c-0.024,0.033-0.047,0.068-0.07,0.103
		c-0.021,0.026-0.044,0.052-0.063,0.078c-0.027,0.034-0.048,0.068-0.069,0.102c-0.023,0.028-0.045,0.052-0.067,0.078
		c-0.026,0.034-0.044,0.069-0.067,0.103c-0.021,0.027-0.043,0.051-0.066,0.078c-0.025,0.034-0.043,0.068-0.069,0.102
		c-0.02,0.028-0.042,0.052-0.063,0.078c-0.025,0.035-0.046,0.07-0.07,0.104c-0.02,0.027-0.045,0.051-0.064,0.078
		c-0.025,0.033-0.048,0.068-0.07,0.102c-0.018,0.027-0.044,0.052-0.063,0.078c-0.024,0.034-0.048,0.069-0.07,0.104
		c-0.021,0.027-0.043,0.051-0.062,0.077c-0.024,0.034-0.048,0.069-0.07,0.103c-0.022,0.026-0.044,0.051-0.063,0.078
		c-0.029,0.033-0.047,0.069-0.07,0.103c-0.022,0.026-0.045,0.05-0.068,0.077c-0.024,0.035-0.044,0.07-0.066,0.103
		c-0.021,0.026-0.043,0.052-0.066,0.078c-0.023,0.032-0.041,0.065-0.063,0.096c-0.022,0.03-0.047,0.055-0.071,0.084
		c-1.332,1.777-2.335,3.837-3.022,6.141c-0.687,2.306-1.031,4.732-1.031,7.27c0,2.566,0.339,5.009,1.031,7.312
		c0.688,2.306,1.69,4.364,3.022,6.145c1.336,1.789,3.004,3.239,4.954,4.281c1.992,1.069,4.25,1.597,6.669,1.595h0.018
		c2.41,0,4.665-0.527,6.65-1.598c1.951-1.039,3.617-2.485,4.957-4.278c0.022-0.032,0.041-0.069,0.068-0.102
		c0.018-0.028,0.043-0.051,0.066-0.081c0.021-0.031,0.043-0.068,0.068-0.102c0.02-0.027,0.041-0.049,0.064-0.076
		c0.021-0.033,0.044-0.07,0.07-0.102c0.018-0.029,0.043-0.053,0.063-0.08c0.022-0.033,0.044-0.068,0.069-0.103
		c0.02-0.027,0.045-0.05,0.064-0.078c0.021-0.031,0.045-0.069,0.069-0.102c0.022-0.028,0.046-0.052,0.063-0.079
		c0.025-0.033,0.045-0.068,0.07-0.102c0.021-0.027,0.045-0.05,0.062-0.077c0.026-0.034,0.046-0.07,0.07-0.103
		c0.023-0.027,0.046-0.051,0.068-0.08c0.021-0.031,0.04-0.067,0.068-0.102c0.02-0.027,0.042-0.049,0.065-0.078
		c0.021-0.031,0.043-0.068,0.069-0.102c0.018-0.027,0.041-0.051,0.064-0.078c0.021-0.033,0.043-0.068,0.068-0.102
		c0.02-0.028,0.045-0.051,0.064-0.078c0.021-0.032,0.045-0.07,0.069-0.103c0.02-0.027,0.046-0.052,0.065-0.079
		c0.021-0.033,0.043-0.068,0.068-0.102c0.022-0.026,0.045-0.051,0.064-0.078c0.024-0.033,0.044-0.069,0.068-0.104
		c0.023-0.027,0.046-0.051,0.065-0.076c1.331-1.781,2.335-3.84,3.021-6.146c0.693-2.303,1.035-4.745,1.035-7.311
		c0-2.537-0.345-4.964-1.035-7.27C201.874,31.936,200.87,29.877,199.54,28.1 M216.535,25.768h-0.437V24.1h0.437V25.768z
		 M216.047,25.768h-0.435v-1.155h0.435V25.768z M213.534,25.024h-0.436v-1.667h0.436V25.024z M213.534,28.03h-0.436V26.59h0.436
		V28.03z M213.046,25.768h-0.434V24.1h0.434V25.768z M212.534,25.514h-0.412V24.1h0.412V25.514z M210.68,51.336l-0.409-0.181
		l0.385-0.771l0.41,0.153L210.68,51.336z M210.501,55.185c0-0.41-0.103-0.615-0.309-0.615c-0.055,0-0.104,0.025-0.153,0.076
		c0.325-0.293,0.487-0.752,0.487-1.388c0-0.085,0.033,0.242,0.104,0.978C210.663,54.63,210.618,54.946,210.501,55.185
		 M209.611,23.842h0.434v2.416h-0.434V23.842z M209.556,26.027h-0.436v-2.669h0.436V26.027z M210.122,25.36h0.438v1.668h-0.438
		V25.36z M210.61,23.1h0.435v1.412h-0.435V23.1z M230.767,22.221h-0.135v0.182h-0.135v0.18h-0.133v0.182h-0.134v0.18h-0.134v0.181
		h-0.133v0.18h-0.137v0.181h-0.135v0.18h-0.134v0.18h-0.133v0.18h-0.134v0.183h-0.135v0.18h-0.133v21.229
		c0,1.062-0.057,2.15-0.162,3.252c-0.049,0.529-0.164,1-0.312,1.439c-0.113,0.078-0.227,0.156-0.359,0.231
		c-0.08,0.072-0.988,0.339-1.961,0.456c-0.987,0.137-2.117,0.204-2.992,0.204c-1.753,0.009-2.968-0.286-3.615-0.662
		c-0.828-0.467-1.346-0.985-1.688-1.59c-0.393-0.702-0.639-1.48-0.728-2.428c-0.106-1.103-0.163-2.187-0.163-3.249V21.965h-9.479
		v0.181h-0.133v0.179h-0.139v0.181h-0.133v0.18h-0.134v0.182h-0.133v0.18h-0.134v0.18h-0.135v0.182h-0.134v0.18h-0.136v0.182h-0.134
		v0.18h-0.134v0.181h-0.133v0.18h-0.135v23.223c0,2.34,0.361,4.459,1.136,6.318c0.755,1.819,1.858,3.396,3.276,4.658
		c1.419,1.263,3.122,2.193,5.043,2.785c1.899,0.591,3.977,0.881,6.213,0.881c2.253-0.016,5.464-0.25,7.561-0.881
		c1.916-0.592,3.619-1.522,5.036-2.788c0.724-0.642,1.364-1.366,1.922-2.164c0.048-0.063,0.093-0.124,0.137-0.187
		c0.048-0.059,0.093-0.117,0.134-0.178c0.047-0.062,0.092-0.119,0.133-0.182c0.049-0.061,0.096-0.119,0.135-0.18
		c0.048-0.062,0.095-0.119,0.137-0.182c0.045-0.061,0.092-0.117,0.134-0.18c0.046-0.061,0.093-0.119,0.134-0.182
		c0.022-0.028,0.045-0.059,0.068-0.088c-0.346-0.558-0.529-1.206-0.529-1.959c0-0.82,0.266-1.73,0.796-2.722
		c0.565-1.062,1.276-1.891,2.132-2.489c-0.016,0.905-0.211,1.939-0.576,3.094c-0.355,1.105-0.532,1.838-0.549,2.217
		c0.306-0.52,0.587-1.055,0.824-1.625c0.773-1.859,1.129-3.975,1.129-6.314l0.002-23.147h-9.48V22.221L230.767,22.221z
		 M144.666,38.932l-0.257-0.31l0.641-0.641l0.281,0.256L144.666,38.932z M144.791,44.734l-0.948,0.953l-0.256-0.283l0.923-0.926
		L144.791,44.734z M142.74,38.495l0.359-0.258l0.645,0.976l-0.363,0.231L142.74,38.495z M142.844,51.052l-0.36-0.154l0.335-0.692
		l0.384,0.128L142.844,51.052z M141.303,41.269c-0.068-0.429,0.344-1.035,1.23-1.824c-0.204,0.189-0.141,0.447,0.182,0.771
		c0.154-0.172,0.255-0.4,0.31-0.695v0.926C142.442,40.447,141.867,40.72,141.303,41.269 M142.252,55.185h-1v-0.459h1V55.185z
		 M141.123,50.796h0.463v0.743h-0.463V50.796z M140.763,41.783h-0.462l0.287-1.799h0.46L140.763,41.783z M124.328,56.598h-0.462v-1
		h0.462V56.598z M122.018,46.224l-0.333-0.642l0.385-0.153l0.357,0.795H122.018z M120.942,55.776l-0.335-0.643l0.386-0.154
		l0.331,0.797H120.942z M117.987,41.935l-0.382-0.152l0.332-0.721l0.388,0.156L117.987,41.935z M116.784,49.228
		c-0.323,1.182-0.485,2.08-0.485,2.698c0,0.46,0.067,0.88,0.204,1.255c-0.702,1.473-1.129,2.543-1.282,3.211
		c0.323-2.634,0.621-4.681,0.897-6.136c-0.069-0.308-0.256-0.463-0.564-0.463V46.61h1.049c-0.46,0.512-0.69,1.231-0.69,2.153
		c0,0.378,0.086,0.645,0.256,0.797c0.256-1.18,0.642-2.183,1.154-3.002C117.288,47.089,117.11,47.978,116.784,49.228
		 M115.144,50.691h0.485l-0.307,1.543h-0.462L115.144,50.691z M114.063,47.175l-0.256-0.308l0.668-0.643l0.283,0.256L114.063,47.175
		z M114.397,44.426l0.128,1.542h-0.462l-0.154-1.542H114.397z M116.784,41.677h0.463v1.002h-0.463V41.677z M145.512,41.05
		c-0.241-0.061-0.404-0.133-0.49-0.221c0.086,0,0.306-0.045,0.655-0.141c0.066-0.015,0.103-0.023,0.158-0.039l0.002-18.684h-9.417
		v0.181h-0.133v0.179h-0.137v0.181h-0.133v0.18h-0.134v0.182h-0.135v0.18h-0.134v0.18h-0.133v0.182h-0.135v0.18h-0.134v0.182h-0.136
		v0.18h-0.134v0.181h-0.133v0.18h-0.134v21.305h0.002c0,1.062-0.055,2.15-0.162,3.252c-0.049,0.539-0.161,1.016-0.311,1.462
		c-0.109,0.071-0.209,0.144-0.329,0.214c-0.636,0.367-1.834,0.66-3.558,0.656c-0.86,0-1.983-0.07-2.956-0.205
		c-0.956-0.117-1.853-0.382-1.927-0.453c-0.817-0.466-1.32-0.976-1.664-1.59c-0.393-0.701-0.634-1.482-0.725-2.426
		c-0.105-1.107-0.159-2.191-0.159-3.257V22.042h-9.406v0.18h-0.136v0.181h-0.134v0.181h-0.136v0.18h-0.134v0.18h-0.134v0.182h-0.137
		v0.18h-0.134v0.181h-0.134v0.18h-0.136v0.181h-0.134v0.18H112v0.182h-0.134v0.18h-0.136v23.148c0,0.11,0.011,0.216,0.014,0.326
		l0.42-2.075h0.412l-0.562,2.771h-0.241c0.088,1.931,0.426,3.707,1.076,5.289c0.747,1.821,1.841,3.398,3.249,4.657
		c1.402,1.265,3.088,2.196,4.992,2.793c2.08,0.633,5.253,0.868,7.486,0.879h0.028c2.205,0,4.256-0.289,6.129-0.879
		c1.901-0.597,3.593-1.528,4.995-2.793c0.715-0.64,1.348-1.368,1.895-2.163c0.044-0.062,0.095-0.118,0.136-0.18
		c0.042-0.062,0.093-0.121,0.135-0.181c0.042-0.063,0.091-0.12,0.133-0.18c0.046-0.063,0.094-0.12,0.134-0.183
		c0.045-0.062,0.092-0.118,0.134-0.18c0.045-0.062,0.092-0.119,0.134-0.18c0.044-0.062,0.093-0.119,0.134-0.18
		c0.044-0.062,0.094-0.121,0.137-0.182c0.042-0.062,0.091-0.119,0.133-0.18c0.042-0.064,0.093-0.12,0.134-0.182
		c0.044-0.062,0.092-0.118,0.134-0.18c0.045-0.062,0.091-0.121,0.134-0.18c0.586-0.82,1.084-1.711,1.483-2.677
		c0.211-0.522,0.391-1.065,0.537-1.626c-0.378,0.005-0.811,0.013-1.307,0.022c0.12-0.498,0.265-0.746,0.438-0.746
		c0.203,0.203,0.516,0.348,0.939,0.435c0.338-1.36,0.513-2.823,0.513-4.396v-2.829c-0.217-0.009-0.572-0.013-1.07-0.013v-1.027
		c0.326,0,0.686,0.26,1.07,0.756v-0.912C145.75,41.124,145.647,41.083,145.512,41.05 M160.564,44.119h-0.513V43.04h0.513V44.119z
		 M157.048,51.46l-0.998-0.998l0.307-0.311l0.998,1.029L157.048,51.46z M156.663,54.083h-0.77v-0.489h0.77V54.083z M155.741,52.001
		h0.488v1.08h-0.488V52.001z M154.869,56.008c-1.078-1.831-1.617-3.32-1.617-4.47c0-0.289,0.539-2.558,1.617-6.805V56.008z
		 M161.24,21.119h-8.692v0.182h-0.134v0.179h-0.133v0.182h-0.133v0.18h-0.135v0.182h-0.134v0.18h-0.134v0.181h-0.136v0.181h-0.134
		v0.181h-0.134v0.181h-0.134v0.179h-0.133v0.182h-0.134v0.18h-0.136v38.922h16.973v-0.18h0.135v-0.181h0.133v-0.179h0.135v-0.182
		h0.136v-0.18h0.133v-0.182h0.136v-0.18h0.133v-0.181h0.133v-0.181h0.135v-0.18h0.137v-0.182h0.133v-0.181h0.135v-0.179h0.134
		v-8.623h-8.281L161.24,21.119L161.24,21.119z M65.05,30.074l-0.588-0.872l0.332-0.232l0.591,0.898L65.05,30.074z M62.589,32.95
		c0.31-0.412,0.684-0.721,1.129-0.924c0.307,0.307,0.463,0.264,0.463-0.13c0,0.327,0.245,0.488,0.744,0.488
		C64.512,32.383,63.735,32.574,62.589,32.95 M63.47,57.001l-0.363-0.149l0.309-0.645l0.359,0.126L63.47,57.001z M64.041,23.255
		h0.438v1.438h-0.438V23.255z M64.556,21.764h0.435v2.415h-0.435V21.764z M61.936,25.768l-0.588-0.59l0.232-0.254l0.641,0.616
		L61.936,25.768z M59.055,26.132v0.337h-0.439v-0.922h0.439v0.344c0.457-0.265,0.849-0.549,1.111-0.867
		c-0.306-0.067-0.735,0.062-1.282,0.386c-0.054-0.46,0.161-0.692,0.641-0.692c0.259,0,0.41-0.039,0.462-0.117
		c0.051-0.076,0.101-0.166,0.154-0.269c-0.12-0.239-0.154-0.42-0.104-0.539c0.136-0.24,0.206-0.59,0.206-1.053
		c0.033,0.172,0.161,0.428,0.384,0.768c0.103,0.139,0.178,1.029,0.229,2.673C60.649,26.152,60.033,26.135,59.055,26.132
		 M57.809,24.718c-0.432-0.429-0.643-0.762-0.643-1.003c0-0.168,0.102-0.438,0.306-0.807c0.206-0.368,0.309-0.639,0.309-0.81
		c0,0.428,0.076,0.719,0.232,0.874c0.083-0.172,0.17-0.462,0.256-0.874c0.087-0.411,0.171-0.702,0.257-0.871
		c0.137,0.205,0.207,0.435,0.207,0.691c0,0.31-0.121,0.737-0.36,1.285C58.063,23.972,57.876,24.477,57.809,24.718 M65.445,23.178
		h-0.404v-1.154h0.404v-0.902h-2.288l-0.271,0.41l-0.333-0.229l0.122-0.181h-0.819l-0.15,0.565h-0.41l0.14-0.565H56.75v0.181h-0.134
		v0.181h-0.136v0.18h-0.133v0.181h-0.134v0.18h-0.133v0.18h-0.137v0.18h-0.134v0.183h-0.134v0.18h-0.136v0.182h-0.134v0.179h-0.136
		v0.183h-0.133v0.179H55v11.897l1.516-0.189l0.257,0.257L55,35.656v26.735h16.975v-0.18h0.134V62.03h0.137v-0.18h0.135v-0.182h0.133
		v-0.18h0.133v-0.182h0.137v-0.18h0.134v-0.182h0.134v-0.18h0.137v-0.18h0.134v-0.181h0.137v-0.181h0.134v-0.18h0.133v-8.627h-8.282
		V23.178z M84.74,27.504l-0.017-0.102l-0.086,0.136L84.74,27.504z M104.978,40.345l-1.001-0.978c0.086,0,0.304,0.041,0.652,0.116
		c0.354,0.076,0.58,0.116,0.683,0.116C105.089,39.942,104.978,40.189,104.978,40.345 M103.002,38.673l-1.746-0.742v-0.389
		l1.901,0.749L103.002,38.673z M97.854,51.788c-0.258,0.48-0.652,0.971-1.182,1.475c-0.529,0.504-0.955,0.761-1.281,0.761
		c-0.189,0-0.368-0.089-0.538-0.257l-0.874,0.793c0-0.41-0.068-0.676-0.204-0.793c-0.189,0.015-0.282,0.102-0.282,0.257
		c0.05-0.359-0.181-0.778-0.694-1.261c0.301-0.066,0.641-0.211,1.017-0.42c-0.434,0.094-0.899,0.154-1.433,0.156
		c-1.265-0.004-2.234-0.285-3.044-0.799c-0.883-0.572-1.587-1.31-2.168-2.291c-0.602-1.031-1.059-2.212-1.359-3.588
		c-0.312-1.405-0.465-2.845-0.465-4.31c0-1.467,0.153-2.907,0.465-4.311c0.242-1.104,0.589-2.083,1.023-2.957
		c0.24-0.206,0.488-0.402,0.757-0.577c0.806-0.514,1.773-0.795,3.04-0.803c1.275,0.007,2.239,0.288,3.047,0.803
		c0.887,0.573,1.593,1.308,2.168,2.288c0.601,1.025,1.061,2.216,1.367,3.592c0.306,1.402,0.462,2.843,0.462,4.312
		c0,1.465-0.157,2.906-0.462,4.304c-0.162,0.717-0.376,1.363-0.619,1.979c0.407-0.389,0.833-0.807,1.285-1.281
		c0,0.067,0.033,0.581,0.103,1.54C98.014,51.087,97.973,51.548,97.854,51.788 M93.158,54.819h-0.46v-1.002h0.46V54.819z
		 M83.76,27.016l0.719-1.105l0.244,1.492l0.631-0.971l0.421,0.756l-1.035,0.316l0.16,0.962L83.76,27.016z M84.33,39.126
		c-0.254,0.053-0.468,0.028-0.641-0.074l-0.641,0.54v-1.056c0.583,0,0.975-0.102,1.182-0.308c0.428,0.43,0.642,0.688,0.642,0.77
		C84.885,38.998,84.71,39.044,84.33,39.126 M77.09,38.462l-0.231-0.359l1.36-1.205l0.26,0.332L77.09,38.462z M106.853,34.294
		L106.853,34.294l0.178-0.055c-0.688-2.304-1.695-4.365-3.025-6.139c-1.337-1.792-3.001-3.241-4.941-4.297
		c-1.995-1.092-4.261-1.63-6.684-1.628c-2.421,0-4.684,0.534-6.683,1.632c-1.939,1.05-3.601,2.505-4.936,4.292
		c-0.025,0.033-0.041,0.068-0.066,0.1c-0.022,0.027-0.048,0.053-0.068,0.082c-0.025,0.031-0.045,0.066-0.069,0.098
		c-0.02,0.028-0.046,0.053-0.068,0.081c-0.022,0.034-0.041,0.067-0.067,0.101c-0.02,0.027-0.045,0.053-0.067,0.082
		c-0.022,0.032-0.045,0.066-0.066,0.098c-0.022,0.028-0.044,0.053-0.067,0.081c-0.025,0.034-0.044,0.067-0.066,0.101
		c-0.022,0.027-0.047,0.053-0.07,0.081c-0.022,0.032-0.042,0.067-0.066,0.099c-0.02,0.028-0.047,0.053-0.066,0.081
		c-0.023,0.033-0.046,0.067-0.067,0.1c-0.022,0.028-0.048,0.053-0.067,0.082c-0.025,0.032-0.045,0.067-0.067,0.098
		c-0.022,0.029-0.047,0.054-0.069,0.082c-0.022,0.032-0.042,0.067-0.067,0.101c-0.021,0.026-0.044,0.053-0.067,0.081
		c-0.025,0.031-0.044,0.067-0.067,0.098c-0.022,0.028-0.047,0.054-0.066,0.081c-0.025,0.031-0.045,0.066-0.067,0.1
		c-0.022,0.027-0.047,0.054-0.069,0.082c-0.023,0.032-0.042,0.067-0.067,0.098c-0.022,0.028-0.045,0.054-0.067,0.081
		c-0.025,0.032-0.042,0.067-0.068,0.1c-0.021,0.027-0.047,0.054-0.069,0.081c-1.33,1.777-2.333,3.836-3.022,6.143
		c-0.688,2.304-1.031,4.73-1.031,7.271c0,2.562,0.34,5.007,1.031,7.312c0.686,2.305,1.692,4.363,3.022,6.144
		c1.338,1.792,3.004,3.238,4.953,4.281c1.992,1.067,4.25,1.597,6.669,1.595h0.017c2.414,0,4.666-0.528,6.655-1.598
		c1.945-1.04,3.615-2.485,4.953-4.278c0.021-0.032,0.044-0.067,0.066-0.101c0.02-0.028,0.045-0.055,0.067-0.082
		c0.025-0.031,0.045-0.066,0.066-0.098c0.023-0.031,0.048-0.053,0.07-0.082c0.022-0.031,0.042-0.066,0.066-0.1
		c0.02-0.029,0.044-0.053,0.068-0.081c0.021-0.032,0.042-0.067,0.066-0.099c0.022-0.029,0.048-0.053,0.067-0.081
		c0.025-0.032,0.045-0.066,0.067-0.101c0.022-0.027,0.047-0.053,0.067-0.08c0.025-0.033,0.043-0.068,0.067-0.1
		c0.022-0.029,0.048-0.052,0.07-0.08c0.025-0.033,0.042-0.068,0.067-0.101c0.022-0.027,0.047-0.054,0.067-0.081
		c0.025-0.031,0.044-0.066,0.069-0.099c0.02-0.03,0.045-0.054,0.066-0.081c0.023-0.032,0.042-0.066,0.066-0.099
		c0.021-0.03,0.046-0.054,0.068-0.083c0.022-0.031,0.041-0.066,0.066-0.098c0.023-0.029,0.045-0.054,0.067-0.081
		c0.025-0.034,0.044-0.066,0.067-0.101c0.022-0.028,0.047-0.053,0.07-0.082c0.022-0.031,0.042-0.066,0.067-0.099
		c0.02-0.028,0.047-0.054,0.067-0.081c0.022-0.031,0.045-0.066,0.066-0.098c0.023-0.029,0.048-0.055,0.068-0.082
		c1.33-1.777,2.336-3.838,3.024-6.145c0.688-2.305,1.029-4.746,1.029-7.309c0-2.541-0.34-4.967-1.029-7.271L106.853,34.294z
		 M65.479,22.024h-0.034v1.155h0.034V22.024z"/>
	<path fill="#FFFFFF" d="M144.642,38.949l-0.256-0.309l0.642-0.642l0.281,0.258L144.642,38.949z M144.771,44.753l-0.947,0.95
		l-0.257-0.283l0.923-0.925L144.771,44.753z M142.719,38.513l0.356-0.256l0.645,0.974l-0.359,0.231L142.719,38.513z M142.821,51.071
		l-0.357-0.156l0.332-0.693l0.388,0.129L142.821,51.071z M142.233,55.203h-1.001v-0.462h1.001V55.203z M141.104,50.812h0.461v0.745
		h-0.461V50.812z M140.744,41.8h-0.462l0.284-1.799h0.461L140.744,41.8z M142.513,39.462c-0.203,0.189-0.145,0.446,0.182,0.771
		c0.15-0.172,0.256-0.402,0.307-0.695v0.924c-0.58,0-1.155,0.274-1.721,0.823C141.212,40.857,141.625,40.251,142.513,39.462
		 M124.305,56.616h-0.463v-1.002h0.463V56.616z M121.998,46.242l-0.334-0.641l0.384-0.154l0.359,0.795H121.998z M120.919,55.794
		l-0.331-0.642l0.381-0.155l0.334,0.797H120.919z M117.968,41.955l-0.383-0.155l0.333-0.719l0.385,0.153L117.968,41.955z
		 M117.227,42.698h-0.463v-1.002h0.463V42.698z M114.044,47.192l-0.258-0.309l0.668-0.643l0.284,0.256L114.044,47.192z
		 M114.378,44.444l0.128,1.542h-0.462l-0.154-1.542H114.378z M145.49,41.068c-0.24-0.061-0.402-0.133-0.488-0.218
		c0.086,0,0.306-0.046,0.655-0.142c0.113-0.031,0.188-0.049,0.276-0.068V21.803h-9.415v21.306c0,1.062-0.054,2.149-0.16,3.251
		c-0.086,0.948-0.331,1.733-0.719,2.423c-0.343,0.616-0.854,1.133-1.667,1.6c-0.636,0.369-1.835,0.662-3.556,0.658
		c-0.865,0-1.985-0.07-2.959-0.207c-0.955-0.114-1.851-0.381-1.924-0.451c-0.819-0.467-1.322-0.978-1.664-1.592
		c-0.393-0.699-0.635-1.482-0.725-2.424c-0.105-1.109-0.159-2.193-0.159-3.258V21.879h-9.406v23.147
		c0,2.338,0.354,4.451,1.115,6.313c0.07,0.161,0.15,0.31,0.222,0.469l0.204-1.098h0.485l-0.307,1.54h-0.17
		c0.152,0.312,0.323,0.612,0.497,0.906c0.166-1.126,0.318-2.098,0.469-2.883c-0.068-0.309-0.259-0.463-0.564-0.463v-3.185h1.05
		c-0.46,0.516-0.692,1.232-0.692,2.156c0,0.379,0.084,0.643,0.256,0.797c0.257-1.182,0.641-2.183,1.154-3.003
		c-0.034,0.53-0.212,1.419-0.538,2.669c-0.326,1.182-0.488,2.08-0.488,2.696c0,0.462,0.066,0.883,0.204,1.259
		c-0.125,0.269-0.235,0.51-0.346,0.753c0.529,0.747,1.134,1.434,1.814,2.042c1.399,1.264,3.086,2.197,4.985,2.794
		c2.078,0.633,5.252,0.867,7.484,0.878h0.028c2.207,0,4.253-0.289,6.129-0.878c1.903-0.597,3.593-1.53,4.995-2.794
		c1.407-1.261,2.497-2.839,3.244-4.659c0.193-0.464,0.357-0.945,0.496-1.442c-0.395,0.003-0.853,0.01-1.385,0.02
		c0.12-0.497,0.269-0.745,0.438-0.745c0.207,0.204,0.521,0.352,0.947,0.438c0.025,0.004,0.042,0.007,0.065,0.012
		c0.37-1.415,0.56-2.945,0.56-4.593v-2.64c-0.185-0.014-0.563-0.022-1.188-0.022v-1.026c0.361,0,0.756,0.315,1.188,0.916v-0.996
		C145.842,41.185,145.702,41.119,145.49,41.068 M160.544,44.137h-0.514v-1.079h0.514V44.137z M157.027,51.479l-0.998-1l0.305-0.309
		l1.003,1.027L157.027,51.479z M156.642,54.102h-0.77V53.61h0.77V54.102z M155.72,52.02h0.487v1.079h-0.487V52.02z M154.846,56.026
		c-1.076-1.831-1.617-3.322-1.617-4.469c0-0.291,0.541-2.558,1.617-6.805V56.026z M161.333,20.958h-8.69v38.924h16.975v-8.623
		h-8.285V20.958z M65.457,23.195h-0.435V22.04h0.435V23.195z M65.03,30.092l-0.59-0.873l0.334-0.23l0.588,0.898L65.03,30.092z
		 M62.569,32.967c0.308-0.413,0.684-0.721,1.129-0.924c0.304,0.309,0.46,0.264,0.46-0.129c0,0.327,0.248,0.489,0.744,0.489
		C64.492,32.403,63.715,32.592,62.569,32.967 M63.447,57.021l-0.359-0.153l0.306-0.64l0.362,0.125L63.447,57.021z M64.018,23.271
		h0.438v1.438h-0.438V23.271z M64.534,21.782h0.436v2.414h-0.436V21.782z M61.917,25.789l-0.59-0.592l0.231-0.255l0.642,0.616
		L61.917,25.789z M59.035,26.152v0.337h-0.437v-0.923h0.438v0.345c0.457-0.266,0.847-0.551,1.111-0.868
		c-0.309-0.067-0.735,0.062-1.285,0.386c-0.049-0.461,0.162-0.693,0.641-0.693c0.261,0,0.413-0.038,0.463-0.115
		c0.05-0.077,0.104-0.166,0.156-0.269c-0.119-0.239-0.154-0.421-0.105-0.539c0.137-0.241,0.207-0.591,0.207-1.052
		c0.036,0.171,0.162,0.427,0.387,0.769c0.1,0.136,0.178,1.028,0.229,2.67C60.627,26.17,60.01,26.154,59.035,26.152 M57.787,24.735
		c-0.43-0.427-0.641-0.762-0.641-1c0-0.17,0.1-0.439,0.306-0.809c0.207-0.369,0.307-0.639,0.307-0.81
		c0,0.429,0.078,0.72,0.232,0.875c0.086-0.17,0.172-0.461,0.256-0.875c0.087-0.411,0.172-0.701,0.259-0.871
		c0.137,0.205,0.204,0.436,0.204,0.691c0,0.31-0.121,0.739-0.357,1.287C58.043,23.99,57.854,24.495,57.787,24.735 M65.541,25.943
		H65.51v-2.646h0.031v-2.104h-0.006v-0.232h-2.279l-0.391,0.589l-0.332-0.229l0.245-0.361h-0.894l-0.199,0.743h-0.41l0.182-0.743
		h-4.61v38.921h16.979v-8.624h-8.285V25.943z M202.988,38.126h-0.514v-0.821h0.514V38.126z M202.372,44.74
		c-0.084,0.281-0.129,0.467-0.129,0.55h-1.076v-1.128c0.153,0.155,0.375,0.231,0.666,0.231c0.293,0,0.514-0.076,0.67-0.231
		C202.503,44.263,202.458,44.458,202.372,44.74 M201.036,47.81c-0.322,0.7-0.461,1.275-0.406,1.719
		c-0.039,0.428-0.055-0.564-0.055-2.979l0.667,0.593c0.12-0.104,0.146-0.301,0.078-0.593c-0.104-0.513-0.153-0.804-0.153-0.873
		c0.344,0.223,0.605,0.335,0.794,0.335C201.653,46.61,201.349,47.211,201.036,47.81 M201.575,43.289h0.514v0.823h-0.514V43.289z
		 M201.575,41.8h0.514v1.104h-0.514V41.8z M201.575,40h0.514v0.824h-0.514V40z M194.589,45.656h0.004
		c-0.305,1.378-0.765,2.562-1.365,3.595c-0.578,0.975-1.285,1.714-2.17,2.289c-0.811,0.512-1.769,0.793-3.042,0.797
		c-1.274-0.004-2.241-0.285-3.044-0.799c-0.886-0.572-1.594-1.312-2.171-2.292c-0.601-1.032-1.06-2.213-1.358-3.586
		c-0.313-1.404-0.47-2.845-0.47-4.312c0-1.467,0.156-2.907,0.468-4.311c0.303-1.377,0.762-2.566,1.364-3.594
		c0.573-0.98,1.278-1.712,2.168-2.285c0.805-0.514,1.772-0.797,3.044-0.801c1.272,0.004,2.23,0.284,3.049,0.801
		c0.88,0.573,1.586,1.309,2.165,2.287c0.597,1.026,1.059,2.216,1.363,3.591c0.309,1.405,0.465,2.845,0.465,4.312
		C195.058,42.815,194.903,44.255,194.589,45.656 M181.034,49.143c-0.359-0.1-0.621-0.24-0.797-0.41
		c0.036-0.033,0.176-0.231,0.412-0.591c0.17-0.224,0.318-0.333,0.436-0.333C181.05,47.843,181.034,48.286,181.034,49.143
		 M199.636,27.938c-1.332-1.788-2.998-3.244-4.939-4.297c-1.996-1.092-4.259-1.63-6.68-1.627c-2.423-0.002-4.688,0.536-6.686,1.627
		c-1.941,1.058-3.604,2.509-4.937,4.297c-1.329,1.777-2.335,3.836-3.024,6.139c-0.686,2.307-1.031,4.732-1.031,7.271
		c0,2.566,0.342,5.009,1.031,7.312c0.688,2.306,1.695,4.365,3.024,6.145c1.335,1.787,2.999,3.24,4.952,4.281
		c1.99,1.07,4.251,1.596,6.672,1.594h0.012c2.414,0,4.668-0.526,6.653-1.596c1.952-1.039,3.621-2.488,4.956-4.279
		c1.33-1.779,2.336-3.839,3.021-6.145c0.69-2.303,1.031-4.745,1.031-7.312c0-2.538-0.344-4.964-1.031-7.271
		C201.974,31.774,200.966,29.715,199.636,27.938 M104.955,40.361l-0.997-0.975c0.086,0,0.303,0.039,0.652,0.117
		c0.351,0.074,0.577,0.116,0.683,0.116C105.066,39.96,104.955,40.208,104.955,40.361 M102.982,38.692l-1.745-0.744v-0.386
		l1.897,0.746L102.982,38.692z M99.063,45.653h-0.002c-0.276,1.245-0.684,2.322-1.202,3.284c0.01,0.146,0.04,0.625,0.104,1.482
		c0.03,0.686-0.011,1.147-0.132,1.386c-0.255,0.479-0.649,0.972-1.178,1.477c-0.529,0.504-0.959,0.757-1.286,0.757
		c-0.187,0-0.365-0.086-0.535-0.257l-0.875,0.795c0-0.409-0.068-0.674-0.204-0.795c-0.189,0.016-0.282,0.102-0.282,0.257
		c0.05-0.358-0.182-0.776-0.694-1.261c0.396-0.087,0.864-0.31,1.392-0.646c-0.5,0.131-1.054,0.204-1.689,0.205
		c-1.269-0.004-2.232-0.285-3.044-0.799c-0.883-0.572-1.587-1.311-2.168-2.292c-0.599-1.03-1.059-2.211-1.359-3.586
		c-0.312-1.406-0.466-2.845-0.466-4.311c0-1.468,0.153-2.908,0.466-4.312c0.301-1.378,0.761-2.569,1.359-3.591
		c0.581-0.983,1.282-1.716,2.175-2.288c0.805-0.514,1.769-0.797,3.037-0.801c1.276,0.004,2.238,0.287,3.049,0.801
		c0.887,0.572,1.592,1.309,2.169,2.288c0.597,1.025,1.056,2.218,1.363,3.591c0.307,1.402,0.462,2.844,0.462,4.312
		C99.523,42.813,99.368,44.255,99.063,45.653 M93.135,54.837h-0.46v-1.001h0.46V54.837z M83.74,27.034l0.717-1.106l0.248,1.492
		l0.629-0.97l0.421,0.755l-1.035,0.319l0.156,0.961L83.74,27.034z M84.311,39.146c-0.254,0.051-0.47,0.027-0.641-0.076L83.03,39.61
		v-1.056c0.58,0,0.973-0.102,1.179-0.309c0.43,0.43,0.641,0.687,0.641,0.771C84.866,39.019,84.688,39.062,84.311,39.146
		 M105.426,34.589l1.703-0.512c-0.688-2.304-1.694-4.363-3.025-6.137c-1.337-1.793-3.001-3.242-4.941-4.298
		c-1.995-1.093-4.259-1.63-6.684-1.629c-2.421-0.001-4.685,0.534-6.684,1.632c-1.939,1.05-3.604,2.506-4.935,4.291
		c-1.331,1.778-2.336,3.837-3.022,6.144c-0.375,1.253-0.637,2.546-0.807,3.872l1.168-1.037l0.256,0.333l-1.385,1.232l-0.081-0.127
		c-0.112,0.981-0.185,1.977-0.185,2.995c0,2.563,0.341,5.009,1.033,7.312c0.684,2.305,1.692,4.363,3.022,6.144
		c1.335,1.792,3,3.239,4.952,4.281c1.989,1.069,4.25,1.597,6.666,1.595h0.017c2.417,0,4.666-0.527,6.656-1.596
		c1.948-1.041,3.615-2.488,4.952-4.28c1.33-1.78,2.336-3.839,3.025-6.145c0.689-2.304,1.029-4.746,1.029-7.31
		c0-2.54-0.34-4.966-1.029-7.27L105.426,34.589z M216.516,25.789h-0.435v-1.67h0.435V25.789z M216.029,25.789h-0.435v-1.156h0.435
		V25.789z M213.513,25.042h-0.438v-1.668h0.438V25.042z M213.513,28.048h-0.438V26.61h0.438V28.048z M213.024,25.789h-0.435v-1.67
		h0.435V25.789z M212.513,25.532h-0.411v-1.413h0.411V25.532z M210.657,51.353l-0.41-0.18l0.385-0.77l0.414,0.151L210.657,51.353z
		 M210.099,25.377h0.438v1.669h-0.438V25.377z M210.027,26.277h-0.439v-2.415h0.439V26.277z M209.536,26.045h-0.435v-2.672h0.435
		V26.045z M210.589,23.117h0.434v1.413h-0.434V23.117z M230.865,43.108c0,1.062-0.053,2.149-0.156,3.251
		c-0.095,0.942-0.34,1.725-0.73,2.419c-0.348,0.614-0.857,1.132-1.688,1.6c-0.081,0.073-0.992,0.341-1.962,0.457
		c-0.987,0.137-2.119,0.205-2.991,0.205c-1.753,0.008-2.969-0.289-3.617-0.662c-0.824-0.468-1.344-0.988-1.685-1.592
		c-0.395-0.701-0.64-1.48-0.729-2.429c-0.106-1.101-0.162-2.186-0.162-3.249V21.803h-9.479v23.224c0,2.341,0.359,4.459,1.138,6.32
		c0.416,1.002,0.947,1.923,1.569,2.768c0.09-0.234,0.137-0.51,0.137-0.836c0-0.086,0.03,0.24,0.099,0.976
		c0.007,0.056-0.005,0.101-0.002,0.156c0.449,0.569,0.931,1.11,1.474,1.594c1.417,1.261,3.122,2.194,5.042,2.784
		c1.898,0.592,3.973,0.884,6.217,0.884c2.249-0.019,5.457-0.253,7.557-0.884c1.916-0.59,3.619-1.523,5.039-2.787
		c0.364-0.325,0.711-0.676,1.035-1.04c-0.326-0.547-0.498-1.183-0.498-1.911c0-0.823,0.268-1.732,0.797-2.724
		c0.562-1.061,1.273-1.891,2.129-2.489c-0.016,0.907-0.208,1.938-0.574,3.092c-0.363,1.123-0.54,1.863-0.552,2.232
		c0.355-0.578,0.679-1.177,0.946-1.82c0.773-1.855,1.127-3.973,1.127-6.314V21.879h-9.479V43.108L230.865,43.108z M252.996,24.608
		c-0.282,0-0.516,0.039-0.703,0.117c-0.188,0.075-0.351,0.113-0.487,0.113c0.152-0.24,0.344-0.814,0.565-1.72
		c0.085,0.172,0.212,0.369,0.382,0.591c0.275,0,0.414-0.248,0.414-0.748c0.205-0.015,0.657-0.083,1.356-0.203
		c0.185-0.033,0.323-0.049,0.474-0.073L255,17.742h-7.718l0.027,8.529c0.007,0.903,0.312,1.552,0.484,1.967
		c0.061,0.139,0.109,0.252,0.144,0.336c-0.098,0.179-0.161,0.254-0.177,0.266c-0.031,0.013-0.018,0.053-0.369,0.109l-1.539,0.21
		v6.487l2.021-0.279c2.387-0.263,3.945-1.635,5.044-3.05c1.394-1.669,2.093-3.786,2.079-6.055v-2.98
		c-0.188,0.157-0.398,0.337-0.653,0.552C253.73,24.35,253.281,24.608,252.996,24.608"/>
	<path fill="#FFFFFF" d="M120.318,69.298h-0.119v-0.453h0.119V69.298z M120.185,69.298h-0.118v-0.312h0.118V69.298z M120.311,73.036
		l-0.375,0.336l-0.063-0.098l0.369-0.328L120.311,73.036z M119.503,69.911h-0.118v-0.389h0.118V69.911z M119.503,69.097h-0.118
		v-0.452h0.118V69.097z M119.369,69.298h-0.118v-0.453h0.118V69.298z M119.232,69.228h-0.113v-0.383h0.113V69.228z M118.826,68.957
		h-0.117v-0.383h0.117V68.957z M118.826,71.669h-0.097l-0.153-0.293l0.096-0.04L118.826,71.669z M118.694,69.187h-0.118v0.454h0.118
		V69.187z M118.694,72.485h-0.111l-0.083-0.312h0.118L118.694,72.485z M118.555,69.433h-0.119v-0.658h0.119V69.433z M118.659,71.942
		c-0.219-0.088-0.327-0.219-0.327-0.392c0-0.124,0.065-0.188,0.195-0.188c-0.078,0.079-0.051,0.163,0.084,0.251l0.014,0.175
		C118.629,71.849,118.641,71.899,118.659,71.942 M118.423,69.368h-0.119v-0.724h0.119V69.368z M118.284,71.44l-0.091,0.053
		l-0.159-0.234l0.09-0.062L118.284,71.44z M118.151,69.317h-0.117v0.656h0.117V69.317z M118.012,68.685h-0.111v-0.313h0.111V68.685z
		 M118.012,69.258h-0.119v0.716h0.119V69.258z M117.879,69.228h-0.118v-0.312h0.118V69.228z M117.747,69.501h-0.118v-0.656h0.118
		V69.501z M118.158,72.124c-0.111,0-0.323,0.049-0.633,0.15c0.082-0.109,0.186-0.191,0.305-0.248
		c0.085,0.084,0.125,0.071,0.125-0.035C117.956,72.079,118.023,72.124,118.158,72.124 M117.607,69.25h-0.117v0.391h0.117V69.25z
		 M117.607,75.673h-0.097l-0.083-0.16l0.097-0.035L117.607,75.673z M117.537,75.04l-0.083,0.18l-0.1-0.041l0.086-0.174
		L117.537,75.04z M117.649,73.481c0,0.322-0.042,0.695-0.125,1.117c-0.139-0.177-0.207-0.326-0.202-0.445v-0.971
		C117.539,73.251,117.649,73.354,117.649,73.481 M117.205,76.489h-0.121v-0.383h0.121V76.489z M117.336,68.538l-0.159,0.244
		l-0.092-0.062l0.16-0.238L117.336,68.538z M116.994,69.871l-0.078,0.063l-0.16-0.16l0.062-0.071L116.994,69.871z M116.938,68.511
		l-0.084,0.313h-0.111l0.076-0.313H116.938z M116.318,78.226l-0.083,0.182l-0.098-0.041l0.083-0.175L116.318,78.226z
		 M116.624,70.044c-0.063-0.008-0.263-0.014-0.598-0.014c0.181-0.088,0.318-0.188,0.41-0.299c-0.083-0.018-0.199,0.016-0.349,0.104
		c-0.013-0.125,0.044-0.188,0.175-0.188c0.07,0,0.111-0.011,0.126-0.033c0.014-0.02,0.027-0.044,0.04-0.071
		c-0.032-0.065-0.04-0.114-0.026-0.147c0.038-0.064,0.055-0.16,0.055-0.286c0.01,0.048,0.045,0.117,0.105,0.208
		C116.59,69.356,116.611,69.598,116.624,70.044 M115.991,68.698c0.036,0.057,0.055,0.118,0.055,0.189
		c0,0.082-0.032,0.199-0.097,0.348c-0.084,0.21-0.134,0.348-0.154,0.412c-0.116-0.116-0.174-0.209-0.174-0.271
		c0-0.047,0.027-0.119,0.083-0.223c0.055-0.099,0.084-0.172,0.084-0.219c0,0.117,0.021,0.195,0.062,0.237
		c0.024-0.046,0.047-0.124,0.07-0.237C115.944,68.825,115.967,68.745,115.991,68.698 M115.035,70.114h-0.119v-0.25h0.119V70.114z
		 M114.415,72.548l-0.166,0.168l-0.071-0.07l0.167-0.166L114.415,72.548z M113.808,77.969l-0.083,0.228l-0.096-0.033l0.083-0.194
		H113.808L113.808,77.969z M115.886,69.794c-0.066,0.136-0.094,0.245-0.083,0.328c-0.024-0.023-0.059-0.045-0.108-0.066
		c-0.049-0.021-0.085-0.043-0.108-0.067c-0.205,0.204-0.508,0.395-0.913,0.566c-0.182,0.297-0.272,0.696-0.272,1.198
		c0,0.051,0.022,0.113,0.066,0.186c0.045,0.07,0.065,0.115,0.065,0.129c-0.106,0.105-0.108,0.172-0.006,0.194
		c0.595,0.09,0.892,0.267,0.892,0.538c0,0.126-0.072,0.223-0.216,0.291c-0.028,0.094-0.119,0.203-0.271,0.33
		c-0.178,0.153-0.342,0.23-0.496,0.23c-0.273,0-0.506-0.171-0.696-0.51c-0.148-0.271-0.224-0.508-0.224-0.712
		c0-0.501,0.207-1.102,0.62-1.8c0.381-0.65,0.801-1.156,1.262-1.521c0,0.052-0.024,0.126-0.07,0.224
		c-0.065,0.141-0.104,0.23-0.119,0.272c0.031,0.034,0.066,0.036,0.104,0.009c0.037-0.031,0.056-0.062,0.056-0.099
		c0.055,0.067,0.132,0.184,0.229,0.341c0.038,0,0.062-0.021,0.077-0.062c0.019-0.041,0.011-0.079-0.021-0.111
		c0.023,0.021,0.068,0.045,0.133,0.066C115.853,69.77,115.886,69.785,115.886,69.794 M120.415,72.841
		c0,0.215-0.018,0.351-0.056,0.406c0.053,0.109,0.077,0.215,0.077,0.312c0,0.445-0.403,0.723-1.212,0.83
		c0.005-0.094-0.015-0.193-0.056-0.3c-0.056,0.065-0.088,0.142-0.1,0.233c-0.008,0.091-0.035,0.152-0.082,0.186
		c-0.199,0.074-0.378,0.414-0.536,1.023c-0.187,0.722-0.397,1.219-0.634,1.494c-0.326,0.576-0.767,1.021-1.324,1.338
		c-0.525,0.293-1.088,0.439-1.686,0.439c-0.219,0-0.64-0.055-1.262-0.168c-0.292-0.05-0.58-0.199-0.863-0.445
		c-0.303-0.26-0.453-0.518-0.453-0.773c0-0.158,0.121-0.391,0.362-0.697c0.246-0.325,0.458-0.488,0.635-0.488h0.348
		c0.098,0.726,0.171,1.156,0.217,1.296c0.176,0.534,0.505,0.804,0.982,0.804c0.236,0,0.515-0.152,0.829-0.453
		c0.316-0.303,0.515-0.604,0.6-0.9c-0.005,0.062,0,0.24,0.014,0.545l0.152-0.092l-0.069-0.837c0.088-0.262,0.181-0.577,0.277-0.948
		v-0.379c-0.218,0.011-0.691,0.168-1.422,0.475c0.206-0.534,0.559-1.012,1.061-1.438c0.393-0.328,0.609-0.771,0.647-1.331
		c0.089,0.087,0.171,0.095,0.251,0.021c0-0.075-0.068-0.113-0.201-0.113c0.19-0.264,0.306-0.594,0.348-0.988
		c0.041,0,0.085,0.026,0.132,0.076c0.065,0.061,0.115,0.1,0.153,0.119c0.042-0.064,0.105-0.152,0.195-0.266
		c0.228,0.012,0.354-0.06,0.384-0.208c0.018,0.07,0.092,0.253,0.223,0.552c0.028,0,0.073-0.004,0.139-0.009h0.182
		c0.07,0,0.104-0.044,0.104-0.132c-0.079,0.572-0.071,1.025,0.021,1.359c0.084,0,0.167,0.045,0.25,0.133
		c0.038-0.028,0.146-0.131,0.321-0.309c0.112-0.105,0.244-0.184,0.398-0.236l0.166,0.133
		C120.021,73.036,120.182,72.948,120.415,72.841"/>
	<path fill="#FFFFFF" d="M124.811,77.258h-0.125v0.195h0.125V77.258z M124.588,77.753h-0.125v-0.271h0.125V77.753z M125.501,76.356
		c-0.608,0.639-1.068,0.991-1.38,1.061c0.14,0.131,0.202,0.244,0.188,0.342c0-0.041,0.025-0.066,0.077-0.068
		c0.035,0.031,0.055,0.104,0.055,0.215l0.238-0.215c0.047,0.045,0.096,0.068,0.145,0.068c0.089,0,0.206-0.068,0.351-0.205
		c0.144-0.139,0.25-0.271,0.319-0.4c0.033-0.066,0.044-0.192,0.035-0.379C125.51,76.515,125.501,76.375,125.501,76.356
		 M124.219,77.974h-0.125v-0.27h0.125V77.974z M124.072,73.481h-0.125v0.198h0.125V73.481z M121.968,73.68
		c0-0.024-0.057-0.094-0.175-0.21c-0.056,0.055-0.162,0.082-0.319,0.082v0.288l0.173-0.147c0.046,0.027,0.105,0.035,0.174,0.021
		C121.924,73.69,121.971,73.68,121.968,73.68 M124.783,72.668c-0.177,0.534-0.361,1.048-0.551,1.54
		c-0.023-0.121-0.076-0.293-0.154-0.516c-0.092,0.145-0.129,0.375-0.111,0.691c0.052,0.046,0.119,0.027,0.203-0.056
		c0,0.079-0.051,0.156-0.153,0.237c-0.041,0.223-0.14,0.629-0.292,1.22c-0.131,0.517-0.195,0.805-0.195,0.864
		c0,0.257,0.008,0.402,0.026,0.44c0.042,0.098,0.18,0.203,0.412,0.32v0.997c-0.371,0.215-0.576,0.328-0.612,0.343
		c-0.089,0.032-0.239,0.048-0.454,0.048c-0.714,0-1.073-0.418-1.073-1.255c0-0.415,0.121-0.864,0.362-1.354
		c0.336-0.672,0.525-1.09,0.572-1.254c-0.521,0.074-0.979,0.359-1.373,0.851c-0.549,0.685-0.964,1.118-1.248,1.304v-0.635
		c0.246-0.246,0.562-0.611,0.948-1.094c-0.162-0.199-0.325-0.4-0.488-0.602c-0.02-0.027-0.028-0.174-0.028-0.439
		c0-0.389,0.122-0.752,0.362-1.088c0.28-0.391,0.635-0.587,1.066-0.587c0.06,0,0.119,0.007,0.175,0.015
		c0.147,0.148,0.223,0.352,0.223,0.607c0,0.135-0.027,0.33-0.08,0.586c-0.054,0.256-0.08,0.43-0.08,0.523
		c0,0.051,0.004,0.094,0.013,0.131c0.795-0.232,1.447-0.846,1.96-1.842h0.57V72.668z"/>
	<path fill="#FFFFFF" d="M127.519,73.723c-0.028,0-0.089-0.011-0.185-0.034c-0.095-0.021-0.154-0.031-0.178-0.031l0.272,0.266
		C127.429,73.88,127.459,73.813,127.519,73.723 M128.342,70.728c0,0.174-0.084,0.352-0.254,0.538
		c-0.17,0.185-0.347,0.278-0.534,0.278h-0.229c-0.413-0.223-0.62-0.496-0.62-0.816c0-0.191,0.086-0.373,0.26-0.553
		c0.174-0.179,0.361-0.27,0.561-0.27c0.204,0,0.395,0.106,0.571,0.314C128.26,70.411,128.342,70.579,128.342,70.728 M126.934,73.364
		l-0.517-0.2v0.103l0.475,0.203L126.934,73.364z M128.69,76.392c0.015,0.061,0.021,0.123,0.021,0.188
		c0,0.401-0.312,0.867-0.934,1.395c-0.373,0.316-0.627,0.523-0.766,0.615c-0.266,0.172-0.517,0.258-0.753,0.258
		c-0.698,0-1.045-0.596-1.045-1.787c0-1.137,0.2-1.92,0.599-2.344c-0.048-0.036-0.095-0.055-0.147-0.055v-0.238
		c-0.004-0.049,0.06-0.227,0.188-0.528c0.149-0.339,0.284-0.538,0.405-0.601c-0.029-0.051-0.066-0.076-0.112-0.076
		c0.094,0,0.141-0.085,0.141-0.258c0.003,0.023,0.031,0.072,0.082,0.146c0.005,0,0.009-0.004,0.013-0.014
		c0.006-0.01,0.006-0.038,0-0.092c-0.003-0.027,0.027-0.04,0.093-0.04c0.063,0,0.281-0.038,0.646-0.112
		c0.438-0.094,0.73-0.15,0.878-0.174c-0.056,0.133-0.115,0.385-0.181,0.752c-0.038,0.219-0.136,0.374-0.293,0.463
		c0.047,0.036,0.094,0.055,0.141,0.055c-0.546,1.627-0.816,2.541-0.816,2.739c0,0.224,0.162,0.499,0.487,0.825
		C127.794,77.211,128.244,76.839,128.69,76.392"/>
	<path fill="#FFFFFF" d="M131.936,74.849l-0.078-0.074l-0.181,0.18l0.069,0.077L131.936,74.849z M131.719,78.065h-0.125v0.271h0.125
		V78.065z M131.202,75.521l-0.097-0.217l-0.104,0.041l0.091,0.176H131.202z M130.905,78.114l-0.092-0.217l-0.104,0.041l0.09,0.176
		H130.905z M130.089,74.16l-0.105-0.042l-0.09,0.195l0.104,0.042L130.089,74.16z M129.795,74.286h-0.124v0.271h0.124V74.286z
		 M129.817,75.61c-0.139,0.225-0.244,0.496-0.314,0.816c-0.047-0.041-0.069-0.113-0.069-0.215c0-0.254,0.063-0.447,0.187-0.586
		h-0.284v0.863c0.083,0,0.134,0.043,0.152,0.125c-0.074,0.395-0.155,0.952-0.244,1.667c0.042-0.181,0.159-0.472,0.348-0.871
		c-0.036-0.103-0.055-0.218-0.055-0.341c0-0.167,0.044-0.412,0.132-0.733C129.758,75.997,129.809,75.755,129.817,75.61
		 M129.356,76.733h-0.133l-0.076,0.42h0.125L129.356,76.733z M129.056,75.45l-0.034-0.419h-0.133l0.042,0.419H129.056z
		 M129.119,75.59l-0.076-0.069l-0.181,0.175l0.07,0.085L129.119,75.59z M133.531,76.505l-0.098,0.738c0-0.106-0.04-0.16-0.119-0.16
		c0.065,0.312-0.369,0.732-1.302,1.262c0-0.013,0.01-0.066,0.031-0.156c0.022-0.091,0.03-0.164,0.03-0.22
		c-0.035,0-0.102-0.044-0.194-0.132c-0.023,0.022-0.026,0.085-0.006,0.188c0.027,0.164,0.041,0.316,0.041,0.461
		c-0.542,0.209-1.036,0.312-1.478,0.312c-0.637,0-1.142-0.176-1.515-0.533c-0.375-0.355-0.561-0.838-0.561-1.447
		c0-0.074,0-0.148,0.005-0.223c0.043-0.051,0.083-0.102,0.128-0.146c0.05-0.064,0.104-0.093,0.159-0.084
		c0,0.163,0.044,0.308,0.132,0.434h0.049c-0.043-0.109-0.074-0.361-0.09-0.762c-0.013-0.329-0.068-0.531-0.161-0.606
		c0.037-0.038,0.079-0.093,0.126-0.167c-0.015-0.162,0.001-0.387,0.048-0.669c0.315-0.605,0.75-1.087,1.304-1.444
		c0.52-0.336,1.04-0.504,1.561-0.504c0.938,0,1.407,0.409,1.407,1.223c0,0.502-0.234,0.924-0.704,1.262
		c-0.223,0.164-0.772,0.444-1.65,0.847v-0.421c0.208-0.105,0.438-0.321,0.688-0.648c0.271-0.352,0.404-0.649,0.404-0.892
		c0-0.148-0.038-0.312-0.119-0.491c-0.11-0.239-0.256-0.359-0.432-0.359c-0.265,0-0.538,0.193-0.822,0.577
		c-0.26,0.349-0.404,0.651-0.432,0.907c-0.022-0.083-0.011-0.126,0.035-0.126l-0.112-0.097c-0.074,0.307-0.149,0.629-0.229,0.963
		c-0.032-0.141-0.02-0.275,0.041-0.406l-0.111-0.111c-0.051,0.07-0.094,0.172-0.132,0.309c-0.037,0.135-0.082,0.238-0.134,0.312
		c0.107-0.009,0.267,0.006,0.48,0.042c0.034-0.032,0.066-0.118,0.098-0.258v0.431c0.024,0.03,0.045,0.059,0.063,0.086
		c0.019,0.029,0.065,0.042,0.139,0.042c0.046,0,0.07-0.012,0.07-0.036c0-0.01-0.005-0.022-0.013-0.042
		c-0.01-0.017-0.014-0.032-0.014-0.042c0.004-0.021,0.028-0.035,0.07-0.035c0.073,0,0.159,0.053,0.258,0.155
		c0.027-0.027,0.043-0.079,0.047-0.149c0.004-0.072,0.02-0.121,0.043-0.144c0.018,0.382-0.085,0.602-0.308,0.661
		c-0.078,0-0.155-0.074-0.229-0.223c-0.07,0.068-0.104,0.18-0.104,0.335c0,0.235,0.124,0.507,0.375,0.81
		c0.221,0.277,0.409,0.434,0.556,0.467c0.131,0.028,0.263,0.055,0.397,0.076c0.205,0.047,0.318,0.104,0.342,0.168
		c0.111-0.111,0.182-0.168,0.209-0.168c0.023,0,0.046,0.008,0.069,0.022l0.168-0.153c-0.005,0.055,0.016,0.106,0.062,0.153
		C132.19,77.531,132.667,77.137,133.531,76.505 M128.526,75.401l-0.152,0.752h-0.112l0.154-0.752H128.526z"/>
	<path fill="#FFFFFF" d="M137.697,73.978c-0.023,0-0.083,0.015-0.177,0.041c-0.096,0.025-0.155,0.037-0.178,0.037
		c0.023,0.023,0.067,0.043,0.132,0.059c0.064,0.018,0.108,0.038,0.133,0.062C137.607,74.133,137.636,74.067,137.697,73.978
		 M137.431,78.429h-0.125v-0.266h0.125V78.429z M137.627,74.48c-0.13-0.194-0.249-0.293-0.356-0.293v0.278
		C137.535,74.466,137.654,74.472,137.627,74.48 M137.425,73.352l-0.182,0.188l-0.068-0.086l0.173-0.172L137.425,73.352z
		 M137.627,76.496c-0.004,0.005-0.009,0.011-0.015,0.013c-0.138,0-0.327,0.004-0.563,0.008c0.031-0.135,0.071-0.203,0.117-0.203
		c0.056,0.058,0.144,0.098,0.259,0.12C137.54,76.457,137.608,76.478,137.627,76.496 M137.279,75.117l-0.077-0.073l-0.251,0.254
		l0.069,0.076L137.279,75.117z M136.992,73.614l-0.098,0.065l-0.173-0.259l0.096-0.069L136.992,73.614z M136.845,76.636
		l-0.105-0.034l-0.089,0.188l0.098,0.042L136.845,76.636z M136.797,73.95c-0.158,0-0.313,0.074-0.467,0.225
		c-0.019-0.117,0.094-0.283,0.334-0.495c-0.056,0.05-0.039,0.121,0.048,0.21c0.043-0.047,0.07-0.111,0.084-0.19V73.95z
		 M136.589,77.954h-0.271v-0.126h0.271V77.954z M139.947,76.308c0.018,0.068,0.027,0.143,0.027,0.216
		c0,0.466-0.348,0.964-1.044,1.492c-0.623,0.48-1.083,0.715-1.38,0.704h-0.215c0.027-0.004,0.076-0.035,0.145-0.09
		c-0.083-0.014-0.194-0.078-0.333-0.188c-0.029,0.027-0.042,0.098-0.042,0.207c-0.087,0-0.195-0.028-0.321-0.09
		c-0.19-0.088-0.299-0.134-0.329-0.139c0.088-0.158,0.099-0.299,0.029-0.42c-0.024,0.025-0.048,0.061-0.072,0.109
		c-0.027,0.049-0.051,0.085-0.075,0.108c-0.03-0.116-0.041-0.263-0.028-0.44c0.025-0.273,0.035-0.42,0.035-0.439
		c-0.009,0.154,0.017,0.277,0.078,0.369c0.11-0.109,0.135-0.196,0.069-0.256l0.146,0.111c0.154-0.154,0.266-0.336,0.335-0.545
		l-0.132-0.127c-0.099,0-0.105,0.045-0.022,0.135c-0.218,0-0.334,0.004-0.348,0.013c0.004-0.013,0.006-0.027,0.006-0.042
		c0-0.017-0.003-0.049-0.01-0.095c-0.007-0.048-0.012-0.085-0.012-0.113c0-0.125,0.074-0.226,0.217-0.3
		c-0.126-0.125-0.196-0.188-0.209-0.188c0-0.023,0.013-0.067,0.038-0.136c0.027-0.066,0.041-0.113,0.041-0.137
		c-0.02,0,0.031,0.01,0.152,0.027c0.079,0.014,0.147,0.008,0.209-0.02c0-0.09-0.012-0.145-0.035-0.168
		c-0.057,0.029-0.084,0.065-0.084,0.112c0-0.015-0.019-0.062-0.055-0.144c-0.037-0.082-0.055-0.158-0.055-0.227
		c0-0.051,0.09-0.29,0.271-0.719c0.191-0.451,0.296-0.754,0.321-0.914c0.051-0.068,0.149-0.164,0.292-0.285
		c-0.083-0.078-0.153-0.09-0.209-0.035c0.015-0.047,0.052-0.117,0.111-0.209c0,0.056,0.045,0.127,0.134,0.217
		c0.026-0.02,0.052-0.035,0.076-0.051c0.023-0.012,0.035-0.056,0.035-0.133c0-0.152-0.035-0.264-0.104-0.334
		c-0.032,0.099-0.059,0.146-0.077,0.146c-0.065,0-0.106-0.024-0.122-0.071c-0.017-0.05-0.049-0.074-0.095-0.074l-0.174,0.103
		l-0.223,0.113c0-0.023,0.013-0.068,0.039-0.141c0.024-0.067,0.04-0.117,0.04-0.146c-0.006,0.047,0.049,0.069,0.166,0.069
		c0.059,0,0.115-0.02,0.167-0.062c0.079-0.072,0.133-0.112,0.159-0.125c-0.079-0.08-0.151-0.084-0.222-0.014
		c0.408-0.209,0.715-0.314,0.919-0.314c0.567,0,0.85,0.333,0.85,0.998c0,0.061-0.172,0.647-0.516,1.762
		c-0.342,1.113-0.515,1.703-0.515,1.766c0,0.316,0.113,0.475,0.335,0.475c0.201,0,0.514-0.191,0.941-0.578
		C139.657,76.706,139.883,76.457,139.947,76.308 M136.407,76.762h-0.126v0.203h0.126V76.762z M136.261,73.825l-0.076,0.488h-0.126
		l0.076-0.488H136.261z M135.99,74.035c0.018,0.07,0.027,0.144,0.027,0.215c0,0.224-0.121,0.478-0.362,0.763
		c-0.362,0.416-0.559,0.651-0.586,0.695c-0.194,0.324-0.315,0.779-0.362,1.361c-0.014,0.17-0.021,0.6-0.021,1.283
		c-0.107,0.041-0.641,0.166-1.603,0.377v-2.666c-0.005-0.227,0.152-0.773,0.474-1.638c0.261-0.712,0.453-1.198,0.578-1.458
		c0.636-0.131,1.186-0.264,1.645-0.398c-0.189,0.559-0.387,1.177-0.584,1.856v0.271C135.46,74.521,135.725,74.3,135.99,74.035"/>
	<path fill="#FFFFFF" d="M141.56,74.656h-0.139v0.29h0.139V74.656z M143.881,74.292c0-0.656-0.22-0.982-0.662-0.982
		c-0.394,0-0.744,0.27-1.052,0.816c-0.199,0.409-0.4,0.818-0.599,1.227c-0.046-0.051-0.053-0.098-0.021-0.139
		c-0.134-0.041-0.292-0.104-0.473-0.189c0.038,0.039,0.038,0.076,0,0.12c-0.032,0.036-0.07,0.056-0.11,0.056
		c-0.056-0.056-0.083-0.135-0.083-0.238c-0.113,0.219-0.168,0.336-0.168,0.35c0-0.045,0.022-0.086,0.07-0.12
		c-0.01,0.118-0.056,0.228-0.138,0.331c-0.086,0.107-0.126,0.153-0.126,0.145c0,0.08,0.064,0.17,0.195,0.271
		c0.158,0.121,0.24,0.187,0.242,0.197c0-0.159-0.068-0.326-0.207-0.502c0.185-0.095,0.408-0.24,0.668-0.441
		c0.079,0.163,0.109,0.307,0.091,0.426c-0.078,0.503-0.119,0.824-0.119,0.969c0,0.644,0.205,0.964,0.614,0.964
		c0.521,0,0.984-0.483,1.392-1.452C143.718,75.327,143.881,74.726,143.881,74.292 M140.689,76.866l-0.083,0.076l-0.271-0.271
		l0.084-0.084L140.689,76.866z M140.5,77.655h-0.208v-0.133h0.208V77.655z M140.383,77.382h-0.131V77.09h0.131V77.382z
		 M146.92,76.454c0-0.008,0.012,0.101,0.035,0.328c0.018,0.158,0.001,0.276-0.049,0.357c-0.303,0.455-0.767,0.896-1.394,1.324
		c-0.331,0.229-0.664,0.342-1.004,0.342c-0.353,0-0.615-0.242-0.788-0.727c-0.092-0.333-0.183-0.669-0.271-1.004
		c-0.589,0.703-1.066,1.172-1.429,1.409c0-0.042-0.016-0.073-0.047-0.098c-0.037-0.022-0.073-0.015-0.105,0.021
		c0.061-0.162,0.039-0.449-0.062-0.856c-0.027,0.11-0.042,0.47-0.042,1.073c-0.094,0.121-0.24,0.178-0.439,0.174h-0.565
		c0-0.162-0.021-0.266-0.062-0.313c-0.083,0-0.126,0.079-0.126,0.238c-0.186-0.187-0.278-0.286-0.278-0.3
		c0.157,0,0.257-0.021,0.3-0.063c0-0.024-0.045-0.083-0.133-0.179c-0.089-0.096-0.147-0.168-0.175-0.22
		c0.139,0,0.229,0.02,0.271,0.056c0.052-0.031,0.087-0.125,0.099-0.278c0.008-0.177,0.042-0.305,0.098-0.383
		c-0.038-0.034-0.14-0.05-0.308-0.05c0-0.131,0.023-0.219,0.07-0.266c-0.182-0.138-0.309-0.208-0.383-0.208
		c0-0.159,0.106-0.405,0.319-0.739c-0.049-0.213-0.03-0.322,0.064-0.322c-0.039-0.035-0.08-0.047-0.125-0.033
		c-0.047,0.014-0.07,0.041-0.07,0.084c0.023-0.188,0.023-0.305,0-0.35c0,0.014,0.029,0.053,0.084,0.118
		c0.176-0.093,0.266-0.226,0.266-0.397c0-0.307-0.041-0.541-0.12-0.704c-0.069,0.106-0.105,0.21-0.105,0.308
		c0,0.072,0.017,0.152,0.05,0.236c-0.028-0.037-0.127-0.098-0.293-0.181c0.553-0.763,1.016-1.28,1.388-1.556
		c0.413-0.303,0.901-0.453,1.469-0.453c0.29,0,0.46,0.008,0.516,0.021c0.126,0.035,0.291,0.16,0.496,0.37
		c0.227-0.765,0.562-2.147,1.002-4.151c0.064,0,0.186-0.028,0.366-0.084c0.18-0.055,0.3-0.084,0.363-0.084
		c0.062,0,0.143-0.012,0.239-0.039c0.099-0.025,0.177-0.037,0.237-0.037c0.316,0,0.512,0.035,0.587,0.105l-1.728,7.865
		c0,0.494,0.131,0.74,0.396,0.74C145.788,77.551,146.25,77.187,146.92,76.454 M140.013,78.179c-0.292-0.498-0.439-0.901-0.439-1.214
		c0-0.079,0.146-0.694,0.439-1.848V78.179z"/>
	<path fill="#FFFFFF" d="M150.514,69.731c-0.126-0.107-0.249-0.161-0.371-0.161c-0.399,0.685-0.724,1.466-0.974,2.349
		c-0.14,0.5-0.312,1.28-0.516,2.347c1.249-1.511,1.874-2.909,1.874-4.192C150.528,69.957,150.523,69.843,150.514,69.731
		 M148.715,74.509l-0.041-0.113l-0.18,0.098v0.12L148.715,74.509z M148.278,75.122l-0.091-0.369h-0.139l0.091,0.369H148.278z
		 M147.957,75.013l-0.112-0.044l-0.105,0.204l0.112,0.047L147.957,75.013z M151.19,76.313c0.036,0.439,0.036,0.691,0,0.762
		c-0.129,0.225-0.523,0.551-1.177,0.983c-0.678,0.456-1.155,0.681-1.43,0.677h-0.726c-0.027-0.508-0.089-1.32-0.188-2.441
		c-0.087-1.018-0.132-1.547-0.132-1.591c0-0.11,0.007-0.343,0.022-0.688c0.045-0.034,0.094-0.066,0.145-0.097
		c0.078-0.071,0.109-0.163,0.091-0.273c-0.014,0.013-0.06,0.046-0.139,0.098c-0.055,0.036-0.082,0.07-0.082,0.098
		c0-0.081-0.02-0.254-0.057-0.524c-0.037-0.27-0.057-0.436-0.057-0.495c0-0.345,0.173-0.927,0.516-1.743
		c0.113-0.295,0.221-0.584,0.328-0.873c0.143-0.353,0.312-0.606,0.504-0.764c0.193-0.155,0.525-0.311,1-0.465
		c0.409-0.133,0.683-0.201,0.823-0.201c0.286,0,0.431,0.393,0.431,1.179c0,0.636-0.159,1.348-0.473,2.134
		c-0.297,0.734-0.681,1.41-1.145,2.023c0-0.111-0.04-0.168-0.118-0.168c0,0.117-0.066,0.305-0.195,0.565
		c0-0.106-0.044-0.161-0.132-0.161c-0.056,0.051-0.084,0.121-0.084,0.209c0,0.158-0.002,0.24-0.007,0.245
		c-0.121,0.106-0.284,0.29-0.495,0.55c-0.167,0.299-0.251,0.631-0.251,0.998c0,0.117,0.095,0.348,0.285,0.694
		c0.191,0.345,0.323,0.544,0.398,0.589c0.107,0.061,0.219,0.092,0.335,0.092c0.218,0,0.572-0.176,1.059-0.523
		C150.712,76.862,151.028,76.565,151.19,76.313 M147.141,75.945c-0.032,0-0.072,0.031-0.119,0.091
		c-0.065,0.098-0.102,0.15-0.11,0.16c0.046,0.046,0.119,0.084,0.215,0.113C147.127,76.075,147.132,75.954,147.141,75.945
		 M147.685,78.66c-0.391-0.112-0.687-0.454-0.886-1.027c-0.134-0.403-0.202-0.819-0.202-1.241c0-0.336,0.103-0.949,0.308-1.842
		c0.121-0.51,0.242-1.022,0.361-1.535c0,0.131,0.015,0.341,0.045,0.626c0.031,0.286,0.046,0.497,0.046,0.632
		c-0.08-0.078-0.15-0.088-0.216-0.029c0,0.195-0.004,0.25-0.014,0.163c0.01,0.067,0.054,0.103,0.133,0.103
		c0.08,0,0.125-0.012,0.14-0.035c0.013-0.021,0.028-0.035,0.047-0.035c0,0.498,0.039,1.276,0.118,2.33
		c0.08,1.01,0.12,1.521,0.12,1.535V78.66z"/>
	<path fill="#FFFFFF" d="M155.278,76.692l-0.111-0.043l-0.105,0.211l0.112,0.047L155.278,76.692z M155.131,77.431
		c0-0.021,0.011,0.066,0.028,0.268c0.011,0.104,0,0.191-0.035,0.256c0-0.111-0.027-0.168-0.084-0.168
		c-0.014,0-0.028,0.008-0.042,0.022C155.088,77.729,155.131,77.603,155.131,77.431 M153.089,73.093h-0.137v0.224h0.137V73.093z
		 M152.846,74.94h-0.14v-0.223h0.14V74.94z M152.846,74.613h-0.14v-0.3h0.14V74.613z M152.846,74.048h-0.14v-0.224h0.14V74.048z
		 M152.957,74.954c0,0.027-0.012,0.081-0.034,0.158c-0.024,0.076-0.035,0.127-0.035,0.15h-0.292v-0.309
		c0.041,0.043,0.102,0.064,0.182,0.064C152.856,75.017,152.916,74.997,152.957,74.954 M152.811,75.457
		c-0.051,0-0.122-0.03-0.215-0.091c0,0.02,0.014,0.098,0.041,0.238c0.02,0.078,0.011,0.133-0.019,0.16l-0.182-0.16
		c0,0.654,0.004,0.924,0.014,0.807c-0.014-0.119,0.022-0.274,0.111-0.466C152.645,75.782,152.728,75.62,152.811,75.457
		 M153.384,78.065c-0.019,0.014-0.151,0.126-0.397,0.336c-0.168,0.139-0.29,0.208-0.367,0.208c-0.077,0-0.141,0.012-0.192,0.032
		c-0.051,0.021-0.094,0.031-0.132,0.031c0.042-0.066,0.094-0.221,0.154-0.467c0.022,0.047,0.057,0.1,0.105,0.158
		c0.075,0,0.11-0.066,0.11-0.201c0.056-0.004,0.179-0.022,0.369-0.057C153.192,78.078,153.309,78.065,153.384,78.065
		 M158.234,76.419c0.004,0.043,0.006,0.088,0.006,0.133c0,0.498-0.363,0.971-1.094,1.416c-0.571,0.316-1.143,0.633-1.714,0.95
		c-0.149,0.683-0.484,1.363-1.011,2.042c-0.626,0.806-1.29,1.235-1.992,1.291c0-0.02,0.013-0.076,0.039-0.172
		c0.025-0.095,0.038-0.173,0.038-0.234c-0.167,0-0.25-0.016-0.25-0.047c0.008-0.07,0.077-0.105,0.2-0.105
		c0.066,0,0.102,0.018,0.105,0.051c0.006,0.035,0.011,0.07,0.015,0.102c0.005,0.012,0.014,0.016,0.028,0.016
		c0.009-0.01,0.015-0.076,0.015-0.203c0,0.027,0.032,0.049,0.1,0.062c0.066,0.014,0.115,0.033,0.143,0.055
		c0.037-0.035,0.037-0.074,0-0.117c-0.032-0.043-0.071-0.063-0.119-0.063c0.041-0.06,0.207-0.375,0.496-0.948
		c0.208-0.41,0.395-0.666,0.557-0.773c-0.115-0.047-0.18-0.08-0.188-0.098c-0.004-0.014,0.003-0.088,0.027-0.223
		c-0.032-0.027-0.118-0.039-0.258-0.027c-0.297,0.023-0.565,0.033-0.801,0.033c0.32-0.166,0.747-0.452,1.281-0.857
		c0.06-0.064,0.12-0.221,0.176-0.467c0.063-0.279,0.121-0.469,0.173-0.572v-0.208c-0.096-0.007-0.192,0.083-0.286,0.265
		l-0.167-0.168c-0.04,0.041-0.056,0.096-0.04,0.168c0.013,0.074,0.04,0.109,0.083,0.109c-0.009,0.088-0.077,0.134-0.202,0.134
		c-0.08,0-0.169-0.034-0.269-0.097c-0.1-0.066-0.161-0.098-0.176-0.098c0.752-0.627,1.294-1.4,1.628-2.316
		c0.219-0.618,0.438-1.234,0.655-1.848c0.293-0.502,0.846-0.754,1.659-0.754h0.35l-1.709,4.994v0.286
		C156.446,77.961,157.281,77.392,158.234,76.419 M153.871,72.849c-0.127,0.301-0.352,0.842-0.677,1.617
		c-0.083-0.083-0.177-0.088-0.284-0.013c0.042-0.103,0.083-0.204,0.124-0.308c0.07-0.157,0.16-0.256,0.272-0.299
		c-0.011-0.037-0.049-0.104-0.119-0.195c-0.051,0.057-0.077,0.107-0.077,0.16c-0.036-0.107-0.066-0.16-0.09-0.16
		c-0.051,0-0.093-0.027-0.123-0.08c-0.03-0.053-0.07-0.082-0.121-0.082c-0.121-0.021-0.182-0.031-0.182-0.02
		c0.046,0.082,0.069,0.145,0.069,0.182c0,0.051-0.019,0.104-0.055,0.16c-0.014-0.037-0.08-0.137-0.201-0.3
		c-0.101-0.141-0.153-0.242-0.153-0.308c0-0.088,0.172-0.176,0.514-0.258c0.303-0.07,0.525-0.102,0.67-0.098H153.871z
		 M152.358,82.251h-0.14v-0.217h0.14V82.251z M152.156,82.258c-0.535-0.187-0.802-0.524-0.802-1.011c0-0.224,0.072-0.47,0.215-0.738
		c0.155-0.29,0.347-0.516,0.58-0.678c-0.006,0.246-0.056,0.525-0.156,0.841c-0.102,0.313-0.15,0.521-0.15,0.617
		c0,0.208,0.104,0.349,0.312,0.425v0.544H152.156z M152.067,78.68h-0.601c-0.449-0.282-0.675-0.849-0.675-1.695
		c0-0.573,0.137-1.211,0.41-1.918c0.29-0.659,0.577-1.32,0.866-1.979V78.68z"/>
	<path fill="#FFFFFF" d="M163.072,74.656h-0.139v0.29h0.139V74.656z M165.391,74.292c0-0.656-0.22-0.982-0.661-0.982
		c-0.395,0-0.744,0.27-1.053,0.816c-0.199,0.409-0.4,0.818-0.599,1.227c-0.046-0.051-0.052-0.098-0.021-0.139
		c-0.136-0.041-0.293-0.104-0.475-0.189c0.037,0.039,0.037,0.076,0,0.12c-0.032,0.036-0.07,0.056-0.11,0.056
		c-0.056-0.056-0.085-0.135-0.085-0.238c-0.111,0.219-0.166,0.336-0.166,0.35c0-0.045,0.021-0.086,0.068-0.12
		c-0.009,0.118-0.056,0.228-0.138,0.331c-0.086,0.107-0.126,0.153-0.126,0.145c0,0.08,0.066,0.17,0.195,0.271
		c0.156,0.121,0.238,0.187,0.242,0.197c0-0.159-0.068-0.326-0.207-0.502c0.185-0.095,0.408-0.24,0.668-0.441
		c0.078,0.163,0.109,0.307,0.091,0.426c-0.079,0.503-0.12,0.824-0.12,0.969c0,0.644,0.205,0.964,0.615,0.964
		c0.52,0,0.984-0.483,1.392-1.452C165.23,75.327,165.391,74.726,165.391,74.292 M162.199,76.866l-0.085,0.076l-0.271-0.271
		l0.083-0.084L162.199,76.866z M162.012,77.655h-0.21v-0.133h0.21V77.655z M161.894,77.382h-0.133V77.09h0.133V77.382z
		 M168.43,76.454c0-0.008,0.012,0.101,0.036,0.328c0.016,0.158,0,0.276-0.049,0.357c-0.303,0.455-0.768,0.896-1.396,1.324
		c-0.328,0.229-0.662,0.342-1.001,0.342c-0.353,0-0.616-0.242-0.79-0.727c-0.09-0.333-0.18-0.669-0.271-1.004
		c-0.588,0.703-1.064,1.172-1.43,1.409c0-0.042-0.016-0.073-0.047-0.098c-0.039-0.022-0.071-0.015-0.104,0.021
		c0.061-0.162,0.039-0.449-0.062-0.856c-0.029,0.11-0.042,0.47-0.042,1.073c-0.094,0.121-0.239,0.178-0.44,0.174h-0.563
		c0-0.162-0.022-0.266-0.062-0.313c-0.083,0-0.126,0.079-0.126,0.238c-0.186-0.187-0.279-0.286-0.279-0.3
		c0.159,0,0.258-0.021,0.301-0.063c0-0.024-0.045-0.083-0.133-0.179c-0.09-0.096-0.146-0.168-0.174-0.22
		c0.139,0,0.23,0.02,0.271,0.056c0.052-0.031,0.086-0.125,0.099-0.278c0.01-0.177,0.041-0.305,0.097-0.383
		c-0.038-0.034-0.138-0.05-0.308-0.05c0-0.131,0.023-0.219,0.07-0.266c-0.184-0.138-0.31-0.208-0.383-0.208
		c0-0.159,0.105-0.405,0.318-0.739c-0.051-0.213-0.029-0.322,0.064-0.322c-0.037-0.035-0.079-0.047-0.125-0.033
		c-0.047,0.014-0.071,0.041-0.071,0.084c0.024-0.188,0.024-0.305,0-0.35c0,0.014,0.028,0.053,0.086,0.118
		c0.177-0.093,0.266-0.226,0.266-0.397c0-0.307-0.042-0.541-0.121-0.704c-0.067,0.106-0.104,0.21-0.104,0.308
		c0,0.072,0.018,0.152,0.05,0.236c-0.028-0.037-0.126-0.098-0.293-0.181c0.552-0.763,1.015-1.28,1.387-1.556
		c0.413-0.303,0.902-0.453,1.47-0.453c0.288,0,0.46,0.008,0.516,0.021c0.125,0.035,0.291,0.16,0.495,0.37
		c0.228-0.765,0.563-2.147,1.005-4.151c0.062,0,0.186-0.028,0.365-0.084c0.178-0.055,0.299-0.084,0.361-0.084
		s0.143-0.012,0.241-0.039c0.098-0.025,0.175-0.037,0.235-0.037c0.316,0,0.512,0.035,0.586,0.105l-1.728,7.865
		c0,0.494,0.132,0.74,0.397,0.74C167.298,77.551,167.761,77.187,168.43,76.454 M161.524,78.179
		c-0.292-0.498-0.438-0.901-0.438-1.214c0-0.079,0.146-0.694,0.438-1.848V78.179z"/>
	<path fill="#FFFFFF" d="M170.402,73.723c-0.03,0-0.092-0.011-0.187-0.034c-0.095-0.021-0.153-0.031-0.179-0.031l0.272,0.266
		C170.309,73.88,170.34,73.813,170.402,73.723 M171.222,70.728c0,0.174-0.084,0.352-0.256,0.538
		c-0.168,0.185-0.346,0.278-0.531,0.278h-0.229c-0.414-0.223-0.621-0.496-0.621-0.816c0-0.191,0.087-0.373,0.262-0.553
		c0.172-0.179,0.359-0.27,0.56-0.27c0.204,0,0.395,0.106,0.571,0.314C171.141,70.411,171.222,70.579,171.222,70.728 M169.816,73.364
		l-0.516-0.2v0.103l0.471,0.203L169.816,73.364z M171.571,76.392c0.015,0.061,0.021,0.123,0.021,0.188
		c0,0.401-0.312,0.867-0.932,1.395c-0.374,0.316-0.628,0.523-0.768,0.615c-0.264,0.172-0.516,0.258-0.752,0.258
		c-0.697,0-1.045-0.596-1.045-1.787c0-1.137,0.198-1.92,0.598-2.344c-0.047-0.036-0.094-0.055-0.146-0.055v-0.238
		c-0.005-0.049,0.058-0.227,0.188-0.528c0.148-0.339,0.284-0.538,0.405-0.601c-0.027-0.051-0.066-0.076-0.111-0.076
		c0.092,0,0.139-0.085,0.139-0.258c0.005,0.023,0.033,0.072,0.083,0.146c0.005,0,0.011-0.004,0.013-0.014
		c0.007-0.01,0.007-0.038,0-0.092c-0.002-0.027,0.027-0.04,0.094-0.04c0.064,0,0.28-0.038,0.646-0.112
		c0.438-0.094,0.73-0.15,0.879-0.174c-0.057,0.133-0.116,0.385-0.183,0.752c-0.036,0.219-0.134,0.374-0.292,0.463
		c0.047,0.036,0.093,0.055,0.141,0.055c-0.545,1.627-0.816,2.541-0.816,2.739c0,0.224,0.163,0.499,0.488,0.825
		C170.673,77.211,171.125,76.839,171.571,76.392"/>
	<path fill="#FFFFFF" d="M175.749,73.978c-0.023,0-0.082,0.015-0.178,0.041c-0.095,0.025-0.154,0.037-0.177,0.037
		c0.022,0.023,0.067,0.043,0.132,0.059c0.064,0.018,0.109,0.038,0.133,0.062C175.659,74.133,175.688,74.067,175.749,73.978
		 M175.484,78.429h-0.125v-0.266h0.125V78.429z M175.679,74.48c-0.129-0.194-0.248-0.293-0.354-0.293v0.278
		C175.589,74.466,175.706,74.472,175.679,74.48 M175.478,73.352l-0.182,0.188l-0.069-0.086l0.175-0.172L175.478,73.352z
		 M175.679,76.496c-0.004,0.005-0.01,0.011-0.014,0.013c-0.139,0-0.328,0.004-0.563,0.008c0.032-0.135,0.069-0.203,0.117-0.203
		c0.058,0.058,0.144,0.098,0.259,0.12C175.594,76.457,175.659,76.478,175.679,76.496 M175.331,75.117l-0.077-0.073l-0.25,0.254
		l0.069,0.076L175.331,75.117z M175.044,73.614l-0.096,0.065l-0.175-0.259l0.098-0.069L175.044,73.614z M174.9,76.636l-0.105-0.034
		l-0.09,0.188l0.097,0.042L174.9,76.636z M174.849,73.95c-0.156,0-0.312,0.074-0.466,0.225c-0.019-0.117,0.094-0.283,0.333-0.495
		c-0.055,0.05-0.039,0.121,0.051,0.21c0.042-0.047,0.068-0.111,0.082-0.19V73.95z M174.641,77.954h-0.271v-0.126h0.271V77.954z
		 M177.999,76.308c0.02,0.068,0.027,0.143,0.027,0.216c0,0.466-0.348,0.964-1.045,1.492c-0.622,0.48-1.082,0.715-1.379,0.704h-0.217
		c0.027-0.004,0.078-0.035,0.148-0.09c-0.086-0.014-0.197-0.078-0.336-0.188c-0.029,0.027-0.042,0.098-0.042,0.207
		c-0.089,0-0.195-0.028-0.321-0.09c-0.189-0.088-0.299-0.134-0.328-0.139c0.091-0.158,0.098-0.299,0.029-0.42
		c-0.023,0.025-0.047,0.061-0.072,0.109c-0.027,0.049-0.051,0.085-0.074,0.108c-0.031-0.116-0.042-0.263-0.027-0.44
		c0.023-0.273,0.035-0.42,0.035-0.439c-0.01,0.154,0.016,0.277,0.076,0.369c0.111-0.109,0.136-0.196,0.069-0.256l0.147,0.111
		c0.153-0.154,0.266-0.336,0.336-0.545l-0.133-0.127c-0.1,0-0.104,0.045-0.021,0.135c-0.219,0-0.336,0.004-0.348,0.013
		c0.004-0.013,0.006-0.027,0.006-0.042c0-0.017-0.004-0.049-0.01-0.095c-0.008-0.048-0.013-0.085-0.013-0.113
		c0-0.125,0.074-0.226,0.216-0.3c-0.125-0.125-0.193-0.188-0.207-0.188c0-0.023,0.012-0.067,0.038-0.136
		c0.026-0.066,0.04-0.113,0.04-0.137c-0.021,0,0.033,0.01,0.15,0.027c0.08,0.014,0.148,0.008,0.211-0.02
		c0-0.09-0.014-0.145-0.035-0.168c-0.058,0.029-0.085,0.065-0.085,0.112c0-0.015-0.019-0.062-0.056-0.144s-0.057-0.158-0.057-0.227
		c0-0.051,0.092-0.29,0.273-0.719c0.19-0.451,0.297-0.754,0.32-0.914c0.049-0.068,0.148-0.164,0.293-0.285
		c-0.084-0.078-0.154-0.09-0.209-0.035c0.014-0.047,0.052-0.117,0.111-0.209c0,0.056,0.045,0.127,0.133,0.217
		c0.027-0.02,0.053-0.035,0.076-0.051c0.023-0.012,0.033-0.056,0.033-0.133c0-0.152-0.033-0.264-0.104-0.334
		c-0.031,0.099-0.058,0.146-0.077,0.146c-0.063,0-0.105-0.024-0.12-0.071c-0.017-0.05-0.048-0.074-0.095-0.074l-0.175,0.103
		l-0.223,0.113c0-0.023,0.014-0.068,0.039-0.141c0.025-0.067,0.038-0.117,0.038-0.146c-0.005,0.047,0.051,0.069,0.167,0.069
		c0.06,0,0.117-0.02,0.168-0.062c0.08-0.072,0.133-0.112,0.16-0.125c-0.078-0.08-0.154-0.084-0.225-0.014
		c0.412-0.209,0.717-0.314,0.92-0.314c0.568,0,0.852,0.333,0.852,0.998c0,0.061-0.172,0.647-0.518,1.762
		c-0.342,1.113-0.514,1.703-0.514,1.766c0,0.316,0.11,0.475,0.334,0.475c0.199,0,0.514-0.191,0.939-0.578
		C177.708,76.706,177.935,76.457,177.999,76.308 M174.46,76.762h-0.127v0.203h0.127V76.762z M174.313,73.825l-0.075,0.488h-0.125
		l0.076-0.488H174.313z M174.042,74.035c0.018,0.07,0.025,0.144,0.025,0.215c0,0.224-0.119,0.478-0.359,0.763
		c-0.363,0.416-0.559,0.651-0.586,0.695c-0.195,0.324-0.317,0.779-0.363,1.361c-0.014,0.17-0.021,0.6-0.021,1.283
		c-0.107,0.041-0.64,0.166-1.601,0.377v-2.666c-0.005-0.227,0.151-0.773,0.476-1.638c0.258-0.712,0.451-1.198,0.574-1.458
		c0.638-0.131,1.186-0.264,1.646-0.398c-0.191,0.559-0.385,1.177-0.586,1.856v0.271C173.511,74.521,173.777,74.3,174.042,74.035"/>
	<path fill="#FFFFFF" d="M181.267,74.849l-0.078-0.074l-0.18,0.18l0.068,0.077L181.267,74.849z M181.05,78.065h-0.125v0.271h0.125
		V78.065z M180.534,75.521l-0.097-0.217l-0.104,0.041l0.09,0.176H180.534z M180.235,78.114l-0.091-0.217l-0.104,0.041l0.09,0.176
		H180.235z M179.419,74.16l-0.104-0.042l-0.092,0.195l0.105,0.042L179.419,74.16z M179.126,74.286h-0.123v0.271h0.123V74.286z
		 M179.146,75.61c-0.138,0.225-0.242,0.496-0.312,0.816c-0.047-0.041-0.068-0.113-0.068-0.215c0-0.254,0.063-0.447,0.188-0.586
		h-0.286v0.863c0.084,0,0.135,0.043,0.153,0.125c-0.074,0.395-0.153,0.952-0.242,1.667c0.04-0.181,0.156-0.472,0.347-0.871
		c-0.037-0.103-0.055-0.218-0.055-0.341c0-0.167,0.041-0.412,0.133-0.733C179.09,75.997,179.138,75.755,179.146,75.61
		 M178.688,76.733h-0.132l-0.076,0.42h0.126L178.688,76.733z M178.387,75.45l-0.034-0.419h-0.131l0.041,0.419H178.387z
		 M178.45,75.59l-0.076-0.069l-0.182,0.175l0.07,0.085L178.45,75.59z M182.863,76.505l-0.098,0.738c0-0.106-0.041-0.16-0.12-0.16
		c0.065,0.312-0.368,0.732-1.302,1.262c0-0.013,0.012-0.066,0.029-0.156c0.022-0.091,0.033-0.164,0.033-0.22
		c-0.037,0-0.104-0.044-0.195-0.132c-0.023,0.022-0.026,0.085-0.007,0.188c0.028,0.164,0.042,0.316,0.042,0.461
		c-0.545,0.209-1.037,0.312-1.477,0.312c-0.639,0-1.144-0.176-1.516-0.533c-0.374-0.355-0.562-0.838-0.562-1.447
		c0-0.074,0.002-0.148,0.008-0.223c0.041-0.051,0.08-0.102,0.125-0.146c0.051-0.064,0.104-0.093,0.16-0.084
		c0,0.163,0.044,0.308,0.133,0.434h0.048c-0.042-0.109-0.073-0.361-0.091-0.762c-0.012-0.329-0.066-0.531-0.159-0.606
		c0.036-0.038,0.079-0.093,0.124-0.167c-0.014-0.162,0.004-0.387,0.051-0.669c0.313-0.605,0.747-1.087,1.301-1.444
		c0.521-0.336,1.041-0.504,1.562-0.504c0.938,0,1.408,0.409,1.408,1.223c0,0.502-0.236,0.924-0.707,1.262
		c-0.221,0.164-0.771,0.444-1.648,0.847v-0.421c0.207-0.105,0.438-0.321,0.688-0.648c0.271-0.352,0.406-0.649,0.406-0.892
		c0-0.148-0.039-0.312-0.121-0.491c-0.11-0.239-0.256-0.359-0.432-0.359c-0.265,0-0.538,0.193-0.822,0.577
		c-0.26,0.349-0.404,0.651-0.432,0.907c-0.022-0.083-0.012-0.126,0.036-0.126l-0.112-0.097c-0.074,0.307-0.15,0.629-0.229,0.963
		c-0.034-0.141-0.021-0.275,0.04-0.406l-0.11-0.111c-0.051,0.07-0.096,0.172-0.133,0.309c-0.039,0.135-0.084,0.238-0.132,0.312
		c0.105-0.009,0.265,0.006,0.479,0.042c0.033-0.032,0.066-0.118,0.098-0.258v0.431c0.023,0.03,0.043,0.059,0.062,0.086
		c0.02,0.029,0.066,0.042,0.141,0.042c0.047,0,0.067-0.012,0.067-0.036c0-0.01-0.004-0.022-0.013-0.042
		c-0.008-0.017-0.014-0.032-0.014-0.042c0.006-0.021,0.026-0.035,0.068-0.035c0.075,0,0.16,0.053,0.258,0.155
		c0.027-0.027,0.045-0.079,0.049-0.149c0.006-0.072,0.018-0.121,0.042-0.144c0.017,0.382-0.085,0.602-0.308,0.661
		c-0.078,0-0.154-0.074-0.229-0.223c-0.07,0.068-0.105,0.18-0.105,0.335c0,0.235,0.126,0.507,0.376,0.81
		c0.224,0.277,0.409,0.434,0.558,0.467c0.129,0.028,0.263,0.055,0.396,0.076c0.205,0.047,0.316,0.104,0.342,0.168
		c0.11-0.111,0.182-0.168,0.209-0.168c0.023,0,0.046,0.008,0.069,0.022l0.168-0.153c-0.005,0.055,0.017,0.106,0.062,0.153
		C181.521,77.531,181.997,77.137,182.863,76.505 M177.859,75.401l-0.152,0.752h-0.111l0.152-0.752H177.859z"/>
	<path fill="#FFFFFF" d="M186.839,77.258h-0.124v0.195h0.124V77.258z M186.615,77.753h-0.122v-0.271h0.122V77.753z M187.531,76.356
		c-0.609,0.639-1.07,0.991-1.383,1.061c0.143,0.131,0.203,0.244,0.189,0.342c0-0.041,0.025-0.066,0.077-0.068
		c0.036,0.031,0.055,0.104,0.055,0.215l0.237-0.215c0.047,0.045,0.096,0.068,0.146,0.068c0.088,0,0.205-0.068,0.35-0.205
		c0.145-0.139,0.251-0.271,0.32-0.4c0.033-0.066,0.043-0.192,0.035-0.379C187.538,76.515,187.531,76.375,187.531,76.356
		 M186.246,77.974h-0.125v-0.27h0.125V77.974z M186.099,73.481h-0.123v0.198h0.123V73.481z M183.996,73.68
		c0-0.024-0.059-0.094-0.176-0.21c-0.056,0.055-0.161,0.082-0.319,0.082v0.288l0.174-0.147c0.047,0.027,0.104,0.035,0.176,0.021
		C183.953,73.69,184.001,73.68,183.996,73.68 M186.812,72.668c-0.176,0.534-0.361,1.048-0.551,1.54
		c-0.023-0.121-0.076-0.293-0.154-0.516c-0.091,0.145-0.129,0.375-0.11,0.691c0.052,0.046,0.117,0.027,0.202-0.056
		c0,0.079-0.053,0.156-0.154,0.237c-0.04,0.223-0.139,0.629-0.291,1.22c-0.131,0.517-0.195,0.805-0.195,0.864
		c0,0.257,0.008,0.402,0.025,0.44c0.043,0.098,0.18,0.203,0.413,0.32v0.997c-0.372,0.215-0.577,0.328-0.612,0.343
		c-0.09,0.032-0.24,0.048-0.455,0.048c-0.713,0-1.072-0.418-1.072-1.255c0-0.415,0.123-0.864,0.363-1.354
		c0.334-0.672,0.525-1.09,0.572-1.254c-0.522,0.074-0.979,0.359-1.374,0.851c-0.548,0.685-0.962,1.118-1.249,1.304v-0.635
		c0.248-0.246,0.562-0.611,0.949-1.094c-0.162-0.199-0.324-0.4-0.488-0.602c-0.018-0.027-0.027-0.174-0.027-0.439
		c0-0.389,0.121-0.752,0.362-1.088c0.28-0.391,0.634-0.587,1.067-0.587c0.059,0,0.117,0.007,0.174,0.015
		c0.148,0.148,0.221,0.352,0.221,0.607c0,0.135-0.025,0.33-0.078,0.586c-0.055,0.256-0.08,0.43-0.08,0.523
		c0,0.051,0.004,0.094,0.014,0.131c0.795-0.232,1.447-0.846,1.957-1.842h0.572V72.668z"/>
	<path fill="#FFFFFF" d="M114.245,73.618c0,0-0.69-0.395-0.728-1.188c-0.038-0.794,1.352-4.204,3.544-4.204
		c2.121,0,3.512,0.416,4.973,0.416c1.464,0,2.259-0.105,2.643-0.348c0.382-0.243-0.865,1.738-1.391,1.738
		c-0.765,0-5.389-0.453-6.293-0.453c-0.526,0-1.92,0.707-2.26,1.046c-0.303,0.302-0.73,1.462-0.313,1.601
		c0.417,0.139,1.169,0.104,1.001,0.572C115.253,73.27,115.045,73.583,114.245,73.618"/>
</g>
</svg>
