<?xml version="1.0" encoding="utf-8"?>
<!-- Generator: Adobe Illustrator 16.0.0, SVG Export Plug-In . SVG Version: 6.00 Build 0)  -->
<!DOCTYPE svg PUBLIC "-//W3C//DTD SVG 1.1//EN" "http://www.w3.org/Graphics/SVG/1.1/DTD/svg11.dtd">
<svg version="1.1" id="Layer_1" xmlns="http://www.w3.org/2000/svg" xmlns:xlink="http://www.w3.org/1999/xlink" x="0px" y="0px"
	 width="250px" height="81px" viewBox="30 9.5 250 81" enable-background="new 30 9.5 250 81" xml:space="preserve">
<g>
	<path fill="#342C57" d="M277.523,18.24c-0.354,0-0.646,0.044-0.878,0.146c-0.236,0.091-0.441,0.142-0.613,0.142
		c0.191-0.302,0.428-1.018,0.707-2.149c0.107,0.212,0.265,0.457,0.479,0.737c0.347,0,0.517-0.312,0.517-0.934
		c0.254-0.019,0.821-0.103,1.698-0.255c0.171-0.031,0.29-0.045,0.445-0.069V9.881h-9.646v0.226h-0.168v0.227h-0.17v0.225h-0.168
		v0.225h-0.168v0.226h-0.167v0.227h-0.169v0.227h-0.167v0.224h-0.167v0.228h-0.172v0.224h-0.166v0.227h-0.167v0.225h-0.169v0.227
		h-0.17l0.033,10.66c0.006,0.42,0.068,0.781,0.147,1.114l-0.117,0.016v0.203l-0.168,0.021v0.203l-0.167,0.022v0.205l-0.169,0.022
		v0.201l-0.167,0.022v0.205l-0.168,0.022v0.202l-0.168,0.021v0.205l-0.17,0.021v0.203l-0.168,0.022v0.205l-0.167,0.024v0.202
		l-0.169,0.022v0.201l-0.166,0.024v8.108l2.521-0.349c2.979-0.328,4.934-2.046,6.311-3.812c0.035-0.045,0.055-0.094,0.086-0.134
		c0.027-0.033,0.052-0.062,0.081-0.094c0.036-0.044,0.057-0.092,0.09-0.134c0.024-0.03,0.05-0.061,0.077-0.09
		c0.035-0.043,0.056-0.093,0.092-0.134c0.022-0.031,0.05-0.061,0.077-0.094c0.034-0.042,0.059-0.092,0.094-0.133
		c0.019-0.03,0.047-0.061,0.072-0.091c0.034-0.044,0.06-0.093,0.094-0.134c0.02-0.031,0.049-0.061,0.074-0.093
		c0.034-0.042,0.058-0.093,0.093-0.134c0.019-0.03,0.049-0.062,0.073-0.091c0.034-0.045,0.059-0.093,0.094-0.134
		c0.023-0.031,0.049-0.062,0.076-0.092c0.035-0.043,0.056-0.094,0.093-0.135c0.021-0.03,0.047-0.062,0.075-0.091
		c0.035-0.044,0.055-0.093,0.091-0.134c0.022-0.031,0.049-0.062,0.077-0.09c0.033-0.044,0.054-0.095,0.088-0.137
		c0.023-0.029,0.052-0.059,0.078-0.091c0.037-0.043,0.061-0.092,0.095-0.134c0.019-0.031,0.049-0.06,0.073-0.09
		c0.035-0.045,0.06-0.094,0.095-0.137c0.019-0.03,0.047-0.058,0.071-0.09c0.037-0.044,0.059-0.094,0.094-0.136
		c0.021-0.029,0.05-0.061,0.073-0.089c1.742-2.09,2.617-4.732,2.604-7.57v-3.829c-0.203,0.173-0.42,0.354-0.668,0.567
		C278.437,17.915,277.874,18.24,277.523,18.24 M215.013,35.135h-0.644v-1.023h0.644V35.135z M214.243,43.398
		c-0.108,0.354-0.165,0.587-0.165,0.693h-1.346V42.68c0.192,0.193,0.47,0.289,0.833,0.289c0.366,0,0.646-0.096,0.837-0.289
		C214.402,42.808,214.352,43.051,214.243,43.398 M212.573,47.236c-0.404,0.877-0.574,1.597-0.511,2.153
		c-0.043,0.535-0.063-0.707-0.063-3.727l0.833,0.74c0.15-0.129,0.177-0.376,0.095-0.74c-0.127-0.641-0.192-1.004-0.192-1.09
		c0.429,0.281,0.758,0.418,0.99,0.418C213.344,45.738,212.96,46.492,212.573,47.236 M213.245,41.589h0.645v1.026h-0.645V41.589z
		 M213.245,39.729h0.645v1.381h-0.645V39.729z M213.245,37.479h0.645v1.027h-0.645V37.479z M202.186,47.706h0.003
		c-0.309,1.377-0.735,2.592-1.279,3.685c-0.303,0.267-0.616,0.518-0.96,0.739c-1.008,0.636-2.21,0.989-3.802,0.994
		c-1.593-0.007-2.802-0.358-3.805-0.998c-1.106-0.715-1.988-1.638-2.713-2.864c-0.749-1.292-1.325-2.766-1.698-4.485
		c-0.392-1.755-0.588-3.556-0.588-5.39c0-1.833,0.196-3.633,0.584-5.386c0.3-1.376,0.732-2.595,1.278-3.684
		c0.3-0.264,0.612-0.511,0.957-0.732c1.007-0.642,2.217-0.995,3.805-1.003c1.595,0.008,2.792,0.356,3.809,1.003
		c1.102,0.716,1.986,1.635,2.709,2.86c0.747,1.28,1.326,2.768,1.704,4.487c0.384,1.756,0.578,3.554,0.578,5.39
		C202.766,44.155,202.57,45.956,202.186,47.706 M187.567,48.904c-0.446-0.122-0.776-0.298-0.993-0.512
		c0.043-0.041,0.219-0.289,0.514-0.739c0.216-0.278,0.395-0.418,0.547-0.418C187.588,47.281,187.567,47.838,187.567,48.904
		 M210.676,22.625c-1.666-2.235-3.749-4.054-6.179-5.37c-2.493-1.366-5.323-2.035-8.351-2.034c-3.024-0.001-5.86,0.669-8.356,2.034
		c-2.426,1.322-4.505,3.135-6.169,5.37c-0.031,0.041-0.06,0.087-0.088,0.13c-0.023,0.033-0.056,0.064-0.08,0.098
		c-0.031,0.042-0.058,0.085-0.088,0.13c-0.026,0.033-0.054,0.062-0.08,0.096c-0.031,0.041-0.058,0.086-0.088,0.128
		c-0.025,0.033-0.055,0.064-0.08,0.098c-0.033,0.042-0.059,0.085-0.087,0.128c-0.027,0.035-0.055,0.064-0.084,0.098
		c-0.031,0.042-0.055,0.088-0.085,0.128c-0.025,0.033-0.053,0.062-0.082,0.098c-0.031,0.043-0.056,0.086-0.089,0.127
		c-0.021,0.035-0.05,0.064-0.078,0.098c-0.032,0.043-0.058,0.087-0.089,0.129c-0.022,0.033-0.055,0.062-0.08,0.098
		c-0.031,0.041-0.059,0.085-0.088,0.128c-0.022,0.033-0.054,0.063-0.079,0.097c-0.032,0.043-0.059,0.087-0.089,0.13
		c-0.024,0.033-0.054,0.062-0.079,0.096c-0.031,0.043-0.059,0.087-0.088,0.128c-0.025,0.033-0.055,0.064-0.08,0.098
		c-0.034,0.042-0.06,0.087-0.087,0.129c-0.027,0.033-0.055,0.063-0.084,0.096c-0.031,0.044-0.057,0.088-0.085,0.128
		c-0.025,0.034-0.054,0.065-0.083,0.099c-0.028,0.039-0.053,0.081-0.081,0.12c-0.026,0.037-0.058,0.068-0.089,0.104
		c-1.663,2.222-2.918,4.798-3.777,7.676c-0.857,2.882-1.289,5.916-1.289,9.088c0,3.207,0.423,6.26,1.289,9.14
		c0.858,2.883,2.111,5.456,3.777,7.68c1.67,2.235,3.755,4.05,6.192,5.353c2.491,1.336,5.312,1.996,8.337,1.995h0.021
		c3.015,0,5.834-0.66,8.316-1.999c2.436-1.297,4.52-3.107,6.194-5.348c0.028-0.039,0.052-0.087,0.086-0.127
		c0.021-0.036,0.053-0.062,0.084-0.101c0.026-0.039,0.053-0.087,0.084-0.127c0.024-0.035,0.053-0.062,0.082-0.095
		c0.026-0.042,0.055-0.089,0.086-0.127c0.024-0.037,0.056-0.066,0.081-0.102c0.028-0.041,0.056-0.084,0.087-0.126
		c0.023-0.035,0.055-0.063,0.082-0.099c0.026-0.04,0.054-0.087,0.085-0.128c0.027-0.034,0.056-0.064,0.082-0.1
		c0.031-0.04,0.056-0.084,0.085-0.126c0.027-0.035,0.057-0.061,0.082-0.096c0.032-0.042,0.055-0.088,0.086-0.128
		c0.028-0.033,0.057-0.064,0.084-0.098c0.028-0.041,0.051-0.086,0.086-0.129c0.024-0.035,0.054-0.061,0.082-0.096
		c0.024-0.042,0.055-0.087,0.086-0.129c0.024-0.034,0.053-0.063,0.081-0.099c0.026-0.04,0.054-0.085,0.085-0.127
		c0.025-0.035,0.058-0.062,0.083-0.097c0.026-0.04,0.054-0.088,0.085-0.128c0.025-0.035,0.057-0.064,0.084-0.1
		c0.025-0.04,0.053-0.086,0.084-0.127c0.028-0.032,0.057-0.062,0.083-0.098c0.029-0.04,0.054-0.085,0.086-0.127
		c0.027-0.034,0.056-0.063,0.082-0.097c1.66-2.227,2.917-4.799,3.776-7.683c0.863-2.878,1.292-5.93,1.292-9.14
		c0-3.171-0.429-6.204-1.292-9.087C213.594,27.421,212.337,24.846,210.676,22.625 M231.918,19.711h-0.543v-2.085h0.543V19.711z
		 M231.31,19.711h-0.544v-1.444h0.544V19.711z M228.167,18.78h-0.542v-2.084h0.542V18.78z M228.167,22.537h-0.542v-1.799h0.542
		V22.537z M227.558,19.711h-0.543v-2.085h0.543V19.711z M226.916,19.394h-0.512v-1.768h0.512V19.394z M224.601,51.67l-0.513-0.227
		l0.48-0.965l0.513,0.192L224.601,51.67z M224.376,56.48c0-0.513-0.127-0.769-0.386-0.769c-0.067,0-0.13,0.032-0.191,0.095
		c0.407-0.364,0.609-0.939,0.609-1.735c0-0.106,0.043,0.303,0.129,1.224C224.579,55.788,224.522,56.184,224.376,56.48
		 M223.263,17.303h0.543v3.02h-0.543V17.303z M223.195,20.034h-0.544v-3.337h0.544V20.034z M223.903,19.2h0.547v2.085h-0.547V19.2z
		 M224.512,16.377h0.545v1.764h-0.545V16.377z M249.707,15.278h-0.167v0.227h-0.167v0.224h-0.168v0.227h-0.168v0.226h-0.167v0.226
		h-0.169v0.225h-0.17v0.227h-0.166v0.225h-0.169v0.226h-0.167v0.225h-0.168v0.227h-0.168v0.226h-0.168V44.52
		c0,1.328-0.068,2.688-0.202,4.064c-0.061,0.662-0.204,1.25-0.39,1.799c-0.142,0.098-0.285,0.194-0.451,0.289
		c-0.101,0.091-1.234,0.426-2.451,0.57c-1.231,0.17-2.646,0.256-3.739,0.256c-2.191,0.011-3.711-0.358-4.518-0.828
		c-1.036-0.584-1.684-1.232-2.111-1.989c-0.492-0.876-0.799-1.85-0.909-3.035c-0.133-1.377-0.203-2.733-0.203-4.061v-26.63h-11.85
		v0.227h-0.167v0.224h-0.171v0.226h-0.167v0.225h-0.169v0.227h-0.166v0.225h-0.168v0.225h-0.169v0.227h-0.168v0.225h-0.169v0.227
		h-0.168v0.226h-0.168v0.226h-0.167v0.225h-0.168v29.033c0,2.926,0.452,5.574,1.421,7.898c0.943,2.274,2.323,4.244,4.094,5.821
		c1.773,1.579,3.904,2.744,6.303,3.482c2.374,0.738,4.973,1.101,7.77,1.101c2.814-0.02,6.828-0.312,9.447-1.101
		c2.398-0.738,4.525-1.903,6.297-3.484c0.905-0.804,1.707-1.708,2.402-2.706c0.061-0.08,0.117-0.152,0.171-0.231
		c0.06-0.075,0.117-0.15,0.168-0.224c0.06-0.078,0.115-0.149,0.166-0.227c0.061-0.076,0.119-0.149,0.169-0.225
		c0.059-0.076,0.118-0.149,0.171-0.226c0.055-0.076,0.115-0.148,0.167-0.227c0.055-0.075,0.115-0.148,0.167-0.225
		c0.028-0.037,0.056-0.075,0.084-0.112c-0.43-0.695-0.657-1.507-0.657-2.445c0-1.027,0.332-2.163,0.993-3.404
		c0.705-1.325,1.595-2.363,2.665-3.11c-0.021,1.131-0.265,2.424-0.721,3.866c-0.445,1.383-0.666,2.297-0.688,2.771
		c0.383-0.649,0.733-1.318,1.03-2.032c0.967-2.323,1.411-4.967,1.411-7.893l0.012-28.934h-11.852V15.278L249.707,15.278z
		 M142.082,36.165l-0.32-0.386l0.802-0.803l0.352,0.32L142.082,36.165z M142.238,43.418l-1.185,1.188l-0.32-0.353l1.153-1.158
		L142.238,43.418z M139.676,35.619l0.448-0.322l0.805,1.22l-0.452,0.288L139.676,35.619z M139.805,51.315l-0.451-0.193l0.419-0.865
		l0.481,0.159L139.805,51.315z M137.88,39.085c-0.085-0.535,0.429-1.294,1.537-2.28c-0.255,0.237-0.177,0.561,0.227,0.965
		c0.19-0.215,0.319-0.501,0.386-0.869v1.158C139.302,38.06,138.584,38.401,137.88,39.085 M139.065,56.48h-1.25v-0.575h1.25V56.48z
		 M137.653,50.996h0.579v0.928h-0.579V50.996z M137.204,39.729h-0.578l0.359-2.249h0.575L137.204,39.729z M116.66,58.247h-0.579
		v-1.25h0.579V58.247z M113.772,45.279l-0.417-0.803l0.483-0.191l0.446,0.994H113.772z M112.427,57.221l-0.42-0.802l0.483-0.193
		l0.414,0.995H112.427L112.427,57.221z M108.734,39.919l-0.477-0.189l0.415-0.901l0.485,0.195L108.734,39.919z M107.229,49.034
		c-0.404,1.477-0.606,2.601-0.606,3.372c0,0.577,0.084,1.101,0.254,1.57c-0.877,1.842-1.411,3.178-1.603,4.014
		c0.404-3.293,0.777-5.852,1.121-7.67c-0.086-0.386-0.319-0.579-0.704-0.579v-3.979h1.31c-0.575,0.641-0.862,1.539-0.862,2.692
		c0,0.472,0.108,0.806,0.319,0.995c0.321-1.475,0.802-2.728,1.442-3.752C107.86,46.361,107.637,47.473,107.229,49.034
		 M105.181,50.864h0.607l-0.384,1.928h-0.577L105.181,50.864z M103.829,46.469l-0.321-0.386l0.837-0.804l0.354,0.321L103.829,46.469
		z M104.246,43.032l0.161,1.929h-0.578l-0.192-1.929H104.246z M107.229,39.597h0.579v1.253h-0.579V39.597z M143.142,38.813
		c-0.303-0.075-0.505-0.168-0.614-0.276c0.109,0,0.383-0.058,0.819-0.177c0.083-0.019,0.129-0.029,0.198-0.048l0.002-23.356h-11.771
		v0.227h-0.167v0.225h-0.17v0.226h-0.168v0.224h-0.167v0.228h-0.168v0.225h-0.167v0.225h-0.167v0.227h-0.168v0.225h-0.167v0.227
		h-0.17v0.225h-0.168v0.227h-0.167v0.225h-0.167v26.631h0.002c0,1.328-0.07,2.688-0.203,4.064c-0.061,0.674-0.202,1.271-0.389,1.828
		c-0.136,0.089-0.262,0.181-0.411,0.268c-0.793,0.458-2.292,0.827-4.445,0.82c-1.076,0-2.479-0.087-3.696-0.256
		c-1.195-0.146-2.316-0.478-2.408-0.566c-1.023-0.583-1.65-1.22-2.08-1.987c-0.491-0.878-0.794-1.854-0.907-3.032
		c-0.132-1.385-0.199-2.739-0.199-4.071V15.053h-11.755v0.226h-0.169v0.225h-0.167v0.225h-0.17v0.226h-0.168v0.225h-0.167v0.227
		h-0.17v0.225h-0.168v0.226h-0.168v0.226h-0.169v0.226h-0.168v0.226h-0.168v0.228h-0.167v0.225h-0.169v28.935
		c0,0.138,0.015,0.27,0.017,0.408l0.524-2.595h0.514l-0.7,3.464h-0.302c0.11,2.415,0.532,4.635,1.344,6.612
		c0.935,2.276,2.301,4.247,4.062,5.821c1.752,1.581,3.86,2.745,6.239,3.491c2.6,0.793,6.567,1.085,9.359,1.099h0.035
		c2.755,0,5.32-0.361,7.662-1.099c2.375-0.745,4.489-1.91,6.243-3.491c0.895-0.8,1.686-1.71,2.369-2.704
		c0.055-0.078,0.119-0.149,0.169-0.226c0.053-0.077,0.117-0.149,0.168-0.226c0.052-0.078,0.114-0.148,0.166-0.224
		c0.057-0.081,0.117-0.151,0.168-0.227c0.056-0.078,0.116-0.149,0.167-0.225c0.057-0.078,0.117-0.15,0.168-0.227
		c0.056-0.077,0.117-0.149,0.168-0.224c0.055-0.078,0.118-0.15,0.171-0.227c0.052-0.077,0.115-0.149,0.167-0.225
		c0.053-0.08,0.118-0.151,0.168-0.226c0.056-0.078,0.116-0.149,0.167-0.226c0.056-0.079,0.114-0.151,0.168-0.223
		c0.732-1.027,1.355-2.14,1.854-3.348c0.264-0.652,0.488-1.33,0.672-2.032c-0.474,0.006-1.014,0.016-1.633,0.028
		c0.149-0.622,0.33-0.933,0.548-0.933c0.252,0.254,0.644,0.434,1.173,0.542c0.421-1.7,0.642-3.529,0.642-5.495v-3.535
		c-0.271-0.012-0.715-0.017-1.337-0.017V39.15c0.408,0,0.855,0.325,1.337,0.946v-1.142
		C143.438,38.904,143.309,38.854,143.142,38.813 M161.955,42.648h-0.643V41.3h0.643V42.648z M157.561,51.825l-1.25-1.248
		l0.387-0.388l1.246,1.288L157.561,51.825z M157.079,55.105h-0.961v-0.613h0.961V55.105z M155.926,52.503h0.61v1.349h-0.61V52.503z
		 M154.837,57.51c-1.348-2.288-2.021-4.151-2.021-5.586c0-0.362,0.674-3.198,2.021-8.507V57.51z M162.8,13.899h-10.867v0.227h-0.167
		v0.224H151.6v0.227h-0.168v0.225h-0.168v0.228h-0.168v0.224h-0.167v0.227h-0.171v0.226h-0.167v0.227h-0.167v0.225h-0.168v0.224
		h-0.168v0.227h-0.168v0.224h-0.17v48.655h21.216v-0.227h0.168v-0.227h0.167v-0.224h0.17v-0.226h0.168v-0.224h0.168v-0.227h0.168
		v-0.226h0.166v-0.226h0.168v-0.226h0.169V63.23h0.171v-0.226h0.166v-0.227h0.168v-0.224h0.168V51.776H162.8V13.899L162.8,13.899z
		 M42.562,25.093l-0.735-1.091l0.415-0.289l0.739,1.123L42.562,25.093z M39.486,28.688c0.387-0.515,0.854-0.9,1.412-1.155
		c0.382,0.384,0.578,0.33,0.578-0.162c0,0.409,0.306,0.61,0.931,0.61C41.89,27.979,40.918,28.218,39.486,28.688 M40.587,58.754
		l-0.453-0.188l0.386-0.805l0.449,0.158L40.587,58.754z M41.301,16.569h0.547v1.798h-0.547V16.569z M41.945,14.704h0.543v3.02
		h-0.543V14.704z M38.671,19.711l-0.735-0.737l0.29-0.318l0.8,0.771L38.671,19.711z M35.069,20.166v0.421h-0.55v-1.152h0.55v0.43
		c0.57-0.332,1.061-0.688,1.389-1.084c-0.383-0.084-0.919,0.078-1.603,0.482c-0.066-0.576,0.203-0.865,0.802-0.865
		c0.323,0,0.512-0.049,0.579-0.146c0.062-0.095,0.126-0.207,0.191-0.336c-0.149-0.299-0.191-0.526-0.129-0.673
		c0.169-0.301,0.257-0.739,0.257-1.318c0.042,0.216,0.202,0.536,0.48,0.962c0.129,0.173,0.224,1.286,0.286,3.34
		C37.061,20.189,36.291,20.17,35.069,20.166 M33.511,18.397c-0.541-0.536-0.805-0.952-0.805-1.254c0-0.21,0.128-0.547,0.385-1.009
		c0.256-0.46,0.385-0.799,0.385-1.012c0,0.535,0.094,0.899,0.29,1.093c0.105-0.215,0.212-0.578,0.319-1.093
		c0.11-0.514,0.215-0.877,0.322-1.089c0.17,0.256,0.258,0.544,0.258,0.865c0,0.386-0.15,0.921-0.451,1.605
		C33.829,17.465,33.594,18.096,33.511,18.397 M43.056,16.474h-0.504v-1.442h0.504v-1.129h-2.86l-0.338,0.513l-0.417-0.287
		l0.151-0.225h-1.025l-0.188,0.706H37.87l0.173-0.706h-5.856v0.225h-0.168v0.227h-0.17v0.226h-0.167v0.225h-0.167v0.226h-0.167
		v0.226h-0.171v0.225H31.01v0.227h-0.167v0.225h-0.17v0.228h-0.167v0.224h-0.17v0.228h-0.167v0.224H30v14.871l1.896-0.237
		l0.321,0.321L30,32.066v33.42h21.219v-0.226h0.167v-0.226h0.171v-0.224h0.167v-0.228h0.167v-0.225h0.167v-0.226h0.17v-0.226h0.167
		v-0.226h0.167v-0.225h0.17v-0.226h0.168v-0.228h0.17v-0.227h0.168v-0.224h0.167v-10.78H43.056V16.474z M67.175,21.882l-0.021-0.127
		l-0.108,0.169L67.175,21.882z M92.473,37.933l-1.251-1.224c0.107,0,0.38,0.051,0.816,0.146C92.479,36.949,92.763,37,92.891,37
		C92.611,37.428,92.473,37.736,92.473,37.933 M90.002,35.841l-2.182-0.928v-0.485l2.375,0.937L90.002,35.841z M83.567,52.235
		c-0.323,0.6-0.815,1.214-1.478,1.843c-0.661,0.631-1.194,0.952-1.602,0.952c-0.238,0-0.459-0.11-0.673-0.32l-1.092,0.99
		c0-0.513-0.084-0.845-0.254-0.99c-0.236,0.019-0.353,0.127-0.353,0.32c0.063-0.45-0.226-0.974-0.868-1.575
		c0.376-0.084,0.802-0.263,1.271-0.527c-0.543,0.119-1.126,0.194-1.792,0.196c-1.581-0.004-2.792-0.355-3.804-0.998
		c-1.105-0.716-1.985-1.637-2.709-2.863c-0.753-1.288-1.325-2.766-1.7-4.485c-0.39-1.756-0.581-3.556-0.581-5.387
		c0-1.834,0.19-3.634,0.581-5.391c0.303-1.379,0.736-2.603,1.279-3.695c0.3-0.258,0.61-0.503,0.947-0.721
		c1.007-0.642,2.216-0.995,3.801-1.003c1.594,0.008,2.799,0.359,3.81,1.003c1.108,0.716,1.989,1.635,2.708,2.86
		c0.751,1.28,1.325,2.769,1.708,4.488c0.382,1.752,0.578,3.555,0.578,5.392c0,1.831-0.196,3.632-0.578,5.38
		c-0.202,0.896-0.471,1.703-0.773,2.475c0.509-0.486,1.042-1.009,1.606-1.602c0,0.084,0.042,0.727,0.129,1.925
		C83.769,51.359,83.716,51.934,83.567,52.235 M77.696,56.025h-0.575v-1.253h0.575V56.025z M65.95,21.27l0.898-1.381l0.306,1.866
		l0.79-1.214l0.526,0.946l-1.294,0.396l0.199,1.201L65.95,21.27z M66.663,36.409c-0.318,0.066-0.586,0.035-0.801-0.094l-0.802,0.674
		v-1.32c0.729,0,1.219-0.126,1.478-0.384c0.534,0.536,0.802,0.859,0.802,0.962C67.355,36.247,67.138,36.304,66.663,36.409
		 M57.612,35.578l-0.287-0.449l1.699-1.508l0.324,0.417L57.612,35.578z M94.816,30.367L94.816,30.367l0.222-0.067
		c-0.858-2.881-2.118-5.457-3.781-7.673c-1.672-2.24-3.752-4.052-6.176-5.373c-2.495-1.364-5.327-2.037-8.355-2.035
		c-3.027-0.001-5.856,0.668-8.353,2.04c-2.424,1.312-4.501,3.131-6.17,5.365c-0.031,0.042-0.05,0.086-0.083,0.125
		c-0.028,0.035-0.06,0.066-0.084,0.103c-0.031,0.039-0.056,0.083-0.086,0.123c-0.024,0.034-0.055,0.066-0.084,0.101
		c-0.028,0.042-0.051,0.084-0.083,0.126c-0.024,0.034-0.056,0.066-0.084,0.102c-0.028,0.039-0.056,0.083-0.083,0.123
		c-0.028,0.035-0.056,0.066-0.084,0.101c-0.031,0.042-0.056,0.084-0.083,0.126c-0.028,0.034-0.06,0.066-0.088,0.102
		c-0.028,0.04-0.053,0.084-0.083,0.124c-0.024,0.034-0.059,0.065-0.084,0.101c-0.029,0.041-0.057,0.083-0.084,0.125
		c-0.028,0.036-0.06,0.066-0.084,0.102c-0.031,0.04-0.055,0.085-0.083,0.123c-0.028,0.037-0.06,0.068-0.087,0.103
		c-0.029,0.04-0.053,0.084-0.084,0.126c-0.026,0.033-0.055,0.065-0.083,0.101c-0.032,0.039-0.056,0.083-0.084,0.123
		c-0.026,0.034-0.057,0.067-0.083,0.101c-0.031,0.039-0.055,0.084-0.084,0.126c-0.027,0.033-0.059,0.066-0.086,0.1
		c-0.029,0.041-0.052,0.085-0.084,0.124c-0.027,0.035-0.055,0.066-0.083,0.101c-0.032,0.041-0.053,0.084-0.084,0.124
		c-0.026,0.035-0.058,0.068-0.086,0.103c-1.662,2.222-2.916,4.795-3.778,7.678c-0.859,2.88-1.289,5.914-1.289,9.089
		c0,3.201,0.426,6.258,1.289,9.139c0.857,2.881,2.116,5.457,3.778,7.678c1.673,2.239,3.755,4.049,6.191,5.353
		c2.491,1.336,5.312,1.996,8.336,1.996h0.021c3.017,0,5.831-0.661,8.318-1.998c2.433-1.301,4.52-3.108,6.192-5.35
		c0.026-0.039,0.055-0.085,0.083-0.127c0.025-0.033,0.056-0.063,0.084-0.101c0.031-0.039,0.056-0.083,0.083-0.121
		c0.028-0.037,0.06-0.066,0.087-0.102c0.029-0.04,0.051-0.086,0.083-0.125c0.024-0.036,0.056-0.067,0.084-0.103
		c0.026-0.039,0.051-0.084,0.083-0.123c0.027-0.036,0.059-0.066,0.084-0.102c0.031-0.04,0.056-0.082,0.083-0.126
		c0.028-0.035,0.06-0.066,0.084-0.1c0.032-0.042,0.055-0.084,0.083-0.124c0.028-0.037,0.06-0.064,0.088-0.1
		c0.031-0.042,0.051-0.084,0.083-0.126c0.027-0.035,0.059-0.066,0.084-0.1c0.031-0.041,0.055-0.084,0.086-0.125
		c0.024-0.037,0.056-0.066,0.084-0.102c0.028-0.04,0.051-0.084,0.083-0.122c0.025-0.038,0.057-0.066,0.084-0.104
		c0.028-0.04,0.051-0.085,0.083-0.123c0.028-0.037,0.056-0.065,0.084-0.101c0.031-0.04,0.055-0.084,0.083-0.125
		c0.028-0.036,0.059-0.067,0.088-0.103c0.027-0.04,0.051-0.083,0.083-0.124c0.024-0.036,0.059-0.065,0.084-0.101
		c0.028-0.04,0.056-0.084,0.083-0.122c0.029-0.037,0.06-0.068,0.084-0.102c1.661-2.224,2.92-4.797,3.78-7.682
		c0.859-2.881,1.287-5.933,1.287-9.136c0-3.175-0.425-6.209-1.287-9.089L94.816,30.367z M43.099,15.031h-0.043v1.443h0.043V15.031
		L43.099,15.031z"/>
	<path fill="#FFFFFF" d="M142.053,36.187l-0.318-0.387l0.802-0.803l0.352,0.323L142.053,36.187z M142.214,43.441l-1.185,1.188
		l-0.321-0.354l1.154-1.156L142.214,43.441z M139.649,35.641l0.446-0.318l0.806,1.217l-0.448,0.289L139.649,35.641z M139.776,51.339
		l-0.447-0.194l0.416-0.866l0.485,0.161L139.776,51.339z M139.041,56.504h-1.251v-0.577h1.251V56.504z M137.63,51.015h0.578v0.933
		h-0.578V51.015z M137.18,39.75h-0.579l0.355-2.249h0.576L137.18,39.75z M139.392,36.827c-0.253,0.237-0.181,0.558,0.227,0.964
		c0.188-0.215,0.321-0.502,0.383-0.867v1.155c-0.724,0-1.443,0.344-2.15,1.028C137.765,38.572,138.281,37.813,139.392,36.827
		 M116.632,58.27h-0.579v-1.251h0.579V58.27z M113.747,45.302L113.33,44.5l0.479-0.192l0.45,0.994H113.747z M112.399,57.242
		l-0.413-0.802l0.477-0.192l0.418,0.993L112.399,57.242L112.399,57.242z M108.709,39.943l-0.48-0.193l0.417-0.898l0.482,0.191
		L108.709,39.943z M107.783,40.872h-0.58V39.62h0.58V40.872z M103.805,46.49l-0.322-0.386l0.835-0.804l0.355,0.32L103.805,46.49z
		 M104.223,43.056l0.16,1.927h-0.579l-0.192-1.927H104.223z M143.113,38.835c-0.301-0.076-0.502-0.166-0.609-0.272
		c0.107,0,0.382-0.058,0.818-0.177c0.142-0.039,0.237-0.062,0.346-0.086V14.754H131.9v26.633c0,1.328-0.068,2.686-0.2,4.063
		c-0.107,1.186-0.414,2.166-0.897,3.028c-0.429,0.77-1.067,1.416-2.083,1.999c-0.795,0.461-2.294,0.829-4.446,0.824
		c-1.081,0-2.481-0.089-3.7-0.26c-1.193-0.144-2.314-0.478-2.403-0.566c-1.025-0.582-1.653-1.221-2.08-1.989
		c-0.491-0.874-0.795-1.852-0.906-3.029c-0.132-1.386-0.199-2.741-0.199-4.071V14.849h-11.758v28.934
		c0,2.924,0.442,5.565,1.394,7.893c0.088,0.203,0.188,0.387,0.278,0.585l0.254-1.371h0.606l-0.382,1.926h-0.213
		c0.191,0.389,0.404,0.765,0.622,1.133c0.206-1.408,0.397-2.622,0.587-3.605c-0.087-0.385-0.324-0.578-0.707-0.578v-3.98h1.313
		c-0.576,0.645-0.865,1.539-0.865,2.695c0,0.473,0.106,0.803,0.32,0.995c0.321-1.476,0.802-2.728,1.443-3.753
		c-0.042,0.663-0.266,1.774-0.672,3.337c-0.407,1.478-0.61,2.6-0.61,3.37c0,0.577,0.084,1.103,0.256,1.572
		c-0.158,0.336-0.295,0.638-0.433,0.942c0.661,0.935,1.417,1.792,2.267,2.553c1.749,1.581,3.858,2.746,6.234,3.491
		c2.597,0.792,6.565,1.084,9.355,1.099h0.035c2.759,0,5.317-0.362,7.661-1.099c2.378-0.745,4.492-1.911,6.243-3.491
		c1.759-1.576,3.122-3.549,4.054-5.824c0.242-0.58,0.447-1.182,0.62-1.804c-0.492,0.003-1.064,0.014-1.73,0.025
		c0.15-0.621,0.336-0.933,0.547-0.933c0.26,0.256,0.651,0.439,1.186,0.548c0.031,0.006,0.052,0.009,0.082,0.016
		c0.46-1.769,0.7-3.683,0.7-5.742v-3.299c-0.231-0.019-0.706-0.028-1.486-0.028v-1.283c0.451,0,0.945,0.393,1.486,1.144V39.07
		C143.551,38.98,143.378,38.898,143.113,38.835 M161.931,42.671h-0.643v-1.349h0.643V42.671z M157.532,51.848l-1.248-1.25
		l0.384-0.384l1.251,1.283L157.532,51.848z M157.051,55.128h-0.961v-0.613h0.961V55.128z M155.899,52.523h0.609v1.35h-0.609V52.523z
		 M154.809,57.532c-1.345-2.289-2.021-4.151-2.021-5.585c0-0.363,0.676-3.197,2.021-8.506V57.532z M162.918,13.696h-10.863v48.656
		h21.22V51.573h-10.356V13.696z M43.072,16.494h-0.543v-1.443h0.543V16.494z M42.538,25.115l-0.738-1.092l0.417-0.287l0.736,1.122
		L42.538,25.115z M39.461,28.709c0.384-0.516,0.856-0.9,1.411-1.154c0.38,0.386,0.575,0.329,0.575-0.162
		c0,0.41,0.311,0.611,0.93,0.611C41.866,28.004,40.894,28.24,39.461,28.709 M40.559,58.776l-0.449-0.192l0.382-0.8l0.454,0.156
		L40.559,58.776z M41.273,16.59h0.548v1.797h-0.548V16.59z M41.917,14.728h0.545v3.019h-0.545V14.728z M38.647,19.736l-0.738-0.74
		l0.289-0.319l0.802,0.77L38.647,19.736z M35.044,20.189v0.422h-0.546v-1.154h0.547v0.432c0.572-0.332,1.057-0.688,1.39-1.085
		c-0.386-0.084-0.919,0.076-1.606,0.482c-0.062-0.577,0.202-0.866,0.801-0.866c0.324,0,0.516-0.049,0.578-0.146
		c0.063-0.096,0.129-0.208,0.194-0.336c-0.148-0.299-0.191-0.526-0.131-0.673c0.17-0.302,0.258-0.738,0.258-1.314
		c0.044,0.213,0.202,0.533,0.484,0.961c0.126,0.17,0.224,1.284,0.287,3.336C37.033,20.213,36.264,20.192,35.044,20.189
		 M33.483,18.42c-0.537-0.534-0.8-0.952-0.8-1.251c0-0.214,0.124-0.55,0.382-1.011c0.259-0.462,0.384-0.799,0.384-1.012
		c0,0.535,0.097,0.899,0.29,1.093c0.106-0.211,0.214-0.576,0.319-1.093c0.108-0.514,0.215-0.877,0.323-1.089
		c0.171,0.256,0.256,0.543,0.256,0.863c0,0.388-0.151,0.923-0.448,1.607C33.803,17.488,33.567,18.119,33.483,18.42 M43.176,19.93
		h-0.039v-3.309h0.039v-2.63h-0.007v-0.29h-2.85l-0.488,0.736l-0.413-0.285l0.305-0.451h-1.117l-0.249,0.929h-0.511l0.227-0.929
		h-5.762v48.651h21.223V51.571H43.176V19.93z M214.985,35.159h-0.641v-1.027h0.641V35.159z M214.215,43.426
		c-0.104,0.352-0.161,0.583-0.161,0.688h-1.346v-1.411c0.192,0.194,0.468,0.29,0.834,0.29c0.365,0,0.642-0.096,0.836-0.29
		C214.378,42.829,214.322,43.072,214.215,43.426 M212.546,47.261c-0.404,0.876-0.576,1.595-0.508,2.148
		c-0.048,0.536-0.067-0.704-0.067-3.723l0.833,0.741c0.149-0.131,0.181-0.376,0.097-0.741c-0.129-0.641-0.192-1.005-0.192-1.092
		c0.43,0.28,0.758,0.419,0.994,0.419C213.315,45.763,212.936,46.514,212.546,47.261 M213.221,41.611h0.641v1.029h-0.641V41.611z
		 M213.221,39.75h0.641v1.381h-0.641V39.75z M213.221,37.5h0.641v1.031h-0.641V37.5z M204.486,44.57h0.007
		c-0.383,1.723-0.957,3.202-1.707,4.494c-0.724,1.219-1.606,2.145-2.714,2.86c-1.012,0.639-2.209,0.992-3.8,0.995
		c-1.593-0.004-2.804-0.356-3.806-0.996c-1.107-0.715-1.995-1.642-2.713-2.867c-0.749-1.291-1.325-2.767-1.698-4.484
		c-0.392-1.754-0.588-3.555-0.588-5.39c0-1.834,0.197-3.633,0.583-5.389c0.382-1.721,0.956-3.207,1.707-4.492
		c0.718-1.226,1.599-2.14,2.71-2.856c1.007-0.642,2.215-0.995,3.805-1c1.591,0.005,2.789,0.354,3.811,1
		c1.102,0.717,1.982,1.637,2.707,2.858c0.746,1.283,1.325,2.771,1.703,4.488c0.388,1.756,0.582,3.556,0.582,5.391
		C205.072,41.02,204.878,42.819,204.486,44.57 M187.543,48.929c-0.451-0.125-0.775-0.301-0.995-0.513
		c0.046-0.042,0.22-0.289,0.515-0.738c0.213-0.28,0.398-0.417,0.546-0.417C187.562,47.305,187.543,47.857,187.543,48.929
		 M210.794,22.423c-1.663-2.234-3.745-4.054-6.174-5.371c-2.495-1.364-5.323-2.037-8.349-2.034
		c-3.028-0.003-5.861,0.669-8.358,2.034c-2.425,1.323-4.504,3.137-6.168,5.371c-1.663,2.222-2.92,4.796-3.782,7.674
		c-0.855,2.883-1.288,5.915-1.288,9.088c0,3.207,0.428,6.261,1.288,9.14c0.861,2.884,2.118,5.458,3.782,7.681
		c1.666,2.234,3.747,4.049,6.189,5.352c2.487,1.337,5.312,1.997,8.338,1.993h0.018c3.016,0,5.834-0.658,8.315-1.997
		c2.44-1.298,4.527-3.108,6.195-5.348c1.662-2.225,2.92-4.797,3.776-7.681c0.864-2.879,1.29-5.932,1.29-9.14
		c0-3.174-0.428-6.205-1.29-9.088C213.716,27.218,212.459,24.644,210.794,22.423 M92.443,37.952l-1.246-1.219
		c0.108,0,0.379,0.048,0.815,0.145c0.439,0.094,0.722,0.146,0.855,0.146C92.583,37.449,92.443,37.76,92.443,37.952 M89.978,35.865
		l-2.182-0.931v-0.481l2.371,0.933L89.978,35.865z M85.08,44.566h-0.004c-0.345,1.557-0.854,2.903-1.502,4.105
		c0.011,0.184,0.05,0.78,0.129,1.853c0.038,0.856-0.015,1.433-0.165,1.733c-0.319,0.599-0.812,1.214-1.473,1.845
		c-0.66,0.632-1.198,0.946-1.606,0.946c-0.234,0-0.455-0.106-0.669-0.318l-1.094,0.991c0-0.512-0.084-0.843-0.254-0.991
		c-0.237,0.02-0.353,0.127-0.353,0.318c0.063-0.447-0.227-0.97-0.867-1.573c0.495-0.111,1.08-0.389,1.739-0.809
		c-0.625,0.162-1.317,0.252-2.112,0.254c-1.585-0.003-2.79-0.355-3.804-0.997c-1.105-0.716-1.986-1.639-2.71-2.865
		c-0.749-1.288-1.325-2.765-1.699-4.484c-0.39-1.756-0.583-3.555-0.583-5.388c0-1.834,0.191-3.635,0.583-5.391
		c0.376-1.722,0.952-3.211,1.699-4.488c0.725-1.229,1.603-2.146,2.717-2.86c1.007-0.642,2.212-0.995,3.797-1.001
		c1.597,0.006,2.798,0.358,3.811,1.001c1.109,0.715,1.991,1.637,2.711,2.86c0.745,1.281,1.32,2.771,1.703,4.488
		c0.384,1.753,0.578,3.557,0.578,5.391C85.654,41.018,85.46,42.819,85.08,44.566 M77.668,56.047h-0.575v-1.252h0.575V56.047z
		 M65.925,21.292l0.896-1.382l0.311,1.864l0.787-1.212l0.526,0.944l-1.294,0.398l0.196,1.201L65.925,21.292z M66.639,36.432
		c-0.317,0.064-0.587,0.034-0.801-0.095l-0.802,0.675v-1.318c0.726,0,1.217-0.128,1.474-0.387c0.538,0.538,0.802,0.857,0.802,0.964
		C67.333,36.272,67.109,36.326,66.639,36.432 M93.033,30.735l2.128-0.639c-0.86-2.88-2.118-5.454-3.782-7.672
		c-1.671-2.24-3.751-4.053-6.176-5.373c-2.496-1.364-5.325-2.037-8.354-2.035c-3.027-0.001-5.856,0.668-8.355,2.04
		c-2.425,1.312-4.504,3.133-6.167,5.365c-1.663,2.221-2.92,4.796-3.778,7.679c-0.47,1.566-0.796,3.183-1.01,4.84l1.46-1.296
		l0.319,0.417l-1.73,1.54l-0.102-0.159c-0.139,1.228-0.23,2.471-0.23,3.744c0,3.204,0.426,6.261,1.292,9.14
		c0.856,2.883,2.115,5.456,3.778,7.68c1.668,2.24,3.751,4.049,6.19,5.352c2.488,1.337,5.313,1.996,8.333,1.994h0.021
		c3.021,0,5.831-0.658,8.319-1.996c2.437-1.3,4.52-3.109,6.191-5.35c1.662-2.224,2.919-4.797,3.782-7.682
		c0.86-2.88,1.284-5.933,1.284-9.138c0-3.175-0.423-6.207-1.284-9.087L93.033,30.735z M231.895,19.736h-0.542v-2.088h0.542V19.736z
		 M231.285,19.736h-0.542V18.29h0.542V19.736z M228.143,18.803h-0.548v-2.086h0.548V18.803z M228.143,22.561h-0.548v-1.798h0.548
		V22.561z M227.53,19.736h-0.544v-2.088h0.544V19.736z M226.891,19.415h-0.513v-1.766h0.513V19.415z M224.572,51.689l-0.511-0.223
		l0.479-0.963l0.518,0.189L224.572,51.689z M223.874,19.222h0.55v2.086h-0.55V19.222z M223.781,20.347h-0.548v-3.02h0.548V20.347z
		 M223.171,20.058h-0.545v-3.341h0.545V20.058z M224.484,16.396h0.543v1.766h-0.543V16.396z M249.831,41.386
		c0,1.328-0.066,2.686-0.195,4.063c-0.117,1.177-0.426,2.155-0.914,3.022c-0.436,0.769-1.072,1.416-2.11,2.001
		c-0.102,0.091-1.241,0.427-2.453,0.571c-1.232,0.171-2.647,0.257-3.738,0.257c-2.191,0.01-3.713-0.361-4.521-0.83
		c-1.029-0.583-1.68-1.233-2.106-1.988c-0.492-0.877-0.798-1.85-0.909-3.036c-0.133-1.376-0.204-2.731-0.204-4.061V14.754h-11.85
		v29.028c0,2.927,0.448,5.574,1.423,7.901c0.52,1.251,1.182,2.404,1.961,3.461c0.111-0.295,0.17-0.64,0.17-1.047
		c0-0.106,0.039,0.301,0.125,1.219c0.008,0.072-0.008,0.126-0.004,0.196c0.561,0.713,1.164,1.39,1.843,1.992
		c1.771,1.576,3.901,2.744,6.301,3.479c2.373,0.742,4.965,1.105,7.772,1.105c2.812-0.021,6.819-0.316,9.443-1.105
		c2.397-0.735,4.526-1.903,6.3-3.483c0.456-0.406,0.89-0.842,1.296-1.3c-0.408-0.684-0.625-1.478-0.625-2.39
		c0-1.027,0.336-2.164,0.996-3.403c0.704-1.327,1.593-2.365,2.663-3.112c-0.021,1.134-0.261,2.422-0.719,3.864
		c-0.454,1.403-0.675,2.329-0.69,2.791c0.445-0.723,0.848-1.472,1.184-2.274c0.966-2.322,1.407-4.968,1.407-7.895V14.849H249.83
		L249.831,41.386L249.831,41.386L249.831,41.386z M277.495,18.261c-0.353,0-0.646,0.048-0.878,0.146
		c-0.236,0.093-0.439,0.142-0.61,0.142c0.192-0.3,0.43-1.017,0.707-2.15c0.105,0.215,0.266,0.462,0.479,0.739
		c0.345,0,0.515-0.311,0.515-0.934c0.258-0.02,0.824-0.104,1.698-0.255c0.229-0.041,0.403-0.062,0.591-0.092L280,9.678h-9.648
		l0.035,10.661c0.009,1.129,0.391,1.94,0.607,2.459c0.073,0.174,0.135,0.316,0.177,0.421c-0.121,0.224-0.201,0.317-0.223,0.332
		c-0.038,0.016-0.019,0.067-0.458,0.137l-1.926,0.263v8.109l2.527-0.35c2.982-0.329,4.932-2.043,6.306-3.812
		c1.74-2.087,2.615-4.732,2.599-7.568v-3.725c-0.234,0.197-0.498,0.422-0.816,0.69C278.411,17.938,277.851,18.261,277.495,18.261"/>
	<path fill="#FFFFFF" d="M111.647,74.124h-0.149v-0.567h0.149V74.124z M111.482,74.124h-0.149v-0.393h0.149V74.124z M111.639,78.796
		l-0.47,0.419l-0.079-0.12l0.461-0.41L111.639,78.796z M110.628,74.89h-0.148v-0.488h0.148V74.89z M110.628,73.871h-0.148v-0.565
		h0.148V73.871z M110.462,74.124h-0.148v-0.567h0.148V74.124z M110.29,74.036h-0.14v-0.48h0.14V74.036z M109.783,73.696h-0.147
		v-0.479h0.147V73.696z M109.783,77.087h-0.121l-0.192-0.366l0.121-0.051L109.783,77.087z M109.618,73.983h-0.148v0.569h0.148
		V73.983z M109.618,78.107h-0.141l-0.103-0.389h0.147L109.618,78.107z M109.444,74.29h-0.148v-0.821h0.148V74.29z M109.574,77.428
		c-0.272-0.11-0.409-0.273-0.409-0.488c0-0.155,0.082-0.235,0.244-0.235c-0.098,0.099-0.064,0.205,0.104,0.314l0.018,0.219
		C109.536,77.311,109.552,77.375,109.574,77.428 M109.278,74.211h-0.148v-0.905h0.148V74.211z M109.104,76.801l-0.113,0.067
		l-0.199-0.295l0.112-0.078L109.104,76.801z M108.938,74.148h-0.147v0.82h0.147V74.148z M108.765,73.355h-0.139v-0.393h0.139V73.355
		z M108.765,74.072h-0.15v0.896h0.15V74.072z M108.599,74.036h-0.149v-0.391h0.149V74.036z M108.433,74.376h-0.147v-0.82h0.147
		V74.376z M108.946,77.655c-0.138,0-0.402,0.063-0.79,0.189c0.103-0.137,0.233-0.242,0.382-0.312
		c0.106,0.104,0.158,0.088,0.158-0.046C108.695,77.601,108.779,77.655,108.946,77.655 M108.259,74.062h-0.148v0.488h0.148V74.062z
		 M108.259,82.092h-0.121l-0.104-0.2l0.121-0.044L108.259,82.092z M108.172,81.301l-0.104,0.224l-0.124-0.051l0.108-0.22
		L108.172,81.301z M108.311,79.354c0,0.402-0.052,0.869-0.155,1.395c-0.175-0.221-0.259-0.408-0.254-0.557v-1.213
		C108.174,79.065,108.311,79.192,108.311,79.354 M107.755,83.112h-0.15v-0.479h0.15V83.112z M107.919,73.173l-0.199,0.306
		l-0.115-0.079l0.2-0.296L107.919,73.173z M107.493,74.839l-0.097,0.079l-0.2-0.2l0.078-0.089L107.493,74.839z M107.423,73.139
		l-0.105,0.391h-0.139l0.095-0.391H107.423z M106.648,85.282l-0.105,0.227l-0.122-0.052l0.104-0.218L106.648,85.282z M107.03,75.057
		c-0.081-0.011-0.33-0.02-0.747-0.02c0.226-0.108,0.397-0.232,0.513-0.373c-0.105-0.021-0.25,0.02-0.437,0.131
		c-0.016-0.157,0.055-0.235,0.219-0.235c0.087,0,0.14-0.015,0.157-0.04c0.018-0.025,0.035-0.057,0.051-0.093
		c-0.041-0.08-0.051-0.141-0.034-0.183c0.048-0.081,0.068-0.201,0.068-0.356c0.013,0.058,0.056,0.145,0.132,0.261
		C106.987,74.197,107.014,74.497,107.03,75.057 M106.239,73.373c0.044,0.07,0.069,0.147,0.069,0.236
		c0,0.104-0.043,0.249-0.122,0.435c-0.106,0.264-0.168,0.435-0.192,0.516c-0.145-0.146-0.218-0.26-0.218-0.339
		c0-0.06,0.034-0.149,0.104-0.278c0.069-0.124,0.105-0.216,0.105-0.273c0,0.145,0.026,0.243,0.077,0.295
		c0.03-0.058,0.059-0.155,0.088-0.295C106.18,73.532,106.208,73.431,106.239,73.373 M105.044,75.144h-0.149v-0.312h0.149V75.144z
		 M104.269,78.186l-0.207,0.21l-0.088-0.088l0.209-0.21L104.269,78.186z M103.51,84.962l-0.104,0.285l-0.118-0.044l0.104-0.243
		h0.118V84.962z M106.108,74.743c-0.083,0.168-0.118,0.306-0.104,0.409c-0.03-0.027-0.075-0.056-0.135-0.082
		c-0.061-0.026-0.107-0.055-0.135-0.086c-0.256,0.256-0.635,0.494-1.141,0.708c-0.227,0.371-0.339,0.871-0.339,1.498
		c0,0.063,0.026,0.141,0.082,0.232c0.056,0.09,0.083,0.145,0.083,0.162c-0.134,0.132-0.135,0.214-0.008,0.243
		c0.744,0.11,1.115,0.335,1.115,0.673c0,0.157-0.09,0.278-0.27,0.363c-0.035,0.117-0.149,0.255-0.34,0.411
		c-0.221,0.192-0.426,0.288-0.619,0.288c-0.341,0-0.635-0.213-0.872-0.637c-0.187-0.339-0.279-0.635-0.279-0.89
		c0-0.626,0.257-1.377,0.775-2.249c0.476-0.814,1-1.446,1.577-1.9c0,0.064-0.03,0.156-0.087,0.278
		c-0.081,0.176-0.131,0.289-0.148,0.341c0.04,0.044,0.083,0.047,0.129,0.013c0.047-0.039,0.071-0.077,0.071-0.125
		c0.069,0.086,0.165,0.231,0.286,0.429c0.047,0,0.078-0.026,0.096-0.079c0.023-0.052,0.014-0.099-0.026-0.14
		c0.029,0.027,0.084,0.057,0.167,0.083C106.066,74.712,106.108,74.732,106.108,74.743 M111.769,78.552
		c0,0.269-0.021,0.438-0.07,0.505c0.065,0.14,0.097,0.271,0.097,0.394c0,0.556-0.504,0.903-1.517,1.037
		c0.007-0.119-0.018-0.243-0.069-0.377c-0.069,0.083-0.11,0.179-0.124,0.291c-0.011,0.113-0.044,0.19-0.103,0.23
		c-0.25,0.094-0.473,0.521-0.671,1.283c-0.232,0.899-0.497,1.522-0.792,1.865c-0.408,0.723-0.958,1.277-1.655,1.674
		c-0.656,0.365-1.36,0.548-2.106,0.548c-0.275,0-0.799-0.068-1.578-0.21c-0.366-0.062-0.725-0.248-1.081-0.556
		c-0.378-0.325-0.565-0.647-0.565-0.967c0-0.198,0.151-0.488,0.452-0.872c0.309-0.406,0.573-0.611,0.794-0.611h0.435
		c0.122,0.907,0.212,1.448,0.272,1.621c0.218,0.669,0.628,1.005,1.226,1.005c0.296,0,0.643-0.191,1.037-0.567
		c0.395-0.379,0.644-0.753,0.749-1.125c-0.007,0.077,0,0.301,0.018,0.683l0.19-0.116l-0.087-1.047
		c0.11-0.325,0.227-0.722,0.347-1.185v-0.472c-0.272,0.013-0.864,0.21-1.777,0.591c0.257-0.668,0.698-1.265,1.327-1.797
		c0.492-0.41,0.762-0.965,0.809-1.664c0.109,0.111,0.214,0.12,0.314,0.027c0-0.095-0.083-0.141-0.251-0.141
		c0.237-0.332,0.382-0.743,0.434-1.237c0.05,0,0.107,0.032,0.166,0.095c0.081,0.076,0.144,0.126,0.191,0.149
		c0.052-0.082,0.131-0.191,0.245-0.331c0.284,0.015,0.443-0.077,0.479-0.261c0.021,0.088,0.115,0.316,0.279,0.688
		c0.035,0,0.092-0.002,0.173-0.01h0.228c0.088,0,0.131-0.057,0.131-0.166c-0.099,0.716-0.09,1.281,0.025,1.699
		c0.105,0,0.209,0.057,0.313,0.168c0.048-0.036,0.183-0.165,0.401-0.386c0.139-0.132,0.305-0.23,0.497-0.297l0.208,0.167
		C111.276,78.796,111.479,78.687,111.769,78.552"/>
	<path fill="#FFFFFF" d="M117.262,84.073h-0.156v0.242h0.156V84.073z M116.983,84.691h-0.155v-0.34h0.155V84.691z M118.125,82.947
		c-0.76,0.797-1.334,1.237-1.725,1.325c0.175,0.163,0.253,0.305,0.235,0.427c0-0.051,0.032-0.082,0.096-0.086
		c0.045,0.04,0.07,0.13,0.07,0.27l0.296-0.27c0.059,0.057,0.119,0.086,0.181,0.086c0.111,0,0.257-0.086,0.438-0.255
		c0.181-0.173,0.316-0.34,0.4-0.503c0.041-0.083,0.056-0.239,0.044-0.473C118.138,83.144,118.125,82.97,118.125,82.947
		 M116.523,84.969h-0.157V84.63h0.157V84.969z M116.339,79.354h-0.155V79.6h0.155V79.354z M113.709,79.6
		c0-0.03-0.072-0.117-0.22-0.263c-0.068,0.068-0.202,0.104-0.397,0.104v0.357l0.217-0.183c0.059,0.035,0.131,0.044,0.219,0.024
		C113.655,79.612,113.715,79.6,113.709,79.6 M117.229,78.334c-0.221,0.669-0.452,1.312-0.689,1.927
		c-0.029-0.151-0.093-0.365-0.191-0.646c-0.115,0.183-0.161,0.469-0.14,0.864c0.065,0.058,0.149,0.034,0.253-0.069
		c0,0.098-0.064,0.195-0.192,0.296c-0.051,0.279-0.175,0.785-0.365,1.524c-0.164,0.646-0.243,1.007-0.243,1.082
		c0,0.319,0.01,0.503,0.033,0.55c0.053,0.121,0.224,0.254,0.514,0.399v1.249c-0.463,0.269-0.719,0.409-0.764,0.426
		c-0.112,0.042-0.299,0.062-0.567,0.062c-0.894,0-1.342-0.523-1.342-1.57c0-0.519,0.151-1.08,0.452-1.691
		c0.419-0.842,0.656-1.364,0.715-1.569c-0.651,0.094-1.223,0.45-1.717,1.063c-0.685,0.855-1.204,1.399-1.56,1.63v-0.794
		c0.307-0.308,0.704-0.765,1.185-1.366c-0.204-0.249-0.406-0.503-0.61-0.751c-0.024-0.035-0.035-0.218-0.035-0.551
		c0-0.486,0.152-0.94,0.454-1.358c0.35-0.488,0.792-0.734,1.331-0.734c0.075,0,0.15,0.008,0.219,0.019
		c0.184,0.184,0.278,0.438,0.278,0.757c0,0.169-0.033,0.414-0.099,0.732c-0.067,0.32-0.101,0.539-0.101,0.654
		c0,0.062,0.006,0.117,0.017,0.164c0.992-0.29,1.807-1.058,2.448-2.301h0.714L117.229,78.334L117.229,78.334z"/>
	<path fill="#FFFFFF" d="M120.649,79.653c-0.036,0-0.111-0.014-0.23-0.041c-0.119-0.026-0.193-0.04-0.222-0.04l0.341,0.331
		C120.537,79.852,120.574,79.768,120.649,79.653 M121.677,75.909c0,0.218-0.105,0.439-0.317,0.673
		c-0.212,0.232-0.432,0.349-0.667,0.349h-0.286c-0.517-0.278-0.775-0.618-0.775-1.021c0-0.238,0.109-0.466,0.326-0.69
		c0.219-0.224,0.453-0.338,0.701-0.338c0.254,0,0.493,0.133,0.714,0.395C121.574,75.515,121.677,75.725,121.677,75.909
		 M119.917,79.206l-0.647-0.25v0.127l0.594,0.254L119.917,79.206z M122.113,82.989c0.017,0.075,0.026,0.154,0.026,0.235
		c0,0.502-0.39,1.083-1.167,1.744c-0.465,0.395-0.784,0.652-0.958,0.766c-0.332,0.216-0.646,0.322-0.941,0.322
		c-0.872,0-1.307-0.743-1.307-2.234c0-1.422,0.25-2.4,0.749-2.93c-0.06-0.046-0.119-0.069-0.186-0.069v-0.296
		c-0.006-0.062,0.074-0.284,0.234-0.661c0.187-0.424,0.355-0.673,0.508-0.75c-0.038-0.064-0.083-0.096-0.14-0.096
		c0.117,0,0.175-0.106,0.175-0.322c0.005,0.03,0.04,0.091,0.103,0.186c0.006,0,0.012-0.007,0.017-0.019
		c0.007-0.012,0.007-0.048,0-0.114c-0.003-0.034,0.034-0.051,0.116-0.051c0.081,0,0.351-0.048,0.809-0.14
		c0.547-0.117,0.913-0.189,1.096-0.218c-0.069,0.167-0.144,0.482-0.225,0.941c-0.048,0.273-0.169,0.466-0.367,0.578
		c0.057,0.045,0.118,0.068,0.176,0.068c-0.681,2.033-1.02,3.175-1.02,3.423c0,0.28,0.203,0.623,0.609,1.032
		C120.992,84.014,121.555,83.548,122.113,82.989"/>
	<path fill="#FFFFFF" d="M126.169,81.062l-0.096-0.093l-0.228,0.223l0.087,0.096L126.169,81.062z M125.899,85.081h-0.156v0.341
		h0.156V85.081z M125.253,81.901l-0.12-0.271l-0.131,0.053l0.113,0.219H125.253z M124.88,85.144l-0.114-0.271l-0.131,0.053
		l0.113,0.219H124.88L124.88,85.144z M123.86,80.2l-0.131-0.051l-0.112,0.243l0.13,0.051L123.86,80.2z M123.494,80.358h-0.153v0.339
		h0.153V80.358z M123.521,82.015c-0.174,0.279-0.304,0.619-0.392,1.02c-0.057-0.052-0.085-0.142-0.085-0.269
		c0-0.316,0.079-0.559,0.234-0.732h-0.355v1.081c0.104,0,0.168,0.052,0.19,0.156c-0.092,0.492-0.194,1.189-0.304,2.082
		c0.051-0.226,0.198-0.589,0.435-1.089c-0.047-0.129-0.069-0.271-0.069-0.427c0-0.209,0.054-0.515,0.164-0.916
		C123.448,82.498,123.511,82.193,123.521,82.015 M122.945,83.418h-0.166l-0.095,0.522h0.157L122.945,83.418z M122.571,81.813
		l-0.043-0.524h-0.166l0.051,0.524H122.571z M122.649,81.986l-0.095-0.087l-0.226,0.22l0.086,0.104L122.649,81.986z M128.164,83.132
		l-0.122,0.924c0-0.133-0.049-0.2-0.148-0.2c0.081,0.388-0.462,0.913-1.628,1.576c0-0.019,0.013-0.084,0.039-0.196
		c0.028-0.114,0.039-0.206,0.039-0.275c-0.045,0-0.128-0.055-0.243-0.165c-0.03,0.027-0.032,0.106-0.01,0.234
		c0.035,0.206,0.052,0.397,0.052,0.577c-0.678,0.262-1.295,0.393-1.847,0.393c-0.795,0-1.428-0.222-1.894-0.668
		c-0.468-0.444-0.701-1.045-0.701-1.81c0-0.093,0-0.185,0.007-0.278c0.053-0.064,0.104-0.126,0.158-0.186
		c0.063-0.08,0.131-0.115,0.2-0.103c0,0.203,0.055,0.384,0.166,0.54h0.06c-0.053-0.135-0.09-0.452-0.113-0.952
		c-0.017-0.411-0.085-0.663-0.202-0.758c0.047-0.048,0.099-0.115,0.157-0.207c-0.019-0.204,0.002-0.484,0.06-0.838
		c0.394-0.756,0.938-1.359,1.63-1.806c0.649-0.42,1.299-0.627,1.95-0.627c1.172,0,1.759,0.51,1.759,1.527
		c0,0.627-0.292,1.154-0.88,1.578c-0.279,0.205-0.966,0.555-2.063,1.057v-0.523c0.261-0.133,0.548-0.402,0.86-0.811
		c0.338-0.441,0.504-0.813,0.504-1.116c0-0.185-0.048-0.389-0.148-0.612c-0.139-0.301-0.32-0.451-0.54-0.451
		c-0.331,0-0.672,0.242-1.028,0.723c-0.324,0.436-0.505,0.813-0.54,1.133c-0.029-0.103-0.014-0.156,0.044-0.156l-0.142-0.122
		c-0.091,0.385-0.186,0.787-0.285,1.203c-0.04-0.175-0.024-0.343,0.049-0.506l-0.139-0.139c-0.064,0.087-0.117,0.214-0.166,0.384
		c-0.046,0.17-0.102,0.3-0.166,0.393c0.133-0.013,0.333,0.007,0.6,0.052c0.042-0.041,0.084-0.147,0.122-0.321v0.54
		c0.03,0.036,0.056,0.07,0.079,0.105c0.023,0.035,0.083,0.053,0.174,0.053c0.059,0,0.088-0.016,0.088-0.045
		c0-0.013-0.006-0.028-0.018-0.054c-0.013-0.021-0.017-0.04-0.017-0.052c0.006-0.025,0.036-0.043,0.087-0.043
		c0.092,0,0.2,0.063,0.323,0.192c0.034-0.034,0.055-0.098,0.058-0.187c0.006-0.091,0.024-0.151,0.054-0.18
		c0.022,0.478-0.105,0.752-0.385,0.829c-0.097,0-0.194-0.094-0.285-0.28c-0.087,0.085-0.131,0.226-0.131,0.418
		c0,0.296,0.155,0.635,0.469,1.014c0.277,0.347,0.511,0.543,0.695,0.583c0.163,0.035,0.328,0.068,0.496,0.096
		c0.256,0.058,0.398,0.128,0.428,0.21c0.14-0.142,0.228-0.21,0.261-0.21c0.029,0,0.057,0.008,0.086,0.026l0.21-0.192
		c-0.006,0.069,0.02,0.133,0.078,0.192C126.488,84.414,127.083,83.921,128.164,83.132 M121.908,81.752l-0.19,0.94h-0.141l0.192-0.94
		H121.908z"/>
	<path fill="#FFFFFF" d="M133.371,79.973c-0.03,0-0.104,0.018-0.221,0.051c-0.12,0.031-0.193,0.049-0.221,0.049
		c0.028,0.028,0.083,0.053,0.166,0.071c0.081,0.021,0.135,0.048,0.167,0.077C133.258,80.166,133.295,80.084,133.371,79.973
		 M133.039,85.536h-0.155v-0.333h0.155V85.536z M133.282,80.601c-0.161-0.243-0.31-0.366-0.445-0.366v0.349
		C133.168,80.583,133.317,80.59,133.282,80.601 M133.03,79.19l-0.228,0.234l-0.084-0.106l0.217-0.216L133.03,79.19z M133.282,83.12
		c-0.004,0.007-0.011,0.015-0.017,0.017c-0.173,0-0.408,0.003-0.705,0.011c0.04-0.168,0.09-0.253,0.147-0.253
		c0.07,0.069,0.18,0.12,0.323,0.148C133.175,83.072,133.26,83.097,133.282,83.12 M132.849,81.396l-0.096-0.091l-0.316,0.317
		l0.088,0.094L132.849,81.396z M132.49,79.52l-0.122,0.081l-0.217-0.323l0.119-0.086L132.49,79.52z M132.307,83.295l-0.132-0.043
		l-0.112,0.234l0.123,0.053L132.307,83.295z M132.247,79.939c-0.197,0-0.392,0.093-0.584,0.279
		c-0.022-0.146,0.118-0.354,0.418-0.618c-0.07,0.062-0.05,0.15,0.059,0.263c0.053-0.059,0.088-0.139,0.107-0.239V79.939z
		 M131.986,84.944h-0.339v-0.159h0.339V84.944z M136.184,82.885c0.021,0.086,0.034,0.177,0.034,0.27
		c0,0.583-0.434,1.205-1.306,1.864c-0.778,0.601-1.354,0.894-1.725,0.882h-0.269c0.035-0.008,0.093-0.044,0.181-0.112
		c-0.104-0.019-0.243-0.098-0.416-0.236c-0.036,0.035-0.053,0.121-0.053,0.26c-0.109,0-0.244-0.037-0.401-0.112
		c-0.238-0.112-0.374-0.168-0.411-0.176c0.11-0.198,0.124-0.371,0.037-0.523c-0.03,0.032-0.059,0.076-0.09,0.136
		c-0.034,0.061-0.063,0.106-0.093,0.136c-0.039-0.146-0.051-0.328-0.035-0.551c0.032-0.342,0.045-0.523,0.045-0.549
		c-0.012,0.191,0.02,0.346,0.097,0.463c0.138-0.139,0.168-0.247,0.086-0.321l0.184,0.14c0.19-0.193,0.331-0.419,0.419-0.682
		l-0.166-0.157c-0.122,0-0.131,0.055-0.027,0.167c-0.272,0-0.418,0.005-0.435,0.017c0.006-0.017,0.009-0.033,0.009-0.05
		c0-0.021-0.003-0.062-0.014-0.121c-0.009-0.059-0.014-0.105-0.014-0.141c0-0.157,0.092-0.281,0.271-0.374
		c-0.159-0.157-0.245-0.236-0.262-0.236c0-0.029,0.017-0.086,0.048-0.169c0.034-0.084,0.05-0.144,0.05-0.171
		c-0.024,0,0.04,0.013,0.19,0.033c0.1,0.018,0.185,0.011,0.263-0.024c0-0.112-0.017-0.18-0.044-0.207
		c-0.071,0.035-0.106,0.08-0.106,0.138c0-0.017-0.023-0.077-0.069-0.179c-0.045-0.102-0.068-0.198-0.068-0.285
		c0-0.061,0.112-0.361,0.338-0.896c0.24-0.564,0.371-0.943,0.402-1.143c0.063-0.086,0.187-0.205,0.365-0.355
		c-0.104-0.098-0.191-0.114-0.262-0.045c0.019-0.057,0.065-0.145,0.14-0.263c0,0.071,0.056,0.16,0.167,0.274
		c0.033-0.023,0.064-0.047,0.093-0.063c0.03-0.018,0.045-0.07,0.045-0.166c0-0.191-0.045-0.331-0.13-0.42
		c-0.042,0.123-0.075,0.186-0.096,0.186c-0.082,0-0.131-0.031-0.151-0.091c-0.02-0.062-0.061-0.094-0.118-0.094l-0.218,0.13
		l-0.279,0.141c0-0.028,0.016-0.086,0.048-0.175c0.031-0.085,0.05-0.147,0.05-0.183c-0.008,0.057,0.062,0.086,0.207,0.086
		c0.074,0,0.144-0.024,0.208-0.078c0.1-0.09,0.167-0.142,0.201-0.156c-0.099-0.099-0.189-0.105-0.278-0.018
		c0.511-0.262,0.893-0.392,1.149-0.392c0.709,0,1.062,0.415,1.062,1.247c0,0.075-0.216,0.809-0.646,2.202
		c-0.428,1.392-0.644,2.128-0.644,2.207c0,0.396,0.14,0.592,0.42,0.592c0.25,0,0.642-0.24,1.176-0.722
		C135.821,83.383,136.103,83.072,136.184,82.885 M131.759,83.451h-0.157v0.253h0.157V83.451z M131.577,79.781l-0.096,0.612h-0.156
		l0.095-0.612H131.577z M131.236,80.044c0.021,0.088,0.035,0.179,0.035,0.269c0,0.279-0.151,0.597-0.453,0.953
		c-0.453,0.521-0.698,0.814-0.732,0.87c-0.242,0.406-0.393,0.973-0.452,1.7c-0.018,0.213-0.026,0.75-0.026,1.604
		c-0.134,0.05-0.801,0.207-2.003,0.47v-3.332c-0.006-0.284,0.191-0.966,0.592-2.048c0.325-0.891,0.565-1.498,0.723-1.821
		c0.793-0.163,1.481-0.33,2.055-0.499c-0.236,0.697-0.484,1.472-0.73,2.32v0.341C130.575,80.651,130.906,80.375,131.236,80.044"/>
	<path fill="#FFFFFF" d="M138.2,80.821h-0.173v0.363h0.173V80.821z M141.101,80.364c0-0.819-0.274-1.227-0.827-1.227
		c-0.491,0-0.93,0.338-1.315,1.021c-0.249,0.513-0.5,1.024-0.749,1.533c-0.058-0.063-0.065-0.121-0.026-0.174
		c-0.168-0.051-0.365-0.129-0.59-0.234c0.046,0.047,0.046,0.093,0,0.148c-0.042,0.047-0.088,0.069-0.139,0.069
		c-0.071-0.069-0.105-0.169-0.105-0.297c-0.141,0.274-0.21,0.42-0.21,0.437c0-0.057,0.029-0.108,0.088-0.15
		c-0.014,0.148-0.07,0.284-0.172,0.414c-0.109,0.133-0.159,0.191-0.159,0.181c0,0.099,0.081,0.213,0.243,0.341
		c0.198,0.15,0.3,0.231,0.303,0.244c0-0.197-0.084-0.407-0.258-0.626c0.229-0.118,0.51-0.302,0.834-0.553
		c0.099,0.204,0.136,0.386,0.114,0.535c-0.097,0.627-0.15,1.028-0.15,1.21c0,0.804,0.255,1.204,0.767,1.204
		c0.652,0,1.23-0.602,1.74-1.813C140.897,81.658,141.101,80.907,141.101,80.364 M137.111,83.583l-0.104,0.096l-0.339-0.34
		l0.105-0.105L137.111,83.583z M136.875,84.57h-0.259v-0.167h0.259V84.57z M136.729,84.227h-0.166v-0.364h0.166V84.227z
		 M144.898,83.068c0-0.011,0.017,0.124,0.044,0.409c0.022,0.198,0.003,0.346-0.06,0.446c-0.379,0.569-0.957,1.12-1.743,1.657
		c-0.414,0.286-0.83,0.426-1.255,0.426c-0.441,0-0.769-0.301-0.985-0.907c-0.114-0.417-0.229-0.838-0.34-1.256
		c-0.736,0.879-1.332,1.468-1.786,1.763c0-0.051-0.02-0.092-0.059-0.121c-0.047-0.03-0.091-0.018-0.131,0.025
		c0.075-0.204,0.049-0.561-0.079-1.07c-0.034,0.138-0.052,0.586-0.052,1.341c-0.118,0.152-0.299,0.222-0.549,0.218h-0.706
		c0-0.204-0.026-0.334-0.079-0.393c-0.103,0-0.158,0.1-0.158,0.297c-0.232-0.232-0.348-0.355-0.348-0.374
		c0.196,0,0.32-0.027,0.375-0.079c0-0.029-0.056-0.104-0.167-0.223c-0.111-0.12-0.185-0.21-0.219-0.276
		c0.173,0,0.287,0.024,0.337,0.069c0.064-0.039,0.108-0.155,0.124-0.349c0.011-0.22,0.052-0.38,0.121-0.479
		c-0.047-0.042-0.174-0.062-0.385-0.062c0-0.163,0.03-0.273,0.088-0.332c-0.227-0.172-0.387-0.259-0.479-0.259
		c0-0.199,0.134-0.507,0.398-0.924c-0.061-0.267-0.038-0.402,0.081-0.402c-0.048-0.044-0.1-0.057-0.157-0.043
		c-0.058,0.019-0.087,0.053-0.087,0.105c0.029-0.233,0.029-0.38,0-0.438c0,0.02,0.038,0.068,0.105,0.148
		c0.22-0.115,0.333-0.28,0.333-0.497c0-0.383-0.051-0.677-0.15-0.879c-0.086,0.132-0.132,0.263-0.132,0.385
		c0,0.092,0.021,0.189,0.062,0.295c-0.035-0.046-0.158-0.12-0.367-0.226c0.692-0.952,1.27-1.599,1.735-1.943
		c0.517-0.378,1.126-0.567,1.836-0.567c0.361,0,0.575,0.01,0.646,0.027c0.156,0.045,0.362,0.199,0.62,0.461
		c0.281-0.955,0.701-2.682,1.253-5.189c0.082,0,0.232-0.034,0.457-0.104c0.224-0.07,0.374-0.104,0.453-0.104s0.18-0.018,0.299-0.051
		c0.123-0.032,0.221-0.047,0.296-0.047c0.396,0,0.641,0.044,0.733,0.13l-2.159,9.835c0,0.615,0.165,0.922,0.494,0.922
		C143.484,84.438,144.062,83.982,144.898,83.068 M136.267,85.223c-0.366-0.62-0.548-1.125-0.548-1.517
		c0-0.098,0.184-0.869,0.548-2.309V85.223z"/>
	<path fill="#FFFFFF" d="M149.393,74.664c-0.157-0.134-0.31-0.202-0.464-0.202c-0.499,0.855-0.905,1.834-1.218,2.938
		c-0.175,0.623-0.389,1.599-0.645,2.932c1.562-1.889,2.341-3.637,2.341-5.24C149.41,74.946,149.404,74.805,149.393,74.664
		 M147.144,80.636l-0.052-0.14l-0.225,0.12v0.149L147.144,80.636z M146.597,81.403l-0.114-0.462h-0.174l0.116,0.462H146.597z
		 M146.196,81.266l-0.141-0.054l-0.131,0.254l0.139,0.059L146.196,81.266z M150.238,82.894c0.043,0.548,0.043,0.864,0,0.95
		c-0.163,0.281-0.655,0.691-1.473,1.23c-0.847,0.57-1.443,0.851-1.786,0.845h-0.907c-0.034-0.633-0.111-1.65-0.234-3.05
		c-0.11-1.274-0.166-1.936-0.166-1.99c0-0.137,0.009-0.429,0.028-0.861c0.056-0.042,0.117-0.082,0.182-0.119
		c0.098-0.089,0.135-0.204,0.114-0.345c-0.018,0.02-0.075,0.059-0.175,0.124c-0.069,0.046-0.103,0.088-0.103,0.121
		c0-0.098-0.023-0.316-0.071-0.654c-0.046-0.338-0.07-0.542-0.07-0.618c0-0.43,0.217-1.158,0.646-2.179
		c0.14-0.368,0.276-0.731,0.409-1.092c0.179-0.441,0.391-0.76,0.631-0.955c0.24-0.193,0.655-0.388,1.25-0.581
		c0.512-0.167,0.854-0.251,1.028-0.251c0.358,0,0.54,0.491,0.54,1.473c0,0.796-0.199,1.686-0.592,2.668
		c-0.371,0.921-0.852,1.766-1.43,2.53c0-0.138-0.049-0.209-0.147-0.209c0,0.146-0.083,0.381-0.244,0.705
		c0-0.131-0.056-0.201-0.165-0.201c-0.069,0.064-0.106,0.152-0.106,0.262c0,0.198-0.004,0.3-0.01,0.307
		c-0.151,0.134-0.354,0.362-0.618,0.688c-0.209,0.372-0.315,0.788-0.315,1.247c0,0.146,0.119,0.437,0.355,0.868
		c0.239,0.433,0.404,0.68,0.497,0.735c0.133,0.077,0.274,0.116,0.419,0.116c0.272,0,0.715-0.218,1.326-0.653
		C149.64,83.578,150.035,83.207,150.238,82.894 M145.177,82.432c-0.04,0-0.09,0.038-0.148,0.113
		c-0.083,0.124-0.128,0.189-0.139,0.199c0.058,0.059,0.148,0.106,0.27,0.144C145.159,82.595,145.166,82.443,145.177,82.432
		 M145.856,85.825c-0.489-0.141-0.857-0.567-1.106-1.285c-0.168-0.504-0.254-1.022-0.254-1.551c0-0.42,0.129-1.185,0.386-2.302
		c0.15-0.638,0.302-1.278,0.451-1.919c0,0.164,0.019,0.426,0.056,0.782c0.038,0.356,0.056,0.621,0.056,0.789
		c-0.098-0.097-0.187-0.11-0.269-0.035c0,0.243-0.006,0.312-0.017,0.202c0.011,0.087,0.066,0.131,0.166,0.131
		s0.154-0.018,0.174-0.044c0.018-0.028,0.036-0.047,0.06-0.047c0,0.623,0.049,1.597,0.148,2.913c0.1,1.262,0.15,1.899,0.15,1.919
		L145.856,85.825L145.856,85.825L145.856,85.825z"/>
	<path fill="#FFFFFF" d="M155.347,83.364l-0.139-0.052l-0.131,0.262l0.14,0.06L155.347,83.364z M155.163,84.29
		c0-0.028,0.014,0.082,0.035,0.332c0.014,0.132,0,0.24-0.043,0.322c0-0.141-0.035-0.212-0.106-0.212
		c-0.017,0-0.035,0.011-0.051,0.028C155.108,84.663,155.163,84.504,155.163,84.29 M152.612,78.866h-0.173v0.28h0.173V78.866z
		 M152.308,81.176h-0.177v-0.279h0.177V81.176z M152.308,80.766h-0.177v-0.372h0.177V80.766z M152.308,80.061h-0.177v-0.28h0.177
		V80.061z M152.446,81.194c0,0.034-0.016,0.1-0.043,0.197c-0.03,0.095-0.042,0.157-0.042,0.188h-0.366v-0.385
		c0.051,0.054,0.128,0.08,0.228,0.08C152.319,81.271,152.395,81.247,152.446,81.194 M152.263,81.82c-0.062,0-0.15-0.036-0.27-0.111
		c0,0.023,0.019,0.12,0.052,0.297c0.023,0.099,0.013,0.166-0.023,0.201l-0.228-0.201c0,0.817,0.003,1.155,0.018,1.01
		c-0.018-0.152,0.029-0.346,0.14-0.584C152.056,82.229,152.159,82.025,152.263,81.82 M152.979,85.081
		c-0.023,0.019-0.189,0.158-0.496,0.42c-0.21,0.175-0.362,0.261-0.459,0.261c-0.096,0-0.175,0.016-0.239,0.04
		c-0.063,0.026-0.117,0.04-0.166,0.04c0.052-0.084,0.119-0.276,0.192-0.584c0.027,0.059,0.071,0.124,0.13,0.199
		c0.094,0,0.139-0.084,0.139-0.253c0.069-0.004,0.224-0.026,0.462-0.069C152.74,85.098,152.886,85.081,152.979,85.081
		 M159.043,83.024c0.003,0.053,0.007,0.108,0.007,0.166c0,0.62-0.455,1.213-1.365,1.77c-0.716,0.395-1.43,0.791-2.144,1.187
		c-0.188,0.854-0.605,1.705-1.264,2.554c-0.784,1.007-1.613,1.545-2.49,1.614c0-0.023,0.018-0.095,0.051-0.215
		c0.029-0.118,0.045-0.217,0.045-0.292c-0.208,0-0.312-0.018-0.312-0.059c0.01-0.086,0.096-0.132,0.252-0.132
		c0.084,0,0.127,0.021,0.131,0.064c0.007,0.043,0.014,0.086,0.019,0.126c0.006,0.015,0.017,0.018,0.036,0.018
		c0.01-0.012,0.017-0.094,0.017-0.253c0,0.035,0.041,0.062,0.126,0.08c0.084,0.018,0.144,0.041,0.179,0.069
		c0.048-0.045,0.048-0.094,0-0.149c-0.04-0.051-0.089-0.079-0.148-0.079c0.051-0.074,0.257-0.469,0.619-1.185
		c0.26-0.513,0.494-0.833,0.697-0.968c-0.145-0.059-0.225-0.101-0.235-0.119c-0.007-0.02,0.004-0.112,0.033-0.28
		c-0.04-0.033-0.146-0.048-0.323-0.033c-0.371,0.027-0.704,0.042-0.999,0.042c0.4-0.208,0.934-0.567,1.602-1.071
		c0.074-0.083,0.15-0.278,0.218-0.584c0.081-0.35,0.152-0.587,0.219-0.716v-0.261c-0.12-0.008-0.242,0.104-0.358,0.33l-0.208-0.21
		c-0.051,0.052-0.07,0.121-0.051,0.21c0.018,0.093,0.051,0.137,0.104,0.137c-0.011,0.112-0.096,0.167-0.252,0.167
		c-0.101,0-0.211-0.041-0.337-0.12c-0.124-0.084-0.199-0.122-0.219-0.122c0.94-0.784,1.617-1.749,2.036-2.894
		c0.273-0.772,0.548-1.544,0.818-2.311c0.366-0.627,1.059-0.941,2.073-0.941h0.436l-2.134,6.242v0.356
		C156.808,84.951,157.851,84.241,159.043,83.024 M153.589,78.562c-0.158,0.377-0.438,1.051-0.847,2.021
		c-0.104-0.104-0.222-0.111-0.355-0.018c0.053-0.128,0.104-0.254,0.155-0.383c0.088-0.198,0.2-0.32,0.341-0.376
		c-0.014-0.048-0.062-0.129-0.149-0.243c-0.062,0.069-0.096,0.134-0.096,0.2c-0.044-0.133-0.083-0.2-0.112-0.2
		c-0.062,0-0.115-0.034-0.152-0.101c-0.038-0.066-0.088-0.1-0.15-0.1c-0.15-0.029-0.228-0.04-0.228-0.025
		c0.058,0.103,0.087,0.182,0.087,0.227c0,0.062-0.024,0.13-0.069,0.2c-0.018-0.048-0.1-0.172-0.252-0.376
		c-0.125-0.176-0.191-0.302-0.191-0.384c0-0.11,0.216-0.219,0.645-0.323c0.378-0.086,0.655-0.126,0.837-0.12H153.589L153.589,78.562
		z M151.697,90.313h-0.174v-0.271h0.174V90.313z M151.445,90.322c-0.668-0.232-1.002-0.654-1.002-1.264
		c0-0.279,0.091-0.586,0.269-0.922c0.192-0.362,0.434-0.645,0.725-0.847c-0.009,0.308-0.069,0.657-0.195,1.051
		c-0.128,0.393-0.188,0.65-0.188,0.771c0,0.261,0.131,0.437,0.392,0.531V90.322L151.445,90.322z M151.334,85.85h-0.753
		c-0.561-0.353-0.843-1.06-0.843-2.118c0-0.716,0.171-1.514,0.513-2.398c0.361-0.824,0.722-1.65,1.083-2.475V85.85L151.334,85.85z"
		/>
	<path fill="#FFFFFF" d="M165.089,80.821h-0.173v0.363h0.173V80.821z M167.988,80.364c0-0.819-0.275-1.227-0.827-1.227
		c-0.493,0-0.929,0.338-1.313,1.021c-0.251,0.513-0.502,1.024-0.749,1.533c-0.059-0.063-0.067-0.121-0.028-0.174
		c-0.168-0.051-0.364-0.129-0.591-0.234c0.046,0.047,0.046,0.093,0,0.148c-0.04,0.047-0.089,0.069-0.139,0.069
		c-0.068-0.069-0.104-0.169-0.104-0.297c-0.142,0.274-0.212,0.42-0.212,0.437c0-0.057,0.028-0.108,0.088-0.15
		c-0.011,0.148-0.068,0.284-0.172,0.414c-0.106,0.133-0.157,0.191-0.157,0.181c0,0.099,0.084,0.213,0.241,0.341
		c0.197,0.15,0.3,0.231,0.305,0.244c0-0.197-0.084-0.407-0.258-0.626c0.231-0.118,0.51-0.302,0.835-0.553
		c0.099,0.204,0.138,0.386,0.114,0.535c-0.099,0.627-0.147,1.028-0.147,1.21c0,0.804,0.254,1.204,0.765,1.204
		c0.653,0,1.231-0.602,1.74-1.813C167.786,81.658,167.988,80.907,167.988,80.364 M163.999,83.583l-0.104,0.096l-0.341-0.34
		l0.105-0.105L163.999,83.583z M163.765,84.57h-0.263v-0.167h0.263V84.57z M163.617,84.227h-0.166v-0.364h0.166V84.227z
		 M171.787,83.068c0-0.011,0.017,0.124,0.047,0.409c0.02,0.198,0.001,0.346-0.062,0.446c-0.378,0.569-0.958,1.12-1.742,1.657
		c-0.413,0.286-0.83,0.426-1.253,0.426c-0.442,0-0.771-0.301-0.989-0.907c-0.112-0.417-0.226-0.838-0.338-1.256
		c-0.735,0.879-1.332,1.468-1.787,1.763c0-0.051-0.019-0.092-0.059-0.121c-0.048-0.03-0.09-0.018-0.13,0.025
		c0.077-0.204,0.05-0.561-0.081-1.07c-0.033,0.138-0.049,0.586-0.049,1.341c-0.118,0.152-0.299,0.222-0.55,0.218h-0.707
		c0-0.204-0.025-0.334-0.076-0.393c-0.104,0-0.159,0.1-0.159,0.297c-0.231-0.232-0.349-0.355-0.349-0.374
		c0.198,0,0.322-0.027,0.376-0.079c0-0.029-0.056-0.104-0.166-0.223c-0.112-0.12-0.184-0.21-0.219-0.276
		c0.173,0,0.286,0.024,0.34,0.069c0.064-0.039,0.106-0.155,0.122-0.349c0.012-0.22,0.053-0.38,0.121-0.479
		c-0.049-0.042-0.172-0.062-0.386-0.062c0-0.163,0.028-0.273,0.088-0.332c-0.228-0.172-0.387-0.259-0.478-0.259
		c0-0.199,0.131-0.507,0.397-0.924c-0.063-0.267-0.038-0.402,0.08-0.402c-0.046-0.044-0.098-0.057-0.156-0.043
		c-0.058,0.019-0.089,0.053-0.089,0.105c0.031-0.233,0.031-0.38,0-0.438c0,0.02,0.037,0.068,0.108,0.148
		c0.219-0.115,0.331-0.28,0.331-0.497c0-0.383-0.052-0.677-0.15-0.879c-0.085,0.132-0.132,0.263-0.132,0.385
		c0,0.092,0.021,0.189,0.062,0.295c-0.035-0.046-0.155-0.12-0.365-0.226c0.69-0.952,1.269-1.599,1.733-1.943
		c0.517-0.378,1.128-0.567,1.838-0.567c0.359,0,0.574,0.01,0.645,0.027c0.155,0.045,0.364,0.199,0.618,0.461
		c0.285-0.955,0.705-2.682,1.257-5.189c0.08,0,0.23-0.034,0.455-0.104c0.224-0.07,0.374-0.104,0.453-0.104
		c0.078,0,0.178-0.018,0.301-0.051c0.122-0.032,0.219-0.047,0.294-0.047c0.396,0,0.64,0.044,0.732,0.13l-2.16,9.835
		c0,0.615,0.165,0.922,0.496,0.922C170.373,84.438,170.949,83.982,171.787,83.068 M163.155,85.223
		c-0.364-0.62-0.549-1.125-0.549-1.517c0-0.098,0.185-0.869,0.549-2.309V85.223z"/>
	<path fill="#FFFFFF" d="M174.251,79.653c-0.036,0-0.115-0.014-0.232-0.041c-0.118-0.026-0.192-0.04-0.223-0.04l0.34,0.331
		C174.136,79.852,174.174,79.768,174.251,79.653 M175.276,75.909c0,0.218-0.103,0.439-0.316,0.673
		c-0.213,0.232-0.433,0.349-0.667,0.349h-0.286c-0.517-0.278-0.774-0.618-0.774-1.021c0-0.238,0.108-0.466,0.326-0.69
		c0.216-0.224,0.45-0.338,0.7-0.338c0.253,0,0.493,0.133,0.715,0.395C175.176,75.515,175.276,75.725,175.276,75.909 M173.518,79.206
		l-0.644-0.25v0.127l0.59,0.254L173.518,79.206z M175.713,82.989c0.019,0.075,0.026,0.154,0.026,0.235
		c0,0.502-0.391,1.083-1.168,1.744c-0.467,0.395-0.784,0.652-0.957,0.766c-0.331,0.216-0.646,0.322-0.939,0.322
		c-0.873,0-1.306-0.743-1.306-2.234c0-1.422,0.245-2.4,0.747-2.93c-0.058-0.046-0.117-0.069-0.182-0.069v-0.296
		c-0.008-0.062,0.071-0.284,0.233-0.661c0.186-0.424,0.354-0.673,0.507-0.75c-0.037-0.064-0.085-0.096-0.141-0.096
		c0.115,0,0.174-0.106,0.174-0.322c0.007,0.03,0.042,0.091,0.104,0.186c0.007,0,0.014-0.007,0.017-0.019
		c0.009-0.012,0.009-0.048,0-0.114c-0.003-0.034,0.033-0.051,0.117-0.051c0.082,0,0.352-0.048,0.809-0.14
		c0.547-0.117,0.914-0.189,1.098-0.218c-0.07,0.167-0.145,0.482-0.228,0.941c-0.046,0.273-0.168,0.466-0.364,0.578
		c0.058,0.045,0.116,0.068,0.175,0.068c-0.681,2.033-1.019,3.175-1.019,3.423c0,0.28,0.203,0.623,0.607,1.032
		C174.591,84.014,175.156,83.548,175.713,82.989"/>
	<path fill="#FFFFFF" d="M180.937,79.973c-0.028,0-0.103,0.018-0.222,0.051c-0.119,0.031-0.194,0.049-0.221,0.049
		c0.026,0.028,0.084,0.053,0.164,0.071c0.084,0.021,0.138,0.048,0.165,0.077C180.823,80.166,180.859,80.084,180.937,79.973
		 M180.605,85.536h-0.157v-0.333h0.157V85.536z M180.85,80.601c-0.163-0.243-0.312-0.366-0.445-0.366v0.349
		C180.735,80.583,180.883,80.59,180.85,80.601 M180.597,79.19l-0.226,0.234l-0.088-0.106l0.219-0.216L180.597,79.19z M180.85,83.12
		c-0.006,0.007-0.013,0.015-0.019,0.017c-0.175,0-0.411,0.003-0.704,0.011c0.041-0.168,0.087-0.253,0.147-0.253
		c0.07,0.069,0.178,0.12,0.322,0.148C180.742,83.072,180.823,83.097,180.85,83.12 M180.413,81.396l-0.095-0.091l-0.312,0.317
		l0.084,0.094L180.413,81.396z M180.056,79.52l-0.121,0.081l-0.218-0.323l0.122-0.086L180.056,79.52z M179.874,83.295l-0.131-0.043
		l-0.112,0.234l0.12,0.053L179.874,83.295z M179.812,79.939c-0.196,0-0.389,0.093-0.582,0.279c-0.021-0.146,0.117-0.354,0.418-0.618
		c-0.069,0.062-0.05,0.15,0.062,0.263c0.053-0.059,0.086-0.139,0.103-0.239V79.939z M179.553,84.944h-0.342v-0.159h0.342V84.944z
		 M183.749,82.885c0.024,0.086,0.034,0.177,0.034,0.27c0,0.583-0.435,1.205-1.306,1.864c-0.778,0.601-1.354,0.894-1.725,0.882
		h-0.271c0.035-0.008,0.096-0.044,0.186-0.112c-0.106-0.019-0.247-0.098-0.421-0.236c-0.034,0.035-0.051,0.121-0.051,0.26
		c-0.111,0-0.244-0.037-0.401-0.112c-0.236-0.112-0.374-0.168-0.41-0.176c0.112-0.198,0.121-0.371,0.036-0.523
		c-0.028,0.032-0.057,0.076-0.092,0.136c-0.033,0.061-0.062,0.106-0.092,0.136c-0.039-0.146-0.052-0.328-0.036-0.551
		c0.03-0.342,0.046-0.523,0.046-0.549c-0.011,0.191,0.02,0.346,0.097,0.463c0.138-0.139,0.168-0.247,0.085-0.321l0.184,0.14
		c0.193-0.193,0.331-0.419,0.421-0.682l-0.167-0.157c-0.124,0-0.131,0.055-0.026,0.167c-0.273,0-0.418,0.005-0.434,0.017
		c0.005-0.017,0.008-0.033,0.008-0.05c0-0.021-0.004-0.062-0.013-0.121c-0.011-0.059-0.017-0.105-0.017-0.141
		c0-0.157,0.092-0.281,0.271-0.374c-0.155-0.157-0.244-0.236-0.26-0.236c0-0.029,0.017-0.086,0.048-0.169
		c0.033-0.084,0.052-0.144,0.052-0.171c-0.025,0,0.041,0.013,0.187,0.033c0.1,0.018,0.186,0.011,0.263-0.024
		c0-0.112-0.017-0.18-0.043-0.207c-0.072,0.035-0.106,0.08-0.106,0.138c0-0.017-0.021-0.077-0.069-0.179
		c-0.047-0.102-0.07-0.198-0.07-0.285c0-0.061,0.115-0.361,0.341-0.896c0.24-0.564,0.373-0.943,0.401-1.143
		c0.06-0.086,0.185-0.205,0.365-0.355c-0.105-0.098-0.193-0.114-0.261-0.045c0.018-0.057,0.064-0.145,0.14-0.263
		c0,0.071,0.055,0.16,0.166,0.274c0.034-0.023,0.065-0.047,0.094-0.063c0.027-0.018,0.044-0.07,0.044-0.166
		c0-0.191-0.044-0.331-0.13-0.42c-0.041,0.123-0.072,0.186-0.097,0.186c-0.079,0-0.131-0.031-0.15-0.091
		c-0.021-0.062-0.06-0.094-0.119-0.094l-0.216,0.13l-0.281,0.141c0-0.028,0.019-0.086,0.049-0.175
		c0.032-0.085,0.05-0.147,0.05-0.183c-0.006,0.057,0.062,0.086,0.208,0.086c0.075,0,0.146-0.024,0.211-0.078
		c0.099-0.09,0.165-0.142,0.2-0.156c-0.099-0.099-0.19-0.105-0.281-0.018c0.514-0.262,0.896-0.392,1.15-0.392
		c0.71,0,1.062,0.415,1.062,1.247c0,0.075-0.213,0.809-0.646,2.202c-0.427,1.392-0.644,2.128-0.644,2.207
		c0,0.396,0.14,0.592,0.42,0.592c0.25,0,0.642-0.24,1.174-0.722C183.387,83.383,183.669,83.072,183.749,82.885 M179.325,83.451
		h-0.158v0.253h0.158V83.451z M179.141,79.781l-0.093,0.612h-0.156l0.096-0.612H179.141z M178.802,80.044
		c0.024,0.088,0.035,0.179,0.035,0.269c0,0.279-0.151,0.597-0.452,0.953c-0.455,0.521-0.698,0.814-0.731,0.87
		c-0.243,0.406-0.396,0.973-0.455,1.7c-0.017,0.213-0.024,0.75-0.024,1.604c-0.133,0.05-0.8,0.207-2,0.47v-3.332
		c-0.007-0.284,0.188-0.966,0.591-2.048c0.322-0.891,0.567-1.498,0.722-1.821c0.797-0.163,1.48-0.33,2.057-0.499
		c-0.239,0.697-0.481,1.472-0.73,2.32v0.341C178.139,80.651,178.471,80.375,178.802,80.044"/>
	<path fill="#FFFFFF" d="M187.834,81.062l-0.098-0.093l-0.225,0.223l0.086,0.096L187.834,81.062z M187.562,85.081h-0.156v0.341
		h0.156V85.081z M186.917,81.901l-0.121-0.271l-0.13,0.053l0.112,0.219H186.917z M186.543,85.144l-0.113-0.271l-0.131,0.053
		l0.114,0.219H186.543L186.543,85.144z M185.523,80.2l-0.13-0.051l-0.113,0.243l0.132,0.051L185.523,80.2z M185.158,80.358h-0.154
		v0.339h0.154V80.358z M185.185,82.015c-0.175,0.279-0.303,0.619-0.394,1.02c-0.057-0.052-0.085-0.142-0.085-0.269
		c0-0.316,0.08-0.559,0.236-0.732h-0.356v1.081c0.103,0,0.168,0.052,0.19,0.156c-0.093,0.492-0.192,1.189-0.303,2.082
		c0.049-0.226,0.196-0.589,0.434-1.089c-0.048-0.129-0.068-0.271-0.068-0.427c0-0.209,0.053-0.515,0.165-0.916
		C185.112,82.498,185.174,82.193,185.185,82.015 M184.609,83.418h-0.165l-0.097,0.522h0.159L184.609,83.418z M184.233,81.813
		l-0.043-0.524h-0.165l0.052,0.524H184.233z M184.313,81.986l-0.096-0.087l-0.224,0.22l0.086,0.104L184.313,81.986z M189.827,83.132
		l-0.121,0.924c0-0.133-0.051-0.2-0.15-0.2c0.083,0.388-0.462,0.913-1.626,1.576c0-0.019,0.013-0.084,0.037-0.196
		c0.026-0.114,0.04-0.206,0.04-0.275c-0.046,0-0.129-0.055-0.245-0.165c-0.027,0.027-0.031,0.106-0.007,0.234
		c0.035,0.206,0.051,0.397,0.051,0.577c-0.679,0.262-1.295,0.393-1.847,0.393c-0.798,0-1.429-0.222-1.895-0.668
		c-0.467-0.444-0.7-1.045-0.7-1.81c0-0.093,0-0.185,0.008-0.278c0.052-0.064,0.103-0.126,0.157-0.186
		c0.063-0.08,0.131-0.115,0.2-0.103c0,0.203,0.055,0.384,0.167,0.54h0.06c-0.054-0.135-0.092-0.452-0.114-0.952
		c-0.016-0.411-0.084-0.663-0.2-0.758c0.046-0.048,0.099-0.115,0.156-0.207c-0.019-0.204,0.002-0.484,0.062-0.838
		c0.392-0.756,0.935-1.359,1.628-1.806c0.649-0.42,1.3-0.627,1.952-0.627c1.172,0,1.762,0.51,1.762,1.527
		c0,0.627-0.295,1.154-0.883,1.578c-0.279,0.205-0.964,0.555-2.064,1.057v-0.523c0.261-0.133,0.548-0.402,0.86-0.811
		c0.34-0.441,0.508-0.813,0.508-1.116c0-0.185-0.051-0.389-0.152-0.612c-0.137-0.301-0.317-0.451-0.539-0.451
		c-0.331,0-0.673,0.242-1.027,0.723c-0.324,0.436-0.507,0.813-0.539,1.133c-0.027-0.103-0.017-0.156,0.044-0.156l-0.14-0.122
		c-0.093,0.385-0.188,0.787-0.286,1.203c-0.041-0.175-0.024-0.343,0.051-0.506l-0.14-0.139c-0.062,0.087-0.117,0.214-0.165,0.384
		c-0.049,0.17-0.103,0.3-0.164,0.393c0.132-0.013,0.329,0.007,0.599,0.052c0.043-0.041,0.083-0.147,0.121-0.321v0.54
		c0.029,0.036,0.056,0.07,0.08,0.105c0.023,0.035,0.082,0.053,0.175,0.053c0.059,0,0.085-0.016,0.085-0.045
		c0-0.013-0.006-0.028-0.017-0.054c-0.012-0.021-0.018-0.04-0.018-0.052c0.006-0.025,0.033-0.043,0.086-0.043
		c0.093,0,0.2,0.063,0.32,0.192c0.035-0.034,0.057-0.098,0.062-0.187c0.006-0.091,0.022-0.151,0.053-0.18
		c0.02,0.478-0.107,0.752-0.386,0.829c-0.098,0-0.194-0.094-0.285-0.28c-0.088,0.085-0.131,0.226-0.131,0.418
		c0,0.296,0.156,0.635,0.469,1.014c0.28,0.347,0.512,0.543,0.695,0.583c0.162,0.035,0.329,0.068,0.497,0.096
		c0.255,0.058,0.396,0.128,0.427,0.21c0.138-0.142,0.228-0.21,0.261-0.21c0.029,0,0.057,0.008,0.087,0.026l0.211-0.192
		c-0.008,0.069,0.019,0.133,0.078,0.192C188.151,84.414,188.747,83.921,189.827,83.132 M183.574,81.752l-0.191,0.94h-0.14l0.19-0.94
		H183.574z"/>
	<path fill="#FFFFFF" d="M194.799,84.073h-0.154v0.242h0.154V84.073z M194.52,84.691h-0.154v-0.34h0.154V84.691z M195.663,82.947
		c-0.763,0.797-1.336,1.237-1.729,1.325c0.178,0.163,0.253,0.305,0.236,0.427c0-0.051,0.031-0.082,0.096-0.086
		c0.048,0.04,0.068,0.13,0.068,0.27l0.297-0.27c0.058,0.057,0.119,0.086,0.185,0.086c0.11,0,0.255-0.086,0.438-0.255
		c0.178-0.173,0.312-0.34,0.398-0.503c0.042-0.083,0.055-0.239,0.044-0.473C195.673,83.144,195.663,82.97,195.663,82.947
		 M194.059,84.969h-0.157V84.63h0.157V84.969z M193.875,79.354h-0.155V79.6h0.155V79.354z M191.245,79.6
		c0-0.03-0.073-0.117-0.219-0.263c-0.069,0.068-0.201,0.104-0.4,0.104v0.357l0.219-0.183c0.057,0.035,0.131,0.044,0.22,0.024
		C191.192,79.612,191.252,79.6,191.245,79.6 M194.765,78.334c-0.22,0.669-0.451,1.312-0.689,1.927
		c-0.028-0.151-0.093-0.365-0.191-0.646c-0.115,0.183-0.162,0.469-0.14,0.864c0.064,0.058,0.146,0.034,0.252-0.069
		c0,0.098-0.064,0.195-0.189,0.296c-0.053,0.279-0.177,0.785-0.367,1.524c-0.162,0.646-0.245,1.007-0.245,1.082
		c0,0.319,0.014,0.503,0.035,0.55c0.053,0.121,0.223,0.254,0.515,0.399v1.249c-0.466,0.269-0.722,0.409-0.765,0.426
		c-0.11,0.042-0.3,0.062-0.568,0.062c-0.891,0-1.341-0.523-1.341-1.57c0-0.519,0.152-1.08,0.454-1.691
		c0.419-0.842,0.655-1.364,0.715-1.569c-0.652,0.094-1.222,0.45-1.717,1.063c-0.686,0.855-1.204,1.399-1.56,1.63v-0.794
		c0.309-0.308,0.701-0.765,1.185-1.366c-0.202-0.249-0.404-0.503-0.609-0.751c-0.024-0.035-0.035-0.218-0.035-0.551
		c0-0.486,0.152-0.94,0.452-1.358c0.352-0.488,0.796-0.734,1.335-0.734c0.075,0,0.146,0.008,0.218,0.019
		c0.185,0.186,0.277,0.438,0.277,0.758c0,0.169-0.033,0.413-0.098,0.731c-0.067,0.321-0.102,0.54-0.102,0.655
		c0,0.062,0.007,0.117,0.018,0.163c0.994-0.29,1.811-1.057,2.447-2.3h0.715L194.765,78.334L194.765,78.334z"/>
	<path fill="#FFFFFF" d="M104.056,79.521c0,0-0.863-0.489-0.91-1.483c-0.047-0.992,1.689-5.257,4.43-5.257
		c2.65,0,4.39,0.521,6.216,0.521c1.83,0,2.824-0.132,3.303-0.435c0.479-0.305-1.081,2.174-1.738,2.174
		c-0.957,0-6.737-0.567-7.867-0.567c-0.658,0-2.401,0.882-2.824,1.308c-0.378,0.378-0.912,1.827-0.392,2
		c0.521,0.173,1.461,0.128,1.251,0.716C105.315,79.088,105.056,79.479,104.056,79.521"/>
</g>
</svg>
