<?xml version="1.0" encoding="utf-8"?>
<!-- Generator: Adobe Illustrator 16.0.0, SVG Export Plug-In . SVG Version: 6.00 Build 0)  -->
<!DOCTYPE svg PUBLIC "-//W3C//DTD SVG 1.1//EN" "http://www.w3.org/Graphics/SVG/1.1/DTD/svg11.dtd">
<svg version="1.1" id="Layer_1" xmlns="http://www.w3.org/2000/svg" xmlns:xlink="http://www.w3.org/1999/xlink" x="0px" y="0px"
	 width="310px" height="100px" viewBox="0 0 310 100" enable-background="new 0 0 310 100" xml:space="preserve">
<g>
	<path fill="#342C57" d="M306.928,10.617c-0.436,0-0.799,0.055-1.089,0.18c-0.293,0.113-0.548,0.175-0.76,0.175
		c0.238-0.374,0.532-1.262,0.877-2.666c0.134,0.264,0.329,0.568,0.596,0.915c0.429,0,0.641-0.385,0.641-1.157
		c0.314-0.023,1.015-0.128,2.104-0.316c0.212-0.039,0.362-0.056,0.553-0.086V0.252h-11.962v0.279h-0.208v0.281h-0.211v0.279h-0.208
		v0.279h-0.207v0.28h-0.207V1.93h-0.208v0.282h-0.207V2.49h-0.207v0.281h-0.212V3.05h-0.208v0.281h-0.206V3.61h-0.208v0.281h-0.212
		l0.043,13.218c0.005,0.521,0.083,0.968,0.182,1.382l-0.146,0.019v0.252l-0.208,0.027v0.252l-0.206,0.027v0.254l-0.208,0.028v0.25
		l-0.208,0.028v0.254l-0.207,0.027v0.251l-0.207,0.027v0.253l-0.212,0.028v0.251l-0.207,0.028V21l-0.207,0.031v0.25l-0.208,0.028
		v0.25l-0.207,0.03v10.055l3.127-0.432c3.694-0.408,6.117-2.537,7.824-4.727c0.043-0.056,0.069-0.115,0.108-0.166
		c0.034-0.041,0.064-0.078,0.099-0.117c0.044-0.054,0.07-0.113,0.112-0.166c0.03-0.037,0.06-0.075,0.095-0.112
		c0.043-0.054,0.069-0.114,0.113-0.166c0.03-0.039,0.063-0.076,0.095-0.115c0.043-0.052,0.073-0.114,0.116-0.166
		c0.025-0.037,0.061-0.075,0.091-0.112c0.043-0.055,0.074-0.115,0.117-0.166c0.026-0.039,0.061-0.076,0.091-0.115
		c0.043-0.053,0.072-0.115,0.116-0.166c0.025-0.037,0.06-0.076,0.09-0.113c0.044-0.055,0.074-0.114,0.117-0.166
		c0.031-0.039,0.061-0.076,0.095-0.113c0.044-0.054,0.07-0.117,0.113-0.168c0.03-0.037,0.06-0.076,0.095-0.113
		c0.043-0.054,0.069-0.114,0.112-0.166c0.031-0.039,0.061-0.076,0.095-0.112c0.043-0.054,0.069-0.117,0.112-0.169
		c0.029-0.037,0.061-0.073,0.095-0.112c0.044-0.054,0.074-0.114,0.117-0.167c0.026-0.039,0.061-0.074,0.091-0.111
		c0.043-0.055,0.073-0.115,0.117-0.17c0.025-0.037,0.06-0.072,0.09-0.111c0.044-0.055,0.074-0.115,0.117-0.168
		c0.024-0.036,0.06-0.075,0.09-0.111c2.161-2.59,3.245-5.868,3.228-9.386V8.714c-0.251,0.213-0.519,0.437-0.829,0.703
		C308.061,10.215,307.364,10.617,306.928,10.617 M229.416,31.567h-0.799v-1.269h0.799V31.567z M228.461,41.815
		c-0.134,0.439-0.203,0.727-0.203,0.859h-1.668v-1.751c0.238,0.24,0.583,0.359,1.033,0.359c0.453,0,0.799-0.119,1.036-0.359
		C228.659,41.081,228.595,41.382,228.461,41.815 M226.391,46.573c-0.501,1.088-0.712,1.979-0.635,2.669
		c-0.052,0.664-0.077-0.877-0.077-4.62l1.032,0.918c0.186-0.16,0.221-0.467,0.117-0.918c-0.156-0.795-0.238-1.246-0.238-1.351
		c0.531,0.348,0.941,0.518,1.231,0.518C227.346,44.716,226.871,45.65,226.391,46.573 M227.225,39.57h0.799v1.273h-0.799V39.57z
		 M227.225,37.263h0.799v1.712h-0.799V37.263z M227.225,34.474h0.799v1.273h-0.799V34.474z M213.51,47.155h0.004
		c-0.381,1.708-0.912,3.214-1.586,4.569c-0.376,0.331-0.765,0.642-1.191,0.917c-1.249,0.789-2.74,1.226-4.713,1.235
		c-1.976-0.009-3.475-0.446-4.718-1.239c-1.374-0.886-2.467-2.031-3.366-3.552c-0.928-1.601-1.642-3.429-2.104-5.562
		c-0.487-2.175-0.73-4.409-0.73-6.683c0-2.273,0.243-4.505,0.723-6.678c0.372-1.706,0.91-3.217,1.585-4.568
		c0.372-0.328,0.76-0.633,1.188-0.908c1.249-0.797,2.748-1.234,4.718-1.244c1.975,0.01,3.461,0.442,4.722,1.244
		c1.365,0.887,2.462,2.027,3.361,3.546c0.925,1.589,1.642,3.432,2.112,5.565c0.475,2.177,0.717,4.407,0.717,6.682
		C214.23,42.752,213.988,44.986,213.51,47.155 M195.383,48.641c-0.553-0.152-0.963-0.369-1.231-0.634
		c0.052-0.052,0.269-0.358,0.635-0.917c0.269-0.344,0.492-0.518,0.679-0.518C195.409,46.629,195.383,47.319,195.383,48.641
		 M224.037,16.054c-2.065-2.771-4.648-5.026-7.66-6.659c-3.093-1.695-6.6-2.524-10.354-2.522c-3.751-0.002-7.268,0.828-10.364,2.522
		c-3.007,1.64-5.586,3.887-7.65,6.659c-0.039,0.052-0.074,0.108-0.108,0.161c-0.031,0.041-0.07,0.08-0.1,0.121
		c-0.038,0.052-0.072,0.105-0.107,0.16c-0.035,0.041-0.069,0.078-0.1,0.119c-0.038,0.051-0.073,0.107-0.108,0.159
		c-0.034,0.041-0.069,0.08-0.099,0.121c-0.043,0.052-0.074,0.106-0.108,0.158c-0.035,0.043-0.069,0.08-0.104,0.121
		c-0.039,0.052-0.069,0.108-0.104,0.159c-0.034,0.041-0.068,0.078-0.103,0.121c-0.039,0.053-0.069,0.106-0.108,0.158
		c-0.03,0.043-0.064,0.08-0.099,0.121c-0.039,0.053-0.07,0.108-0.108,0.16c-0.031,0.041-0.07,0.078-0.1,0.121
		c-0.039,0.052-0.074,0.105-0.108,0.158c-0.03,0.041-0.069,0.08-0.099,0.121c-0.039,0.052-0.074,0.107-0.109,0.16
		c-0.033,0.041-0.068,0.078-0.098,0.119c-0.039,0.053-0.074,0.107-0.108,0.159c-0.035,0.041-0.069,0.08-0.1,0.121
		c-0.043,0.052-0.073,0.108-0.108,0.16c-0.035,0.041-0.068,0.078-0.104,0.119c-0.039,0.054-0.069,0.108-0.104,0.159
		c-0.034,0.041-0.068,0.08-0.103,0.121c-0.035,0.049-0.064,0.101-0.1,0.149c-0.034,0.046-0.072,0.085-0.111,0.13
		c-2.062,2.755-3.617,5.948-4.684,9.518c-1.062,3.573-1.598,7.335-1.598,11.268c0,3.978,0.525,7.763,1.598,11.334
		c1.066,3.575,2.621,6.766,4.684,9.525c2.072,2.773,4.657,5.02,7.68,6.635c3.089,1.658,6.588,2.476,10.338,2.474h0.025
		c3.737,0,7.232-0.82,10.312-2.478c3.02-1.611,5.604-3.853,7.681-6.631c0.034-0.05,0.064-0.109,0.107-0.158
		c0.026-0.044,0.065-0.08,0.101-0.124c0.034-0.049,0.068-0.107,0.107-0.158c0.03-0.043,0.064-0.076,0.1-0.12
		c0.033-0.05,0.068-0.108,0.107-0.157c0.03-0.044,0.069-0.081,0.1-0.124c0.034-0.05,0.069-0.106,0.108-0.158
		c0.03-0.043,0.069-0.077,0.1-0.121c0.033-0.049,0.068-0.107,0.107-0.158c0.035-0.043,0.069-0.08,0.1-0.123
		c0.038-0.05,0.069-0.105,0.107-0.157c0.034-0.043,0.069-0.077,0.099-0.12c0.039-0.051,0.069-0.108,0.108-0.158
		c0.035-0.043,0.07-0.08,0.104-0.123c0.034-0.05,0.064-0.106,0.107-0.158c0.031-0.043,0.065-0.078,0.101-0.121
		c0.033-0.05,0.068-0.107,0.107-0.158c0.03-0.043,0.065-0.079,0.1-0.123c0.034-0.05,0.067-0.105,0.106-0.157
		c0.031-0.043,0.07-0.078,0.101-0.121c0.034-0.05,0.068-0.108,0.107-0.158c0.03-0.043,0.069-0.08,0.101-0.123
		c0.033-0.05,0.068-0.106,0.107-0.158c0.034-0.041,0.069-0.078,0.099-0.121c0.039-0.05,0.069-0.107,0.108-0.157
		c0.035-0.043,0.069-0.08,0.1-0.121c2.061-2.76,3.619-5.952,4.683-9.526c1.071-3.57,1.603-7.354,1.603-11.333
		c0-3.933-0.535-7.694-1.603-11.268C227.656,22.002,226.098,18.809,224.037,16.054 M250.379,12.441h-0.674V9.856h0.674V12.441z
		 M249.623,12.441h-0.674V10.65h0.674V12.441z M245.728,11.287h-0.674V8.704h0.674V11.287z M245.728,15.946h-0.674v-2.23h0.674
		V15.946z M244.972,12.441h-0.675V9.856h0.675V12.441z M244.176,12.048h-0.635V9.856h0.635V12.048z M241.304,52.07l-0.635-0.28
		l0.597-1.196l0.635,0.238L241.304,52.07z M241.027,58.037c0-0.637-0.159-0.954-0.479-0.954c-0.083,0-0.16,0.039-0.237,0.117
		c0.506-0.452,0.756-1.165,0.756-2.15c0-0.132,0.052,0.375,0.16,1.517C241.278,57.177,241.208,57.667,241.027,58.037 M239.646,9.456
		h0.674V13.2h-0.674V9.456z M239.562,12.842h-0.675V8.704h0.675V12.842z M240.44,11.808h0.678v2.586h-0.678V11.808z M241.195,8.306
		h0.674v2.188h-0.674V8.306z M272.438,6.944h-0.208v0.281h-0.207v0.278h-0.207v0.281h-0.208v0.279h-0.207v0.281h-0.208v0.279h-0.211
		v0.28h-0.207v0.279h-0.208v0.28h-0.207v0.279h-0.207v0.282h-0.208v0.279h-0.207v32.904c0,1.647-0.087,3.332-0.25,5.04
		c-0.078,0.82-0.255,1.549-0.485,2.23c-0.177,0.122-0.353,0.243-0.557,0.359c-0.125,0.113-1.533,0.527-3.041,0.708
		c-1.529,0.211-3.283,0.317-4.636,0.317c-2.718,0.013-4.601-0.445-5.603-1.027c-1.283-0.724-2.087-1.529-2.618-2.466
		c-0.609-1.087-0.989-2.294-1.127-3.764c-0.165-1.708-0.251-3.389-0.251-5.035V6.546h-14.693v0.281h-0.207v0.278h-0.212v0.281
		h-0.207v0.278h-0.208v0.281h-0.206v0.279h-0.208v0.279h-0.208v0.281h-0.207v0.278h-0.211v0.282h-0.208v0.279h-0.207v0.28h-0.207
		v0.279h-0.208v35.996c0,3.627,0.558,6.912,1.76,9.795c1.17,2.819,2.881,5.263,5.079,7.219c2.199,1.956,4.839,3.401,7.815,4.317
		c2.945,0.916,6.165,1.366,9.633,1.366c3.491-0.026,8.468-0.387,11.716-1.366c2.972-0.916,5.611-2.361,7.807-4.321
		c1.123-0.994,2.116-2.118,2.98-3.355c0.074-0.098,0.143-0.19,0.212-0.287c0.074-0.093,0.143-0.184,0.208-0.279
		c0.073-0.095,0.141-0.184,0.206-0.28c0.074-0.094,0.146-0.185,0.208-0.279c0.073-0.095,0.146-0.184,0.212-0.281
		c0.069-0.093,0.142-0.182,0.207-0.279c0.069-0.093,0.142-0.184,0.207-0.28c0.035-0.046,0.069-0.093,0.104-0.138
		c-0.534-0.864-0.816-1.869-0.816-3.034c0-1.274,0.411-2.682,1.231-4.221c0.876-1.645,1.979-2.931,3.305-3.858
		c-0.026,1.402-0.328,3.005-0.894,4.795c-0.55,1.714-0.825,2.849-0.851,3.435c0.474-0.804,0.91-1.634,1.278-2.518
		c1.199-2.881,1.75-6.16,1.75-9.788l0.004-35.877h-14.696V6.944z M138.981,32.844l-0.398-0.48l0.994-0.994l0.436,0.397
		L138.981,32.844z M139.175,41.838l-1.469,1.475l-0.397-0.438l1.43-1.435L139.175,41.838z M135.997,32.167l0.557-0.399l0.998,1.512
		l-0.562,0.358L135.997,32.167z M136.157,51.631l-0.558-0.24l0.519-1.073l0.596,0.197L136.157,51.631z M133.771,36.466
		c-0.107-0.664,0.532-1.605,1.906-2.828c-0.316,0.294-0.22,0.694,0.281,1.196c0.238-0.266,0.396-0.621,0.48-1.077v1.436
		C135.534,35.193,134.645,35.616,133.771,36.466 M135.24,58.037h-1.547v-0.713h1.547V58.037z M133.49,51.234h0.718v1.152h-0.718
		V51.234z M132.933,37.263h-0.717l0.445-2.789h0.713L132.933,37.263z M107.458,60.227h-0.717v-1.55h0.717V60.227z M103.877,44.146
		l-0.515-0.994l0.597-0.238l0.553,1.232H103.877z M102.209,58.954l-0.519-0.995l0.597-0.24l0.514,1.235H102.209z M97.63,37.499
		l-0.592-0.235l0.515-1.118l0.601,0.242L97.63,37.499z M95.765,48.803c-0.501,1.832-0.752,3.224-0.752,4.182
		c0,0.713,0.104,1.364,0.315,1.947c-1.088,2.283-1.75,3.941-1.987,4.975c0.501-4.083,0.963-7.254,1.391-9.511
		c-0.108-0.478-0.397-0.718-0.873-0.718v-4.933h1.625c-0.713,0.795-1.071,1.909-1.071,3.339c0,0.586,0.134,0.999,0.397,1.235
		c0.397-1.829,0.994-3.383,1.789-4.654C96.547,45.488,96.27,46.866,95.765,48.803 M93.224,51.072h0.752L93.5,53.463h-0.716
		L93.224,51.072z M91.548,45.621l-0.397-0.478l1.037-0.997l0.437,0.398L91.548,45.621z M92.066,41.36l0.199,2.391h-0.717
		L91.31,41.36H92.066z M95.765,37.1h0.718v1.554h-0.718V37.1z M140.294,36.128c-0.375-0.094-0.626-0.207-0.76-0.342
		c0.134,0,0.475-0.071,1.015-0.219c0.104-0.023,0.16-0.037,0.246-0.06l0.004-28.961h-14.597v0.281h-0.207v0.278h-0.212v0.281h-0.207
		v0.278h-0.207v0.281h-0.209v0.279h-0.207v0.279h-0.207v0.281h-0.208v0.278h-0.207v0.282h-0.211v0.279h-0.208v0.28h-0.207v0.279
		h-0.207v33.023h0.004c0,1.647-0.086,3.332-0.252,5.04c-0.076,0.836-0.25,1.576-0.482,2.267c-0.169,0.11-0.324,0.222-0.51,0.331
		c-0.984,0.569-2.842,1.025-5.513,1.019c-1.334,0-3.074-0.11-4.583-0.319c-1.481-0.181-2.872-0.593-2.985-0.703
		c-1.269-0.723-2.047-1.513-2.579-2.465c-0.609-1.087-0.984-2.298-1.124-3.76c-0.164-1.716-0.246-3.396-0.246-5.047V6.664h-14.58
		v0.28h-0.211v0.279H90.23v0.28h-0.211v0.279h-0.208v0.279h-0.207v0.281h-0.212v0.279h-0.208v0.28h-0.208v0.279h-0.21v0.28h-0.208
		v0.279h-0.208v0.282h-0.207v0.279h-0.211v35.879c0,0.171,0.017,0.335,0.021,0.505l0.652-3.216h0.636l-0.868,4.295h-0.375
		c0.137,2.994,0.66,5.747,1.667,8.2c1.159,2.822,2.855,5.268,5.037,7.219c2.173,1.959,4.787,3.405,7.738,4.328
		c3.222,0.981,8.142,1.346,11.603,1.362h0.043c3.417,0,6.597-0.448,9.5-1.362c2.946-0.923,5.569-2.369,7.742-4.328
		c1.11-0.993,2.09-2.121,2.937-3.354c0.069-0.095,0.147-0.184,0.211-0.278c0.065-0.097,0.143-0.186,0.209-0.281
		c0.064-0.097,0.14-0.184,0.206-0.278c0.07-0.098,0.144-0.187,0.208-0.281c0.069-0.097,0.142-0.184,0.207-0.279
		c0.07-0.097,0.143-0.186,0.208-0.28c0.069-0.096,0.143-0.185,0.208-0.279c0.069-0.097,0.146-0.187,0.212-0.281
		c0.064-0.095,0.141-0.184,0.206-0.279c0.065-0.098,0.144-0.186,0.208-0.28c0.069-0.097,0.143-0.185,0.208-0.279
		c0.069-0.098,0.141-0.186,0.207-0.279c0.908-1.271,1.681-2.652,2.299-4.149c0.328-0.809,0.605-1.651,0.833-2.521
		c-0.587,0.008-1.257,0.02-2.026,0.036c0.186-0.772,0.411-1.157,0.679-1.157c0.315,0.314,0.799,0.539,1.455,0.673
		c0.524-2.108,0.795-4.375,0.795-6.815v-4.384c-0.336-0.014-0.886-0.02-1.658-0.02v-1.593c0.505,0,1.062,0.404,1.658,1.173v-1.415
		C140.662,36.241,140.502,36.178,140.294,36.128 M163.623,40.884h-0.795v-1.673h0.795V40.884z M158.175,52.263l-1.55-1.546
		l0.479-0.482l1.546,1.596L158.175,52.263z M157.578,56.33h-1.192v-0.76h1.192V56.33z M156.149,53.104h0.756v1.671h-0.756V53.104z
		 M154.797,59.312c-1.671-2.838-2.506-5.147-2.506-6.927c0-0.449,0.835-3.965,2.506-10.548V59.312z M164.672,5.235h-13.474v0.281
		h-0.208v0.278h-0.207v0.281h-0.208v0.279h-0.208v0.282h-0.207v0.278h-0.208v0.281h-0.211v0.279h-0.208v0.281h-0.207v0.279h-0.208
		v0.278h-0.207v0.281h-0.208v0.278h-0.211v60.332h26.308v-0.279h0.208v-0.281h0.207v-0.278h0.211v-0.281h0.208v-0.279h0.207v-0.28
		h0.208v-0.279h0.206v-0.281h0.208v-0.279h0.208v-0.28h0.212v-0.279h0.206v-0.281h0.208v-0.278h0.208V52.202h-12.835V5.235z
		 M15.577,19.114l-0.912-1.352l0.515-0.359l0.916,1.393L15.577,19.114z M11.763,23.572c0.479-0.639,1.059-1.117,1.75-1.432
		c0.475,0.476,0.717,0.409,0.717-0.201c0,0.507,0.38,0.757,1.154,0.757C14.743,22.695,13.539,22.99,11.763,23.572 M13.128,60.854
		l-0.562-0.234l0.479-0.999l0.557,0.198L13.128,60.854z M14.013,8.546h0.678v2.229h-0.678V8.546z M14.812,6.234h0.674v3.743h-0.674
		V6.234z M10.752,12.441L9.84,11.527l0.359-0.395l0.994,0.955L10.752,12.441z M6.285,13.005v0.523H5.606v-1.43h0.679v0.534
		c0.708-0.411,1.317-0.852,1.723-1.345c-0.475-0.104-1.14,0.098-1.987,0.599c-0.082-0.714,0.251-1.073,0.994-1.073
		c0.401,0,0.635-0.06,0.717-0.181c0.078-0.118,0.156-0.257,0.238-0.416C7.784,9.845,7.732,9.564,7.81,9.381
		c0.211-0.373,0.319-0.916,0.319-1.634c0.052,0.267,0.25,0.664,0.596,1.192c0.16,0.215,0.277,1.594,0.354,4.142
		C8.755,13.035,7.801,13.01,6.285,13.005 M4.354,10.813c-0.67-0.664-0.998-1.18-0.998-1.555c0-0.261,0.159-0.679,0.475-1.251
		c0.319-0.57,0.479-0.99,0.479-1.255c0,0.664,0.116,1.115,0.358,1.355c0.13-0.266,0.264-0.717,0.397-1.355
		C5.2,6.115,5.33,5.664,5.464,5.402c0.211,0.318,0.32,0.674,0.32,1.072c0,0.479-0.186,1.142-0.558,1.992
		C4.747,9.657,4.457,10.439,4.354,10.813 M16.19,8.427h-0.626v-1.79h0.626V5.239h-3.547l-0.419,0.636L11.707,5.52l0.189-0.28h-1.271
		l-0.232,0.876H9.759l0.215-0.876H2.712v0.28H2.504v0.281H2.293V6.08H2.086v0.28H1.878v0.279H1.671v0.28H1.459v0.279H1.252V7.48
		H1.044v0.279H0.833V8.04H0.626v0.278H0.415V8.6H0.207v0.278H0v18.44l2.35-0.294l0.398,0.398L0,27.766v41.44h26.312v-0.279h0.207
		v-0.281h0.212v-0.278h0.208v-0.281h0.208v-0.279h0.207v-0.28h0.211v-0.279h0.208v-0.281h0.207v-0.279h0.212v-0.28h0.208v-0.279
		h0.212v-0.281h0.208v-0.278h0.207V52.2H16.19V8.427z M46.097,15.133l-0.026-0.158l-0.134,0.21L46.097,15.133z M77.465,35.035
		l-1.551-1.516c0.134,0,0.472,0.063,1.012,0.179c0.548,0.119,0.898,0.181,1.058,0.181C77.638,34.41,77.465,34.794,77.465,35.035
		 M74.402,32.442l-2.705-1.15V30.69l2.946,1.161L74.402,32.442z M66.423,52.772c-0.401,0.744-1.011,1.505-1.832,2.285
		c-0.82,0.783-1.481,1.18-1.986,1.18c-0.294,0-0.57-0.137-0.834-0.398l-1.356,1.23c0-0.637-0.104-1.049-0.315-1.23
		c-0.293,0.023-0.437,0.158-0.437,0.398c0.078-0.557-0.28-1.207-1.076-1.953c0.467-0.104,0.994-0.327,1.577-0.653
		c-0.674,0.147-1.395,0.24-2.221,0.242c-1.96-0.005-3.463-0.441-4.717-1.237c-1.37-0.888-2.462-2.031-3.361-3.552
		c-0.933-1.597-1.642-3.429-2.108-5.562c-0.483-2.177-0.721-4.409-0.721-6.679c0-2.275,0.238-4.507,0.721-6.684
		c0.376-1.71,0.912-3.228,1.586-4.582c0.372-0.319,0.756-0.625,1.174-0.893c1.249-0.797,2.748-1.234,4.713-1.244
		c1.975,0.01,3.469,0.446,4.722,1.244c1.374,0.887,2.467,2.027,3.361,3.546c0.929,1.589,1.642,3.434,2.117,5.567
		c0.475,2.172,0.717,4.407,0.717,6.684c0,2.271-0.243,4.504-0.717,6.671c-0.25,1.112-0.583,2.113-0.959,3.068
		c0.631-0.603,1.292-1.251,1.992-1.985c0,0.104,0.051,0.901,0.159,2.387C66.673,51.685,66.608,52.399,66.423,52.772 M59.144,57.471
		h-0.713v-1.554h0.713V57.471z M44.577,14.374l1.115-1.712l0.379,2.313l0.977-1.506l0.652,1.173l-1.603,0.491l0.247,1.49
		L44.577,14.374z M45.462,33.146c-0.393,0.082-0.725,0.043-0.993-0.115l-0.994,0.836V32.23c0.903,0,1.512-0.157,1.832-0.476
		c0.662,0.666,0.994,1.066,0.994,1.193C46.322,32.947,46.051,33.017,45.462,33.146 M34.239,32.116l-0.358-0.557l2.108-1.869
		l0.402,0.516L34.239,32.116z M80.372,25.655L80.372,25.655l0.277-0.084c-1.067-3.571-2.627-6.766-4.688-9.515
		c-2.073-2.778-4.653-5.025-7.659-6.662c-3.093-1.693-6.605-2.526-10.36-2.524C54.189,6.869,50.681,7.698,47.583,9.4
		c-3.006,1.627-5.581,3.882-7.65,6.652c-0.039,0.052-0.064,0.106-0.104,0.155c-0.034,0.043-0.073,0.082-0.104,0.127
		c-0.039,0.049-0.069,0.103-0.108,0.152c-0.03,0.043-0.069,0.082-0.104,0.125c-0.034,0.053-0.064,0.104-0.104,0.156
		c-0.03,0.043-0.069,0.082-0.103,0.126c-0.035,0.049-0.07,0.103-0.104,0.153c-0.035,0.043-0.069,0.082-0.104,0.125
		c-0.039,0.052-0.069,0.104-0.104,0.156c-0.034,0.042-0.073,0.082-0.108,0.125c-0.034,0.051-0.065,0.104-0.104,0.153
		c-0.03,0.044-0.073,0.083-0.103,0.126c-0.035,0.051-0.07,0.104-0.104,0.155c-0.035,0.044-0.074,0.083-0.104,0.126
		c-0.039,0.05-0.069,0.104-0.104,0.152c-0.035,0.045-0.074,0.084-0.108,0.127c-0.035,0.05-0.065,0.104-0.104,0.156
		c-0.034,0.041-0.069,0.082-0.104,0.125c-0.039,0.049-0.069,0.104-0.104,0.152c-0.034,0.043-0.073,0.083-0.103,0.125
		c-0.039,0.05-0.069,0.104-0.104,0.156c-0.035,0.041-0.074,0.082-0.108,0.125c-0.035,0.05-0.064,0.104-0.104,0.153
		c-0.035,0.043-0.069,0.082-0.104,0.125c-0.039,0.051-0.065,0.104-0.104,0.154c-0.034,0.043-0.073,0.084-0.108,0.127
		c-2.06,2.755-3.615,5.946-4.683,9.52c-1.067,3.571-1.598,7.333-1.598,11.27c0,3.971,0.527,7.761,1.598,11.334
		c1.062,3.571,2.623,6.764,4.683,9.521c2.074,2.778,4.657,5.02,7.678,6.637c3.088,1.656,6.587,2.474,10.337,2.472h0.026
		c3.741,0,7.232-0.82,10.316-2.476c3.015-1.613,5.603-3.854,7.677-6.633c0.034-0.05,0.069-0.104,0.103-0.156
		c0.031-0.043,0.07-0.082,0.104-0.126c0.039-0.049,0.07-0.103,0.104-0.152c0.035-0.047,0.074-0.082,0.108-0.126
		c0.035-0.05,0.065-0.104,0.104-0.155c0.03-0.044,0.068-0.083,0.104-0.126c0.034-0.05,0.065-0.104,0.103-0.153
		c0.035-0.046,0.074-0.082,0.104-0.126c0.039-0.049,0.07-0.103,0.104-0.155c0.035-0.044,0.074-0.083,0.104-0.126
		c0.039-0.05,0.069-0.104,0.104-0.153c0.035-0.045,0.074-0.081,0.108-0.124c0.039-0.051,0.065-0.104,0.104-0.156
		c0.034-0.043,0.073-0.082,0.104-0.125c0.039-0.05,0.069-0.104,0.108-0.154c0.03-0.045,0.069-0.082,0.103-0.125
		c0.035-0.05,0.064-0.104,0.104-0.153c0.031-0.046,0.07-0.084,0.104-0.128c0.035-0.05,0.065-0.104,0.104-0.153
		c0.035-0.045,0.069-0.082,0.104-0.125c0.039-0.05,0.069-0.104,0.104-0.154c0.034-0.045,0.073-0.084,0.108-0.127
		c0.034-0.05,0.065-0.104,0.104-0.154c0.03-0.045,0.073-0.082,0.103-0.125c0.035-0.05,0.07-0.104,0.104-0.153
		c0.035-0.045,0.074-0.084,0.104-0.125c2.061-2.758,3.621-5.95,4.688-9.526c1.066-3.572,1.594-7.356,1.594-11.329
		c0-3.937-0.527-7.698-1.594-11.27L80.372,25.655z M16.242,6.637H16.19v1.791h0.052V6.637z"/>
	<path fill="#FFFFFF" d="M138.946,32.871l-0.397-0.479l0.994-0.995l0.436,0.4L138.946,32.871z M139.145,41.866l-1.468,1.474
		l-0.398-0.439l1.429-1.433L139.145,41.866z M135.965,32.194l0.553-0.396l0.999,1.509l-0.557,0.359L135.965,32.194z M136.122,51.66
		l-0.553-0.24l0.514-1.075l0.601,0.199L136.122,51.66z M135.21,58.065h-1.552v-0.716h1.552V58.065z M133.461,51.259h0.716v1.155
		h-0.716V51.259z M132.903,37.29h-0.717l0.44-2.789h0.714L132.903,37.29z M135.646,33.666c-0.315,0.294-0.225,0.691,0.281,1.195
		c0.233-0.266,0.397-0.623,0.475-1.076v1.433c-0.899,0-1.789,0.425-2.666,1.275C133.628,35.829,134.269,34.889,135.646,33.666
		 M107.423,60.255h-0.718v-1.552h0.718V60.255z M103.847,44.175l-0.518-0.995l0.595-0.238l0.558,1.233H103.847z M102.174,58.981
		l-0.513-0.994l0.591-0.24l0.519,1.234H102.174z M97.6,37.53l-0.595-0.24l0.518-1.114l0.596,0.237L97.6,37.53z M96.451,38.681
		h-0.717v-1.552h0.717V38.681z M91.518,45.648l-0.401-0.479l1.037-0.995l0.44,0.397L91.518,45.648z M92.036,41.388l0.199,2.39
		h-0.717l-0.238-2.39H92.036z M140.26,36.155c-0.372-0.095-0.622-0.207-0.756-0.338c0.134,0,0.475-0.072,1.016-0.22
		c0.176-0.047,0.293-0.075,0.428-0.106V6.294h-14.593v33.024c0,1.647-0.084,3.331-0.247,5.039c-0.134,1.47-0.514,2.687-1.115,3.756
		c-0.532,0.955-1.323,1.755-2.583,2.48c-0.985,0.571-2.843,1.027-5.512,1.021c-1.34,0-3.076-0.11-4.588-0.322
		c-1.479-0.178-2.868-0.592-2.981-0.701c-1.27-0.723-2.048-1.515-2.579-2.467c-0.609-1.084-0.985-2.297-1.124-3.757
		c-0.164-1.718-0.246-3.398-0.246-5.049V6.412H90.8V42.29c0,3.625,0.549,6.9,1.729,9.787c0.108,0.251,0.233,0.479,0.344,0.726
		l0.316-1.702h0.752l-0.475,2.388h-0.265c0.238,0.483,0.501,0.948,0.773,1.405c0.256-1.746,0.492-3.251,0.726-4.469
		c-0.107-0.478-0.402-0.718-0.876-0.718v-4.936h1.628c-0.713,0.8-1.072,1.909-1.072,3.342c0,0.586,0.131,0.996,0.398,1.234
		c0.398-1.831,0.994-3.382,1.789-4.654c-0.053,0.822-0.329,2.2-0.834,4.138c-0.505,1.832-0.756,3.224-0.756,4.179
		c0,0.717,0.103,1.367,0.316,1.95c-0.195,0.417-0.365,0.791-0.537,1.167c0.82,1.16,1.758,2.223,2.812,3.166
		c2.169,1.96,4.783,3.406,7.728,4.33c3.22,0.98,8.14,1.345,11.601,1.362h0.043c3.421,0,6.592-0.45,9.5-1.362
		c2.949-0.924,5.569-2.37,7.741-4.33c2.182-1.955,3.871-4.4,5.028-7.222c0.299-0.719,0.554-1.466,0.77-2.237
		c-0.613,0.006-1.322,0.017-2.147,0.032c0.186-0.77,0.416-1.155,0.678-1.155c0.321,0.317,0.808,0.545,1.469,0.679
		c0.039,0.007,0.065,0.011,0.101,0.019c0.573-2.193,0.868-4.565,0.868-7.12v-4.091c-0.287-0.022-0.874-0.035-1.841-0.035v-1.591
		c0.558,0,1.172,0.488,1.841,1.419v-1.544C140.804,36.336,140.588,36.235,140.26,36.155 M163.593,40.912h-0.796v-1.673h0.796V40.912
		z M158.141,52.293l-1.547-1.551l0.475-0.477l1.551,1.592L158.141,52.293z M157.544,56.357h-1.192v-0.76h1.192V56.357z
		 M156.115,53.13h0.756v1.673h-0.756V53.13z M154.762,59.341c-1.668-2.838-2.506-5.147-2.506-6.927c0-0.45,0.838-3.964,2.506-10.548
		V59.341z M164.818,4.984h-13.47v60.332h26.31V51.951h-12.84V4.984z M16.208,8.452h-0.674V6.662h0.674V8.452z M15.547,19.142
		l-0.916-1.353l0.519-0.357l0.912,1.392L15.547,19.142z M11.733,23.599c0.475-0.639,1.059-1.116,1.75-1.431
		c0.47,0.478,0.713,0.408,0.713-0.201c0,0.507,0.383,0.757,1.152,0.757C14.713,22.724,13.508,23.018,11.733,23.599 M13.093,60.884
		l-0.557-0.24l0.475-0.992l0.562,0.194L13.093,60.884z M13.979,8.571h0.678v2.229h-0.678V8.571z M14.778,6.262h0.674v3.742h-0.674
		V6.262z M10.722,12.472l-0.916-0.917l0.358-0.396l0.994,0.955L10.722,12.472z M6.254,13.035v0.523H5.577v-1.431h0.678v0.535
		c0.709-0.412,1.313-0.854,1.724-1.346c-0.479-0.104-1.141,0.095-1.992,0.598C5.909,11.199,6.238,10.84,6.98,10.84
		c0.402,0,0.639-0.06,0.717-0.18c0.078-0.119,0.16-0.257,0.241-0.416C7.753,9.874,7.698,9.592,7.775,9.409
		c0.212-0.373,0.32-0.916,0.32-1.63c0.056,0.264,0.25,0.661,0.6,1.191c0.156,0.211,0.277,1.593,0.355,4.138
		C8.721,13.064,7.767,13.039,6.254,13.035 M4.319,10.84c-0.665-0.662-0.993-1.181-0.993-1.552c0-0.264,0.155-0.681,0.474-1.253
		c0.321-0.572,0.476-0.99,0.476-1.255c0,0.664,0.121,1.116,0.359,1.356c0.134-0.263,0.267-0.715,0.397-1.356
		c0.134-0.637,0.267-1.087,0.401-1.35C5.645,5.748,5.749,6.104,5.749,6.5c0,0.481-0.186,1.145-0.553,1.994
		C4.716,9.685,4.423,10.468,4.319,10.84 M16.338,12.712H16.29V8.61h0.048V5.349h-0.009V4.989h-3.534L12.19,5.903l-0.513-0.354
		l0.379-0.56H10.67l-0.307,1.152H9.728l0.281-1.152H2.864v60.327H29.18V51.949H16.338V12.712z M229.381,31.596h-0.795v-1.273h0.795
		V31.596z M228.427,41.847c-0.131,0.436-0.199,0.724-0.199,0.853h-1.668v-1.749c0.237,0.24,0.579,0.359,1.032,0.359
		s0.796-0.119,1.037-0.359C228.629,41.108,228.561,41.409,228.427,41.847 M226.356,46.604c-0.501,1.086-0.713,1.977-0.63,2.664
		c-0.058,0.664-0.083-0.873-0.083-4.616l1.033,0.919c0.186-0.162,0.225-0.466,0.12-0.919c-0.159-0.795-0.237-1.246-0.237-1.353
		c0.531,0.346,0.938,0.519,1.231,0.519C227.312,44.746,226.841,45.677,226.356,46.604 M227.194,39.598h0.795v1.276h-0.795V39.598z
		 M227.194,37.29h0.795v1.712h-0.795V37.29z M227.194,34.5h0.795v1.278h-0.795V34.5z M216.364,43.267h0.005
		c-0.472,2.137-1.185,3.97-2.117,5.573c-0.895,1.511-1.991,2.659-3.364,3.549c-1.254,0.79-2.74,1.227-4.713,1.233
		c-1.976-0.006-3.475-0.443-4.719-1.237c-1.373-0.886-2.471-2.034-3.364-3.554c-0.93-1.6-1.643-3.43-2.104-5.56
		c-0.488-2.176-0.73-4.409-0.73-6.683c0-2.275,0.242-4.506,0.723-6.682c0.47-2.134,1.183-3.977,2.116-5.57
		c0.89-1.521,1.982-2.655,3.36-3.543c1.248-0.796,2.747-1.235,4.719-1.241c1.973,0.006,3.459,0.44,4.726,1.241
		c1.364,0.888,2.457,2.029,3.355,3.545c0.925,1.591,1.642,3.435,2.113,5.566c0.479,2.177,0.721,4.409,0.721,6.684
		C217.09,38.863,216.849,41.096,216.364,43.267 M195.353,48.671c-0.559-0.155-0.963-0.372-1.236-0.636
		c0.057-0.051,0.273-0.358,0.639-0.916c0.265-0.346,0.494-0.516,0.676-0.516C195.378,46.657,195.353,47.344,195.353,48.671
		 M224.184,15.804c-2.064-2.771-4.644-5.028-7.654-6.66c-3.094-1.693-6.602-2.527-10.354-2.523
		c-3.755-0.004-7.268,0.83-10.364,2.523c-3.007,1.639-5.586,3.889-7.65,6.66c-2.062,2.754-3.62,5.946-4.688,9.515
		c-1.063,3.575-1.599,7.335-1.599,11.27c0,3.977,0.531,7.763,1.599,11.333c1.067,3.574,2.626,6.767,4.688,9.524
		c2.068,2.772,4.648,5.022,7.676,6.636c3.085,1.658,6.588,2.475,10.339,2.471h0.021c3.741,0,7.235-0.816,10.312-2.475
		c3.024-1.61,5.612-3.855,7.682-6.632c2.061-2.758,3.62-5.95,4.682-9.524c1.072-3.57,1.6-7.355,1.6-11.333
		c0-3.935-0.531-7.695-1.6-11.27C227.809,21.75,226.249,18.558,224.184,15.804 M77.43,35.06l-1.546-1.511
		c0.134,0,0.47,0.059,1.011,0.18c0.544,0.116,0.894,0.18,1.058,0.18C77.603,34.437,77.43,34.822,77.43,35.06 M74.372,32.472
		l-2.705-1.153v-0.598l2.942,1.157L74.372,32.472z M68.298,43.262h-0.004c-0.428,1.931-1.059,3.6-1.862,5.09
		c0.014,0.227,0.061,0.968,0.16,2.298c0.047,1.063-0.018,1.778-0.204,2.15c-0.397,0.742-1.007,1.504-1.826,2.287
		c-0.821,0.783-1.487,1.174-1.992,1.174c-0.29,0-0.566-0.134-0.83-0.397l-1.356,1.231c0-0.635-0.104-1.045-0.315-1.231
		c-0.293,0.025-0.437,0.157-0.437,0.397c0.078-0.555-0.281-1.205-1.076-1.952c0.613-0.137,1.339-0.482,2.157-1.005
		c-0.774,0.203-1.633,0.316-2.619,0.318c-1.966-0.004-3.459-0.443-4.717-1.237c-1.37-0.888-2.462-2.032-3.361-3.554
		c-0.929-1.596-1.642-3.428-2.108-5.56c-0.483-2.178-0.721-4.409-0.721-6.681c0-2.275,0.237-4.508,0.721-6.684
		c0.467-2.136,1.18-3.982,2.108-5.566c0.899-1.524,1.987-2.661,3.37-3.547c1.248-0.796,2.742-1.235,4.708-1.241
		c1.979,0.006,3.47,0.444,4.726,1.241c1.375,0.886,2.467,2.029,3.362,3.547c0.924,1.589,1.637,3.437,2.112,5.566
		c0.476,2.173,0.717,4.409,0.717,6.684C69.011,38.861,68.77,41.096,68.298,43.262 M59.11,57.498h-0.713v-1.552h0.713V57.498z
		 M44.547,14.402l1.111-1.714L46.042,15l0.976-1.503l0.652,1.171l-1.603,0.494l0.242,1.49L44.547,14.402z M45.433,33.175
		c-0.394,0.08-0.73,0.043-0.993-0.117l-0.994,0.837V32.26c0.899,0,1.507-0.158,1.827-0.479c0.666,0.666,0.994,1.064,0.994,1.196
		C46.292,32.978,46.016,33.045,45.433,33.175 M78.16,26.112l2.64-0.792c-1.066-3.571-2.626-6.763-4.687-9.513
		c-2.074-2.778-4.653-5.026-7.66-6.662c-3.093-1.693-6.602-2.527-10.36-2.525c-3.753-0.002-7.262,0.829-10.359,2.53
		c-3.007,1.627-5.586,3.884-7.65,6.652c-2.062,2.755-3.621,5.947-4.683,9.522c-0.583,1.942-0.989,3.947-1.252,6.001l1.81-1.606
		l0.397,0.517l-2.147,1.91l-0.125-0.197c-0.173,1.521-0.286,3.064-0.286,4.643c0,3.973,0.527,7.763,1.603,11.333
		c1.059,3.574,2.622,6.765,4.683,9.522c2.07,2.777,4.652,5.022,7.676,6.636c3.084,1.658,6.588,2.475,10.333,2.471h0.026
		c3.747,0,7.232-0.816,10.317-2.473c3.02-1.612,5.603-3.857,7.677-6.634c2.06-2.758,3.62-5.948,4.687-9.524
		c1.067-3.572,1.594-7.357,1.594-11.331c0-3.937-0.527-7.697-1.594-11.268L78.16,26.112z M250.35,12.472h-0.674V9.884h0.674V12.472z
		 M249.594,12.472h-0.674V10.68h0.674V12.472z M245.697,11.315h-0.679V8.729h0.679V11.315z M245.697,15.975h-0.679v-2.229h0.679
		V15.975z M244.937,12.472h-0.674V9.884h0.674V12.472z M244.146,12.074h-0.639V9.884h0.639V12.074z M241.269,52.096l-0.634-0.278
		l0.595-1.194l0.641,0.235L241.269,52.096z M240.404,11.835h0.679v2.587h-0.679V11.835z M240.289,13.229h-0.679V9.486h0.679V13.229z
		 M239.532,12.871h-0.674V8.729h0.674V12.871z M241.161,8.331h0.674v2.19h-0.674V8.331z M272.59,39.318
		c0,1.647-0.082,3.331-0.242,5.039c-0.147,1.46-0.527,2.673-1.133,3.749c-0.539,0.952-1.33,1.755-2.617,2.481
		c-0.125,0.112-1.538,0.528-3.041,0.708c-1.529,0.212-3.283,0.318-4.636,0.318c-2.718,0.013-4.601-0.448-5.607-1.028
		c-1.278-0.724-2.082-1.531-2.613-2.467c-0.609-1.087-0.989-2.294-1.127-3.764c-0.165-1.707-0.251-3.388-0.251-5.035V6.294H236.63
		V42.29c0,3.629,0.557,6.912,1.763,9.798c0.644,1.553,1.468,2.981,2.432,4.291c0.139-0.365,0.212-0.792,0.212-1.298
		c0-0.132,0.047,0.372,0.155,1.513c0.008,0.088-0.009,0.155-0.005,0.242c0.696,0.883,1.443,1.722,2.285,2.471
		c2.195,1.954,4.839,3.4,7.812,4.314c2.946,0.92,6.16,1.37,9.638,1.37c3.486-0.026,8.459-0.391,11.711-1.37
		c2.973-0.914,5.612-2.36,7.812-4.319c0.565-0.504,1.101-1.046,1.606-1.613c-0.506-0.847-0.773-1.831-0.773-2.963
		c0-1.275,0.416-2.683,1.235-4.22c0.873-1.645,1.975-2.932,3.301-3.859c-0.026,1.406-0.323,3.005-0.891,4.793
		c-0.561,1.741-0.837,2.887-0.854,3.461c0.549-0.895,1.049-1.825,1.465-2.821c1.2-2.879,1.748-6.16,1.748-9.789V6.414h-14.69V39.318
		z M306.894,10.643c-0.436,0-0.799,0.059-1.089,0.18c-0.293,0.116-0.544,0.176-0.756,0.176c0.238-0.371,0.532-1.261,0.877-2.667
		c0.13,0.267,0.329,0.573,0.592,0.917c0.428,0,0.64-0.385,0.64-1.158c0.319-0.023,1.02-0.129,2.104-0.315
		c0.286-0.052,0.501-0.077,0.735-0.114L310,0h-11.963l0.043,13.22c0.01,1.4,0.485,2.406,0.752,3.049
		c0.092,0.216,0.169,0.392,0.221,0.522c-0.151,0.277-0.25,0.393-0.275,0.412c-0.048,0.019-0.026,0.082-0.571,0.169l-2.385,0.326
		v10.056l3.132-0.433c3.699-0.408,6.117-2.534,7.819-4.728c2.16-2.588,3.244-5.868,3.224-9.385V8.589
		c-0.29,0.244-0.618,0.523-1.013,0.856C308.03,10.243,307.334,10.643,306.894,10.643"/>
	<path fill="#FFFFFF" d="M101.242,79.913h-0.183V79.21h0.183V79.913z M101.037,79.913h-0.183v-0.486h0.183V79.913z M101.232,85.707
		l-0.583,0.519l-0.098-0.15l0.572-0.508L101.232,85.707z M99.979,80.864h-0.184v-0.604h0.184V80.864z M99.979,79.599h-0.184v-0.7
		h0.184V79.599z M99.773,79.913h-0.183V79.21h0.183V79.913z M99.559,79.805h-0.174v-0.596h0.174V79.805z M98.931,79.384h-0.182
		V78.79h0.182V79.384z M98.931,83.588h-0.15l-0.239-0.453l0.15-0.065L98.931,83.588z M98.727,79.739h-0.184v0.705h0.184V79.739z
		 M98.727,84.853h-0.174l-0.128-0.484h0.183L98.727,84.853z M98.51,80.12h-0.184v-1.018h0.184V80.12z M98.671,84.011
		c-0.338-0.137-0.507-0.339-0.507-0.607c0-0.193,0.102-0.291,0.303-0.291c-0.121,0.124-0.079,0.253,0.13,0.39l0.021,0.27
		C98.624,83.865,98.644,83.946,98.671,84.011 M98.305,80.021h-0.184v-1.122h0.184V80.021z M98.09,83.232l-0.141,0.085l-0.247-0.366
		l0.14-0.097L98.09,83.232z M97.883,79.944h-0.182v1.017h0.182V79.944z M97.668,78.962h-0.172v-0.487h0.172V78.962z M97.668,79.85
		h-0.184v1.111h0.184V79.85z M97.462,79.805h-0.183v-0.485h0.183V79.805z M97.257,80.227h-0.183v-1.018h0.183V80.227z
		 M97.894,84.292c-0.171,0-0.499,0.078-0.981,0.236c0.128-0.171,0.289-0.3,0.474-0.388c0.132,0.131,0.195,0.111,0.195-0.054
		C97.582,84.224,97.686,84.292,97.894,84.292 M97.041,79.838h-0.182v0.606h0.182V79.838z M97.041,89.795h-0.15l-0.129-0.248
		l0.15-0.055L97.041,89.795z M96.933,88.812l-0.129,0.279l-0.153-0.063l0.132-0.271L96.933,88.812z M97.106,86.399
		c0,0.498-0.066,1.076-0.194,1.729c-0.215-0.274-0.321-0.505-0.314-0.691v-1.504C96.936,86.041,97.106,86.199,97.106,86.399
		 M96.416,91.059h-0.185v-0.593h0.185V91.059z M96.62,78.734l-0.247,0.379l-0.142-0.097l0.248-0.368L96.62,78.734z M96.091,80.8
		l-0.12,0.098l-0.248-0.248l0.097-0.11L96.091,80.8z M96.004,78.691l-0.131,0.487h-0.172l0.12-0.487H96.004z M95.043,93.75
		l-0.13,0.281l-0.151-0.063l0.13-0.271L95.043,93.75z M95.518,81.07c-0.1-0.014-0.409-0.023-0.927-0.023
		c0.28-0.136,0.492-0.29,0.636-0.462c-0.13-0.029-0.31,0.022-0.541,0.16c-0.021-0.193,0.068-0.291,0.27-0.291
		c0.109,0,0.174-0.017,0.196-0.05c0.021-0.031,0.043-0.07,0.063-0.113c-0.051-0.099-0.063-0.176-0.042-0.227
		c0.059-0.1,0.085-0.249,0.085-0.444c0.016,0.073,0.068,0.182,0.163,0.324C95.464,80.004,95.497,80.377,95.518,81.07 M94.536,78.982
		c0.056,0.088,0.085,0.184,0.085,0.294c0,0.128-0.051,0.308-0.15,0.539c-0.131,0.325-0.208,0.538-0.238,0.639
		c-0.18-0.181-0.27-0.323-0.27-0.421c0-0.073,0.042-0.186,0.129-0.343c0.085-0.155,0.131-0.268,0.131-0.341
		c0,0.181,0.032,0.304,0.095,0.368c0.038-0.073,0.073-0.193,0.11-0.368C94.463,79.179,94.498,79.055,94.536,78.982 M93.054,81.178
		h-0.184V80.79h0.184V81.178z M92.093,84.95l-0.257,0.26l-0.11-0.109l0.26-0.258L92.093,84.95z M91.153,93.352l-0.129,0.354
		l-0.149-0.054l0.129-0.301H91.153z M94.374,80.681c-0.102,0.21-0.145,0.38-0.129,0.509c-0.037-0.036-0.091-0.071-0.168-0.103
		c-0.076-0.033-0.131-0.065-0.168-0.104c-0.317,0.316-0.788,0.611-1.415,0.877c-0.281,0.46-0.421,1.08-0.421,1.858
		c0,0.078,0.035,0.174,0.103,0.286c0.069,0.111,0.102,0.18,0.102,0.202c-0.165,0.163-0.168,0.265-0.01,0.3
		c0.922,0.138,1.383,0.415,1.383,0.834c0,0.195-0.113,0.346-0.335,0.452c-0.043,0.146-0.185,0.315-0.421,0.51
		c-0.276,0.238-0.53,0.357-0.768,0.357c-0.424,0-0.786-0.265-1.081-0.79c-0.23-0.42-0.346-0.786-0.346-1.104
		c0-0.775,0.321-1.706,0.961-2.788c0.591-1.008,1.243-1.794,1.956-2.357c0,0.08-0.038,0.195-0.108,0.346
		c-0.101,0.218-0.162,0.358-0.184,0.422c0.049,0.053,0.104,0.057,0.162,0.014c0.057-0.046,0.086-0.095,0.086-0.153
		c0.085,0.107,0.206,0.285,0.356,0.53c0.059,0,0.097-0.033,0.119-0.098c0.029-0.064,0.018-0.123-0.032-0.172
		c0.036,0.034,0.104,0.068,0.206,0.102C94.323,80.643,94.374,80.667,94.374,80.681 M101.393,85.404c0,0.333-0.027,0.543-0.086,0.628
		c0.081,0.172,0.12,0.335,0.12,0.487c0,0.69-0.626,1.12-1.88,1.285c0.008-0.145-0.021-0.299-0.086-0.464
		c-0.086,0.101-0.137,0.221-0.153,0.361c-0.013,0.141-0.056,0.237-0.128,0.287c-0.309,0.115-0.586,0.644-0.832,1.589
		c-0.288,1.117-0.615,1.889-0.983,2.313c-0.504,0.895-1.188,1.585-2.051,2.076c-0.815,0.455-1.687,0.68-2.614,0.68
		c-0.339,0-0.991-0.085-1.956-0.26c-0.453-0.077-0.898-0.309-1.338-0.69c-0.469-0.404-0.703-0.802-0.703-1.2
		c0-0.244,0.188-0.605,0.562-1.081c0.382-0.504,0.71-0.757,0.984-0.757h0.539c0.152,1.125,0.264,1.795,0.336,2.01
		c0.273,0.828,0.782,1.245,1.523,1.245c0.366,0,0.797-0.236,1.285-0.702c0.49-0.47,0.799-0.933,0.93-1.396
		c-0.009,0.095,0,0.373,0.021,0.844l0.236-0.142l-0.107-1.297c0.137-0.405,0.281-0.895,0.431-1.47v-0.585
		c-0.337,0.015-1.073,0.261-2.204,0.734c0.319-0.829,0.865-1.569,1.644-2.228c0.61-0.509,0.944-1.196,1.004-2.064
		c0.136,0.137,0.265,0.149,0.389,0.034c0-0.117-0.105-0.175-0.312-0.175c0.294-0.411,0.475-0.921,0.539-1.534
		c0.064,0,0.132,0.04,0.205,0.119c0.101,0.093,0.179,0.154,0.238,0.184c0.064-0.1,0.164-0.237,0.303-0.411
		c0.353,0.018,0.549-0.093,0.594-0.324c0.027,0.11,0.143,0.393,0.346,0.855c0.043,0,0.114-0.004,0.215-0.013h0.282
		c0.108,0,0.162-0.068,0.162-0.204c-0.123,0.887-0.112,1.589,0.031,2.106c0.131,0,0.26,0.071,0.389,0.208
		c0.058-0.046,0.225-0.204,0.498-0.478c0.173-0.164,0.378-0.287,0.617-0.368l0.258,0.207
		C100.782,85.707,101.033,85.57,101.393,85.404"/>
	<path fill="#FFFFFF" d="M108.206,92.25h-0.193v0.302h0.193V92.25z M107.86,93.017h-0.194v-0.421h0.194V93.017z M109.276,90.854
		c-0.944,0.988-1.656,1.535-2.139,1.643c0.217,0.202,0.313,0.378,0.291,0.53c0-0.064,0.039-0.102,0.119-0.107
		c0.056,0.049,0.086,0.16,0.086,0.334l0.368-0.334c0.073,0.07,0.149,0.107,0.225,0.107c0.138,0,0.318-0.107,0.542-0.319
		c0.223-0.214,0.389-0.419,0.496-0.621c0.051-0.103,0.068-0.297,0.055-0.586C109.291,91.098,109.276,90.882,109.276,90.854
		 M107.289,93.361h-0.194v-0.42h0.194V93.361z M107.061,86.399h-0.194v0.305h0.194V86.399z M103.8,86.704
		c0-0.038-0.089-0.146-0.271-0.326c-0.086,0.086-0.251,0.129-0.496,0.129v0.444l0.269-0.227c0.072,0.044,0.163,0.054,0.271,0.032
		C103.732,86.72,103.806,86.704,103.8,86.704 M108.163,85.135c-0.274,0.829-0.559,1.625-0.854,2.389
		c-0.036-0.188-0.116-0.453-0.237-0.799c-0.143,0.224-0.201,0.579-0.173,1.07c0.081,0.071,0.184,0.043,0.314-0.086
		c0,0.122-0.08,0.242-0.238,0.367c-0.064,0.346-0.217,0.975-0.453,1.891c-0.202,0.801-0.302,1.248-0.302,1.341
		c0,0.397,0.012,0.624,0.041,0.681c0.065,0.151,0.278,0.316,0.638,0.497v1.547c-0.576,0.332-0.893,0.508-0.949,0.53
		c-0.137,0.051-0.371,0.075-0.703,0.075c-1.107,0-1.664-0.649-1.664-1.946c0-0.643,0.188-1.341,0.563-2.098
		c0.519-1.043,0.813-1.692,0.885-1.945c-0.806,0.116-1.515,0.557-2.127,1.318c-0.851,1.06-1.495,1.735-1.935,2.021v-0.983
		c0.381-0.382,0.872-0.948,1.47-1.697c-0.252-0.309-0.504-0.62-0.756-0.93c-0.03-0.044-0.043-0.271-0.043-0.682
		c0-0.603,0.188-1.167,0.561-1.685c0.434-0.607,0.984-0.911,1.653-0.911c0.093,0,0.184,0.009,0.271,0.022
		c0.228,0.23,0.344,0.545,0.344,0.941c0,0.208-0.041,0.511-0.123,0.908c-0.083,0.397-0.125,0.667-0.125,0.812
		c0,0.078,0.008,0.146,0.021,0.204c1.232-0.361,2.243-1.311,3.037-2.854H108.163z"/>
	<path fill="#FFFFFF" d="M112.405,86.769c-0.044,0-0.138-0.016-0.287-0.05c-0.147-0.033-0.239-0.049-0.275-0.049l0.423,0.41
		C112.266,87.016,112.312,86.912,112.405,86.769 M113.679,82.128c0,0.269-0.13,0.545-0.394,0.834
		c-0.262,0.288-0.536,0.433-0.827,0.433h-0.354c-0.642-0.346-0.961-0.769-0.961-1.267c0-0.295,0.134-0.579,0.403-0.856
		c0.271-0.278,0.562-0.418,0.869-0.418c0.317,0,0.613,0.164,0.886,0.488C113.552,81.638,113.679,81.899,113.679,82.128
		 M111.498,86.216l-0.8-0.312v0.159l0.736,0.315L111.498,86.216z M114.22,90.907c0.021,0.094,0.032,0.19,0.032,0.292
		c0,0.621-0.483,1.342-1.447,2.162c-0.576,0.49-0.972,0.809-1.188,0.952c-0.411,0.266-0.799,0.399-1.167,0.399
		c-1.081,0-1.62-0.921-1.62-2.768c0-1.765,0.31-2.977,0.929-3.633c-0.073-0.057-0.147-0.087-0.228-0.087v-0.366
		c-0.007-0.079,0.091-0.354,0.291-0.821c0.231-0.526,0.44-0.835,0.628-0.929c-0.044-0.081-0.102-0.12-0.173-0.12
		c0.144,0,0.216-0.133,0.216-0.4c0.006,0.036,0.05,0.111,0.128,0.228c0.008,0,0.015-0.008,0.021-0.022
		c0.009-0.015,0.009-0.06,0-0.142c-0.005-0.043,0.042-0.063,0.142-0.063s0.436-0.058,1.003-0.172
		c0.678-0.146,1.132-0.235,1.361-0.271c-0.086,0.206-0.179,0.598-0.281,1.167c-0.057,0.339-0.21,0.577-0.454,0.716
		c0.073,0.056,0.146,0.085,0.218,0.085c-0.845,2.523-1.265,3.938-1.265,4.246c0,0.347,0.251,0.773,0.755,1.278
		C112.83,92.177,113.529,91.6,114.22,90.907"/>
	<path fill="#FFFFFF" d="M119.25,88.518l-0.119-0.116l-0.282,0.278l0.107,0.119L119.25,88.518z M118.914,93.502h-0.193v0.422h0.193
		V93.502z M118.114,89.557l-0.151-0.336l-0.162,0.065l0.141,0.271H118.114z M117.652,93.578l-0.142-0.337l-0.162,0.066l0.141,0.271
		H117.652z M116.387,87.448l-0.162-0.063l-0.14,0.303l0.161,0.063L116.387,87.448z M115.932,87.644h-0.192v0.42h0.192V87.644z
		 M115.966,89.697c-0.216,0.347-0.377,0.769-0.487,1.265c-0.072-0.064-0.107-0.176-0.107-0.334c0-0.391,0.098-0.692,0.29-0.908
		h-0.44v1.34c0.129,0,0.208,0.065,0.235,0.194c-0.114,0.611-0.24,1.474-0.377,2.582c0.065-0.279,0.245-0.73,0.539-1.35
		c-0.056-0.159-0.085-0.336-0.085-0.529c0-0.259,0.068-0.639,0.205-1.137C115.875,90.296,115.953,89.92,115.966,89.697
		 M115.252,91.437h-0.206l-0.118,0.65h0.194L115.252,91.437z M114.787,89.449l-0.052-0.65h-0.205l0.064,0.65H114.787z
		 M114.884,89.664l-0.118-0.107l-0.28,0.271l0.107,0.131L114.884,89.664z M121.723,91.082l-0.151,1.146
		c0-0.166-0.062-0.248-0.185-0.248c0.102,0.482-0.572,1.133-2.019,1.955c0-0.021,0.016-0.103,0.048-0.243
		c0.034-0.141,0.048-0.254,0.048-0.34c-0.056,0-0.158-0.069-0.302-0.205c-0.036,0.035-0.04,0.132-0.01,0.291
		c0.043,0.253,0.064,0.491,0.064,0.714c-0.841,0.325-1.605,0.486-2.29,0.486c-0.986,0-1.77-0.274-2.348-0.827
		c-0.581-0.551-0.869-1.298-0.869-2.244c0-0.114,0.001-0.228,0.009-0.344c0.065-0.081,0.129-0.157,0.196-0.229
		c0.078-0.1,0.162-0.143,0.248-0.13c0,0.253,0.069,0.477,0.205,0.672h0.076c-0.067-0.167-0.114-0.56-0.14-1.18
		c-0.021-0.51-0.105-0.824-0.25-0.94c0.058-0.058,0.122-0.143,0.194-0.258c-0.022-0.253,0.003-0.599,0.076-1.038
		c0.489-0.938,1.163-1.685,2.02-2.239c0.806-0.519,1.611-0.779,2.419-0.779c1.453,0,2.182,0.633,2.182,1.894
		c0,0.778-0.364,1.432-1.092,1.957c-0.345,0.254-1.197,0.688-2.559,1.31v-0.65c0.324-0.166,0.68-0.5,1.069-1.006
		c0.419-0.547,0.626-1.008,0.626-1.382c0-0.231-0.06-0.484-0.184-0.76c-0.172-0.373-0.397-0.559-0.67-0.559
		c-0.41,0-0.833,0.299-1.274,0.895c-0.404,0.542-0.627,1.01-0.669,1.405c-0.036-0.128-0.018-0.194,0.053-0.194l-0.173-0.151
		c-0.115,0.476-0.232,0.975-0.355,1.493c-0.05-0.217-0.03-0.426,0.063-0.629l-0.172-0.172c-0.08,0.107-0.147,0.266-0.205,0.477
		c-0.058,0.209-0.127,0.37-0.206,0.485c0.165-0.014,0.412,0.008,0.744,0.065c0.051-0.051,0.103-0.184,0.151-0.4v0.669
		c0.037,0.046,0.069,0.089,0.098,0.132c0.029,0.044,0.101,0.065,0.216,0.065c0.072,0,0.108-0.018,0.108-0.056
		c0-0.015-0.008-0.035-0.021-0.065c-0.015-0.027-0.022-0.051-0.022-0.063c0.007-0.035,0.044-0.056,0.108-0.056
		c0.115,0,0.248,0.081,0.401,0.24c0.042-0.043,0.067-0.122,0.072-0.232c0.008-0.112,0.03-0.187,0.067-0.222
		c0.028,0.591-0.13,0.932-0.477,1.026c-0.12,0-0.24-0.116-0.355-0.347c-0.108,0.107-0.162,0.281-0.162,0.519
		c0,0.366,0.194,0.786,0.583,1.256c0.343,0.431,0.634,0.673,0.863,0.723c0.202,0.043,0.407,0.085,0.615,0.12
		c0.317,0.072,0.493,0.158,0.53,0.26c0.173-0.174,0.282-0.26,0.324-0.26c0.036,0,0.072,0.01,0.108,0.033l0.26-0.238
		c-0.007,0.085,0.025,0.166,0.096,0.238C119.645,92.674,120.383,92.062,121.723,91.082 M113.966,89.372l-0.236,1.166h-0.174
		l0.239-1.166H113.966z"/>
	<path fill="#FFFFFF" d="M128.18,87.166c-0.037,0-0.129,0.022-0.274,0.062c-0.149,0.039-0.241,0.06-0.276,0.06
		c0.035,0.036,0.104,0.066,0.205,0.091c0.1,0.025,0.168,0.057,0.206,0.093C128.04,87.405,128.086,87.304,128.18,87.166
		 M127.768,94.064h-0.194v-0.412h0.194V94.064z M128.071,87.945c-0.202-0.301-0.385-0.455-0.552-0.455v0.433
		C127.929,87.923,128.114,87.931,128.071,87.945 M127.758,86.195l-0.282,0.291l-0.106-0.13l0.269-0.269L127.758,86.195z
		 M128.071,91.069c-0.006,0.008-0.014,0.017-0.022,0.021c-0.215,0-0.507,0.005-0.875,0.012c0.05-0.209,0.112-0.314,0.183-0.314
		c0.087,0.087,0.222,0.149,0.401,0.184C127.937,91.009,128.042,91.04,128.071,91.069 M127.532,88.931l-0.119-0.11l-0.39,0.39
		l0.108,0.118L127.532,88.931z M127.088,86.604l-0.151,0.1l-0.269-0.401l0.149-0.107L127.088,86.604z M126.861,91.286l-0.163-0.054
		l-0.139,0.292l0.152,0.065L126.861,91.286z M126.785,87.124c-0.244,0-0.485,0.115-0.723,0.347c-0.03-0.181,0.145-0.438,0.517-0.767
		c-0.086,0.077-0.06,0.187,0.076,0.325c0.065-0.073,0.108-0.172,0.13-0.295V87.124z M126.463,93.331h-0.422v-0.197h0.422V93.331z
		 M131.667,90.778c0.029,0.106,0.042,0.219,0.042,0.334c0,0.722-0.538,1.493-1.618,2.313c-0.965,0.744-1.679,1.107-2.14,1.093
		h-0.333c0.043-0.008,0.118-0.055,0.225-0.14c-0.128-0.022-0.302-0.121-0.516-0.292c-0.045,0.044-0.065,0.151-0.065,0.322
		c-0.136,0-0.303-0.045-0.498-0.138c-0.294-0.139-0.463-0.21-0.509-0.218c0.137-0.245,0.153-0.461,0.045-0.649
		c-0.037,0.038-0.073,0.092-0.112,0.169c-0.042,0.075-0.079,0.13-0.116,0.167c-0.048-0.181-0.064-0.407-0.043-0.682
		c0.038-0.424,0.054-0.651,0.054-0.681c-0.013,0.238,0.026,0.428,0.12,0.573c0.171-0.172,0.208-0.306,0.108-0.398l0.226,0.173
		c0.238-0.24,0.411-0.52,0.52-0.845l-0.205-0.196c-0.153,0-0.163,0.068-0.034,0.207c-0.337,0-0.518,0.006-0.539,0.021
		c0.005-0.021,0.009-0.043,0.009-0.063c0-0.028-0.005-0.079-0.015-0.15c-0.011-0.074-0.018-0.132-0.018-0.174
		c0-0.195,0.114-0.35,0.337-0.466c-0.196-0.194-0.304-0.292-0.325-0.292c0-0.035,0.019-0.105,0.058-0.209
		c0.042-0.105,0.062-0.177,0.062-0.212c-0.03,0,0.05,0.014,0.236,0.042c0.123,0.021,0.23,0.011,0.325-0.032
		c0-0.137-0.018-0.222-0.053-0.258c-0.088,0.044-0.131,0.1-0.131,0.172c0-0.021-0.028-0.095-0.086-0.221
		c-0.056-0.126-0.085-0.245-0.085-0.352c0-0.078,0.14-0.45,0.42-1.113c0.297-0.7,0.46-1.17,0.498-1.418
		c0.079-0.107,0.231-0.253,0.453-0.441c-0.129-0.122-0.237-0.14-0.324-0.054c0.022-0.073,0.08-0.181,0.173-0.325
		c0,0.087,0.069,0.198,0.208,0.336c0.041-0.029,0.08-0.054,0.116-0.077c0.037-0.02,0.056-0.089,0.056-0.205
		c0-0.238-0.056-0.411-0.162-0.52c-0.05,0.152-0.091,0.229-0.12,0.229c-0.1,0-0.164-0.039-0.188-0.113
		c-0.025-0.076-0.075-0.115-0.147-0.115l-0.269,0.161l-0.346,0.175c0-0.036,0.02-0.107,0.06-0.218
		c0.038-0.106,0.061-0.182,0.061-0.226c-0.009,0.072,0.077,0.107,0.257,0.107c0.093,0,0.179-0.032,0.259-0.097
		c0.123-0.11,0.206-0.174,0.248-0.194c-0.123-0.122-0.235-0.13-0.345-0.021c0.634-0.325,1.109-0.487,1.426-0.487
		c0.879,0,1.316,0.516,1.316,1.548c0,0.093-0.266,1.002-0.799,2.729c-0.531,1.726-0.799,2.639-0.799,2.738
		c0,0.491,0.175,0.735,0.52,0.735c0.31,0,0.796-0.298,1.458-0.896C131.218,91.394,131.568,91.009,131.667,90.778 M126.181,91.48
		h-0.195v0.315h0.195V91.48z M125.955,86.929l-0.119,0.759h-0.194l0.118-0.759H125.955z M125.533,87.255
		c0.029,0.108,0.043,0.221,0.043,0.333c0,0.348-0.188,0.74-0.561,1.181c-0.562,0.646-0.865,1.01-0.908,1.079
		c-0.3,0.504-0.489,1.207-0.561,2.109c-0.021,0.266-0.032,0.93-0.032,1.99c-0.167,0.063-0.993,0.257-2.484,0.583v-4.132
		c-0.008-0.351,0.236-1.198,0.734-2.539c0.403-1.103,0.701-1.856,0.896-2.26c0.986-0.201,1.837-0.407,2.549-0.616
		c-0.294,0.864-0.598,1.823-0.906,2.876v0.422C124.713,88.008,125.123,87.665,125.533,87.255"/>
	<path fill="#FFFFFF" d="M134.167,88.217h-0.214v0.452h0.214V88.217z M137.765,87.653c0-1.017-0.341-1.523-1.026-1.523
		c-0.611,0-1.154,0.42-1.631,1.264c-0.308,0.635-0.62,1.27-0.929,1.902c-0.071-0.078-0.081-0.15-0.032-0.215
		c-0.209-0.064-0.453-0.161-0.734-0.291c0.058,0.057,0.058,0.116,0,0.184c-0.049,0.057-0.108,0.087-0.172,0.087
		c-0.086-0.087-0.128-0.21-0.128-0.369c-0.176,0.339-0.261,0.519-0.261,0.54c0-0.069,0.035-0.133,0.108-0.185
		c-0.015,0.184-0.086,0.354-0.214,0.514c-0.133,0.165-0.196,0.237-0.196,0.223c0,0.123,0.101,0.265,0.302,0.422
		c0.244,0.188,0.372,0.287,0.376,0.304c0-0.246-0.106-0.505-0.321-0.778c0.286-0.146,0.633-0.372,1.036-0.684
		c0.122,0.253,0.169,0.475,0.14,0.662c-0.12,0.778-0.183,1.277-0.183,1.501c0,0.996,0.316,1.493,0.951,1.493
		c0.807,0,1.525-0.748,2.158-2.25C137.512,89.257,137.765,88.324,137.765,87.653 M132.818,91.642l-0.129,0.12l-0.421-0.422
		l0.13-0.13L132.818,91.642z M132.526,92.866h-0.323V92.66h0.323V92.866z M132.344,92.442h-0.205v-0.453h0.205V92.442z
		 M142.475,91.005c0-0.014,0.018,0.154,0.055,0.509c0.028,0.244,0.002,0.427-0.076,0.553c-0.469,0.704-1.188,1.388-2.161,2.052
		c-0.512,0.354-1.029,0.529-1.555,0.529c-0.547,0-0.954-0.373-1.221-1.125c-0.143-0.516-0.284-1.037-0.421-1.557
		c-0.913,1.091-1.652,1.818-2.216,2.185c0-0.063-0.024-0.114-0.073-0.151c-0.058-0.036-0.113-0.022-0.162,0.032
		c0.094-0.252,0.06-0.695-0.098-1.328c-0.042,0.172-0.064,0.727-0.064,1.663c-0.146,0.188-0.371,0.278-0.68,0.271h-0.876
		c0-0.252-0.033-0.414-0.098-0.487c-0.128,0-0.195,0.124-0.195,0.368c-0.287-0.289-0.431-0.443-0.431-0.465
		c0.245,0,0.399-0.033,0.465-0.097c0-0.037-0.069-0.129-0.206-0.276c-0.138-0.149-0.227-0.261-0.27-0.341
		c0.215,0,0.356,0.029,0.419,0.086c0.08-0.049,0.133-0.194,0.153-0.432c0.013-0.273,0.064-0.472,0.15-0.594
		c-0.058-0.052-0.215-0.077-0.476-0.077c0-0.202,0.036-0.339,0.108-0.411c-0.281-0.214-0.479-0.322-0.595-0.322
		c0-0.245,0.167-0.628,0.496-1.147c-0.077-0.329-0.046-0.498,0.099-0.498c-0.058-0.055-0.123-0.072-0.194-0.052
		c-0.072,0.022-0.11,0.065-0.11,0.13c0.038-0.288,0.038-0.471,0-0.543c0,0.023,0.046,0.085,0.131,0.184
		c0.273-0.142,0.412-0.348,0.412-0.616c0-0.475-0.063-0.839-0.185-1.091c-0.108,0.165-0.163,0.325-0.163,0.476
		c0,0.115,0.025,0.237,0.077,0.367c-0.043-0.057-0.196-0.15-0.455-0.28c0.858-1.182,1.574-1.984,2.151-2.41
		c0.641-0.47,1.398-0.704,2.278-0.704c0.448,0,0.712,0.012,0.798,0.034c0.196,0.056,0.452,0.248,0.769,0.573
		c0.351-1.185,0.871-3.328,1.555-6.435c0.099,0,0.289-0.043,0.566-0.129c0.278-0.085,0.465-0.128,0.563-0.128
		c0.096,0,0.221-0.021,0.371-0.062c0.152-0.04,0.273-0.059,0.366-0.059c0.491,0,0.794,0.055,0.91,0.163l-2.679,12.193
		c0,0.765,0.205,1.146,0.615,1.146C140.721,92.703,141.438,92.138,142.475,91.005 M131.771,93.677
		c-0.453-0.771-0.681-1.397-0.681-1.882c0-0.122,0.228-1.076,0.681-2.864V93.677z"/>
	<path fill="#FFFFFF" d="M148.047,80.585c-0.195-0.167-0.385-0.251-0.574-0.251c-0.619,1.061-1.123,2.273-1.511,3.642
		c-0.217,0.774-0.482,1.983-0.799,3.635c1.936-2.342,2.905-4.507,2.905-6.498C148.068,80.933,148.061,80.756,148.047,80.585
		 M145.258,87.989l-0.063-0.174l-0.281,0.15v0.185L145.258,87.989z M144.58,88.94l-0.141-0.573h-0.215l0.141,0.573H144.58z
		 M144.083,88.769l-0.174-0.067l-0.162,0.315l0.174,0.074L144.083,88.769z M149.095,90.788c0.056,0.679,0.056,1.071,0,1.178
		c-0.201,0.349-0.812,0.856-1.824,1.525c-1.051,0.707-1.79,1.055-2.216,1.049h-1.124c-0.043-0.786-0.139-2.047-0.291-3.783
		c-0.136-1.579-0.205-2.399-0.205-2.467c0-0.171,0.011-0.53,0.034-1.067c0.07-0.053,0.146-0.103,0.226-0.151
		c0.121-0.109,0.168-0.251,0.14-0.423c-0.021,0.022-0.092,0.072-0.216,0.151c-0.085,0.058-0.127,0.109-0.127,0.151
		c0-0.123-0.03-0.392-0.087-0.812c-0.058-0.419-0.088-0.673-0.088-0.768c0-0.533,0.268-1.435,0.799-2.701
		c0.175-0.456,0.342-0.906,0.508-1.353c0.222-0.548,0.485-0.941,0.783-1.184c0.298-0.24,0.814-0.48,1.55-0.721
		c0.634-0.206,1.058-0.312,1.276-0.312c0.443,0,0.669,0.609,0.669,1.827c0,0.986-0.247,2.089-0.734,3.308
		c-0.461,1.14-1.055,2.186-1.773,3.136c0-0.172-0.062-0.259-0.184-0.259c0,0.18-0.102,0.471-0.303,0.875
		c0-0.165-0.068-0.25-0.205-0.25c-0.087,0.08-0.13,0.188-0.13,0.324c0,0.246-0.003,0.372-0.011,0.381
		c-0.188,0.165-0.442,0.448-0.767,0.852c-0.259,0.462-0.389,0.978-0.389,1.547c0,0.181,0.147,0.54,0.441,1.075
		c0.296,0.537,0.501,0.844,0.616,0.913c0.166,0.095,0.34,0.143,0.52,0.143c0.337,0,0.885-0.271,1.641-0.811
		C148.353,91.637,148.843,91.176,149.095,90.788 M142.819,90.216c-0.05,0-0.112,0.047-0.185,0.14
		c-0.101,0.153-0.157,0.234-0.171,0.247c0.071,0.073,0.185,0.131,0.334,0.176C142.797,90.418,142.805,90.23,142.819,90.216
		 M143.662,94.423c-0.606-0.174-1.063-0.703-1.373-1.592c-0.208-0.625-0.313-1.268-0.313-1.923c0-0.521,0.159-1.471,0.476-2.855
		c0.188-0.791,0.375-1.585,0.561-2.38c0,0.204,0.022,0.528,0.069,0.97c0.048,0.444,0.071,0.771,0.071,0.979
		c-0.122-0.121-0.233-0.136-0.334-0.044c0,0.303-0.007,0.388-0.022,0.251c0.015,0.107,0.083,0.161,0.206,0.161
		c0.123,0,0.193-0.02,0.216-0.054c0.021-0.036,0.045-0.056,0.074-0.056c0,0.772,0.061,1.977,0.184,3.611
		c0.123,1.565,0.185,2.356,0.185,2.379V94.423z"/>
	<path fill="#FFFFFF" d="M155.43,91.373l-0.172-0.065l-0.162,0.325l0.173,0.074L155.43,91.373z M155.202,92.519
		c0-0.034,0.017,0.102,0.043,0.412c0.017,0.164,0,0.298-0.052,0.4c0-0.175-0.043-0.262-0.131-0.262
		c-0.021,0-0.043,0.011-0.065,0.034C155.135,92.98,155.202,92.785,155.202,92.519 M152.038,85.794h-0.214v0.346h0.214V85.794z
		 M151.661,88.658h-0.217v-0.346h0.217V88.658z M151.661,88.15h-0.217v-0.463h0.217V88.15z M151.661,87.276h-0.217v-0.348h0.217
		V87.276z M151.833,88.68c0,0.043-0.017,0.125-0.052,0.245c-0.038,0.118-0.054,0.195-0.054,0.232h-0.453V88.68
		c0.063,0.067,0.158,0.099,0.282,0.099C151.676,88.778,151.769,88.747,151.833,88.68 M151.607,89.458
		c-0.079,0-0.19-0.046-0.334-0.139c0,0.028,0.021,0.15,0.063,0.368c0.03,0.121,0.017,0.205-0.029,0.248l-0.282-0.248
		c0,1.014,0.005,1.433,0.021,1.253c-0.021-0.188,0.035-0.428,0.172-0.725C151.349,89.964,151.478,89.711,151.607,89.458
		 M152.494,93.502c-0.029,0.021-0.235,0.195-0.615,0.519c-0.261,0.217-0.449,0.324-0.568,0.324c-0.119,0-0.218,0.018-0.298,0.049
		c-0.078,0.034-0.146,0.05-0.205,0.05c0.064-0.103,0.145-0.343,0.238-0.724c0.035,0.072,0.09,0.153,0.163,0.247
		c0.116,0,0.171-0.105,0.171-0.314c0.086-0.006,0.278-0.035,0.573-0.087C152.198,93.522,152.379,93.502,152.494,93.502
		 M160.012,90.95c0.006,0.066,0.009,0.136,0.009,0.205c0,0.772-0.564,1.505-1.694,2.195c-0.886,0.49-1.773,0.981-2.658,1.472
		c-0.231,1.059-0.751,2.113-1.566,3.166c-0.972,1.248-2.001,1.914-3.089,2.001c0-0.029,0.02-0.118,0.061-0.266
		c0.039-0.147,0.058-0.269,0.058-0.361c-0.259,0-0.388-0.025-0.388-0.076c0.013-0.106,0.12-0.162,0.312-0.162
		c0.103,0,0.157,0.026,0.163,0.079c0.009,0.055,0.017,0.107,0.022,0.159c0.008,0.015,0.022,0.021,0.045,0.021
		c0.013-0.015,0.022-0.118,0.022-0.315c0,0.044,0.05,0.077,0.155,0.099c0.104,0.021,0.179,0.051,0.222,0.085
		c0.057-0.055,0.057-0.117,0-0.184c-0.051-0.064-0.112-0.098-0.185-0.098c0.065-0.092,0.321-0.581,0.769-1.468
		c0.322-0.637,0.612-1.034,0.863-1.2c-0.179-0.073-0.278-0.124-0.291-0.15c-0.008-0.022,0.005-0.138,0.042-0.347
		c-0.05-0.042-0.183-0.059-0.401-0.042c-0.46,0.036-0.875,0.052-1.242,0.052c0.498-0.259,1.16-0.702,1.988-1.329
		c0.093-0.101,0.185-0.343,0.271-0.724c0.099-0.432,0.188-0.727,0.27-0.887v-0.323c-0.151-0.009-0.3,0.13-0.446,0.41l-0.257-0.26
		c-0.063,0.064-0.087,0.149-0.063,0.26c0.021,0.115,0.063,0.171,0.129,0.171c-0.015,0.137-0.119,0.206-0.313,0.206
		c-0.124,0-0.262-0.051-0.416-0.15c-0.155-0.102-0.249-0.151-0.274-0.151c1.166-0.972,2.007-2.17,2.525-3.589
		c0.339-0.959,0.679-1.915,1.016-2.865c0.453-0.778,1.311-1.167,2.57-1.167h0.541l-2.646,7.739V93.6
		C157.24,93.34,158.534,92.459,160.012,90.95 M153.25,85.417c-0.196,0.467-0.545,1.303-1.05,2.506
		c-0.128-0.129-0.274-0.138-0.44-0.021c0.064-0.158,0.129-0.316,0.192-0.475c0.11-0.245,0.248-0.397,0.422-0.465
		c-0.015-0.058-0.075-0.159-0.183-0.302c-0.079,0.087-0.119,0.167-0.119,0.248c-0.056-0.165-0.103-0.248-0.14-0.248
		c-0.078,0-0.144-0.043-0.19-0.125c-0.046-0.082-0.108-0.125-0.186-0.125c-0.188-0.035-0.282-0.048-0.282-0.031
		c0.071,0.128,0.106,0.224,0.106,0.281c0,0.078-0.028,0.16-0.085,0.248c-0.021-0.059-0.123-0.213-0.312-0.465
		c-0.157-0.218-0.238-0.375-0.238-0.476c0-0.137,0.267-0.271,0.798-0.401c0.47-0.107,0.815-0.157,1.039-0.149H153.25z
		 M150.906,99.989h-0.217v-0.336h0.217V99.989z M150.592,100c-0.828-0.288-1.242-0.812-1.242-1.566c0-0.348,0.111-0.729,0.333-1.146
		c0.239-0.449,0.537-0.798,0.897-1.05c-0.008,0.382-0.087,0.817-0.242,1.303c-0.158,0.487-0.232,0.806-0.232,0.957
		c0,0.323,0.162,0.542,0.485,0.658V100z M150.453,94.453h-0.931c-0.697-0.438-1.046-1.315-1.046-2.627
		c0-0.886,0.212-1.877,0.636-2.973c0.448-1.022,0.894-2.047,1.341-3.069V94.453z"/>
	<path fill="#FFFFFF" d="M167.51,88.217h-0.215v0.452h0.215V88.217z M171.106,87.653c0-1.017-0.341-1.523-1.026-1.523
		c-0.611,0-1.153,0.42-1.631,1.264c-0.308,0.635-0.62,1.27-0.927,1.902c-0.073-0.078-0.082-0.15-0.033-0.215
		c-0.21-0.064-0.454-0.161-0.735-0.291c0.058,0.057,0.058,0.116,0,0.184c-0.05,0.057-0.108,0.087-0.172,0.087
		c-0.086-0.087-0.129-0.21-0.129-0.369c-0.175,0.339-0.261,0.519-0.261,0.54c0-0.069,0.035-0.133,0.107-0.185
		c-0.013,0.184-0.085,0.354-0.213,0.514c-0.133,0.165-0.196,0.237-0.196,0.223c0,0.123,0.103,0.265,0.302,0.422
		c0.244,0.188,0.371,0.287,0.377,0.304c0-0.246-0.106-0.505-0.321-0.778c0.286-0.146,0.633-0.372,1.035-0.684
		c0.123,0.253,0.17,0.475,0.141,0.662c-0.122,0.778-0.184,1.277-0.184,1.501c0,0.996,0.317,1.493,0.951,1.493
		c0.806,0,1.526-0.748,2.158-2.25C170.854,89.257,171.106,88.324,171.106,87.653 M166.159,91.642l-0.129,0.12l-0.422-0.422
		l0.131-0.13L166.159,91.642z M165.868,92.866h-0.325V92.66h0.325V92.866z M165.686,92.442h-0.206v-0.453h0.206V92.442z
		 M175.817,91.005c0-0.014,0.017,0.154,0.055,0.509c0.027,0.244,0.001,0.427-0.077,0.553c-0.468,0.704-1.188,1.388-2.161,2.052
		c-0.511,0.354-1.028,0.529-1.554,0.529c-0.548,0-0.955-0.373-1.224-1.125c-0.14-0.516-0.281-1.037-0.419-1.557
		c-0.912,1.091-1.653,1.818-2.216,2.185c0-0.063-0.024-0.114-0.073-0.151c-0.06-0.036-0.113-0.022-0.162,0.032
		c0.094-0.252,0.06-0.695-0.099-1.328c-0.043,0.172-0.063,0.727-0.063,1.663c-0.145,0.188-0.371,0.278-0.681,0.271h-0.875
		c0-0.252-0.033-0.414-0.097-0.487c-0.128,0-0.195,0.124-0.195,0.368c-0.288-0.289-0.434-0.443-0.434-0.465
		c0.247,0,0.401-0.033,0.467-0.097c0-0.037-0.069-0.129-0.205-0.276c-0.139-0.149-0.228-0.261-0.271-0.341
		c0.215,0,0.356,0.029,0.42,0.086c0.08-0.049,0.133-0.194,0.153-0.432c0.013-0.273,0.064-0.472,0.15-0.594
		c-0.059-0.052-0.214-0.077-0.476-0.077c0-0.202,0.035-0.339,0.108-0.411c-0.282-0.214-0.48-0.322-0.593-0.322
		c0-0.245,0.163-0.628,0.493-1.147c-0.078-0.329-0.046-0.498,0.1-0.498c-0.057-0.055-0.123-0.072-0.194-0.052
		c-0.073,0.022-0.11,0.065-0.11,0.13c0.037-0.288,0.037-0.471,0-0.543c0,0.023,0.045,0.085,0.133,0.184
		c0.274-0.142,0.411-0.348,0.411-0.616c0-0.475-0.063-0.839-0.186-1.091c-0.106,0.165-0.162,0.325-0.162,0.476
		c0,0.115,0.026,0.237,0.076,0.367c-0.043-0.057-0.195-0.15-0.454-0.28c0.856-1.182,1.573-1.984,2.149-2.41
		c0.642-0.47,1.399-0.704,2.279-0.704c0.447,0,0.712,0.012,0.798,0.034c0.195,0.056,0.451,0.248,0.769,0.573
		c0.351-1.185,0.873-3.328,1.556-6.435c0.099,0,0.288-0.043,0.566-0.129c0.276-0.085,0.464-0.128,0.562-0.128
		c0.097,0,0.22-0.021,0.373-0.062c0.151-0.04,0.271-0.059,0.365-0.059c0.491,0,0.793,0.055,0.91,0.163l-2.68,12.193
		c0,0.765,0.205,1.146,0.615,1.146C174.062,92.703,174.778,92.138,175.817,91.005 M165.112,93.677
		c-0.453-0.771-0.68-1.397-0.68-1.882c0-0.122,0.227-1.076,0.68-2.864V93.677z"/>
	<path fill="#FFFFFF" d="M178.87,86.769c-0.045,0-0.14-0.016-0.287-0.05c-0.146-0.033-0.238-0.049-0.275-0.049l0.421,0.41
		C178.729,87.016,178.777,86.912,178.87,86.769 M180.144,82.128c0,0.269-0.13,0.545-0.395,0.834
		c-0.262,0.288-0.537,0.433-0.826,0.433h-0.355c-0.641-0.346-0.961-0.769-0.961-1.267c0-0.295,0.134-0.579,0.404-0.856
		c0.269-0.278,0.559-0.418,0.869-0.418c0.317,0,0.611,0.164,0.886,0.488C180.018,81.638,180.144,81.899,180.144,82.128
		 M177.962,86.216l-0.798-0.312v0.159l0.732,0.315L177.962,86.216z M180.684,90.907c0.022,0.094,0.033,0.19,0.033,0.292
		c0,0.621-0.483,1.342-1.447,2.162c-0.578,0.49-0.972,0.809-1.188,0.952c-0.409,0.266-0.8,0.399-1.165,0.399
		c-1.082,0-1.62-0.921-1.62-2.768c0-1.765,0.307-2.977,0.928-3.633c-0.072-0.057-0.146-0.087-0.227-0.087v-0.366
		c-0.008-0.079,0.089-0.354,0.29-0.821c0.231-0.526,0.44-0.835,0.629-0.929c-0.045-0.081-0.103-0.12-0.174-0.12
		c0.143,0,0.215-0.133,0.215-0.4c0.008,0.036,0.052,0.111,0.13,0.228c0.008,0,0.016-0.008,0.021-0.022
		c0.008-0.015,0.008-0.06,0-0.142c-0.005-0.043,0.041-0.063,0.143-0.063c0.101,0,0.435-0.058,1.003-0.172
		c0.679-0.146,1.132-0.235,1.361-0.271c-0.086,0.206-0.179,0.598-0.282,1.167c-0.055,0.339-0.208,0.577-0.452,0.716
		c0.072,0.056,0.144,0.085,0.218,0.085c-0.845,2.523-1.265,3.938-1.265,4.246c0,0.347,0.252,0.773,0.755,1.278
		C179.293,92.177,179.993,91.6,180.684,90.907"/>
	<path fill="#FFFFFF" d="M187.161,87.166c-0.037,0-0.128,0.022-0.275,0.062s-0.24,0.06-0.274,0.06
		c0.034,0.036,0.104,0.066,0.204,0.091c0.101,0.025,0.17,0.057,0.204,0.093C187.02,87.405,187.066,87.304,187.161,87.166
		 M186.75,94.064h-0.194v-0.412h0.194V94.064z M187.052,87.945c-0.201-0.301-0.384-0.455-0.55-0.455v0.433
		C186.912,87.923,187.095,87.931,187.052,87.945 M186.74,86.195l-0.281,0.291l-0.108-0.13l0.271-0.269L186.74,86.195z
		 M187.052,91.069c-0.006,0.008-0.014,0.017-0.021,0.021c-0.216,0-0.509,0.005-0.874,0.012c0.05-0.209,0.109-0.314,0.182-0.314
		c0.088,0.087,0.221,0.149,0.401,0.184C186.92,91.009,187.021,91.04,187.052,91.069 M186.513,88.931l-0.119-0.11l-0.388,0.39
		l0.106,0.118L186.513,88.931z M186.069,86.604l-0.151,0.1l-0.269-0.401l0.151-0.107L186.069,86.604z M185.844,91.286l-0.163-0.054
		l-0.14,0.292l0.151,0.065L185.844,91.286z M185.767,87.124c-0.244,0-0.484,0.115-0.724,0.347c-0.027-0.181,0.146-0.438,0.519-0.767
		c-0.086,0.077-0.062,0.187,0.076,0.325c0.065-0.073,0.106-0.172,0.129-0.295V87.124z M185.444,93.331h-0.422v-0.197h0.422V93.331z
		 M190.649,90.778c0.03,0.106,0.043,0.219,0.043,0.334c0,0.722-0.54,1.493-1.619,2.313c-0.966,0.744-1.679,1.107-2.139,1.093h-0.336
		c0.043-0.008,0.119-0.055,0.228-0.14c-0.131-0.022-0.304-0.121-0.519-0.292c-0.043,0.044-0.065,0.151-0.065,0.322
		c-0.136,0-0.302-0.045-0.498-0.138c-0.293-0.139-0.462-0.21-0.507-0.218c0.139-0.245,0.151-0.461,0.045-0.649
		c-0.037,0.038-0.073,0.092-0.114,0.169c-0.041,0.075-0.078,0.13-0.113,0.167c-0.049-0.181-0.065-0.407-0.045-0.682
		c0.037-0.424,0.056-0.651,0.056-0.681c-0.013,0.238,0.024,0.428,0.12,0.573c0.172-0.172,0.209-0.306,0.106-0.398l0.227,0.173
		c0.239-0.24,0.411-0.52,0.521-0.845l-0.205-0.196c-0.153,0-0.162,0.068-0.033,0.207c-0.34,0-0.519,0.006-0.539,0.021
		c0.006-0.021,0.01-0.043,0.01-0.063c0-0.028-0.006-0.079-0.016-0.15c-0.013-0.074-0.019-0.132-0.019-0.174
		c0-0.195,0.114-0.35,0.335-0.466c-0.193-0.194-0.301-0.292-0.323-0.292c0-0.035,0.021-0.105,0.06-0.209
		c0.041-0.105,0.062-0.177,0.062-0.212c-0.032,0,0.051,0.014,0.234,0.042c0.123,0.021,0.229,0.011,0.325-0.032
		c0-0.137-0.02-0.222-0.053-0.258c-0.09,0.044-0.133,0.1-0.133,0.172c0-0.021-0.026-0.095-0.086-0.221
		c-0.056-0.126-0.086-0.245-0.086-0.352c0-0.078,0.141-0.45,0.422-1.113c0.296-0.7,0.461-1.17,0.498-1.418
		c0.076-0.107,0.229-0.253,0.454-0.441c-0.131-0.122-0.241-0.14-0.325-0.054c0.021-0.073,0.08-0.181,0.174-0.325
		c0,0.087,0.069,0.198,0.205,0.336c0.042-0.029,0.081-0.054,0.117-0.077c0.037-0.02,0.054-0.089,0.054-0.205
		c0-0.238-0.054-0.411-0.162-0.52c-0.05,0.152-0.089,0.229-0.119,0.229c-0.099,0-0.164-0.039-0.187-0.113
		c-0.026-0.076-0.074-0.115-0.147-0.115l-0.269,0.161l-0.347,0.175c0-0.036,0.021-0.107,0.06-0.218
		c0.039-0.106,0.06-0.182,0.06-0.226c-0.007,0.072,0.079,0.107,0.259,0.107c0.092,0,0.18-0.032,0.26-0.097
		c0.123-0.11,0.205-0.174,0.248-0.194c-0.123-0.122-0.237-0.13-0.347-0.021c0.636-0.325,1.109-0.487,1.426-0.487
		c0.879,0,1.317,0.516,1.317,1.548c0,0.093-0.265,1.002-0.8,2.729c-0.53,1.726-0.798,2.639-0.798,2.738
		c0,0.491,0.173,0.735,0.52,0.735c0.309,0,0.795-0.298,1.456-0.896C190.199,91.394,190.549,91.009,190.649,90.778 M185.163,91.48
		h-0.196v0.315h0.196V91.48z M184.935,86.929l-0.117,0.759h-0.195l0.119-0.759H184.935z M184.514,87.255
		c0.03,0.108,0.043,0.221,0.043,0.333c0,0.348-0.187,0.74-0.56,1.181c-0.563,0.646-0.865,1.01-0.908,1.079
		c-0.302,0.504-0.491,1.207-0.562,2.109c-0.022,0.266-0.034,0.93-0.034,1.99c-0.165,0.063-0.991,0.257-2.481,0.583v-4.132
		c-0.007-0.351,0.234-1.198,0.735-2.539c0.4-1.103,0.701-1.856,0.893-2.26c0.988-0.201,1.837-0.407,2.551-0.616
		c-0.296,0.864-0.598,1.823-0.908,2.876v0.422C183.693,88.008,184.104,87.665,184.514,87.255"/>
	<path fill="#FFFFFF" d="M195.713,88.518l-0.12-0.116l-0.279,0.278l0.106,0.119L195.713,88.518z M195.377,93.502h-0.194v0.422h0.194
		V93.502z M194.577,89.557l-0.149-0.336l-0.162,0.065l0.14,0.271H194.577z M194.114,93.578l-0.141-0.337l-0.161,0.066l0.139,0.271
		H194.114z M192.85,87.448l-0.162-0.063l-0.14,0.303l0.162,0.063L192.85,87.448z M192.395,87.644h-0.191v0.42h0.191V87.644z
		 M192.428,89.697c-0.216,0.347-0.376,0.769-0.486,1.265c-0.072-0.064-0.106-0.176-0.106-0.334c0-0.391,0.098-0.692,0.292-0.908
		h-0.443v1.34c0.129,0,0.208,0.065,0.237,0.194c-0.115,0.611-0.24,1.474-0.376,2.582c0.063-0.279,0.242-0.73,0.537-1.35
		c-0.057-0.159-0.084-0.336-0.084-0.529c0-0.259,0.066-0.639,0.205-1.137C192.34,90.296,192.415,89.92,192.428,89.697
		 M191.716,91.437h-0.204l-0.12,0.65h0.196L191.716,91.437z M191.25,89.449l-0.053-0.65h-0.205l0.065,0.65H191.25z M191.349,89.664
		l-0.119-0.107l-0.28,0.271l0.108,0.131L191.349,89.664z M198.186,91.082l-0.151,1.146c0-0.166-0.062-0.248-0.185-0.248
		c0.101,0.482-0.572,1.133-2.018,1.955c0-0.021,0.017-0.103,0.047-0.243c0.033-0.141,0.05-0.254,0.05-0.34
		c-0.058,0-0.16-0.069-0.304-0.205c-0.036,0.035-0.04,0.132-0.01,0.291c0.043,0.253,0.065,0.491,0.065,0.714
		c-0.843,0.325-1.607,0.486-2.29,0.486c-0.988,0-1.771-0.274-2.35-0.827c-0.578-0.551-0.869-1.298-0.869-2.244
		c0-0.114,0.002-0.228,0.011-0.344c0.063-0.081,0.127-0.157,0.194-0.229c0.078-0.1,0.162-0.143,0.248-0.13
		c0,0.253,0.069,0.477,0.206,0.672h0.075c-0.066-0.167-0.113-0.56-0.141-1.18c-0.019-0.51-0.104-0.824-0.247-0.94
		c0.057-0.058,0.122-0.143,0.192-0.258c-0.021-0.253,0.004-0.599,0.077-1.038c0.488-0.938,1.161-1.685,2.019-2.239
		c0.806-0.519,1.613-0.779,2.421-0.779c1.453,0,2.183,0.633,2.183,1.894c0,0.778-0.366,1.432-1.094,1.957
		c-0.345,0.254-1.197,0.688-2.558,1.31v-0.65c0.321-0.166,0.679-0.5,1.067-1.006c0.419-0.547,0.628-1.008,0.628-1.382
		c0-0.231-0.06-0.484-0.186-0.76c-0.171-0.373-0.397-0.559-0.669-0.559c-0.411,0-0.834,0.299-1.274,0.895
		c-0.404,0.542-0.628,1.01-0.669,1.405c-0.036-0.128-0.02-0.194,0.054-0.194l-0.174-0.151c-0.115,0.476-0.232,0.975-0.355,1.493
		c-0.051-0.217-0.03-0.426,0.063-0.629l-0.172-0.172c-0.078,0.107-0.147,0.266-0.205,0.477c-0.059,0.209-0.127,0.37-0.204,0.485
		c0.163-0.014,0.411,0.008,0.744,0.065c0.051-0.051,0.102-0.184,0.149-0.4v0.669c0.037,0.046,0.069,0.089,0.1,0.132
		c0.029,0.044,0.101,0.065,0.216,0.065c0.073,0,0.106-0.018,0.106-0.056c0-0.015-0.007-0.035-0.021-0.065
		c-0.013-0.027-0.021-0.051-0.021-0.063c0.008-0.035,0.041-0.056,0.106-0.056c0.116,0,0.248,0.081,0.4,0.24
		c0.043-0.043,0.069-0.122,0.075-0.232c0.008-0.112,0.028-0.187,0.065-0.222c0.027,0.591-0.131,0.932-0.476,1.026
		c-0.121,0-0.24-0.116-0.356-0.347c-0.108,0.107-0.162,0.281-0.162,0.519c0,0.366,0.195,0.786,0.583,1.256
		c0.346,0.431,0.635,0.673,0.863,0.723c0.202,0.043,0.409,0.085,0.616,0.12c0.317,0.072,0.492,0.158,0.529,0.26
		c0.172-0.174,0.282-0.26,0.324-0.26c0.036,0,0.071,0.01,0.108,0.033l0.26-0.238c-0.008,0.085,0.026,0.166,0.097,0.238
		C196.108,92.674,196.847,92.062,198.186,91.082 M190.431,89.372l-0.236,1.166h-0.173l0.236-1.166H190.431z"/>
	<path fill="#FFFFFF" d="M204.351,92.25h-0.193v0.302h0.193V92.25z M204.004,93.017h-0.191v-0.421h0.191V93.017z M205.422,90.854
		c-0.944,0.988-1.658,1.535-2.142,1.643c0.219,0.202,0.313,0.378,0.293,0.53c0-0.064,0.037-0.102,0.119-0.107
		c0.057,0.049,0.085,0.16,0.085,0.334l0.368-0.334c0.071,0.07,0.147,0.107,0.226,0.107c0.137,0,0.318-0.107,0.543-0.319
		c0.222-0.214,0.389-0.419,0.495-0.621c0.052-0.103,0.068-0.297,0.054-0.586C205.435,91.098,205.422,90.882,205.422,90.854
		 M203.432,93.361h-0.194v-0.42h0.194V93.361z M203.205,86.399h-0.192v0.305h0.192V86.399z M199.944,86.704
		c0-0.038-0.09-0.146-0.272-0.326c-0.086,0.086-0.25,0.129-0.496,0.129v0.444l0.271-0.227c0.072,0.044,0.162,0.054,0.272,0.032
		C199.877,86.72,199.952,86.704,199.944,86.704 M204.308,85.135c-0.274,0.829-0.559,1.625-0.854,2.389
		c-0.036-0.188-0.116-0.453-0.237-0.799c-0.143,0.224-0.201,0.579-0.173,1.07c0.08,0.071,0.182,0.043,0.314-0.086
		c0,0.122-0.082,0.242-0.238,0.367c-0.064,0.346-0.216,0.975-0.455,1.891c-0.2,0.801-0.302,1.248-0.302,1.341
		c0,0.397,0.014,0.624,0.043,0.681c0.064,0.151,0.277,0.316,0.638,0.497v1.547c-0.577,0.332-0.894,0.508-0.949,0.53
		c-0.139,0.051-0.372,0.075-0.705,0.075c-1.106,0-1.662-0.649-1.662-1.946c0-0.643,0.188-1.341,0.562-2.098
		c0.519-1.043,0.814-1.692,0.886-1.945c-0.808,0.116-1.516,0.557-2.128,1.318c-0.849,1.06-1.493,1.735-1.934,2.021v-0.983
		c0.382-0.382,0.87-0.948,1.469-1.697c-0.251-0.309-0.503-0.62-0.755-0.93c-0.03-0.044-0.044-0.271-0.044-0.682
		c0-0.603,0.189-1.167,0.562-1.685c0.434-0.607,0.984-0.911,1.654-0.911c0.093,0,0.182,0.009,0.27,0.022
		c0.229,0.23,0.344,0.545,0.344,0.941c0,0.208-0.041,0.511-0.122,0.908c-0.084,0.397-0.127,0.667-0.127,0.812
		c0,0.078,0.008,0.146,0.022,0.204c1.233-0.361,2.244-1.311,3.036-2.854H204.308z"/>
	<path fill="#FFFFFF" d="M91.829,86.608c0,0-1.07-0.61-1.128-1.842c-0.058-1.231,2.095-6.517,5.494-6.517
		c3.287,0,5.443,0.648,7.708,0.648c2.268,0,3.502-0.164,4.095-0.541c0.593-0.378-1.341,2.695-2.156,2.695
		c-1.186,0-8.353-0.701-9.755-0.701c-0.815,0-2.976,1.093-3.503,1.619c-0.469,0.469-1.131,2.267-0.485,2.481
		c0.646,0.216,1.811,0.159,1.552,0.889C93.392,86.069,93.069,86.555,91.829,86.608"/>
</g>
</svg>
